<svg xmlns="http://www.w3.org/2000/svg" width="61.879" height="95" viewBox="0 0 61.879 95">
  <g id="Grupo_1111983" data-name="Grupo 1111983" transform="translate(-95 -6.5)">
    <g id="Grupo_1111974" data-name="Grupo 1111974" transform="translate(96 7.5)">
      <g id="Grupo_1111969" data-name="Grupo 1111969" transform="translate(0 9.748)">
        <path id="Trazado_901460" data-name="Trazado 901460" d="M152.044,64.361V59.6H130.8v4.765c0,.826-1.171,3.386-1.963,3.623l-6.173,1.852C117.128,71.5,112,74.767,112,80.551V139.1a3.742,3.742,0,0,0,3.742,3.742h49.4a3.742,3.742,0,0,0,3.742-3.742v-6.269l-.936-1.083V82.576l.936-1.385v-.64A13.1,13.1,0,0,0,159.55,68l-6.173-1.852A1.871,1.871,0,0,1,152.044,64.361Z" transform="translate(-109.006 -59.596)" fill="#f2fbff"/>
        <path id="Trazado_901461" data-name="Trazado 901461" d="M109.074,74.878l6.387-1.916a5.777,5.777,0,0,0,4.117-5.533V62.4h-6.736v4.239a1.871,1.871,0,0,1-1.333,1.792l-6.173,1.852A13.1,13.1,0,0,0,96,82.834v.64L97.031,84.6v48.652L96,135.119v6.269a3.742,3.742,0,0,0,3.742,3.742h2.994V83.4A8.893,8.893,0,0,1,109.074,74.878Z" transform="translate(-96 -61.879)" fill="#dff6fd"/>
      </g>
      <g id="Grupo_1111970" data-name="Grupo 1111970" transform="translate(13.099)">
        <path id="Trazado_901462" data-name="Trazado 901462" d="M240.2,19.663h-4.4l-1.288-1.029L233,19.663h-3.93l-1.4-1.029-1.4,1.029h-3.93l-1.3-1.216-1.5,1.216h-1.591a.936.936,0,0,1-.936-.936V8.436a.936.936,0,0,1,.936-.936h1.591l1.519,1.778L222.333,7.5h3.93l1.4,1.216,1.4-1.216H233l1.4.842,1.4-.842h4.4a.936.936,0,0,1,.936.936V18.727A.936.936,0,0,1,240.2,19.663Z" transform="translate(-207.457 -7.5)" fill="#fff9e2"/>
        <path id="Trazado_901463" data-name="Trazado 901463" d="M166.936,7.5a.936.936,0,0,0-.936.936V18.727a.936.936,0,0,0,.936.936h4.4l1.4-1.029,1.4,1.029h2.339V7.5H174.14l-1.4,1.216-1.4-1.216Z" transform="translate(-166 -7.5)" fill="#fff5c6"/>
      </g>
      <g id="Grupo_1111971" data-name="Grupo 1111971" transform="translate(0 31.343)">
        <path id="Trazado_901464" data-name="Trazado 901464" d="M122.245,226.646h53.143v-5.614l-2.058-20.209,2.058-20.209V175H122.245L120,200.823Z" transform="translate(-115.509 -175)" fill="#fff9e2"/>
        <path id="Trazado_901465" data-name="Trazado 901465" d="M102.736,175H96v5.614l3.555,20.209L96,221.032v5.614h6.736Z" transform="translate(-96 -175)" fill="#fff5c6"/>
      </g>
      <g id="Grupo_1111972" data-name="Grupo 1111972" transform="translate(0 36.957)">
        <path id="Trazado_901466" data-name="Trazado 901466" d="M122.245,245.418h53.143V205H122.245L120,223.609Z" transform="translate(-115.509 -205)" fill="#d1f19e"/>
        <rect id="Rectángulo_405065" data-name="Rectángulo 405065" width="6.736" height="40.418" fill="#bbec6c"/>
      </g>
      <g id="Grupo_1111973" data-name="Grupo 1111973" transform="translate(16.401 42.992)">
        <path id="Trazado_901467" data-name="Trazado 901467" d="M270.326,246.472h0a8.348,8.348,0,0,0,7.95,2.229l2.359-.587a.374.374,0,0,0,.208-.588l-3.164-4.2a.375.375,0,0,1,0-.451l3.164-4.2a.374.374,0,0,0-.208-.589l-2.359-.587a8.347,8.347,0,0,0-7.95,2.229h0Z" transform="translate(-254.107 -237.256)" fill="#ffd15b"/>
        <path id="Trazado_901468" data-name="Trazado 901468" d="M218.437,242.234a17.118,17.118,0,0,1,2.846-.234c5.167,0,9.356,2.22,9.356,4.959s-4.189,4.959-9.356,4.959a17.127,17.127,0,0,1-2.841-.233Z" transform="translate(-211.927 -241.112)" fill="#ffe177"/>
        <path id="Trazado_901469" data-name="Trazado 901469" d="M190.159,252.728a12.329,12.329,0,0,0,0-9.479h0c-3.775.638-6.51,2.512-6.51,4.725s2.737,4.088,6.515,4.726Z" transform="translate(-183.649 -242.127)" fill="#ffd15b"/>
      </g>
    </g>
    <g id="Grupo_1111982" data-name="Grupo 1111982" transform="translate(96 7.5)">
      <path id="Trazado_901470" data-name="Trazado 901470" d="M198.746,19.663H166.936a.936.936,0,0,1-.936-.936V8.436a.936.936,0,0,1,.936-.936h31.811a.936.936,0,0,1,.936.936V18.727A.936.936,0,0,1,198.746,19.663Z" transform="translate(-152.901 -7.5)" fill="none" stroke="#000" stroke-linecap="round" stroke-linejoin="round" stroke-miterlimit="10" stroke-width="2"/>
      <path id="Trazado_901471" data-name="Trazado 901471" d="M342.84,105.364V91.447A13.1,13.1,0,0,0,333.505,78.9l-6.173-1.852A1.871,1.871,0,0,1,326,75.257V73" transform="translate(-282.961 -60.744)" fill="none" stroke="#000" stroke-linecap="round" stroke-linejoin="round" stroke-miterlimit="10" stroke-width="2"/>
      <path id="Trazado_901472" data-name="Trazado 901472" d="M96,298.742v20.3a3.742,3.742,0,0,0,3.742,3.742h52.394a3.742,3.742,0,0,0,3.742-3.742V280.957" transform="translate(-96 -229.787)" fill="none" stroke="#000" stroke-linecap="round" stroke-linejoin="round" stroke-miterlimit="10" stroke-width="2"/>
      <path id="Trazado_901473" data-name="Trazado 901473" d="M112.841,73v2.257a1.871,1.871,0,0,1-1.334,1.792L105.335,78.9A13.1,13.1,0,0,0,96,91.447v31.7" transform="translate(-96 -60.744)" fill="none" stroke="#000" stroke-linecap="round" stroke-linejoin="round" stroke-miterlimit="10" stroke-width="2"/>
      <g id="Grupo_1111975" data-name="Grupo 1111975" transform="translate(19.835 0.094)">
        <line id="Línea_608" data-name="Línea 608" y2="11.976" fill="none" stroke="#000" stroke-linecap="round" stroke-linejoin="round" stroke-miterlimit="10" stroke-width="2"/>
        <line id="Línea_609" data-name="Línea 609" y2="11.976" transform="translate(6.736)" fill="none" stroke="#000" stroke-linecap="round" stroke-linejoin="round" stroke-miterlimit="10" stroke-width="2"/>
        <line id="Línea_610" data-name="Línea 610" y2="11.976" transform="translate(13.473)" fill="none" stroke="#000" stroke-linecap="round" stroke-linejoin="round" stroke-miterlimit="10" stroke-width="2"/>
        <line id="Línea_611" data-name="Línea 611" y2="11.976" transform="translate(20.209)" fill="none" stroke="#000" stroke-linecap="round" stroke-linejoin="round" stroke-miterlimit="10" stroke-width="2"/>
      </g>
      <line id="Línea_612" data-name="Línea 612" x2="42.113" transform="translate(17.673 31.343)" fill="none" stroke="#000" stroke-linecap="round" stroke-linejoin="round" stroke-miterlimit="10" stroke-width="2"/>
      <line id="Línea_613" data-name="Línea 613" x2="11.03" transform="translate(0.094 31.343)" fill="none" stroke="#000" stroke-linecap="round" stroke-linejoin="round" stroke-miterlimit="10" stroke-width="2"/>
      <line id="Línea_614" data-name="Línea 614" x2="59.692" transform="translate(0.094 36.957)" fill="none" stroke="#000" stroke-linecap="round" stroke-linejoin="round" stroke-miterlimit="10" stroke-width="2"/>
      <line id="Línea_615" data-name="Línea 615" x2="59.227" transform="translate(0.326 82.989)" fill="none" stroke="#000" stroke-linecap="round" stroke-linejoin="round" stroke-miterlimit="10" stroke-width="2"/>
      <line id="Línea_616" data-name="Línea 616" x2="24.263" transform="translate(35.29 77.375)" fill="none" stroke="#000" stroke-linecap="round" stroke-linejoin="round" stroke-miterlimit="10" stroke-width="2"/>
      <line id="Línea_617" data-name="Línea 617" x2="28.415" transform="translate(0.326 77.375)" fill="none" stroke="#000" stroke-linecap="round" stroke-linejoin="round" stroke-miterlimit="10" stroke-width="2"/>
      <g id="Grupo_1111980" data-name="Grupo 1111980" transform="translate(11.123 60.534)">
        <g id="Grupo_1111978" data-name="Grupo 1111978">
          <g id="Grupo_1111976" data-name="Grupo 1111976">
            <path id="Trazado_901474" data-name="Trazado 901474" d="M155.727,333.263A2.745,2.745,0,0,1,158.481,331a2.807,2.807,0,1,1,0,5.614" transform="translate(-155.674 -331)" fill="none" stroke="#000" stroke-linecap="round" stroke-linejoin="round" stroke-miterlimit="10" stroke-width="2"/>
            <path id="Trazado_901475" data-name="Trazado 901475" d="M158.252,361a2.807,2.807,0,1,1-2.807,2.807" transform="translate(-155.445 -355.386)" fill="none" stroke="#000" stroke-linecap="round" stroke-linejoin="round" stroke-miterlimit="10" stroke-width="2"/>
          </g>
          <g id="Grupo_1111977" data-name="Grupo 1111977" transform="translate(31.068)">
            <path id="Trazado_901476" data-name="Trazado 901476" d="M334.788,358.554a11.476,11.476,0,0,0,4.037-7.469" transform="translate(-332.297 -347.327)" fill="none" stroke="#000" stroke-linecap="round" stroke-linejoin="round" stroke-miterlimit="10" stroke-width="2"/>
            <circle id="Elipse_12040" data-name="Elipse 12040" cx="3.282" cy="3.282" r="3.282" fill="none" stroke="#000" stroke-linecap="round" stroke-linejoin="round" stroke-miterlimit="10" stroke-width="2"/>
          </g>
        </g>
        <g id="Grupo_1111979" data-name="Grupo 1111979" transform="translate(14.973)">
          <path id="Trazado_901477" data-name="Trazado 901477" d="M239.69,331a11.477,11.477,0,0,0-4.037,7.469" transform="translate(-235.617 -331)" fill="none" stroke="#000" stroke-linecap="round" stroke-linejoin="round" stroke-miterlimit="10" stroke-width="2"/>
          <circle id="Elipse_12041" data-name="Elipse 12041" cx="3.282" cy="3.282" r="3.282" transform="translate(0 4.663)" fill="none" stroke="#000" stroke-linecap="round" stroke-linejoin="round" stroke-miterlimit="10" stroke-width="2"/>
        </g>
        <circle id="Elipse_12042" data-name="Elipse 12042" transform="translate(10.173 5.614)" fill="none" stroke="#000" stroke-linecap="round" stroke-linejoin="round" stroke-miterlimit="10" stroke-width="2"/>
        <circle id="Elipse_12043" data-name="Elipse 12043" transform="translate(26.265 5.614)" fill="none" stroke="#000" stroke-linecap="round" stroke-linejoin="round" stroke-miterlimit="10" stroke-width="2"/>
      </g>
      <g id="Grupo_1111981" data-name="Grupo 1111981" transform="translate(16.401 42.985)">
        <ellipse id="Elipse_12044" data-name="Elipse 12044" cx="9.356" cy="4.959" rx="9.356" ry="4.959" transform="translate(0 0.895)" fill="none" stroke="#000" stroke-linecap="round" stroke-linejoin="round" stroke-miterlimit="10" stroke-width="2"/>
        <path id="Trazado_901478" data-name="Trazado 901478" d="M218.474,243.338a12.274,12.274,0,0,1,.941,4.651,11.88,11.88,0,0,1-.9,4.708" transform="translate(-211.957 -242.193)" fill="none" stroke="#000" stroke-linecap="round" stroke-linejoin="round" stroke-miterlimit="10" stroke-width="2"/>
        <path id="Trazado_901479" data-name="Trazado 901479" d="M270.613,246.507a8.2,8.2,0,0,0,7.885,2.164l2.908-.724-3.675-4.875,3.675-4.875-2.908-.724a8.229,8.229,0,0,0-7.9,2.178" transform="translate(-254.329 -237.218)" fill="none" stroke="#000" stroke-linecap="round" stroke-linejoin="round" stroke-miterlimit="10" stroke-width="2"/>
      </g>
    </g>
  </g>
</svg>
