<svg xmlns="http://www.w3.org/2000/svg" xmlns:xlink="http://www.w3.org/1999/xlink" width="190" height="71.341" viewBox="0 0 190 71.341">
  <defs>
    <clipPath id="clip-path">
      <rect id="Rectángulo_400902" data-name="Rectángulo 400902" width="38.221" height="33.885" fill="#997b4d"/>
    </clipPath>
    <clipPath id="clip-path-2">
      <path id="path5649" d="M0-682.665H71.341v71.341H0Z" transform="translate(0 682.665)"/>
    </clipPath>
  </defs>
  <g id="Grupo_1112555" data-name="Grupo 1112555" transform="translate(-1249.657 -393)">
    <rect id="Rectángulo_402716" data-name="Rectángulo 402716" width="190" height="47" rx="10" transform="translate(1249.657 405.17)" fill="#fed57b"/>
    <g id="Rectángulo_402718" data-name="Rectángulo 402718" transform="translate(1265.657 415.17)" fill="none" stroke="#b09455" stroke-width="1">
      <rect width="158" height="49" stroke="none"/>
      <rect x="0.5" y="0.5" width="157" height="48" fill="none"/>
    </g>
    <g id="Grupo_1107842" data-name="Grupo 1107842" transform="translate(1377.58 422.965)">
      <g id="Grupo_1098724" data-name="Grupo 1098724" transform="translate(0 0)">
        <g id="Grupo_1098723" data-name="Grupo 1098723" clip-path="url(#clip-path)">
          <path id="Trazado_872910" data-name="Trazado 872910" d="M1.526.763A.763.763,0,1,1,.763,0a.763.763,0,0,1,.763.763" fill="#997b4d"/>
          <path id="Trazado_872911" data-name="Trazado 872911" d="M30.48.763A.763.763,0,1,1,29.717,0a.763.763,0,0,1,.763.763" transform="translate(-21.615)" fill="#997b4d"/>
          <path id="Trazado_872912" data-name="Trazado 872912" d="M59.433.763A.763.763,0,1,1,58.67,0a.763.763,0,0,1,.763.763" transform="translate(-43.229)" fill="#997b4d"/>
          <path id="Trazado_872913" data-name="Trazado 872913" d="M88.386.763A.763.763,0,1,1,87.623,0a.763.763,0,0,1,.763.763" transform="translate(-64.843)" fill="#997b4d"/>
          <path id="Trazado_872914" data-name="Trazado 872914" d="M117.339.763A.763.763,0,1,1,116.576,0a.763.763,0,0,1,.763.763" transform="translate(-86.457)" fill="#997b4d"/>
          <path id="Trazado_872915" data-name="Trazado 872915" d="M146.293.763A.763.763,0,1,1,145.53,0a.763.763,0,0,1,.763.763" transform="translate(-108.072)" fill="#997b4d"/>
          <path id="Trazado_872916" data-name="Trazado 872916" d="M1.526,32.678a.763.763,0,1,1-.763-.763.763.763,0,0,1,.763.763" transform="translate(0 -23.825)" fill="#997b4d"/>
          <path id="Trazado_872917" data-name="Trazado 872917" d="M30.48,32.678a.763.763,0,1,1-.763-.763.763.763,0,0,1,.763.763" transform="translate(-21.615 -23.825)" fill="#997b4d"/>
          <path id="Trazado_872918" data-name="Trazado 872918" d="M59.433,32.678a.763.763,0,1,1-.763-.763.763.763,0,0,1,.763.763" transform="translate(-43.229 -23.825)" fill="#997b4d"/>
          <path id="Trazado_872919" data-name="Trazado 872919" d="M88.386,32.678a.763.763,0,1,1-.763-.763.763.763,0,0,1,.763.763" transform="translate(-64.843 -23.825)" fill="#997b4d"/>
          <path id="Trazado_872920" data-name="Trazado 872920" d="M117.339,32.678a.763.763,0,1,1-.763-.763.763.763,0,0,1,.763.763" transform="translate(-86.457 -23.825)" fill="#997b4d"/>
          <path id="Trazado_872921" data-name="Trazado 872921" d="M146.293,32.678a.763.763,0,1,1-.763-.763.763.763,0,0,1,.763.763" transform="translate(-108.072 -23.825)" fill="#997b4d"/>
          <path id="Trazado_872922" data-name="Trazado 872922" d="M1.526,64.593a.763.763,0,1,1-.763-.763.763.763,0,0,1,.763.763" transform="translate(0 -47.651)" fill="#997b4d"/>
          <path id="Trazado_872923" data-name="Trazado 872923" d="M30.48,64.593a.763.763,0,1,1-.763-.763.763.763,0,0,1,.763.763" transform="translate(-21.615 -47.651)" fill="#997b4d"/>
          <path id="Trazado_872924" data-name="Trazado 872924" d="M59.433,64.593a.763.763,0,1,1-.763-.763.763.763,0,0,1,.763.763" transform="translate(-43.229 -47.651)" fill="#997b4d"/>
          <path id="Trazado_872925" data-name="Trazado 872925" d="M88.386,64.593a.763.763,0,1,1-.763-.763.763.763,0,0,1,.763.763" transform="translate(-64.843 -47.651)" fill="#997b4d"/>
          <path id="Trazado_872926" data-name="Trazado 872926" d="M117.339,64.593a.763.763,0,1,1-.763-.763.763.763,0,0,1,.763.763" transform="translate(-86.457 -47.651)" fill="#997b4d"/>
          <path id="Trazado_872927" data-name="Trazado 872927" d="M146.293,64.593a.763.763,0,1,1-.763-.763.763.763,0,0,1,.763.763" transform="translate(-108.072 -47.651)" fill="#997b4d"/>
          <path id="Trazado_872928" data-name="Trazado 872928" d="M1.526,96.508a.763.763,0,1,1-.763-.763.763.763,0,0,1,.763.763" transform="translate(0 -71.476)" fill="#997b4d"/>
          <path id="Trazado_872929" data-name="Trazado 872929" d="M30.48,96.508a.763.763,0,1,1-.763-.763.763.763,0,0,1,.763.763" transform="translate(-21.615 -71.476)" fill="#997b4d"/>
          <path id="Trazado_872930" data-name="Trazado 872930" d="M59.433,96.508a.763.763,0,1,1-.763-.763.763.763,0,0,1,.763.763" transform="translate(-43.229 -71.476)" fill="#997b4d"/>
          <path id="Trazado_872931" data-name="Trazado 872931" d="M88.386,96.508a.763.763,0,1,1-.763-.763.763.763,0,0,1,.763.763" transform="translate(-64.843 -71.476)" fill="#997b4d"/>
          <path id="Trazado_872932" data-name="Trazado 872932" d="M117.339,96.508a.763.763,0,1,1-.763-.763.763.763,0,0,1,.763.763" transform="translate(-86.457 -71.476)" fill="#997b4d"/>
          <path id="Trazado_872933" data-name="Trazado 872933" d="M146.293,96.508a.763.763,0,1,1-.763-.763.763.763,0,0,1,.763.763" transform="translate(-108.072 -71.476)" fill="#997b4d"/>
          <path id="Trazado_872934" data-name="Trazado 872934" d="M1.526,128.423a.763.763,0,1,1-.763-.763.763.763,0,0,1,.763.763" transform="translate(0 -95.301)" fill="#997b4d"/>
          <path id="Trazado_872935" data-name="Trazado 872935" d="M30.48,128.423a.763.763,0,1,1-.763-.763.763.763,0,0,1,.763.763" transform="translate(-21.615 -95.301)" fill="#997b4d"/>
          <path id="Trazado_872936" data-name="Trazado 872936" d="M59.433,128.423a.763.763,0,1,1-.763-.763.763.763,0,0,1,.763.763" transform="translate(-43.229 -95.301)" fill="#997b4d"/>
          <path id="Trazado_872937" data-name="Trazado 872937" d="M88.386,128.423a.763.763,0,1,1-.763-.763.763.763,0,0,1,.763.763" transform="translate(-64.843 -95.301)" fill="#997b4d"/>
          <path id="Trazado_872938" data-name="Trazado 872938" d="M117.339,128.423a.763.763,0,1,1-.763-.763.763.763,0,0,1,.763.763" transform="translate(-86.457 -95.301)" fill="#997b4d"/>
          <path id="Trazado_872939" data-name="Trazado 872939" d="M146.293,128.423a.763.763,0,1,1-.763-.763.763.763,0,0,1,.763.763" transform="translate(-108.072 -95.301)" fill="#997b4d"/>
        </g>
      </g>
    </g>
    <g id="g5643" transform="translate(1302.893 1075.665)">
      <g id="g5645" transform="translate(0 -682.665)">
        <g id="g5647" transform="translate(0 0)" clip-path="url(#clip-path-2)">
          <g id="g5653" transform="translate(27.249 54.386)">
            <path id="path5655" d="M-368.868-64.689v5.573a2.786,2.786,0,0,1-2.787,2.787h-31.735c-9.185-2.678-11.651-7.664-3.907-11.147l18.02-4.762,17.622,4.762a2.786,2.786,0,0,1,2.787,2.787" transform="translate(411.915 72.238)" fill="#fdcb89"/>
          </g>
          <g id="g5657" transform="translate(1.045 55.982)">
            <path id="path5659" d="M-297.591-122.653h-31.942a2.786,2.786,0,0,1-2.787-2.787v-5.573a2.786,2.786,0,0,1,2.787-2.787l14.351-3.166L-301.5-133.8c-1.312,3.483.543,8.468,3.907,11.147" transform="translate(332.319 136.966)" fill="#fdc072"/>
          </g>
          <g id="g5661" transform="translate(59.845 62.632)">
            <path id="path5663" d="M-35.82-17.91a2.09,2.09,0,0,1-2.09,2.09A2.09,2.09,0,0,1-40-17.91,2.09,2.09,0,0,1-37.91-20a2.09,2.09,0,0,1,2.09,2.09" transform="translate(40 20)" fill="#fab658"/>
          </g>
          <g id="g5665" transform="translate(7.315 62.632)">
            <path id="path5667" d="M-35.82-17.91a2.09,2.09,0,0,1-2.09,2.09A2.09,2.09,0,0,1-40-17.91,2.09,2.09,0,0,1-37.91-20a2.09,2.09,0,0,1,2.09,2.09" transform="translate(40 20)" fill="#f8ad3e"/>
          </g>
          <g id="g5669" transform="translate(42.174 1.582)">
            <path id="path5671" d="M-58.09-121.134a4.343,4.343,0,0,0,2.83-5.915c-1.193-3.279-4.949-7.355-6.691-8.088a1.709,1.709,0,0,0-2.182.794c-.864,1.681-1.12,7.218.073,10.5a4.343,4.343,0,0,0,5.97,2.712" transform="translate(64.869 135.27)" fill="#ace094"/>
          </g>
          <g id="g5673" transform="translate(47.442 7.008)">
            <path id="path5675" d="M-6.39-72.253A4.343,4.343,0,0,1-4.756-78.6c3.022-1.744,8.518-2.453,10.324-1.895a1.709,1.709,0,0,1,1.161,2.01c-.419,1.843-3.781,6.249-6.8,7.994a4.343,4.343,0,0,1-6.316-1.76" transform="translate(7.136 80.685)" fill="#ace094"/>
          </g>
          <g id="g5677" transform="translate(44.33 1.045)">
            <path id="path5679" d="M-26.742-150.475c-2.531-.921-3.924-3.479-2.628-7.038,1.486-4.082,5.753-9.3,7.657-10.313a1.575,1.575,0,0,1,2.272.827c.81,2,.722,8.74-.764,12.822-1.3,3.559-4.006,4.623-6.537,3.7" transform="translate(29.863 168.035)" fill="#bbe5a7"/>
          </g>
          <g id="g5681" transform="translate(39.93 10.719)">
            <path id="path5683" d="M-153.342-90.886c-1.505,2.118-7.326,7.287-8.886,7.287-6.57,0-9.688-10.3-8.886-16.5,2.929-1.8,6.439-1.735,9.946-.458,4.469,1.626,7.683,4.757,7.825,9.676" transform="translate(171.237 101.492)" fill="#fdc072"/>
          </g>
          <g id="g5685" transform="translate(33.944 12.108)">
            <path id="path5687" d="M-195.321-129.644c-1.767,4.855-7.816,10.14-12.621,13.744a5.379,5.379,0,0,1-8.463-3.081c-1.364-5.851-2.6-13.786-.835-18.642,1.289-3.542,3.109-5.841,5.235-7.151,1.268,5.65,6.749,9.9,13.319,9.9a14.733,14.733,0,0,0,4.452-.681,16,16,0,0,1-1.087,5.912" transform="translate(218.115 144.773)" fill="#fab658"/>
          </g>
          <g id="g5689" transform="translate(7.531 8.012)">
            <path id="path5691" d="M-301.417-373.731c-10.337,3.568-22.419-.4-29.284-8.578-8.507-10.138-7.239-26.864.21-34.12a9.662,9.662,0,0,1,4.627.284,3.037,3.037,0,0,0,2.376-.226,7.709,7.709,0,0,1,6.394-.506,7.705,7.705,0,0,1,4.456,4.209,3.2,3.2,0,0,0,2.411,1.873,7.711,7.711,0,0,1,5.356,3.747,7.7,7.7,0,0,1,.988,4.725,3.322,3.322,0,0,0,1.281,3.056,7.711,7.711,0,0,1,3.124,6.206,7.692,7.692,0,0,1-1.229,4.183,3.186,3.186,0,0,0-.255,2.976q.437,1.026.864,2.086a10.327,10.327,0,0,1-1.318,10.085" transform="translate(336.592 417.344)" fill="#ace094"/>
          </g>
          <g id="g5693" transform="translate(1.045 8.927)">
            <path id="path5695" d="M-356.992-365.887a10.123,10.123,0,0,1-2.475,2.335,57.233,57.233,0,0,1-6.217,3.594,10.327,10.327,0,0,1-12.719-2.9q-.7-.89-1.36-1.771a3.183,3.183,0,0,0-2.692-1.287,7.7,7.7,0,0,1-5.366-1.8,7.7,7.7,0,0,1-2.706-5.015,3.305,3.305,0,0,0-1.982-2.647,7.694,7.694,0,0,1-3.625-3.23,7.708,7.708,0,0,1-.566-6.513,3.21,3.21,0,0,0-.417-3.024,7.7,7.7,0,0,1-1.419-5.964,7.714,7.714,0,0,1,3.635-5.285,3.034,3.034,0,0,0,1.384-1.944,9.4,9.4,0,0,1,7.449-7.257c-5.555,8.083-3.888,21.11,4.619,31.248,6.865,8.182,16.357,12.3,24.455,11.451" transform="translate(398.653 408.586)" fill="#9cda82"/>
          </g>
          <g id="g5697" transform="translate(11.975 13.52)">
            <path id="path5699" d="M-238.247-306.082l-9.691,5.6L-265.879-339.4a1.685,1.685,0,0,1,2.906-1.678Z" transform="translate(266.05 341.802)" fill="#fff8e6"/>
          </g>
          <g id="g5701" transform="translate(39.93 25.77)">
            <path id="path5703" d="M-251.8-176.926a14.972,14.972,0,0,1-2.346,4.144c-2.459,2.02-8.691,3.825-11.207,3.825-8.465,0-15.831-8.27-15.831-16.735,0-4.391,3.972-9.171,9.53-11.881a27.151,27.151,0,0,1,8.193,1.765c10.389,3.78,14.768,10.347,11.661,18.882" transform="translate(281.183 197.573)" fill="#ff8f71"/>
          </g>
          <g id="g5705" transform="translate(35.709 25.758)">
            <path id="path5707" d="M-267.865-212.545a17.229,17.229,0,0,1-19.651,5.37A17.082,17.082,0,0,1-298.252-228.6c2.217-6.09,6.71-8.964,12.879-8.734a15.28,15.28,0,0,0-4.806,11.144,15.327,15.327,0,0,0,15.327,15.327,15.269,15.269,0,0,0,6.986-1.68" transform="translate(299.124 237.348)" fill="#ff7f5a"/>
          </g>
          <g id="g5709" transform="translate(43.85 22.852)">
            <path id="path5711" d="M-.443-48.228c.441,2.5,3.611,4.038,6.357,3.554,4.665-.823,7.567-6.009,7.567-6.009s-4.5-3.881-9.166-3.058c-2.747.484-5.2,3.01-4.759,5.514" transform="translate(0.495 53.857)" fill="#ace094"/>
          </g>
          <g id="g5713" transform="translate(58.293 26.267)">
            <path id="path5715" d="M-79.574-92.814c-1.948,1.634-5.362.772-7.154-1.364-3.045-3.629-1.934-9.467-1.934-9.467s5.942-.081,8.987,3.549c1.793,2.136,2.049,5.648.1,7.283" transform="translate(88.86 103.645)" fill="#ace094"/>
          </g>
          <g id="g5717" transform="translate(51.015 25.687)">
            <path id="path5719" d="M-23.65-107.137c-2.389-.87-3.349-4.257-2.4-6.878a10.878,10.878,0,0,1,4.934-5.31,2.324,2.324,0,0,1,3.352,1.22,10.878,10.878,0,0,1,.366,7.239c-.954,2.621-3.867,4.6-6.256,3.729" transform="translate(26.41 119.64)" fill="#bbe5a7"/>
          </g>
          <g id="g5721" transform="translate(16.257 48.002)">
            <path id="path5723" d="M-463.065-23.88v5.573a2.786,2.786,0,0,1-2.787,2.787h-44.276c-7.3-2.893-9.811-8.967-2.932-11.147h47.207a2.786,2.786,0,0,1,2.787,2.787" transform="translate(517.104 26.667)" fill="#ffd9a0"/>
          </g>
          <g id="g5725" transform="translate(1.045 48.002)">
            <path id="path5727" d="M-190.131-95.519h-19.4a2.786,2.786,0,0,1-2.787-2.787v-5.573a2.786,2.786,0,0,1,2.787-2.787h16.47a11.232,11.232,0,0,0,2.932,11.147" transform="translate(212.319 106.666)" fill="#fdcb89"/>
          </g>
          <g id="g5729" transform="translate(59.845 51.485)">
            <path id="path5731" d="M-35.82-17.91a2.09,2.09,0,0,1-2.09,2.09A2.09,2.09,0,0,1-40-17.91,2.09,2.09,0,0,1-37.91-20a2.09,2.09,0,0,1,2.09,2.09" transform="translate(40 20)" fill="#fdc072"/>
          </g>
          <g id="g5733" transform="translate(7.315 51.485)">
            <path id="path5735" d="M-35.82-17.91a2.09,2.09,0,0,1-2.09,2.09A2.09,2.09,0,0,1-40-17.91,2.09,2.09,0,0,1-37.91-20a2.09,2.09,0,0,1,2.09,2.09" transform="translate(40 20)" fill="#fab658"/>
          </g>
          <g id="g5737" transform="translate(42.174 1.582)">
            <path id="path5739" d="M-2.6-81.232c-.575-3.195-.276-7.172.433-8.553a1.709,1.709,0,0,1,2.182-.793,12.667,12.667,0,0,1,3.658,3.213" transform="translate(2.899 90.711)" fill="none" stroke="#000" stroke-linecap="round" stroke-linejoin="round" stroke-miterlimit="10" stroke-width="2"/>
          </g>
          <g id="g5741" transform="translate(55.246 7.008)">
            <path id="path5743" d="M0-2.6a12.716,12.716,0,0,1,4.9-.117A1.709,1.709,0,0,1,6.061-.711C5.717.8,3.39,4.04.9,6.118" transform="translate(0 2.909)" fill="none" stroke="#000" stroke-linecap="round" stroke-linejoin="round" stroke-miterlimit="10" stroke-width="2"/>
          </g>
          <g id="g5745" transform="translate(45.163 1.045)">
            <path id="path5747" d="M-78.075-111.207a28.106,28.106,0,0,0,.971-6.71,15.492,15.492,0,0,0-.495-5.231,1.576,1.576,0,0,0-2.273-.828A15.452,15.452,0,0,0-83.6-120.3a28.1,28.1,0,0,0-3.587,5.789" transform="translate(87.186 124.184)" fill="none" stroke="#000" stroke-linecap="round" stroke-linejoin="round" stroke-miterlimit="10" stroke-width="2"/>
          </g>
          <g id="g5749" transform="translate(36.607 10.719)">
            <path id="path5751" d="M0-41.731C3.318-46.849,8.359-47.5,13.393-45.67c5.571,2.029,9.192,6.393,7.343,13.64" transform="translate(0 46.601)" fill="none" stroke="#000" stroke-linecap="round" stroke-linejoin="round" stroke-miterlimit="10" stroke-width="2"/>
          </g>
          <g id="g5753" transform="translate(1.045 8.012)">
            <path id="path5755" d="M-79.317-342.675a7.719,7.719,0,0,1-1.13-3.212,3.305,3.305,0,0,0-1.982-2.647,7.694,7.694,0,0,1-3.626-3.23,7.708,7.708,0,0,1-.566-6.513,3.21,3.21,0,0,0-.416-3.024,7.7,7.7,0,0,1-1.419-5.964,7.713,7.713,0,0,1,3.635-5.285,3.034,3.034,0,0,0,1.383-1.944,9.4,9.4,0,0,1,12.076-6.972,3.037,3.037,0,0,0,2.376-.226,7.709,7.709,0,0,1,6.394-.506,7.7,7.7,0,0,1,4.456,4.209,3.2,3.2,0,0,0,2.411,1.873,7.712,7.712,0,0,1,5.356,3.747,7.7,7.7,0,0,1,.988,4.725,3.322,3.322,0,0,0,1.281,3.056,7.755,7.755,0,0,1,1.131,1.027" transform="translate(88.573 382.664)" fill="none" stroke="#000" stroke-linecap="round" stroke-linejoin="round" stroke-miterlimit="10" stroke-width="2"/>
          </g>
          <g id="g5757" transform="translate(29.36 24.494)">
            <path id="path5759" d="M-38.912,0a22.61,22.61,0,0,0-4.541,10" transform="translate(43.453)" fill="none" stroke="#000" stroke-linecap="round" stroke-linejoin="round" stroke-miterlimit="10" stroke-width="2"/>
          </g>
          <g id="g5761" transform="translate(20.354 14.452)">
            <path id="path5763" d="M-15.426,0a21.854,21.854,0,0,0-1.8,7.3" transform="translate(17.227)" fill="none" stroke="#000" stroke-linecap="round" stroke-linejoin="round" stroke-miterlimit="10" stroke-width="2"/>
          </g>
          <g id="g5765" transform="translate(24.611 18.925)">
            <path id="path5767" d="M-26.566,0a21.939,21.939,0,0,0-3.1,8.849" transform="translate(29.667)" fill="none" stroke="#000" stroke-linecap="round" stroke-linejoin="round" stroke-miterlimit="10" stroke-width="2"/>
          </g>
          <g id="g5769" transform="translate(11.596 37.134)">
            <path id="path5771" d="M0-2.036A22.638,22.638,0,0,1,10.931-.97" transform="translate(0 2.274)" fill="none" stroke="#000" stroke-linecap="round" stroke-linejoin="round" stroke-miterlimit="10" stroke-width="2"/>
          </g>
          <g id="g5773" transform="translate(8.773 22.178)">
            <path id="path5775" d="M0,0A21.823,21.823,0,0,1,7.222,2.091" fill="none" stroke="#000" stroke-linecap="round" stroke-linejoin="round" stroke-miterlimit="10" stroke-width="2"/>
          </g>
          <g id="g5777" transform="translate(9.868 29.219)">
            <path id="path5779" d="M0-.058A21.986,21.986,0,0,1,9.213,1.681" transform="translate(0 0.064)" fill="none" stroke="#000" stroke-linecap="round" stroke-linejoin="round" stroke-miterlimit="10" stroke-width="2"/>
          </g>
          <g id="g5781" transform="translate(11.975 13.52)">
            <path id="path5783" d="M-128.209-295.48l-4.41-9.564-3.446-7.473-3.086-6.7h0L-143-327.557a1.685,1.685,0,0,1,2.907-1.678l5.3,7.5,4.257,6.024,4.749,6.722,7.042,9.965" transform="translate(143.171 329.962)" fill="none" stroke="#000" stroke-linecap="round" stroke-linejoin="round" stroke-miterlimit="10" stroke-width="2"/>
          </g>
          <g id="g5785" transform="translate(38.989 26.489)">
            <path id="path5787" d="M0-31.056A11.185,11.185,0,0,1,5.137-34.68" transform="translate(0 34.68)" fill="none" stroke="#000" stroke-linecap="round" stroke-linejoin="round" stroke-miterlimit="10" stroke-width="2"/>
          </g>
          <g id="g5789" transform="translate(35.709 34.381)">
            <path id="path5791" d="M-18.557-116.713a16.708,16.708,0,0,1-1.293-13.5l.046-.123" transform="translate(20.723 130.333)" fill="none" stroke="#000" stroke-linecap="round" stroke-linejoin="round" stroke-miterlimit="10" stroke-width="2"/>
          </g>
          <g id="g5793" transform="translate(68.522 35.426)">
            <path id="path5795" d="M-1.421,0C.456,3.132.722,6.828-.794,10.991a13.915,13.915,0,0,1-.793,1.775" transform="translate(1.587)" fill="none" stroke="#000" stroke-linecap="round" stroke-linejoin="round" stroke-miterlimit="10" stroke-width="2"/>
          </g>
          <g id="g5797" transform="translate(58.296 21.907)">
            <path id="path5799" d="M0-33.683a9.29,9.29,0,0,1,4.931-3.931" transform="translate(0 37.613)" fill="none" stroke="#000" stroke-linecap="round" stroke-linejoin="round" stroke-miterlimit="10" stroke-width="2"/>
          </g>
          <g id="g5801" transform="translate(43.851 22.852)">
            <path id="path5803" d="M-116.141-24.312c-1.223-.922-4.928-3.4-8.743-2.723-2.746.484-5.2,3.01-4.758,5.514s3.61,4.038,6.357,3.553a7.392,7.392,0,0,0,.968-.24" transform="translate(129.695 27.149)" fill="none" stroke="#000" stroke-linecap="round" stroke-linejoin="round" stroke-miterlimit="10" stroke-width="2"/>
          </g>
          <g id="g5805" transform="translate(59.032 26.282)">
            <path id="path5807" d="M-6.9-74.087a7.313,7.313,0,0,0,.588.805c1.793,2.137,5.207,3,7.155,1.366s1.69-5.147-.1-7.283c-2.489-2.966-6.914-3.454-8.447-3.534" transform="translate(7.707 82.733)" fill="none" stroke="#000" stroke-linecap="round" stroke-linejoin="round" stroke-miterlimit="10" stroke-width="2"/>
          </g>
          <g id="g5809" transform="translate(51.015 25.687)">
            <path id="path5811" d="M-23.65-107.137c-2.389-.87-3.349-4.257-2.4-6.878a10.878,10.878,0,0,1,4.934-5.31,2.324,2.324,0,0,1,3.352,1.22,10.878,10.878,0,0,1,.366,7.239C-18.348-108.246-21.261-106.268-23.65-107.137Z" transform="translate(26.41 119.64)" fill="none" stroke="#000" stroke-linecap="round" stroke-linejoin="round" stroke-miterlimit="10" stroke-width="2"/>
          </g>
          <g id="g5813" transform="translate(19.75 48.002)">
            <path id="path5815" d="M0,0H47.759a2.786,2.786,0,0,1,2.787,2.787V8.36a2.786,2.786,0,0,1-2.787,2.787H30.724" fill="none" stroke="#000" stroke-linecap="round" stroke-linejoin="round" stroke-miterlimit="10" stroke-width="2"/>
          </g>
          <g id="g5817" transform="translate(1.045 48.002)">
            <path id="path5819" d="M-118.492,0h-11.041a2.786,2.786,0,0,0-2.787,2.787V8.36a2.786,2.786,0,0,0,2.787,2.787h41.765" transform="translate(132.32)" fill="none" stroke="#000" stroke-linecap="round" stroke-linejoin="round" stroke-miterlimit="10" stroke-width="2"/>
          </g>
          <g id="g5821" transform="translate(59.845 51.485)">
            <path id="path5823" d="M-35.82-17.91a2.09,2.09,0,0,1-2.09,2.09A2.09,2.09,0,0,1-40-17.91,2.09,2.09,0,0,1-37.91-20,2.09,2.09,0,0,1-35.82-17.91Z" transform="translate(40 20)" fill="none" stroke="#000" stroke-linecap="round" stroke-linejoin="round" stroke-miterlimit="10" stroke-width="2"/>
          </g>
          <g id="g5825" transform="translate(7.315 51.485)">
            <path id="path5827" d="M-35.82-17.91a2.09,2.09,0,0,1-2.09,2.09A2.09,2.09,0,0,1-40-17.91,2.09,2.09,0,0,1-37.91-20,2.09,2.09,0,0,1-35.82-17.91Z" transform="translate(40 20)" fill="none" stroke="#000" stroke-linecap="round" stroke-linejoin="round" stroke-miterlimit="10" stroke-width="2"/>
          </g>
          <g id="g5829" transform="translate(1.045 59.149)">
            <path id="path5831" d="M-164.941,0H-181.4a2.787,2.787,0,0,0-2.787,2.787V8.36a2.787,2.787,0,0,0,2.787,2.787h63.677a2.787,2.787,0,0,0,2.787-2.787V2.787A2.787,2.787,0,0,0-117.725,0h-11.748" transform="translate(184.189 0)" fill="none" stroke="#000" stroke-linecap="round" stroke-linejoin="round" stroke-miterlimit="10" stroke-width="2"/>
          </g>
          <g id="g5833" transform="translate(59.845 62.632)">
            <path id="path5835" d="M-35.82-17.91a2.09,2.09,0,0,1-2.09,2.09A2.09,2.09,0,0,1-40-17.91,2.09,2.09,0,0,1-37.91-20,2.09,2.09,0,0,1-35.82-17.91Z" transform="translate(40 20)" fill="none" stroke="#000" stroke-linecap="round" stroke-linejoin="round" stroke-miterlimit="10" stroke-width="2"/>
          </g>
          <g id="g5837" transform="translate(7.315 62.632)">
            <path id="path5839" d="M-35.82-17.91a2.09,2.09,0,0,1-2.09,2.09A2.09,2.09,0,0,1-40-17.91,2.09,2.09,0,0,1-37.91-20,2.09,2.09,0,0,1-35.82-17.91Z" transform="translate(40 20)" fill="none" stroke="#000" stroke-linecap="round" stroke-linejoin="round" stroke-miterlimit="10" stroke-width="2"/>
          </g>
          <g id="g5841" transform="translate(26.969 52.241)">
            <path id="path5843" d="M0,0V1.672" fill="none" stroke="#000" stroke-linecap="round" stroke-linejoin="round" stroke-miterlimit="10" stroke-width="2"/>
          </g>
          <g id="g5845" transform="translate(44.372 52.241)">
            <path id="path5847" d="M0,0V1.672" fill="none" stroke="#000" stroke-linecap="round" stroke-linejoin="round" stroke-miterlimit="10" stroke-width="2"/>
          </g>
          <g id="g5849" transform="translate(33.376 53.864)">
            <path id="path5851" d="M0,0A3.035,3.035,0,0,0,2.294,1.045,3.035,3.035,0,0,0,4.588,0" fill="none" stroke="#000" stroke-linecap="round" stroke-linejoin="round" stroke-miterlimit="10" stroke-width="2"/>
          </g>
        </g>
      </g>
    </g>
  </g>
</svg>
