<svg xmlns="http://www.w3.org/2000/svg" width="90.285" height="82.887" viewBox="0 0 90.285 82.887">
  <g id="Grupo_1112316" data-name="Grupo 1112316" transform="translate(-6.134 -26.431)">
    <g id="Grupo_1112314" data-name="Grupo 1112314" transform="translate(16.271 27.46)">
      <path id="Trazado_903767" data-name="Trazado 903767" d="M57.081,292.978v13.954a1.978,1.978,0,0,0,.989,1.713l12.085,6.977a1.977,1.977,0,0,0,1.977,0l13.073-7.548V291.837l-14.062-8.119L58.07,291.266A1.978,1.978,0,0,0,57.081,292.978Z" transform="translate(-57.081 -238.386)" fill="#fd8087"/>
      <path id="Trazado_903768" data-name="Trazado 903768" d="M137.592,157.3v15.1l14.062,8.119,14.062-8.119V157.3a1.978,1.978,0,0,0-.989-1.713l-12.085-6.977a1.977,1.977,0,0,0-1.977,0l-12.085,6.977A1.977,1.977,0,0,0,137.592,157.3Z" transform="translate(-123.349 -126.959)" fill="#8ac9fe"/>
      <path id="Trazado_903769" data-name="Trazado 903769" d="M216.066,292.716v16.238l13.073,7.548a1.977,1.977,0,0,0,1.977,0l12.085-6.977a1.977,1.977,0,0,0,.989-1.713V293.857a1.978,1.978,0,0,0-.989-1.713L230.128,284.6Z" transform="translate(-187.941 -239.11)" fill="#6fd7a3"/>
      <path id="Trazado_903770" data-name="Trazado 903770" d="M345.515,36.355V51.533l13.145,7.589a1.835,1.835,0,0,0,1.835,0l12.227-7.059a1.835,1.835,0,0,0,.917-1.589V36.355a1.835,1.835,0,0,0-.917-1.589l-12.227-7.059a1.835,1.835,0,0,0-1.835,0l-12.227,7.059A1.835,1.835,0,0,0,345.515,36.355Z" transform="translate(-294.491 -27.46)" fill="#fd8087"/>
      <path id="Trazado_903771" data-name="Trazado 903771" d="M82.2,319.8v4.765a13.073,13.073,0,0,1-6.537,11.322h0a15.051,15.051,0,0,1-15.051,0l-3.529-2.038v2.783a1.978,1.978,0,0,0,.989,1.713l12.085,6.977a1.977,1.977,0,0,0,1.977,0L85.2,337.772V321.534Z" transform="translate(-57.08 -268.084)" fill="#fe646f"/>
      <path id="Trazado_903772" data-name="Trazado 903772" d="M164.728,183.859l-2.019-1.165v4.194a14.062,14.062,0,0,1-7.031,12.178h0a14.062,14.062,0,0,1-14.062,0l-4.024-2.323v3.925l14.062,8.119,14.062-8.119v-15.1A1.978,1.978,0,0,0,164.728,183.859Z" transform="translate(-123.35 -155.233)" fill="#60b7ff"/>
      <path id="Trazado_903773" data-name="Trazado 903773" d="M243.2,321.842l-2.019-1.165v4.194a14.062,14.062,0,0,1-7.031,12.178h0a14.062,14.062,0,0,1-14.062,0l-4.024-2.323v3.924L229.14,346.2a1.977,1.977,0,0,0,1.977,0l12.085-6.977a1.977,1.977,0,0,0,.989-1.713V323.555A1.977,1.977,0,0,0,243.2,321.842Z" transform="translate(-187.942 -268.807)" fill="#3ec3a4"/>
      <path id="Trazado_903774" data-name="Trazado 903774" d="M372.723,63.142l-2.09-1.207v4.194A14.062,14.062,0,0,1,363.6,78.307h0a14.062,14.062,0,0,1-14.062,0l-4.024-2.323v3.925L358.661,87.5a1.835,1.835,0,0,0,1.835,0l12.227-7.059a1.835,1.835,0,0,0,.917-1.589V64.731A1.836,1.836,0,0,0,372.723,63.142Z" transform="translate(-294.492 -55.836)" fill="#fe646f"/>
      <circle id="Elipse_12060" data-name="Elipse 12060" cx="3.05" cy="3.05" r="3.05" transform="translate(25.255 18.028)" fill="#ffe177"/>
      <circle id="Elipse_12061" data-name="Elipse 12061" cx="3.05" cy="3.05" r="3.05" transform="translate(25.255 50.604)" fill="#ffe177"/>
      <circle id="Elipse_12062" data-name="Elipse 12062" cx="3.05" cy="3.05" r="3.05" transform="translate(11.192 74.757)" fill="#ffe177"/>
      <circle id="Elipse_12063" data-name="Elipse 12063" cx="3.05" cy="3.05" r="3.05" transform="translate(62.145 28.829)" fill="#ffe177"/>
    </g>
    <g id="Grupo_1112315" data-name="Grupo 1112315" transform="translate(7.5 27.46)">
      <line id="Línea_634" data-name="Línea 634" y1="5.001" x2="8.662" transform="translate(0 69.731)" fill="none" stroke="#000" stroke-linecap="round" stroke-linejoin="round" stroke-miterlimit="10" stroke-width="2"/>
      <path id="Trazado_903775" data-name="Trazado 903775" d="M154.834,369.544l10.832-6.254V350.8" transform="translate(-128.771 -293.601)" fill="none" stroke="#000" stroke-linecap="round" stroke-linejoin="round" stroke-miterlimit="10" stroke-width="2"/>
      <path id="Trazado_903776" data-name="Trazado 903776" d="M82.335,290.18l-11.192-6.462L58.07,291.266a1.977,1.977,0,0,0-.989,1.713v13.954a1.978,1.978,0,0,0,.989,1.713l10.2,5.891" transform="translate(-48.31 -238.386)" fill="none" stroke="#000" stroke-linecap="round" stroke-linejoin="round" stroke-miterlimit="10" stroke-width="2"/>
      <path id="Trazado_903777" data-name="Trazado 903777" d="M259.117,296.714v-2.856a1.978,1.978,0,0,0-.989-1.713L245.055,284.6,234.2,290.864" transform="translate(-194.098 -239.11)" fill="none" stroke="#000" stroke-linecap="round" stroke-linejoin="round" stroke-miterlimit="10" stroke-width="2"/>
      <path id="Trazado_903778" data-name="Trazado 903778" d="M216.066,394.14l13.073,7.548a1.977,1.977,0,0,0,1.977,0l12.085-6.977A1.977,1.977,0,0,0,244.19,393v-4.906" transform="translate(-179.171 -324.296)" fill="none" stroke="#000" stroke-linecap="round" stroke-linejoin="round" stroke-miterlimit="10" stroke-width="2"/>
      <path id="Trazado_903779" data-name="Trazado 903779" d="M362.736,57.828l9.986-5.765a1.835,1.835,0,0,0,.917-1.589V36.355a1.835,1.835,0,0,0-.917-1.589l-12.227-7.059a1.835,1.835,0,0,0-1.835,0l-12.227,7.059a1.835,1.835,0,0,0-.917,1.589V51.533l11.121,6.421" transform="translate(-285.72 -27.46)" fill="none" stroke="#000" stroke-linecap="round" stroke-linejoin="round" stroke-miterlimit="10" stroke-width="2"/>
      <path id="Trazado_903780" data-name="Trazado 903780" d="M245.339,179.164v-15.1a1.978,1.978,0,0,0-.989-1.713l-10.023-5.787" transform="translate(-194.201 -133.73)" fill="none" stroke="#000" stroke-linecap="round" stroke-linejoin="round" stroke-miterlimit="10" stroke-width="2"/>
      <line id="Línea_635" data-name="Línea 635" y2="5.265" transform="translate(23.013 40.17)" fill="none" stroke="#000" stroke-linecap="round" stroke-linejoin="round" stroke-miterlimit="10" stroke-width="2"/>
      <path id="Trazado_903781" data-name="Trazado 903781" d="M148.6,156.569l-10.023,5.787a1.977,1.977,0,0,0-.989,1.713v3.463" transform="translate(-114.579 -133.73)" fill="none" stroke="#000" stroke-linecap="round" stroke-linejoin="round" stroke-miterlimit="10" stroke-width="2"/>
      <line id="Línea_636" data-name="Línea 636" x2="8.663" y2="5.001" transform="translate(14.217 24.246)" fill="none" stroke="#000" stroke-linecap="round" stroke-linejoin="round" stroke-miterlimit="10" stroke-width="2"/>
      <line id="Línea_637" data-name="Línea 637" x2="8.662" y2="5.001" transform="translate(50.911 2.477)" fill="none" stroke="#000" stroke-linecap="round" stroke-linejoin="round" stroke-miterlimit="10" stroke-width="2"/>
      <line id="Línea_638" data-name="Línea 638" x1="8.662" y2="5.001" transform="translate(50.911 24.38)" fill="none" stroke="#000" stroke-linecap="round" stroke-linejoin="round" stroke-miterlimit="10" stroke-width="2"/>
      <line id="Línea_639" data-name="Línea 639" x1="8.663" y1="5.001" transform="translate(65.194 69.731)" fill="none" stroke="#000" stroke-linecap="round" stroke-linejoin="round" stroke-miterlimit="10" stroke-width="2"/>
      <circle id="Elipse_12064" data-name="Elipse 12064" cx="3.05" cy="3.05" r="3.05" transform="translate(34.025 18.028)" fill="none" stroke="#000" stroke-linecap="round" stroke-linejoin="round" stroke-miterlimit="10" stroke-width="2"/>
      <circle id="Elipse_12065" data-name="Elipse 12065" cx="3.05" cy="3.05" r="3.05" transform="translate(34.025 50.604)" fill="none" stroke="#000" stroke-linecap="round" stroke-linejoin="round" stroke-miterlimit="10" stroke-width="2"/>
      <circle id="Elipse_12066" data-name="Elipse 12066" cx="3.05" cy="3.05" r="3.05" transform="translate(19.963 74.757)" fill="none" stroke="#000" stroke-linecap="round" stroke-linejoin="round" stroke-miterlimit="10" stroke-width="2"/>
      <circle id="Elipse_12067" data-name="Elipse 12067" cx="3.05" cy="3.05" r="3.05" transform="translate(70.916 28.829)" fill="none" stroke="#000" stroke-linecap="round" stroke-linejoin="round" stroke-miterlimit="10" stroke-width="2"/>
    </g>
  </g>
</svg>
