<svg xmlns="http://www.w3.org/2000/svg" xmlns:xlink="http://www.w3.org/1999/xlink" width="90.051" height="90.051" viewBox="0 0 90.051 90.051">
  <defs>
    <filter id="Rectángulo_400898" x="0" y="0" width="90.051" height="90.051" filterUnits="userSpaceOnUse">
      <feOffset dy="3" input="SourceAlpha"/>
      <feGaussianBlur stdDeviation="3" result="blur"/>
      <feFlood flood-opacity="0.161"/>
      <feComposite operator="in" in2="blur"/>
      <feComposite in="SourceGraphic"/>
    </filter>
  </defs>
  <g id="Grupo_1112099" data-name="Grupo 1112099" transform="translate(-326.73 -3826.949)">
    <g id="Grupo_1098742" data-name="Grupo 1098742" transform="translate(335.73 3832.949)">
      <g transform="matrix(1, 0, 0, 1, -9, -6)" filter="url(#Rectángulo_400898)">
        <g id="Rectángulo_400898-2" data-name="Rectángulo 400898" transform="translate(9 6)" fill="#b4d1f0" stroke="#fff" stroke-width="3" opacity="0.859">
          <rect width="72.051" height="72.051" rx="36.025" stroke="none"/>
          <rect x="1.5" y="1.5" width="69.051" height="69.051" rx="34.525" fill="none"/>
        </g>
      </g>
      <g id="Rectángulo_400907" data-name="Rectángulo 400907" transform="translate(0 0)" fill="none" stroke="#fff" stroke-width="3">
        <rect width="72.051" height="72.051" rx="36.025" stroke="none"/>
        <rect x="1.5" y="1.5" width="69.051" height="69.051" rx="34.525" fill="none"/>
      </g>
    </g>
    <g id="Grupo_1112497" data-name="Grupo 1112497" transform="translate(344.473 3841.693)">
      <path id="Trazado_904673" data-name="Trazado 904673" d="M158.235,315.915l-7.1-.552a1.6,1.6,0,0,1-1.41-1.587v-1.851H140.3v1.851a1.6,1.6,0,0,1-1.41,1.587l-7.14.534v16.552h26.483V315.915Z" transform="translate(-117.711 -278.683)" fill="#fee97d"/>
      <path id="Trazado_904674" data-name="Trazado 904674" d="M142.088,315.362a1.6,1.6,0,0,0,1.41-1.587v-1.851h-3.2v1.851a1.6,1.6,0,0,1-1.41,1.587l-7.14.534v16.552h3.2V315.9Z" transform="translate(-117.71 -278.682)" fill="#fed402"/>
      <path id="Trazado_904675" data-name="Trazado 904675" d="M150.137,49.125v4.4h22.605V47.4a3.767,3.767,0,0,0-3.767-3.767V41.753a3.767,3.767,0,0,0-3.768-3.767h-3.931A11.139,11.139,0,0,0,150.137,49.125Z" transform="translate(-134.136 -33.939)" fill="#5680a6"/>
      <path id="Trazado_904676" data-name="Trazado 904676" d="M165.045,37.986h-3.769a11.139,11.139,0,0,0-11.14,11.139v4.4h3.769v-4.4A11.139,11.139,0,0,1,165.045,37.986Z" transform="translate(-134.136 -33.939)" fill="#497090"/>
      <path id="Trazado_904677" data-name="Trazado 904677" d="M357.214,179.328l-11.324-9.861-1.628-5.745a1.239,1.239,0,0,0-2.431.338v8.692l10.216,9.931h-6.121V189.3h7.554a5.687,5.687,0,0,0,3.735-9.976Z" transform="translate(-305.4 -145.47)" fill="#fff3de"/>
      <g id="Grupo_1112495" data-name="Grupo 1112495" transform="translate(36.43 17.351)">
        <path id="Trazado_904678" data-name="Trazado 904678" d="M353.926,181.4l-8.9-8.65v-6.327l-.766-2.7a1.239,1.239,0,0,0-2.431.338v8.692l10.216,9.931h1.36A.746.746,0,0,0,353.926,181.4Z" transform="translate(-341.831 -162.821)" fill="#ffe5c2"/>
        <path id="Trazado_904679" data-name="Trazado 904679" d="M380.249,349.188h3.2v6.621h-3.2Z" transform="translate(-376.155 -329.326)" fill="#ffe5c2"/>
      </g>
      <path id="Trazado_904680" data-name="Trazado 904680" d="M9.454,179.31l11.321-9.861,1.628-5.745a1.239,1.239,0,0,1,2.431.338v8.692l-10.218,9.933,6.127,0v6.621H13.189a5.687,5.687,0,0,1-3.735-9.976Z" transform="translate(-6.703 -145.454)" fill="#fff3de"/>
      <path id="Trazado_904681" data-name="Trazado 904681" d="M10.7,183.6a5.688,5.688,0,0,1,1.952-4.289l11.321-9.861.862-3.042v-2.364a1.239,1.239,0,0,0-2.431-.338l-1.628,5.745L9.454,179.31a5.687,5.687,0,0,0,3.735,9.976h3.2A5.687,5.687,0,0,1,10.7,183.6Z" transform="translate(-6.703 -145.454)" fill="#ffe5c2"/>
      <path id="Trazado_904682" data-name="Trazado 904682" d="M187.215,142.4v-3.327a1.6,1.6,0,0,0-2.269-1.451l-5.266,2.434-5.266-2.434a1.6,1.6,0,0,0-2.269,1.451V142.4h-1.592v7.359a9.127,9.127,0,0,0,18.254,0V142.4Z" transform="translate(-152.377 -122.821)" fill="#fff3de"/>
      <path id="Trazado_904683" data-name="Trazado 904683" d="M173.75,149.757v-6.613a.746.746,0,0,1,.746-.746h.1a.746.746,0,0,0,.746-.746v-2.581a1.583,1.583,0,0,1,.273-.9l-1.2-.555a1.6,1.6,0,0,0-2.269,1.451V142.4h-1.592v7.359a9.134,9.134,0,0,0,10.725,8.987A9.129,9.129,0,0,1,173.75,149.757Z" transform="translate(-152.377 -122.821)" fill="#ffe5c2"/>
      <path id="Trazado_904684" data-name="Trazado 904684" d="M237.861,272.6a1.655,1.655,0,0,1-1.655,1.655H234.55a1.655,1.655,0,0,1,0-3.31h1.655A1.655,1.655,0,0,1,237.861,272.6Z" transform="translate(-208.075 -242.072)" fill="#fd8087"/>
      <g id="Grupo_1112496" data-name="Grupo 1112496" transform="translate(0 -0.001)">
        <path id="Trazado_904685" data-name="Trazado 904685" d="M282.594,202.027l-1.644-.648a.8.8,0,1,0-.586,1.487l1.644.648a.82.82,0,0,0,1.037-.451A.8.8,0,0,0,282.594,202.027Z" transform="translate(-250.032 -179.868)"/>
        <path id="Trazado_904686" data-name="Trazado 904686" d="M205.283,201.829a.8.8,0,0,0-1.037-.451l-1.644.648a.8.8,0,0,0-.451,1.037.82.82,0,0,0,1.037.451l1.644-.648A.8.8,0,0,0,205.283,201.829Z" transform="translate(-180.558 -179.867)"/>
        <path id="Trazado_904687" data-name="Trazado 904687" d="M229.5,263.448h-1.655a2.454,2.454,0,1,0,0,4.909H229.5a2.454,2.454,0,1,0,0-4.909Zm0,3.31h-1.655a.856.856,0,1,1,0-1.712H229.5a.856.856,0,1,1,0,1.712Z" transform="translate(-201.374 -235.371)"/>
        <path id="Trazado_904688" data-name="Trazado 904688" d="M53.982,35.461a6.435,6.435,0,0,0-1.644-2.205l-4.754-4.139a.8.8,0,1,0-1.05,1.206l4.754,4.139a4.888,4.888,0,0,1-3.21,8.574H41.324V38.012h5.322A.8.8,0,0,0,47.2,36.64l-9.974-9.695V18.59a.445.445,0,0,1,.863-.12l1.628,5.745a.8.8,0,0,0,.244.385l3.942,3.432a.8.8,0,1,0,1.05-1.206l-3.763-3.275L39.63,18.036a2.02,2.02,0,0,0-.225-.512V13.466a4.574,4.574,0,0,0-3.767-4.5c.006-.485.022-.986-.011-1.471,1.573-.311,5.7-1.054,5.7-3.388C41.323-.2,29.808,0,27.3,0a.8.8,0,1,0,0,1.6c1.016,0,12.422.062,12.422,2.511,0,1.04-3.64,1.67-4.488,1.835a4.575,4.575,0,0,0-4.167-2.7c-4.447,0-9.01-.063-13.345,1.053-5.123,1.32-6.651,4.024-1.4,5.824A15.793,15.793,0,0,0,15.2,17.452a2.022,2.022,0,0,0-.27.58l-1.563,5.516-4.943,4.3a.8.8,0,1,0,1.05,1.206L14.6,24.6a.8.8,0,0,0,.244-.385l1.627-5.745a.445.445,0,0,1,.864.119v8.354l-9.976,9.7a.8.8,0,0,0,.557,1.372h0l5.327,0v5.021H6.487a4.888,4.888,0,0,1-3.21-8.574l3.572-3.112A.8.8,0,1,0,5.8,30.141L2.227,33.253a6.487,6.487,0,0,0,4.26,11.378h6.755v9.134a.8.8,0,0,0,.8.8H25.561a.8.8,0,0,0,0-1.6H14.84V37.956l6.4-.479.035,0a2.4,2.4,0,0,0,1.943-1.491,9.922,9.922,0,0,0,8.169,0,2.4,2.4,0,0,0,1.943,1.491l.033,0,6.361.495V52.966H29.045a.8.8,0,0,0,0,1.6H40.524a.8.8,0,0,0,.8-.8V44.633h6.755a6.485,6.485,0,0,0,5.9-9.173ZM14.84,7.418c0-.148.582-.893,3.273-1.565.668-.167,1.4-.314,2.176-.438A12.038,12.038,0,0,0,17.119,8.7C15.274,8.117,14.84,7.546,14.84,7.418Zm1.96,9.135V15.187a10.278,10.278,0,0,1,1.087-4.613,41.7,41.7,0,0,0,9.4.954.8.8,0,1,0,0-1.6,41.46,41.46,0,0,1-8.522-.794,10.347,10.347,0,0,1,7.1-4.209c.469-.013,5.21-.079,5.21-.079a2.97,2.97,0,0,1,2.5,1.373,46.441,46.441,0,0,1-6.27.4.8.8,0,0,0,0,1.6,47.626,47.626,0,0,0,6.736-.452c.01.643,0,1.288,0,1.93a.8.8,0,0,0,.8.8,2.971,2.971,0,0,1,2.968,2.968v3.091a2.222,2.222,0,0,0-2.169,1.864V16.25a2.432,2.432,0,0,0-3.4-2.177L27.3,16.353l-4.93-2.279a2.432,2.432,0,0,0-3.4,2.177v2.527A2.163,2.163,0,0,0,16.8,16.553Zm4.3,19.331-7.06.528H9.884l7.7-7.481a9.951,9.951,0,0,0,4.207,6.251A.8.8,0,0,1,21.1,35.884Zm-2.125-8.948v-6.56h.792a.8.8,0,0,0,.8-.8V16.25a.8.8,0,0,1,1.135-.726l5.266,2.434a.8.8,0,0,0,.671,0L32.9,15.525a.8.8,0,0,1,1.135.726v3.327a.8.8,0,0,0,.8.8h.792v6.593a8.328,8.328,0,0,1-16.655-.033Zm14.531,8.949a.8.8,0,0,1-.687-.7,9.952,9.952,0,0,0,4.2-6.213l7.657,7.443H40.524a.8.8,0,0,0-.113.008Z" transform="translate(0 0.001)"/>
        <path id="Trazado_904689" data-name="Trazado 904689" d="M391.094,65.714a.843.843,0,0,0,1.266.192.819.819,0,1,0,1.6,0,.855.855,0,0,0,1.266-.192.869.869,0,0,0-.467-1.192.852.852,0,0,0,.467-1.192.809.809,0,0,0-1.266-.192.819.819,0,1,0-1.6,0,.827.827,0,0,0-1.266.192.871.871,0,0,0,.467,1.192A.878.878,0,0,0,391.094,65.714Z" transform="translate(-349.324 -55.515)"/>
      </g>
      <path id="Trazado_904690" data-name="Trazado 904690" d="M80.444,19.187a.843.843,0,0,0,1.266.192.819.819,0,1,0,1.6,0,.855.855,0,0,0,1.266-.192.869.869,0,0,0-.467-1.192.852.852,0,0,0,.467-1.192.809.809,0,0,0-1.266-.192.819.819,0,1,0-1.6,0,.827.827,0,0,0-1.266.192.871.871,0,0,0,.467,1.192A.878.878,0,0,0,80.444,19.187Z" transform="translate(-71.781 -13.947)"/>
    </g>
  </g>
</svg>
