<svg xmlns="http://www.w3.org/2000/svg" xmlns:xlink="http://www.w3.org/1999/xlink" width="68" height="68" viewBox="0 0 68 68">
  <defs>
    <filter id="Rectángulo_400898" x="0" y="0" width="68" height="68" filterUnits="userSpaceOnUse">
      <feOffset dy="3" input="SourceAlpha"/>
      <feGaussianBlur stdDeviation="3" result="blur"/>
      <feFlood flood-opacity="0.161"/>
      <feComposite operator="in" in2="blur"/>
      <feComposite in="SourceGraphic"/>
    </filter>
  </defs>
  <g id="Grupo_1111958" data-name="Grupo 1111958" transform="translate(-326.73 -3826.949)">
    <g id="Grupo_1098742" data-name="Grupo 1098742" transform="translate(335.781 3833)">
      <g transform="matrix(1, 0, 0, 1, -9.05, -6.05)" filter="url(#Rectángulo_400898)">
        <g id="Rectángulo_400898-2" data-name="Rectángulo 400898" transform="translate(9 6)" fill="#b4d1f0" stroke="#fff" stroke-width="3" opacity="0.859">
          <rect width="50" height="50" rx="25" stroke="none"/>
          <rect x="1.5" y="1.5" width="47" height="47" rx="23.5" fill="none"/>
        </g>
      </g>
      <g id="Rectángulo_400907" data-name="Rectángulo 400907" transform="translate(-0.051 -0.051)" fill="none" stroke="#fff" stroke-width="3">
        <rect width="50" height="50" rx="25" stroke="none"/>
        <rect x="1.5" y="1.5" width="47" height="47" rx="23.5" fill="none"/>
      </g>
    </g>
    <g id="Grupo_1112329" data-name="Grupo 1112329" transform="translate(341.927 3829.947)">
      <circle id="Elipse_12141" data-name="Elipse 12141" cx="8.007" cy="8.007" r="8.007" transform="translate(4.58 25.424) rotate(-45)" fill="#fd4755"/>
      <circle id="Elipse_12142" data-name="Elipse 12142" cx="6.886" cy="6.886" r="6.886" transform="translate(18.637 27.834)" fill="#eceff1"/>
      <path id="Trazado_904384" data-name="Trazado 904384" d="M382.591,32.414h3.186v6.915h1.354l-2.947,3.21-2.947-3.21h1.354Z" transform="translate(-354.401 -17.23)" fill="#60b7ff" fill-rule="evenodd"/>
      <path id="Trazado_904385" data-name="Trazado 904385" d="M49.934,37.4,47.659,34.92h.682a.3.3,0,0,0,.3-.3V28h2.6v6.62a.294.294,0,0,0,.293.3h.683Zm3.219-2.892a.3.3,0,0,0-.271-.177h-1.06v-6.62a.3.3,0,0,0-.3-.3H48.341a.3.3,0,0,0-.3.3v6.62H46.987a.3.3,0,0,0-.218.5l2.947,3.211a.3.3,0,0,0,.435,0L53.1,34.824a.3.3,0,0,0,.053-.318ZM44.337,44.591a1.333,1.333,0,0,1,1.336-.979,1.64,1.64,0,0,1,1.645,1.155c.239.836-.121,2.094-1.541,3.543C44.395,46.778,44.081,45.435,44.337,44.591Zm4.032,5.9a14.851,14.851,0,0,1-2.18-1.747,8.273,8.273,0,0,0,1.039-1.27,3.441,3.441,0,0,0,.658-2.866,2.217,2.217,0,0,0-2.213-1.582,1.922,1.922,0,0,0-1.9,1.4,3.8,3.8,0,0,0,.578,2.953,8.281,8.281,0,0,0,1,1.347,16.26,16.26,0,0,1-2.366,1.762.3.3,0,1,0,.313.5,17.035,17.035,0,0,0,2.464-1.834,15.229,15.229,0,0,0,2.278,1.828.3.3,0,1,0,.328-.491Zm-2.7,3.35a6.591,6.591,0,1,0-6.591-6.591A6.6,6.6,0,0,0,45.674,53.837Zm-9.62-8.176a7.706,7.706,0,1,1,7.3-5.21,7.216,7.216,0,0,0-4.547,4.7A7.661,7.661,0,0,1,36.054,45.661Zm9.62-5.6a7.165,7.165,0,0,0-1.642.19,8.277,8.277,0,0,0,.318-2.01h1.171v.724a.3.3,0,0,0,.591,0v-2.04a.3.3,0,0,0-.591,0v.724H44.35a8.269,8.269,0,0,0-2.224-5.359l.831-.831.512.512a.3.3,0,1,0,.418-.418l-1.442-1.442a.3.3,0,1,0-.418.418l.512.512-.831.831a8.273,8.273,0,0,0-5.359-2.223V28.482h.724a.3.3,0,1,0,0-.591H35.035a.3.3,0,1,0,0,.591h.724v1.171A8.27,8.27,0,0,0,30.4,31.876l-.831-.831.512-.512a.3.3,0,1,0-.418-.418l-1.442,1.442a.3.3,0,0,0,.418.418l.512-.512.831.831a8.273,8.273,0,0,0-2.224,5.359H26.587v-.724a.3.3,0,1,0-.591,0v2.04a.3.3,0,1,0,.591,0v-.724h1.171A8.272,8.272,0,0,0,29.981,43.6l-.831.831-.512-.512a.3.3,0,0,0-.418.418l1.442,1.442a.3.3,0,1,0,.418-.418l-.512-.512.83-.831a8.271,8.271,0,0,0,5.359,2.224v1.171h-.724a.3.3,0,1,0,0,.591h2.039a.3.3,0,1,0,0-.591h-.724V46.245a8.252,8.252,0,0,0,2.281-.4,7.182,7.182,0,1,0,7.044-5.779Zm-9.809,3.349a.856.856,0,1,0-.857-.857A.858.858,0,0,0,35.865,43.413Zm0-2.3a1.447,1.447,0,1,0,1.447,1.447A1.449,1.449,0,0,0,35.865,41.11Zm4.181-.6A1.008,1.008,0,1,0,39.039,39.5,1.009,1.009,0,0,0,40.047,40.506Zm1.6-1.008a1.6,1.6,0,1,1-1.6-1.6,1.6,1.6,0,0,1,1.6,1.6Zm-8.85.681a1.147,1.147,0,1,0-1.147-1.147A1.148,1.148,0,0,0,32.8,40.179Zm0-2.885a1.738,1.738,0,1,0,1.738,1.738A1.739,1.739,0,0,0,32.8,37.295Zm5.713-3.809a1.2,1.2,0,1,0,1.2,1.2A1.2,1.2,0,0,0,38.509,33.486Zm0,2.983a1.787,1.787,0,1,0-1.788-1.787A1.789,1.789,0,0,0,38.509,36.469ZM33.127,33.41a.856.856,0,1,0,.856.856A.858.858,0,0,0,33.127,33.41Zm0,2.3a1.447,1.447,0,1,0-1.448-1.448A1.449,1.449,0,0,0,33.127,35.714Z" transform="translate(-20.151 -12.525)" fill-rule="evenodd"/>
    </g>
  </g>
</svg>
