<svg xmlns="http://www.w3.org/2000/svg" xmlns:xlink="http://www.w3.org/1999/xlink" width="68" height="68" viewBox="0 0 68 68">
  <defs>
    <filter id="Rectángulo_400907" x="0" y="0" width="68" height="68" filterUnits="userSpaceOnUse">
      <feOffset dy="3" input="SourceAlpha"/>
      <feGaussianBlur stdDeviation="3" result="blur"/>
      <feFlood flood-opacity="0.161"/>
      <feComposite operator="in" in2="blur"/>
      <feComposite in="SourceGraphic"/>
    </filter>
  </defs>
  <g id="Grupo_1111960" data-name="Grupo 1111960" transform="translate(-326.73 -3826.949)">
    <g id="Grupo_1098742" data-name="Grupo 1098742" transform="translate(335.781 3833)">
      <g id="Rectángulo_400898" data-name="Rectángulo 400898" transform="translate(-0.051 -0.051)" fill="#b4d1f0" stroke="#fff" stroke-width="3" opacity="0.859">
        <rect width="50" height="50" rx="25" stroke="none"/>
        <rect x="1.5" y="1.5" width="47" height="47" rx="23.5" fill="none"/>
      </g>
      <g transform="matrix(1, 0, 0, 1, -9.05, -6.05)" filter="url(#Rectángulo_400907)">
        <g id="Rectángulo_400907-2" data-name="Rectángulo 400907" transform="translate(9 6)" fill="none" stroke="#fff" stroke-width="3">
          <rect width="50" height="50" rx="25" stroke="none"/>
          <rect x="1.5" y="1.5" width="47" height="47" rx="23.5" fill="none"/>
        </g>
      </g>
    </g>
    <g id="Grupo_1112350" data-name="Grupo 1112350" transform="translate(320.713 3843.876)">
      <g id="Grupo_1112349" data-name="Grupo 1112349" transform="translate(28.154 0.739)">
        <g id="Grupo_1112333" data-name="Grupo 1112333" transform="translate(0)">
          <path id="Trazado_904408" data-name="Trazado 904408" d="M34.095,5h7.276A1.424,1.424,0,0,1,42.79,6.421v7.938a3.04,3.04,0,0,1-3.03,3.032H35.705a3.041,3.041,0,0,1-3.031-3.032V6.421A1.425,1.425,0,0,1,34.095,5Z" transform="translate(-32.674 -5)" fill="#ffc943" fill-rule="evenodd"/>
        </g>
        <g id="Grupo_1112334" data-name="Grupo 1112334" transform="translate(0.656 0.053)">
          <path id="Trazado_904409" data-name="Trazado 904409" d="M53.441,6a1.423,1.423,0,0,1,1.038,1.368v7.938a3.04,3.04,0,0,1-3.03,3.032H47.395a3.033,3.033,0,0,1-2.376-1.154,3.009,3.009,0,0,0,1.469.383h4.055a3.041,3.041,0,0,0,3.031-3.031V6.6a1.4,1.4,0,0,0-.134-.6Z" transform="translate(-45.019 -6)" fill="#ffaa16" fill-rule="evenodd"/>
        </g>
        <g id="Grupo_1112335" data-name="Grupo 1112335" transform="translate(0.692 10.183)">
          <path id="Trazado_904410" data-name="Trazado 904410" d="M62.814,211.055,61.1,212.338a4.022,4.022,0,0,1-2.514.838H56.037V204.43H47.161a1.462,1.462,0,0,1-1.457-1.457v0a1.462,1.462,0,0,1,1.457-1.457h9.485a4.458,4.458,0,0,1-.184-1.272,7.726,7.726,0,0,1,.466-2.65,1.594,1.594,0,0,1,1.58-.9c2.789.219.25,4.612,4.744,4.818h5.087v9.541H62.814Z" transform="translate(-45.704 -196.691)" fill="#fcac8f" fill-rule="evenodd"/>
        </g>
        <g id="Grupo_1112336" data-name="Grupo 1112336" transform="translate(4.162 17.923)">
          <path id="Trazado_904411" data-name="Trazado 904411" d="M117.719,342.381h-5.236a1.457,1.457,0,0,0,0,2.915h5.236a1.457,1.457,0,1,0,0-2.915Z" transform="translate(-111.026 -342.381)" fill="#fcac8f" fill-rule="evenodd"/>
        </g>
        <g id="Grupo_1112337" data-name="Grupo 1112337" transform="translate(5.061 20.838)">
          <path id="Trazado_904412" data-name="Trazado 904412" d="M134.05,397.245H129.4a1.458,1.458,0,0,0,0,2.916h4.65a1.458,1.458,0,0,0,0-2.916Z" transform="translate(-127.943 -397.245)" fill="#fcac8f" fill-rule="evenodd"/>
        </g>
        <g id="Grupo_1112338" data-name="Grupo 1112338" transform="translate(5.061 23.754)">
          <path id="Trazado_904413" data-name="Trazado 904413" d="M134.05,452.137H129.4a1.457,1.457,0,1,0,0,2.915h4.65a1.457,1.457,0,1,0,0-2.915Z" transform="translate(-127.943 -452.137)" fill="#fcac8f" fill-rule="evenodd"/>
        </g>
        <g id="Grupo_1112339" data-name="Grupo 1112339" transform="translate(3.965 10.438)">
          <path id="Trazado_904414" data-name="Trazado 904414" d="M107.312,201.479H109.5v4.76a1.094,1.094,0,1,1-2.187,0Z" transform="translate(-107.312 -201.479)" fill="#e2f0fa" fill-rule="evenodd"/>
        </g>
        <g id="Grupo_1112340" data-name="Grupo 1112340" transform="translate(1.887 1.872)">
          <path id="Trazado_904415" data-name="Trazado 904415" d="M68.193,40.233h6.342V43.8H68.193Z" transform="translate(-68.193 -40.233)" fill="#55d1f5" fill-rule="evenodd"/>
        </g>
        <g id="Grupo_1112341" data-name="Grupo 1112341" transform="translate(9.362)">
          <path id="Trazado_904416" data-name="Trazado 904416" d="M212.115,5H222.6a.662.662,0,0,1,.66.66v7.623a.662.662,0,0,1-.66.662H212.115a.663.663,0,0,1-.66-.662V10.949L208.9,9.472,211.454,8V5.66A.663.663,0,0,1,212.115,5Z" transform="translate(-208.895 -5)" fill="#8399fe" fill-rule="evenodd"/>
        </g>
        <g id="Grupo_1112342" data-name="Grupo 1112342" transform="translate(14.241 1.236)">
          <path id="Trazado_904417" data-name="Trazado 904417" d="M301.339,28.865a2.08,2.08,0,0,1,2.934,0,2.075,2.075,0,0,1,2.934,2.934l-2.934,2.934L301.339,31.8A2.08,2.08,0,0,1,301.339,28.865Z" transform="translate(-300.734 -28.259)" fill="#df646e" fill-rule="evenodd"/>
        </g>
        <g id="Grupo_1112343" data-name="Grupo 1112343" transform="translate(4.335 17.923)">
          <path id="Trazado_904418" data-name="Trazado 904418" d="M120.8,342.381h-5.236a1.459,1.459,0,0,0-1.284.771h6a1.462,1.462,0,0,1,1.459,1.457,1.427,1.427,0,0,1-.053.387,1.456,1.456,0,0,0-.884-2.616Z" transform="translate(-114.284 -342.381)" fill="#f29b7b" fill-rule="evenodd"/>
        </g>
        <g id="Grupo_1112344" data-name="Grupo 1112344" transform="translate(5.234 20.838)">
          <path id="Trazado_904419" data-name="Trazado 904419" d="M137.135,397.245h-4.65a1.462,1.462,0,0,0-1.284.771h5.412a1.462,1.462,0,0,1,1.457,1.459,1.409,1.409,0,0,1-.053.386,1.456,1.456,0,0,0-.882-2.616Z" transform="translate(-131.201 -397.245)" fill="#f29b7b" fill-rule="evenodd"/>
        </g>
        <g id="Grupo_1112345" data-name="Grupo 1112345" transform="translate(5.233 23.754)">
          <path id="Trazado_904420" data-name="Trazado 904420" d="M137.107,452.137h-4.65a1.463,1.463,0,0,0-1.286.771h5.413a1.462,1.462,0,0,1,1.457,1.457,1.419,1.419,0,0,1-.053.387,1.456,1.456,0,0,0-.882-2.616Z" transform="translate(-131.172 -452.137)" fill="#f29b7b" fill-rule="evenodd"/>
        </g>
        <g id="Grupo_1112346" data-name="Grupo 1112346" transform="translate(4.733 10.438)">
          <path id="Trazado_904421" data-name="Trazado 904421" d="M122.539,201.479h.651v4.76a1.092,1.092,0,0,1-1.419,1.044,1.1,1.1,0,0,0,.768-1.044v-4.76Z" transform="translate(-121.771 -201.479)" fill="#d0e4f2" fill-rule="evenodd"/>
        </g>
        <g id="Grupo_1112347" data-name="Grupo 1112347" transform="translate(1.887 1.872)">
          <path id="Trazado_904422" data-name="Trazado 904422" d="M73.684,42.955H68.193v.85h6.342V40.233h-.852Z" transform="translate(-68.193 -40.233)" fill="#3fc3e8" fill-rule="evenodd"/>
        </g>
        <g id="Grupo_1112348" data-name="Grupo 1112348" transform="translate(11.921 0)">
          <path id="Trazado_904423" data-name="Trazado 904423" d="M267.223,13.175H257.072v.109a.663.663,0,0,0,.66.662h10.486a.662.662,0,0,0,.66-.662V5.66a.662.662,0,0,0-.66-.66h-.335v7.513A.663.663,0,0,1,267.223,13.175Z" transform="translate(-257.072 -5)" fill="#6a85f2" fill-rule="evenodd"/>
        </g>
      </g>
      <path id="Trazado_904424" data-name="Trazado 904424" d="M36.419,2.353H30.139a.371.371,0,0,0-.371.371V6.261a.371.371,0,0,0,.371.371h6.279a.371.371,0,0,0,.371-.371V2.724a.371.371,0,0,0-.371-.371ZM36.048,5.89H30.511V3.1h5.537ZM51.11.5H40.728A1.026,1.026,0,0,0,39.7,1.525v2.1l-1.045.6V2.278A1.779,1.779,0,0,0,36.882.5h-7.2A1.78,1.78,0,0,0,27.9,2.278v7.859a3.377,3.377,0,0,0,3.373,3.373h.552v1.849H30.4a1.815,1.815,0,0,0,0,3.63h1.973a1.812,1.812,0,0,0,.948,2.811,1.812,1.812,0,0,0,.306,2.591,1.813,1.813,0,0,0,1.1,3.257h6.989a4.364,4.364,0,0,0,2.712-.9l1.595-1.2h5.347a.371.371,0,0,0,.371-.371V15.73a.371.371,0,0,0-.371-.371H46.34c-2.2-.1-2.452-1.267-2.719-2.5-.219-1.01-.468-2.154-1.957-2.271a1.949,1.949,0,0,0-1.928,1.09,8.013,8.013,0,0,0-.5,2.791,4.787,4.787,0,0,0,.083.888H34.734V13.51h.553a3.376,3.376,0,0,0,3.371-3.373V6.373l1.045.6v2.1A1.027,1.027,0,0,0,40.728,10.1H51.11a1.027,1.027,0,0,0,1.025-1.027V1.525A1.026,1.026,0,0,0,51.11.5ZM32.764,20.06a1.073,1.073,0,0,1,1.072-1.072h5.184a1.072,1.072,0,1,1,0,2.143H33.835A1.073,1.073,0,0,1,32.764,20.06Zm.89,2.887a1.074,1.074,0,0,1,1.072-1.073h4.6a1.072,1.072,0,0,1,0,2.145h-4.6A1.073,1.073,0,0,1,33.653,22.947ZM39.187,26.9H34.725a1.072,1.072,0,1,1,0-2.143h4.6a1.072,1.072,0,1,1,0,2.143Zm.6-10.8a.371.371,0,0,0,.356-.477,4.051,4.051,0,0,1-.168-1.154,7.406,7.406,0,0,1,.422-2.46,1.218,1.218,0,0,1,1.205-.681c.9.07,1.059.627,1.29,1.688.271,1.247.642,2.955,3.419,3.083H51v8.7H45.9a.371.371,0,0,0-.223.074l-1.694,1.27a3.6,3.6,0,0,1-2.266.755h-.923a1.811,1.811,0,0,0-.365-2.514,1.813,1.813,0,0,0-.172-3,1.813,1.813,0,0,0-.931-3.115.37.37,0,0,0-.136-.026H30.4a1.072,1.072,0,0,1,0-2.145h1.437a1.454,1.454,0,0,0,2.886,0H39.79Zm-7.223-.182V11.577h1.425v4.342a.712.712,0,0,1-1.425,0Zm5.349-5.782a2.632,2.632,0,0,1-2.629,2.63h-.553V11.206a.371.371,0,0,0-.371-.371H32.2a.371.371,0,0,0-.371.371v1.562h-.552a2.633,2.633,0,0,1-2.63-2.63V2.278a1.037,1.037,0,0,1,1.036-1.036h7.2a1.036,1.036,0,0,1,1.034,1.036V4.654l-.561.324a.371.371,0,0,0,0,.643l.561.324ZM51.393,9.073a.284.284,0,0,1-.283.284H40.728a.284.284,0,0,1-.283-.284V6.761a.371.371,0,0,0-.186-.322L38.283,5.3,40.26,4.158a.371.371,0,0,0,.186-.322V1.525a.286.286,0,0,1,.283-.283H51.11a.286.286,0,0,1,.283.283Zm-4.065-7.35a2.407,2.407,0,0,0-1.452.481,2.426,2.426,0,0,0-3.168,3.658l2.905,2.905a.371.371,0,0,0,.525,0l2.905-2.905a2.424,2.424,0,0,0-1.716-4.138Zm1.191,3.614L45.876,7.98,43.233,5.337a1.688,1.688,0,0,1,0-2.38h0a1.688,1.688,0,0,1,2.38,0,.372.372,0,0,0,.263.109h0a.371.371,0,0,0,.263-.109,1.688,1.688,0,0,1,2.38,0,1.686,1.686,0,0,1,0,2.38Zm-.19-.319a.371.371,0,0,1-.371.371H47l-.308.764a.371.371,0,0,1-.344.233h0A.371.371,0,0,1,46,6.148L45.46,4.742l-.185.424a.371.371,0,0,1-.34.223H43.809a.371.371,0,0,1,0-.742h.882l.448-1.03a.371.371,0,0,1,.687.014L46.356,5l.05-.123a.371.371,0,0,1,.344-.233h1.207a.371.371,0,0,1,.371.371ZM31.749,8.712a.371.371,0,0,1-.371.371H30.171a.371.371,0,1,1,0-.742h1.207A.371.371,0,0,1,31.749,8.712Zm5.011,0a.371.371,0,0,1-.371.371H35.18a.371.371,0,1,1,0-.742h1.208A.371.371,0,0,1,36.76,8.712Z"/>
    </g>
  </g>
</svg>
