<svg xmlns="http://www.w3.org/2000/svg" width="275.227" height="157.156" viewBox="0 0 275.227 157.156">
  <g id="Grupo_1112311" data-name="Grupo 1112311" transform="translate(2133 11015.255)">
    <g id="OBJECTS" transform="translate(-2133 -11015.255)">
      <g id="Grupo_1112200" data-name="Grupo 1112200" transform="translate(0 0)">
        <rect id="Rectángulo_405140" data-name="Rectángulo 405140" width="275.227" height="15.554" transform="translate(0 141.602)" fill="#b4d1f0"/>
        <g id="Grupo_1112199" data-name="Grupo 1112199" transform="translate(12.006)">
          <path id="Trazado_903525" data-name="Trazado 903525" d="M44.7,216.079l222.869.992A86,86,0,0,0,278.278,206c.055-.066.11-.131.157-.2a46.535,46.535,0,0,0,3.077-4.411C301.3,169,251.058,166.436,263.281,141.618c28.987-58.858-13.773-88.378-80.434-53.9-14.679,7.593-32.36,7.654-43.455,4.752-.471-.12-.931-.248-1.392-.376q-1.2-.337-2.366-.7C115.371,85.1,87.5,61.045,57.561,77.273c-28.35,15.366-16.021,52.515-10.743,62.351,1.375,2.562,7.106,12.907-3.6,23.916C18.754,188.7,44.7,216.079,44.7,216.079Z" transform="translate(-32.717 -71.745)" fill="#b4d1f0" opacity="0.7"/>
          <ellipse id="Elipse_12053" data-name="Elipse 12053" cx="124.83" cy="5.516" rx="124.83" ry="5.516" transform="translate(0.545 138.444)" fill="#e4f3cc"/>
        </g>
      </g>
      <g id="Grupo_1112299" data-name="Grupo 1112299" transform="translate(21.732 8.147)">
        <g id="Grupo_1112204" data-name="Grupo 1112204" transform="translate(89.055 11.807)">
          <g id="Grupo_1112201" data-name="Grupo 1112201" transform="translate(64.196)">
            <path id="Trazado_903526" data-name="Trazado 903526" d="M489.916,138.163a5.681,5.681,0,0,0-.588-1.763,8.072,8.072,0,0,0-.938-1.406,13.158,13.158,0,0,0-.961-1.032,6.677,6.677,0,0,0,.993-2.548,5.373,5.373,0,0,0-.4-3.159,4.23,4.23,0,0,0-2.145-2.133l-.01.013a6.668,6.668,0,0,1,.979,2.506,6.014,6.014,0,0,1-.121,2.438,4.988,4.988,0,0,1-.7,1.636,12.771,12.771,0,0,0-2.439-1.542,6.817,6.817,0,0,0-3.218-.7,4.273,4.273,0,0,0-1.76.462,3.372,3.372,0,0,0-1.422,1.367,2.886,2.886,0,0,0-.33,1.021,2.723,2.723,0,0,0,.094,1.1,3.074,3.074,0,0,0,1.242,1.638,4.245,4.245,0,0,0,.8.425,7.691,7.691,0,0,0,.765.278,6.848,6.848,0,0,0,1.619.29,6.632,6.632,0,0,0,3.231-.619,6.554,6.554,0,0,0,1.357-.844,6.46,6.46,0,0,1,.571.766,3.2,3.2,0,0,1,.593,2,2.559,2.559,0,0,1-.826,1.553,9.412,9.412,0,0,1-1.78,1.325c-.685.413-1.43.8-2.195,1.171a3.639,3.639,0,0,0-1.586,1.276,3.17,3.17,0,0,0-.419.787l.5,1.666a3.26,3.26,0,0,0,.923.333,3.31,3.31,0,0,0,.838.061,3.669,3.669,0,0,0,1.5-.418,13.765,13.765,0,0,0,2.716-1.643,9.316,9.316,0,0,0,2.307-2.561,6.281,6.281,0,0,0,.728-1.772A5.308,5.308,0,0,0,489.916,138.163Zm-8.422-3.127a5.39,5.39,0,0,1-1.164-.206,5.607,5.607,0,0,1-.568-.2,2.258,2.258,0,0,1-.452-.227,1.073,1.073,0,0,1-.462-.554.787.787,0,0,1,.073-.616,1.831,1.831,0,0,1,1.553-.815,4.557,4.557,0,0,1,2.247.55,8.8,8.8,0,0,1,1.821,1.234,4.968,4.968,0,0,1-3.048.834Z" transform="translate(-476.834 -126.121)" fill="#289672"/>
            <path id="Trazado_903527" data-name="Trazado 903527" d="M489.918,138.162a5.822,5.822,0,0,0-.587-1.764,8.223,8.223,0,0,0-.939-1.405c-.156-.186-.313-.364-.474-.537s-.321-.337-.487-.5a6.661,6.661,0,0,0,.994-2.546,5.386,5.386,0,0,0-.4-3.16,4.232,4.232,0,0,0-2.145-2.134l-.011.013a6.712,6.712,0,0,1,.98,2.508,5.991,5.991,0,0,1-.123,2.434,4.994,4.994,0,0,1-.7,1.637c-.266-.212-.54-.413-.824-.6a11.672,11.672,0,0,0-1.617-.936,6.8,6.8,0,0,0-3.215-.705,4.254,4.254,0,0,0-1.76.461,3.359,3.359,0,0,0-1.422,1.369,2.881,2.881,0,0,0-.33,1.02,2.758,2.758,0,0,0,.094,1.1,3.06,3.06,0,0,0,1.243,1.639,4.332,4.332,0,0,0,.8.427,7.3,7.3,0,0,0,.764.276,6.921,6.921,0,0,0,1.618.291,6.618,6.618,0,0,0,3.231-.62,6.539,6.539,0,0,0,1.359-.844,6.479,6.479,0,0,1,.569.766,3.213,3.213,0,0,1,.595,2,2.561,2.561,0,0,1-.828,1.553,6.172,6.172,0,0,1-.569.5,11.71,11.71,0,0,1-1.211.82c-.686.415-1.43.8-2.195,1.174a3.613,3.613,0,0,0-1.1.71,3.853,3.853,0,0,0-.486.565,3.157,3.157,0,0,0-.418.786l.5,1.667a3.316,3.316,0,0,0,.922.333,3.388,3.388,0,0,0,.841.06,3.649,3.649,0,0,0,1.5-.417,13.8,13.8,0,0,0,2.717-1.644,9.283,9.283,0,0,0,2.307-2.562,6.33,6.33,0,0,0,.728-1.771A5.3,5.3,0,0,0,489.918,138.162Zm-6.141-3.539a4.971,4.971,0,0,1-2.281.411,5.164,5.164,0,0,1-1.163-.205,5.893,5.893,0,0,1-.569-.2,2.346,2.346,0,0,1-.452-.227,1.08,1.08,0,0,1-.462-.556.787.787,0,0,1,.07-.615.8.8,0,0,1,.086-.138.037.037,0,0,1,.016-.024,1.955,1.955,0,0,1,1.452-.654,4.54,4.54,0,0,1,2.247.549,8.7,8.7,0,0,1,1.821,1.234A4.961,4.961,0,0,1,483.777,134.623Z" transform="translate(-476.835 -126.12)" fill="#606060" opacity="0.4"/>
            <path id="Trazado_903528" data-name="Trazado 903528" d="M489.8,142.723a5.13,5.13,0,0,1-1.479,1.489,8.7,8.7,0,0,0-1.821-1.234,4.537,4.537,0,0,0-2.247-.549,1.955,1.955,0,0,0-1.452.654c1.629-2.525,5.495-.112,5.481-.035a10.669,10.669,0,0,0,.694-.929C489.257,142.31,489.53,142.511,489.8,142.723Z" transform="translate(-480.609 -136.131)" fill="#606060" opacity="0.4"/>
            <path id="Trazado_903529" data-name="Trazado 903529" d="M501.082,153.94a6.166,6.166,0,0,0,.569-.5,2.562,2.562,0,0,0,.828-1.553,3.212,3.212,0,0,0-.595-2,6.474,6.474,0,0,0-.569-.766,3.733,3.733,0,0,0,1.465-1.629c.166.159.328.326.487.5l-.9,1.246A3.225,3.225,0,0,1,501.082,153.94Z" transform="translate(-492.184 -139.644)" fill="#606060" opacity="0.4"/>
          </g>
          <g id="Grupo_1112203" data-name="Grupo 1112203" transform="translate(0 5.285)">
            <ellipse id="Elipse_12054" data-name="Elipse 12054" cx="52.17" cy="47.394" rx="52.17" ry="47.394" transform="translate(0 102.754) rotate(-79.997)" fill="#289672"/>
            <path id="Trazado_903530" data-name="Trazado 903530" d="M416.663,251.544a57.338,57.338,0,0,1-.836,12.156c-5,28.375-29.956,47.692-55.733,43.147-17.172-3.028-30.375-15.883-35.8-32.516.9,23.482,16.406,43.564,38.451,47.451,25.777,4.545,50.73-14.772,55.733-43.147A55.964,55.964,0,0,0,416.663,251.544Z" transform="translate(-316.076 -210.802)" fill="#606060" opacity="0.3"/>
            <g id="Grupo_1112202" data-name="Grupo 1112202" transform="translate(14.634 7.584)" opacity="0.5">
              <path id="Trazado_903531" data-name="Trazado 903531" d="M464.07,239.144c1.108-5.209,4.835-10.088,5.818-15.62.968-5.535-.865-11.395-.125-16.669.793-5.649,4.155-10.779,4.719-15.981.631-5.821-1.573-11.564-1.185-16.621a26.9,26.9,0,0,1,.6-3.816q-1.1-.508-2.227-.956a25.985,25.985,0,0,1-.285,4.407c-.786,4.972-4.331,9.962-5.275,15.735-.839,5.127.937,10.98-.025,16.6-.892,5.21-4.511,10.138-5.51,15.661-.951,5.532.764,11.4-.179,16.6-1.017,5.607-4.687,10.5-5.652,15.6-1.071,5.665.486,11.475-.39,16.372q1.054-.042,2.1-.135c1.525-4.643,5.255-9.12,6.589-14.546C464.288,250.7,462.883,244.724,464.07,239.144Z" transform="translate(-413.037 -166.437)" fill="#606060"/>
              <path id="Trazado_903532" data-name="Trazado 903532" d="M525.419,258.052c1.187-3.96,4.827-7.45,5.562-11.674.754-4.221-1.473-8.745-1.234-12.873.251-4.334,2.966-8.553,2.8-12.621-.182-4.444-3.27-8.456-3.76-12.376a21.5,21.5,0,0,1,.191-5.589,48.12,48.12,0,0,0-3.2-3.738c.882,2.633,2.138,5.535,2.107,8.7-.038,3.822-2.888,7.887-3.179,12.327-.258,3.931,2.065,8.331,1.534,12.638-.49,3.973-3.8,7.682-4.576,11.892-.706,4.223,1.131,8.839.233,12.74-.973,4.229-4.661,7.568-5.763,11.349-1.244,4.271.043,9.065-1.228,12.669-.106.3-.226.6-.354.884q.624-.385,1.238-.789c.059-.125.114-.251.177-.374,1.8-3.517,6.076-6.232,7.767-10.345C525.281,267.1,524.173,262.209,525.419,258.052Z" transform="translate(-451.149 -185.238)" fill="#606060"/>
              <path id="Trazado_903533" data-name="Trazado 903533" d="M414.959,161.324a26.851,26.851,0,0,1-.745,3.788c-1.365,4.885-5.4,9.529-6.8,15.216-1.25,5.081.156,11.052-1.032,16.633-1.108,5.209-4.835,10.088-5.818,15.62-.968,5.535.865,11.395.125,16.669-.793,5.649-4.155,10.779-4.719,15.981-.6,5.555,1.372,11.037,1.217,15.922q.951.445,1.927.845c.853-4.9,4.3-9.827,5.233-15.515.839-5.127-.937-10.98.025-16.6.892-5.21,4.512-10.138,5.51-15.662.951-5.532-.764-11.4.179-16.6,1.017-5.607,4.687-10.5,5.652-15.6,1.087-5.747-.538-11.648.425-16.588a26.013,26.013,0,0,1,1.241-4.242Q416.164,161.222,414.959,161.324Z" transform="translate(-376.01 -161.187)" fill="#606060"/>
              <path id="Trazado_903534" data-name="Trazado 903534" d="M346.447,255.252c.038-3.822,2.888-7.887,3.179-12.326.258-3.931-2.065-8.331-1.534-12.638.491-3.973,3.8-7.682,4.576-11.892.706-4.223-1.131-8.839-.233-12.74.973-4.228,4.661-7.567,5.763-11.349,1.244-4.271-.043-9.065,1.228-12.669,1.053-2.985,3.227-5.283,4.957-7.456A48.26,48.26,0,0,0,360.1,176.6a21.52,21.52,0,0,1-1.732,5.317c-1.8,3.517-6.076,6.232-7.767,10.345-1.548,3.766-.44,8.659-1.686,12.817-1.186,3.96-4.827,7.449-5.562,11.674-.754,4.221,1.473,8.745,1.234,12.873-.251,4.333-2.966,8.553-2.8,12.621.182,4.444,3.27,8.456,3.76,12.376.017.138.025.275.038.412q.438.59.893,1.164C346.456,255.887,346.444,255.571,346.447,255.252Z" transform="translate(-341.778 -169.413)" fill="#606060"/>
            </g>
            <path id="Trazado_903535" data-name="Trazado 903535" d="M411.447,183.163c-6.791-11.046-17.572-19.063-30.66-21.371-25.777-4.545-50.73,14.772-55.733,43.147a54.386,54.386,0,0,0,9.229,41.622,54.813,54.813,0,0,1-6.955-38.236A55.457,55.457,0,0,1,342.045,179.2c-1.556,3.037-1.8,5.924-.344,7.825,2.687,3.514,10.141,2.33,16.649-2.646s9.606-11.859,6.918-15.373a5.659,5.659,0,0,0-4.3-2,43.724,43.724,0,0,1,22.095-1.825A44.8,44.8,0,0,1,411.447,183.163Z" transform="translate(-316 -153.566)" fill="#fff" opacity="0.2"/>
          </g>
        </g>
        <g id="Grupo_1112208" data-name="Grupo 1112208" transform="translate(44.457 35.359)">
          <g id="Grupo_1112205" data-name="Grupo 1112205" transform="translate(7.896 14.121)">
            <path id="Trazado_903536" data-name="Trazado 903536" d="M209.5,237.734a10.416,10.416,0,0,1,7.755.239s10.255-15.7,26.175-6.058c0,0,11.263-7.666,19.327,5.534s-11.255,21.806-25.087,24.727c-11.238,2.374-31.056,1.077-35.113-9.965A11.333,11.333,0,0,1,209.5,237.734Z" transform="translate(-201.886 -228.782)" fill="#e6dd3b"/>
            <path id="Trazado_903537" data-name="Trazado 903537" d="M237.676,262.174c-11.24,2.372-31.057,1.079-35.115-9.965a10.987,10.987,0,0,1-.5-1.822,11.388,11.388,0,0,1,7.44-12.653,10.414,10.414,0,0,1,7.755.236s10.254-15.7,26.174-6.056c0,0,9.63-6.556,17.456,2.894a22.377,22.377,0,0,1,1.87,2.64C270.825,250.648,251.508,259.253,237.676,262.174Z" transform="translate(-201.888 -228.78)" fill="#ff7e00" opacity="0.2"/>
            <path id="Trazado_903538" data-name="Trazado 903538" d="M237.846,268.278c-11.24,2.372-31.057,1.078-35.115-9.965a10.986,10.986,0,0,1-.5-1.822c-.15-3.246.63-6.131,3.011-8A12.52,12.52,0,0,1,221.6,250.42s.174-9.818,9.681-11.32,14.6,6.21,14.6,6.21,3.549-10.855,14.88-4.574q.149.083.3.174a22.381,22.381,0,0,1,1.87,2.64C271,256.751,251.678,265.356,237.846,268.278Z" transform="translate(-202.096 -235.11)" fill="#ff7e00" opacity="0.2"/>
          </g>
          <g id="Grupo_1112206" data-name="Grupo 1112206" transform="translate(25.201)">
            <path id="Trazado_903539" data-name="Trazado 903539" d="M275.818,213.84c-5.271,15.421-22.167,4.416-22.167,4.416a52.391,52.391,0,0,0,3.5-5.141l.005-.007c2.029-3.409,3.982-7.709,2.88-10.3-2.04-4.784-8.375-1.923-8.375-1.923-4.837-5.636-1.487-9.958-1.487-9.958a.282.282,0,0,0,.036-.009c8.676-2.631,16.517,3.461,16.949,11.058S275.818,213.84,275.818,213.84Z" transform="translate(-249.041 -190.3)" fill="#1e6f5c"/>
            <path id="Trazado_903540" data-name="Trazado 903540" d="M257.153,214c2.029-3.409,3.982-7.709,2.88-10.3-2.04-4.784-8.375-1.923-8.375-1.923-4.837-5.636-1.487-9.958-1.487-9.958a.282.282,0,0,0,.036-.009c.333-.074,2.9-.579,4.125,1.543a6.044,6.044,0,0,1,.124,4.959,6.283,6.283,0,0,1,6.775,3.776C263.373,206.708,257.359,213.761,257.153,214Z" transform="translate(-249.041 -191.193)" fill="#606060" opacity="0.3"/>
            <path id="Trazado_903541" data-name="Trazado 903541" d="M275.7,198.1a10.7,10.7,0,0,1,6.651,6.778S280.9,196.611,275.7,198.1Z" transform="translate(-265.916 -195.123)" fill="#fff" opacity="0.3"/>
          </g>
          <g id="Grupo_1112207" data-name="Grupo 1112207" transform="translate(0 18.855)">
            <path id="Trazado_903542" data-name="Trazado 903542" d="M188.947,251.1c4.024-2.182,9.776-2.866,16.69,3.123,0,0,11.673-16.458,32.369-6.759,0,0,4.16-8.873,12.859-4.638,18.642,9.076,13.985,41.508,6.886,60.224a9.209,9.209,0,0,1-9.224,6.2s-9.917,12.295-27.956,5.808c0,0-17.22,10.156-29.661-12.3-10.876-19.628-11.847-31.533-9.488-41.568A15.442,15.442,0,0,1,188.947,251.1Z" transform="translate(-180.368 -241.68)" fill="#e6dd3b"/>
            <path id="Trazado_903543" data-name="Trazado 903543" d="M236.579,275.859s-4.734,14.2-2.656,27.721,17.3,32.2,17.3,32.2-17.272-14.856-20.693-27.736S231,282.3,236.579,275.859Z" transform="translate(-211.31 -263.316)" fill="#ff7e00" opacity="0.3"/>
            <path id="Trazado_903544" data-name="Trazado 903544" d="M337.435,257.44s12.765,15.885,13.823,32.536a75.033,75.033,0,0,1-3.486,28.649,81.287,81.287,0,0,0,5.989-28C354.148,270.112,337.435,257.44,337.435,257.44Z" transform="translate(-279.796 -251.656)" fill="#ff7e00" opacity="0.3"/>
            <path id="Trazado_903545" data-name="Trazado 903545" d="M196.669,268.012s-12.95,5.421-8.667,24.628c0,0,2.251-11.735,10.2-15.391S202.859,266.451,196.669,268.012Z" transform="translate(-184.651 -258.21)" fill="#fff" opacity="0.3"/>
            <path id="Trazado_903546" data-name="Trazado 903546" d="M256.438,268.016s-6.28,3.238-6.416,14.051a45.2,45.2,0,0,0,3.908,18.921s-.771-12.752,6.05-17.283S265.354,264.236,256.438,268.016Z" transform="translate(-224.459 -257.967)" fill="#fff" opacity="0.3"/>
          </g>
        </g>
        <g id="Grupo_1112211" data-name="Grupo 1112211" transform="translate(0 90.463)">
          <path id="Trazado_903547" data-name="Trazado 903547" d="M131.952,351.8c-.556,13.606-10.661,34.288-37.537,31.381s-26.8-26.907-28.39-32.269-3.077-4.871-5.016-5.777-1.785-4.67-1.785-4.67l1.163.182,71.525,11.147Z" transform="translate(-59.221 -340.461)" fill="#693696"/>
          <g id="Grupo_1112209" data-name="Grupo 1112209" transform="translate(0)" opacity="0.3">
            <path id="Trazado_903548" data-name="Trazado 903548" d="M131.912,351.788c-.027.444-.065.892-.113,1.347-.011.118-.026.236-.04.355-1.558,13.273-12.187,29.375-36.847,26.675-26.043-2.851-25.929-24.916-27.464-30.277s-3.567-4.877-5.649-5.7c-1.63-.642-1.765-2.445-1.888-3.623l-.686-.107s-.154,3.76,1.785,4.67,3.427.412,5.016,5.777,1.514,29.364,28.39,32.269S131.4,365.4,131.952,351.795Z" transform="translate(-59.221 -340.46)" fill="#606060" opacity="0.3"/>
          </g>
          <path id="Trazado_903549" data-name="Trazado 903549" d="M134.733,353.593c.037-.1.066-.193.1-.29-.044.215-.088.43-.14.645-2.779,12.517-13.589,25.983-36.307,23.5-26.044-2.851-25.686-23.969-27.221-29.33-1.408-4.928-7-2.795-7.307-6.931l7.8,1.214,63.193,9.849C134.82,352.69,134.782,353.138,134.733,353.593Z" transform="translate(-62.156 -340.918)" fill="#fff" opacity="0.2"/>
          <path id="Trazado_903550" data-name="Trazado 903550" d="M137.666,352.684c-.027.444-.065.892-.113,1.347-3.9,11.389-14.709,22.273-35.328,20.017C76.181,371.2,76.287,352.963,74.876,347.57c-.449-1.723-3.079-3.649-4.929-4.187a2.444,2.444,0,0,1-1.636-1.508l7.444,1.16,1.562.244,59.616,9.29.058.011Z" transform="translate(-64.975 -341.356)" fill="#fff" opacity="0.2"/>
          <g id="Grupo_1112210" data-name="Grupo 1112210" transform="translate(10.208 1.591)">
            <path id="Trazado_903551" data-name="Trazado 903551" d="M148.06,354.305l-.22-.034c-5.328,8.478-15.582,15.134-32.512,13.9C92.437,366.5,88.892,352.2,87.163,344.815l-.126-.019c.332,4,3.192,23.848,27.265,25.605C132.668,371.739,143.169,363.793,148.06,354.305Z" transform="translate(-87.037 -344.796)" fill="#fff" opacity="0.2"/>
            <path id="Trazado_903552" data-name="Trazado 903552" d="M118.774,363.246c-17.824-1.3-23.919-10.256-26.56-17.645l-.186-.029-.477-.074c2.124,7.359,8.293,18.672,26.2,19.979,15.039,1.1,24.8-4.035,30.535-11.139l-.837-.131C141.548,360.191,132.287,364.232,118.774,363.246Z" transform="translate(-89.894 -345.24)" fill="#fff" opacity="0.2"/>
            <path id="Trazado_903553" data-name="Trazado 903553" d="M132.88,356.918a42.232,42.232,0,0,0,17.943-2.183l-4.45-.694a46.754,46.754,0,0,1-12.466.645c-7.749-.566-13.281-2.578-17.276-5.28l-3.032-.472C117.646,352.967,123.73,356.25,132.88,356.918Z" transform="translate(-103.852 -347.416)" fill="#fff" opacity="0.2"/>
            <path id="Trazado_903554" data-name="Trazado 903554" d="M123.414,360.9c11.437.833,19.822-1.935,25.7-6.432l-1.857-.289c-5.643,3.32-13.139,5.2-22.821,4.491-13.2-.964-19.961-6.122-23.657-11.733l-1.209-.188C103.009,353.163,109.836,359.911,123.414,360.9Z" transform="translate(-94.974 -346.033)" fill="#fff" opacity="0.2"/>
          </g>
        </g>
        <g id="Grupo_1112213" data-name="Grupo 1112213" transform="translate(119.181 78.693)">
          <path id="Trazado_903555" data-name="Trazado 903555" d="M449.974,388.057a5.7,5.7,0,0,1-3.8,5.519,6.167,6.167,0,0,1-2.76.261c-2.5-.312-4.756-2.018-4.653-4.521.389-9.38-2.3-17.2-6.213-20.539l5.053-2.837a25.726,25.726,0,0,1,4.888,4.771,38.369,38.369,0,0,1,7.354,16.037A6.669,6.669,0,0,1,449.974,388.057Z" transform="translate(-414.729 -344.819)" fill="#fff"/>
          <path id="Trazado_903556" data-name="Trazado 903556" d="M443.414,393.837c-2.5-.312-4.756-2.018-4.653-4.521.389-9.38-2.3-17.2-6.213-20.539l5.053-2.837a25.727,25.727,0,0,1,4.888,4.771,8.61,8.61,0,0,1-3.024,2.837S443.67,384.222,443.414,393.837Z" transform="translate(-414.729 -344.819)" fill="#955e42" opacity="0.3"/>
          <path id="Trazado_903557" data-name="Trazado 903557" d="M419.018,315.764c3.082,5.865-1.989,14.6-11.326,19.505s-19.406,4.131-22.489-1.735-.355-18.1,8.983-23.007S415.935,309.9,419.018,315.764Z" transform="translate(-383.991 -308.385)" fill="#955e42"/>
          <path id="Trazado_903558" data-name="Trazado 903558" d="M419.951,325.868a8.591,8.591,0,0,0-1.039-1.522c1.542,5.764-3.422,13.429-11.946,17.908-8.506,4.47-17.615,4.222-21.5-.29a9.413,9.413,0,0,0,.671,1.674c3.083,5.865,13.151,6.642,22.489,1.735S423.033,331.733,419.951,325.868Z" transform="translate(-384.924 -318.489)" fill="#fff" opacity="0.2"/>
          <path id="Trazado_903559" data-name="Trazado 903559" d="M404.707,313.839s-3.893,2.854-3.782,4.077,3.408-2.039,3.408-2.039-2.433,4.546-.816,5.586,3.819-5.077,3.819-5.077,4,1.117,5.608.222-2.3-1.889-2.3-1.889,4.771-.449,5.015-1.714S408.865,310.985,404.707,313.839Z" transform="translate(-394.709 -310.595)" fill="#955e42" opacity="0.3"/>
          <g id="Grupo_1112212" data-name="Grupo 1112212" transform="translate(3.387 4.855)">
            <path id="Trazado_903560" data-name="Trazado 903560" d="M434.674,354.833c-2.833,0-2.838,4.4,0,4.4S437.512,354.833,434.674,354.833Z" transform="translate(-418.115 -342.643)" fill="#fff" opacity="0.2"/>
            <path id="Trazado_903561" data-name="Trazado 903561" d="M394.815,351.833a1.652,1.652,0,0,0,0,3.3A1.652,1.652,0,0,0,394.815,351.833Z" transform="translate(-393.22 -340.744)" fill="#fff" opacity="0.2"/>
            <path id="Trazado_903562" data-name="Trazado 903562" d="M462.278,326.43a1.652,1.652,0,0,0,0,3.3A1.652,1.652,0,0,0,462.278,326.43Z" transform="translate(-435.926 -324.663)" fill="#fff" opacity="0.2"/>
            <path id="Trazado_903563" data-name="Trazado 903563" d="M454.595,347.244a.551.551,0,0,0,0,1.1A.551.551,0,0,0,454.595,347.244Z" transform="translate(-431.736 -337.839)" fill="#fff" opacity="0.2"/>
            <path id="Trazado_903564" data-name="Trazado 903564" d="M430.4,329.333a1.1,1.1,0,0,0,0,2.2A1.1,1.1,0,0,0,430.4,329.333Z" transform="translate(-416.083 -326.501)" fill="#fff" opacity="0.2"/>
            <path id="Trazado_903565" data-name="Trazado 903565" d="M414.15,346.167a.551.551,0,0,0,0,1.1A.551.551,0,0,0,414.15,346.167Z" transform="translate(-406.133 -337.158)" fill="#fff" opacity="0.2"/>
            <path id="Trazado_903566" data-name="Trazado 903566" d="M449.623,321.616a.551.551,0,0,0,0,1.1A.551.551,0,0,0,449.623,321.616Z" transform="translate(-428.588 -321.616)" fill="#fff" opacity="0.2"/>
            <path id="Trazado_903567" data-name="Trazado 903567" d="M417.579,364.667a1.1,1.1,0,0,0,0,2.2A1.1,1.1,0,0,0,417.579,364.667Z" transform="translate(-407.967 -348.869)" fill="#fff" opacity="0.2"/>
          </g>
        </g>
        <g id="Grupo_1112215" data-name="Grupo 1112215" transform="translate(184.961 2.423)">
          <path id="Trazado_903568" data-name="Trazado 903568" d="M563.53,134.6a2.953,2.953,0,0,0,.624,3.415,3.193,3.193,0,0,0,1.248.709,2.475,2.475,0,0,0,3.159-1.147c1.809-4.513,4.74-7.634,7.3-8.382l-1.784-2.414A13.327,13.327,0,0,0,570.752,128a19.873,19.873,0,0,0-6.881,6.013A3.477,3.477,0,0,0,563.53,134.6Z" transform="translate(-563.245 -117.156)" fill="#fff"/>
          <path id="Trazado_903569" data-name="Trazado 903569" d="M568.632,140.43a2.475,2.475,0,0,0,3.158-1.147c1.809-4.513,4.74-7.634,7.3-8.382l-1.784-2.414a13.326,13.326,0,0,0-3.323,1.215,4.461,4.461,0,0,0,.826,1.982A31.488,31.488,0,0,0,568.632,140.43Z" transform="translate(-566.655 -118.235)" fill="#955e42" opacity="0.3"/>
          <path id="Trazado_903570" data-name="Trazado 903570" d="M581.607,101.729c-2.7,2.116-2.162,7.318,1.206,11.62s8.289,6.074,10.991,3.958,4.013-8.474.644-12.776S584.309,99.613,581.607,101.729Z" transform="translate(-573.78 -100.55)" fill="#955e42"/>
          <path id="Trazado_903571" data-name="Trazado 903571" d="M581.606,102.9a4.472,4.472,0,0,1,.814-.5c-1.953,2.4-1.236,7.071,1.838,11s7.424,5.736,10.218,4.431a4.871,4.871,0,0,1-.673.648c-2.7,2.116-7.623.344-10.991-3.958S578.9,105.018,581.606,102.9Z" transform="translate(-573.779 -101.724)" fill="#fff" opacity="0.2"/>
          <path id="Trazado_903572" data-name="Trazado 903572" d="M610.558,107.923s1.233,2.175.92,2.729-1.177-1.687-1.177-1.687.184,2.664-.8,2.812-.725-3.21-.725-3.21-2.126-.322-2.7-1.086,1.49-.4,1.49-.4-2.158-1.226-2-1.875S609.2,105.692,610.558,107.923Z" transform="translate(-590.029 -103.381)" fill="#955e42" opacity="0.3"/>
          <g id="Grupo_1112214" data-name="Grupo 1112214" transform="translate(9.296 1.863)">
            <path id="Trazado_903573" data-name="Trazado 903573" d="M595.655,124.748a1.141,1.141,0,0,1-.935,2.08A1.141,1.141,0,0,1,595.655,124.748Z" transform="translate(-592.053 -117.663)" fill="#fff" opacity="0.2"/>
            <path id="Trazado_903574" data-name="Trazado 903574" d="M616.237,132.04a.856.856,0,0,1-.7,1.56A.856.856,0,0,1,616.237,132.04Z" transform="translate(-605.334 -122.296)" fill="#fff" opacity="0.2"/>
            <path id="Trazado_903575" data-name="Trazado 903575" d="M589.767,105.709a.856.856,0,0,1-.7,1.56A.856.856,0,0,1,589.767,105.709Z" transform="translate(-588.577 -105.627)" fill="#fff" opacity="0.2"/>
            <path id="Trazado_903576" data-name="Trazado 903576" d="M591.209,117.656a.285.285,0,0,1-.234.52A.285.285,0,0,1,591.209,117.656Z" transform="translate(-589.992 -113.225)" fill="#fff" opacity="0.2"/>
            <path id="Trazado_903577" data-name="Trazado 903577" d="M605.326,114.094a.571.571,0,0,1-.468,1.04A.571.571,0,0,1,605.326,114.094Z" transform="translate(-598.677 -110.953)" fill="#fff" opacity="0.2"/>
            <path id="Trazado_903578" data-name="Trazado 903578" d="M610.543,125.739a.285.285,0,0,1-.234.52A.285.285,0,0,1,610.543,125.739Z" transform="translate(-602.231 -118.342)" fill="#fff" opacity="0.2"/>
            <path id="Trazado_903579" data-name="Trazado 903579" d="M599,106.606a.285.285,0,0,1-.234.52A.285.285,0,0,1,599,106.606Z" transform="translate(-594.925 -106.23)" fill="#fff" opacity="0.2"/>
            <path id="Trazado_903580" data-name="Trazado 903580" d="M603.875,133.508a.571.571,0,0,1-.468,1.04A.571.571,0,0,1,603.875,133.508Z" transform="translate(-597.759 -123.242)" fill="#fff" opacity="0.2"/>
          </g>
        </g>
        <g id="Grupo_1112219" data-name="Grupo 1112219" transform="translate(180.87 86.257)">
          <g id="Grupo_1112216" data-name="Grupo 1112216" transform="translate(0 4.372)">
            <path id="Trazado_903581" data-name="Trazado 903581" d="M600.109,374.815a19.2,19.2,0,0,1-5.724,6.938,22.32,22.32,0,0,1-8.577,3.928,27.981,27.981,0,0,1-18.339-2.324c-12.727-6.182-18.747-20.032-13.449-30.94a19.471,19.471,0,0,1,7.84-8.35c6.857-3.988,16.251-4.349,24.8-.2a28.779,28.779,0,0,1,10.636,8.768v0C602.2,359.32,603.568,367.7,600.109,374.815Z" transform="translate(-552.096 -340.913)" fill="#d93d46"/>
            <path id="Trazado_903582" data-name="Trazado 903582" d="M576.131,345.055l1.048-1.8s-9.474.555-13.9,11.252c-4.8,11.6.659,36.258,31.1,27.25a22.321,22.321,0,0,1-8.577,3.928,27.981,27.981,0,0,1-18.339-2.324c-12.727-6.182-18.747-20.032-13.449-30.94a19.471,19.471,0,0,1,7.84-8.35c6.857-3.988,16.251-4.349,24.8-.2a28.779,28.779,0,0,1,10.636,8.768v0a18.728,18.728,0,0,1-5.175-2.516l-.556,2.865s-4.591-1.544-5.272-4.52l-3.258.8-.908-3.152Z" transform="translate(-552.097 -340.913)" fill="#606060" opacity="0.3"/>
            <path id="Trazado_903583" data-name="Trazado 903583" d="M668.395,393.675c.366,4.017-1.321,7.454-3.769,7.677s-4.728-2.853-5.093-6.87,1.322-7.454,3.769-7.677S668.029,389.659,668.395,393.675Z" transform="translate(-620.075 -369.957)" fill="#fff" opacity="0.2"/>
          </g>
          <g id="Grupo_1112218" data-name="Grupo 1112218" transform="translate(22.021)">
            <path id="Trazado_903584" data-name="Trazado 903584" d="M624.691,339.649s-1.367-3.617-8.927-5.322c0,0-.078.69,1.933,1.923,0,0-4.144-1.072-5.594.063a19.429,19.429,0,0,0,5.747,2.793s-2.633.133-3.733,1.781c0,0,3.779,2.264,6.98.7,0,0-.5,2.536-.081,3.513a8.38,8.38,0,0,0,4.715-1.689,6.264,6.264,0,0,0,4.124,5.428,10.087,10.087,0,0,0-.017-4.545,10.82,10.82,0,0,0,5.05,3.524s-.686-2.816-4.538-5.458a8.607,8.607,0,0,0,3.967.644S629.8,339.091,624.691,339.649Z" transform="translate(-612.103 -332.372)" fill="#289672"/>
            <g id="Grupo_1112217" data-name="Grupo 1112217" transform="translate(11.244)">
              <path id="Trazado_903585" data-name="Trazado 903585" d="M642.744,337.488s4.367-9.607,10.087-8.381l1.043,1.258s-6.093-.354-10.035,7.655C643.839,338.021,643.365,338.893,642.744,337.488Z" transform="translate(-642.744 -329)" fill="#289672"/>
              <path id="Trazado_903586" data-name="Trazado 903586" d="M642.744,337.488s4.367-9.607,10.087-8.381l1.043,1.258s-6.093-.354-10.035,7.655C643.839,338.021,643.365,338.893,642.744,337.488Z" transform="translate(-642.744 -329)" fill="#606060" opacity="0.3"/>
            </g>
          </g>
        </g>
        <g id="Grupo_1112226" data-name="Grupo 1112226" transform="translate(69.096 104.981)">
          <g id="Grupo_1112222" data-name="Grupo 1112222">
            <g id="Grupo_1112220" data-name="Grupo 1112220" transform="translate(3.747)">
              <path id="Trazado_903587" data-name="Trazado 903587" d="M261.459,398.538s-5.207-5.647-3.33-10.442,10.018-2.235,10.018-2.235-.908-6.5,6.747-5.781,13.039,7.694,13.039,7.694,2.536-4.021,5.964-1.44,7.044,18.564,9.514,19.744S261.459,398.538,261.459,398.538Z" transform="translate(-257.72 -380.024)" fill="#289672"/>
              <path id="Trazado_903588" data-name="Trazado 903588" d="M293.9,386.333c1.875,1.411,3.808,6.839,5.576,11.656.666,1.815,1.313,3.542,1.922,4.936.727,1.673,1.407,2.865,2.016,3.153.825.393-3.57-.314-9.791-1.432-12.43-2.234-32.162-6.108-32.162-6.108a17.7,17.7,0,0,1-3.061-4.922,7.584,7.584,0,0,1-.269-5.521c1.877-4.8,10.018-2.236,10.018-2.236s-.908-6.5,6.747-5.781,13.039,7.694,13.039,7.694S290.468,383.752,293.9,386.333Z" transform="translate(-257.72 -380.023)" fill="#606060" opacity="0.3"/>
            </g>
            <g id="Grupo_1112221" data-name="Grupo 1112221" transform="translate(0 7.385)">
              <path id="Trazado_903589" data-name="Trazado 903589" d="M293.538,417.4c-.737.054-9.508,4.652-13.045,7.122s-9.732,2.236-8.391-2.838c0,0-12.974,8.976-13.834.5,0,0-11.139.907-10.748-6.371s9.818-7.823,9.818-7.823-.758-10.926,16.013-1.256c0,0-1.678-7.808,5.226-6.413s12.449,8.731,20.756,11.575S297.62,417.1,293.538,417.4Z" transform="translate(-247.51 -400.147)" fill="#289672"/>
              <path id="Trazado_903590" data-name="Trazado 903590" d="M304.294,421.765s-15.193,5.568-18.181,8.14-6.644.73-3.56-4.863c0,0-13.79,10.176-14.819,1.6,0,0-9.97,3.083-10.08-3.021s8.91-5.785,8.91-5.785-1.381-7.488,15.5-.845c0,0-1.953-5.785,3.511-5.029S304.294,421.765,304.294,421.765Z" transform="translate(-253.93 -407.586)" fill="#fff" opacity="0.2"/>
              <path id="Trazado_903591" data-name="Trazado 903591" d="M291.984,417.391c.838,2.782,3.254,4.673,5.284,5.82-3.542.025-7.618.127-11.54.391l.308-.138a12.377,12.377,0,0,1-9.6-4.336c1.01,2.664,3.818,4.093,5.686,4.773-5.5.548-10.2,1.5-11.914,3.127a59.945,59.945,0,0,1,14.66-2.165c.654-.018,1.34-.029,2.051-.034-1.808,1.116-4.212,3.03-5.043,5.675a15.393,15.393,0,0,1,7.2-5.676c2.754.017,5.713.1,8.428.2-1.831,1.085-4.453,3.061-5.33,5.848a15.4,15.4,0,0,1,7.452-5.764c4.355.182,7.649.385,7.649.385l.025-2.164s-2.878-.106-7.044-.123A15.279,15.279,0,0,1,291.984,417.391Z" transform="translate(-261.877 -411.063)" fill="#fff" opacity="0.5"/>
            </g>
          </g>
          <g id="Grupo_1112225" data-name="Grupo 1112225" transform="translate(42.319 9.226)">
            <path id="Trazado_903592" data-name="Trazado 903592" d="M453.057,420.6c-.163,9.842-63.36,8.591-79.048,8.187s-10.278-12.348-10.278-12.348-2.669-6.543,1.992-9.659c1.721-1.152,4.447-1.839,8.676-1.552,8.113.547,28.928,2.007,47.108,4.653l.45.066c9.71,1.428,18.627,3.193,24.4,5.343.037.015.07.029.1.04,2.869,1.079,4.947,2.253,5.941,3.527A2.731,2.731,0,0,1,453.057,420.6Z" transform="translate(-362.831 -405.165)" fill="#ff7e00"/>
            <g id="Grupo_1112223" data-name="Grupo 1112223" transform="translate(12.873 0.154)" opacity="0.3">
              <path id="Trazado_903593" data-name="Trazado 903593" d="M412.008,443.275c.3-6.821-1.519-15.5-1.519-15.5a80.646,80.646,0,0,1-.859,15.463Z" transform="translate(-405.329 -419.629)" fill="#606060"/>
              <path id="Trazado_903594" data-name="Trazado 903594" d="M476.584,412.309q-.858-.093-1.71-.182a71.331,71.331,0,0,1,.29,10.846A86.006,86.006,0,0,0,476.584,412.309Z" transform="translate(-446.63 -409.726)" fill="#606060"/>
              <path id="Trazado_903595" data-name="Trazado 903595" d="M438.211,408.661l-1.848-.158a73.6,73.6,0,0,1,.378,11.727A84.7,84.7,0,0,0,438.211,408.661Z" transform="translate(-422.252 -407.432)" fill="#606060"/>
              <path id="Trazado_903596" data-name="Trazado 903596" d="M514.954,416.927q-.752-.105-1.509-.208a68.1,68.1,0,0,1,.181,9.608A87.226,87.226,0,0,0,514.954,416.927Z" transform="translate(-471.047 -412.633)" fill="#606060"/>
              <path id="Trazado_903597" data-name="Trazado 903597" d="M399.85,405.718l-1.941-.134a75.153,75.153,0,0,1,.444,12.35A83.45,83.45,0,0,0,399.85,405.718Z" transform="translate(-397.909 -405.584)" fill="#606060"/>
              <path id="Trazado_903598" data-name="Trazado 903598" d="M553.276,423.134c-.4-.079-.8-.158-1.2-.235a63.262,63.262,0,0,1,.049,7.789S552.824,427.325,553.276,423.134Z" transform="translate(-495.501 -416.545)" fill="#606060"/>
              <path id="Trazado_903599" data-name="Trazado 903599" d="M568.465,443.129a84.512,84.512,0,0,0-1.51-11.987,73.333,73.333,0,0,1-.447,12.278Q567.51,443.281,568.465,443.129Z" transform="translate(-504.637 -421.763)" fill="#606060"/>
              <path id="Trazado_903600" data-name="Trazado 903600" d="M490.067,444.232a77.682,77.682,0,0,0-1.543-14.776,79.319,79.319,0,0,1-.768,14.834Q488.909,444.264,490.067,444.232Z" transform="translate(-454.785 -420.696)" fill="#606060"/>
              <path id="Trazado_903601" data-name="Trazado 903601" d="M529.221,444.1a80.381,80.381,0,0,0-1.552-13.8,77.271,77.271,0,0,1-.648,13.946Q528.129,444.179,529.221,444.1Z" transform="translate(-479.641 -421.23)" fill="#606060"/>
              <path id="Trazado_903602" data-name="Trazado 903602" d="M449.469,428.613a80.263,80.263,0,0,1-.834,15.3q1.166,0,2.361,0A76.091,76.091,0,0,0,449.469,428.613Z" transform="translate(-430.02 -420.162)" fill="#606060"/>
            </g>
            <path id="Trazado_903603" data-name="Trazado 903603" d="M381.263,410.727s13.033-.658,38.494,3.846c0,0-32.559-1.179-37.512-.276S377.728,410.747,381.263,410.727Z" transform="translate(-372.793 -408.665)" fill="#fff" opacity="0.2"/>
            <g id="Grupo_1112224" data-name="Grupo 1112224" transform="translate(0 1.617)">
              <path id="Trazado_903604" data-name="Trazado 903604" d="M453.057,423.392c-.163,9.842-63.36,8.591-79.048,8.187s-10.278-12.349-10.278-12.349-2.669-6.543,1.992-9.659c-.874,2.822-1.157,6.283,1.011,9.068,0,0-1.328,10.147,34.933,10.147,32.507,0,47.5-4.818,50.734-7.138A2.732,2.732,0,0,1,453.057,423.392Z" transform="translate(-362.831 -409.572)" fill="#606060" opacity="0.3"/>
              <path id="Trazado_903605" data-name="Trazado 903605" d="M545.554,423.545c-11.1,2.139-24.548,2.422-25.846-1.428-.55-1.629.28-2.936,1.448-3.916C530.866,419.63,539.783,421.395,545.554,423.545Z" transform="translate(-462.029 -415.035)" fill="#606060" opacity="0.3"/>
            </g>
          </g>
        </g>
        <g id="Grupo_1112237" data-name="Grupo 1112237" transform="translate(44.538)">
          <g id="Grupo_1112230" data-name="Grupo 1112230" transform="translate(4.016)">
            <g id="Grupo_1112227" data-name="Grupo 1112227" transform="translate(0 9.735)">
              <path id="Trazado_903606" data-name="Trazado 903606" d="M202.765,132.118c.124-.331,2.978-8.151-1.5-11.528l-.152-.115-.138.131c-.057.054-5.776,5.425-9.416,5.234l-.023.45c3.545.185,8.67-4.363,9.607-5.225,4,3.244,1.232,10.817,1.2,10.894Z" transform="translate(-191.532 -120.475)" fill="#289672"/>
            </g>
            <g id="Grupo_1112228" data-name="Grupo 1112228" transform="translate(4.178)">
              <path id="Trazado_903607" data-name="Trazado 903607" d="M208.284,103.815c-.1.308-6.235-2.554-5.263-9.869C203.021,93.946,211.15,95.117,208.284,103.815Z" transform="translate(-202.917 -93.946)" fill="#289672"/>
              <path id="Trazado_903608" data-name="Trazado 903608" d="M210.655,106.182s-.745-6.877-3.994-8.5Z" transform="translate(-205.287 -96.314)" fill="#606060" opacity="0.15"/>
            </g>
            <g id="Grupo_1112229" data-name="Grupo 1112229" transform="translate(9.56 3.987)">
              <path id="Trazado_903609" data-name="Trazado 903609" d="M217.611,110.877c-.315-.076,2.037-6.423,9.406-6.051C227.017,104.826,226.513,113.023,217.611,110.877Z" transform="translate(-217.583 -104.81)" fill="#289672"/>
              <path id="Trazado_903610" data-name="Trazado 903610" d="M217.658,113.281s6.794-1.3,8.142-4.674Z" transform="translate(-217.631 -107.214)" fill="#606060" opacity="0.15"/>
            </g>
          </g>
          <g id="Grupo_1112233" data-name="Grupo 1112233" transform="translate(0 10.833)">
            <path id="Trazado_903611" data-name="Trazado 903611" d="M193.878,129.728a7.01,7.01,0,0,1-4.093,6.034c-.049.026-.1.049-.151.072-3.085,1.373-6.7.583-6.561-1.6a3.6,3.6,0,0,1-2.481-3.532c0-.065,0-.128,0-.19a7.487,7.487,0,0,1,7.2-7.046,2.971,2.971,0,0,1,2.88,2.188,3.044,3.044,0,0,1,2.911,1.723A4.829,4.829,0,0,1,193.878,129.728Z" transform="translate(-180.587 -123.465)" fill="#693696"/>
            <path id="Trazado_903612" data-name="Trazado 903612" d="M193.885,133.671a7.01,7.01,0,0,1-4.093,6.034c-.049.026-.1.049-.151.072-3.085,1.373-6.7.583-6.561-1.6a3.6,3.6,0,0,1-2.481-3.532,3.325,3.325,0,0,0,3.376,1.5c.7-2.033,2.505-5.568,6.616-6.448,0,0-4.5,2.623-6.427,6.41-.262,3.391,2.659,3.242,3.789,2.294,1.79-1.5,3.336-6.043,5.628-7.076A4.824,4.824,0,0,1,193.885,133.671Z" transform="translate(-180.594 -127.409)" fill="#606060" opacity="0.2"/>
            <g id="Grupo_1112232" data-name="Grupo 1112232" transform="translate(5.506 0.39)" opacity="0.2">
              <g id="Grupo_1112231" data-name="Grupo 1112231">
                <path id="Trazado_903613" data-name="Trazado 903613" d="M202.516,131.886c-.915.6-1.756,1.665-1.485,2.129s1.552.148,2.467-.449,1.118-1.249.847-1.713S203.431,131.289,202.516,131.886Z" transform="translate(-199.002 -128.923)" fill="#fff"/>
                <path id="Trazado_903614" data-name="Trazado 903614" d="M197.117,124.579c-.786.164-1.617.676-1.518,1.072s.851.19,1.637.026,1.306-.223,1.208-.62S197.9,124.415,197.117,124.579Z" transform="translate(-195.591 -124.528)" fill="#fff"/>
              </g>
            </g>
          </g>
          <g id="Grupo_1112236" data-name="Grupo 1112236" transform="translate(10.636 13.883)">
            <path id="Trazado_903615" data-name="Trazado 903615" d="M223.661,143.193a2.179,2.179,0,0,1-.087.2,3.925,3.925,0,0,1-4.156,2.564c-.809,2.4-4.953,1.47-7.6-1.515-.044-.048-.088-.1-.129-.152a8.916,8.916,0,0,1-1.676-2.924,8.719,8.719,0,0,1,.013-5.546c1.529-4.807,5.161-2.779,5.161-2.779a3.243,3.243,0,0,1,3.986-.924A9.21,9.21,0,0,1,223.661,143.193Z" transform="translate(-209.569 -131.778)" fill="#693696"/>
            <path id="Trazado_903616" data-name="Trazado 903616" d="M220.276,145.772c.145-2.522-.2-7.191-4.142-10.152,0,0,3.586,5.018,3.957,10.019-3.395,3.44-6.989.47-9.091-1.744a8.851,8.851,0,0,0,1.6,2.832c.041.051.084.1.129.152,2.645,2.985,6.79,3.913,7.6,1.515a3.925,3.925,0,0,0,4.156-2.564A3.7,3.7,0,0,1,220.276,145.772Z" transform="translate(-210.475 -134.21)" fill="#606060" opacity="0.2"/>
            <g id="Grupo_1112235" data-name="Grupo 1112235" transform="translate(0.99 0.868)" opacity="0.2">
              <g id="Grupo_1112234" data-name="Grupo 1112234">
                <path id="Trazado_903617" data-name="Trazado 903617" d="M214.755,139.267c-.49,1.164-1.523,2.317-2.1,2.076s-.471-1.787.019-2.951,1.182-1.506,1.756-1.264S215.245,138.1,214.755,139.267Z" transform="translate(-212.267 -135.986)" fill="#fff"/>
                <path id="Trazado_903618" data-name="Trazado 903618" d="M229.636,134.658c.706.626,1.274,1.634.965,1.983s-.959-.3-1.665-.929-1.2-.99-.892-1.339S228.93,134.032,229.636,134.658Z" transform="translate(-222.195 -134.142)" fill="#fff"/>
              </g>
            </g>
          </g>
        </g>
        <g id="Grupo_1112298" data-name="Grupo 1112298" transform="translate(15.119 19.884)">
          <g id="Grupo_1112264" data-name="Grupo 1112264">
            <g id="Grupo_1112238" data-name="Grupo 1112238" transform="translate(3.85 52.096)">
              <path id="Trazado_903619" data-name="Trazado 903619" d="M170.994,451.069H155.02l.092-1.483.382-6.037h5.2l.239,1.332a29.081,29.081,0,0,0,3.846,1.508c.484,0,5.82-1.215,6.238,3.2A7.016,7.016,0,0,1,170.994,451.069Z" transform="translate(-138.834 -387.236)" fill="#606060"/>
              <path id="Trazado_903620" data-name="Trazado 903620" d="M170.994,461.483H155.02l.092-1.483H171.02A7.016,7.016,0,0,1,170.994,461.483Z" transform="translate(-138.834 -397.649)" fill="#606060" opacity="0.3"/>
              <path id="Trazado_903621" data-name="Trazado 903621" d="M121.612,450.7v1.725s-7.244,2.429-10.693-.613a6.292,6.292,0,0,1,.11-1.468,7.732,7.732,0,0,1,2.514-4.455l.653-3.868,5.486,1.369v2.206A45.012,45.012,0,0,1,121.612,450.7Z" transform="translate(-110.912 -386.267)" fill="#606060"/>
              <path id="Trazado_903622" data-name="Trazado 903622" d="M121.612,465.056v1.725s-7.244,2.429-10.693-.613a6.292,6.292,0,0,1,.11-1.468S114.849,467,121.612,465.056Z" transform="translate(-110.912 -400.624)" fill="#606060" opacity="0.3"/>
              <path id="Trazado_903623" data-name="Trazado 903623" d="M138.035,347.09a23.58,23.58,0,0,1-8.147.143l-.25-10.4-.749-30.994c-.011,1.244-.037,2.484-.081,3.71,0,.04,0,.081,0,.117-.433,11.846-2.239,23.086-4.437,37.842a11.232,11.232,0,0,1-7.174-.5c-.011-1.119-.026-2.235-.037-3.347-.205-20.58-.161-39.768.833-53.574l20.668.565q.11,4.376.2,8.745C139.18,315.262,139.213,331.1,138.035,347.09Z" transform="translate(-114.803 -290.092)" fill="#955e42"/>
              <path id="Trazado_903624" data-name="Trazado 903624" d="M151.212,332.5s.146,19.76-1.163,29.675l-.748-31,5.409-1.052Z" transform="translate(-135.213 -315.438)" fill="#606060" opacity="0.3"/>
              <path id="Trazado_903625" data-name="Trazado 903625" d="M138.857,299.4c-3.068,1.163-11.871,4.018-19.163,1.714,0,0-1.277,19.391-2.536,42.55-.205-20.58-.161-39.768.833-53.574l20.668.565Q138.768,295.033,138.857,299.4Z" transform="translate(-114.803 -290.092)" fill="#606060" opacity="0.3"/>
            </g>
            <g id="Grupo_1112252" data-name="Grupo 1112252" transform="translate(0 13.195)">
              <g id="Grupo_1112239" data-name="Grupo 1112239" transform="translate(22.006 11.19)">
                <path id="Trazado_903626" data-name="Trazado 903626" d="M164.373,214.579s4.85,10.69,5.332,14.816-5.314,2.944-5.314,2.944Z" transform="translate(-162.91 -214.579)" fill="#ff7e00"/>
                <path id="Trazado_903627" data-name="Trazado 903627" d="M160.387,220.014s3.9,11.115,4.382,15.241-4.365,2.519-4.365,2.519Z" transform="translate(-160.387 -218.02)" fill="#606060" opacity="0.3"/>
              </g>
              <g id="Grupo_1112240" data-name="Grupo 1112240" transform="translate(2.194 5.942)">
                <path id="Trazado_903628" data-name="Trazado 903628" d="M109.624,241.733c3.177,2.375,13.085,1.4,13.085,1.4s7.872-.458,10.334-3.568l-3.158-13.084-1.021-4.232-1.192-16.721s-1.017-2.363-5.2-3.951a18.882,18.882,0,0,0-5.659-1.3,16.717,16.717,0,0,0-3.641,1.615c-.41.234-.8.486-1.175.745a22.51,22.51,0,0,0-5.6,5.52l.909,4.31,1.607,7.639.344,10.451.035,1.057Z" transform="translate(-106.398 -200.276)" fill="#ff7e00"/>
                <path id="Trazado_903629" data-name="Trazado 903629" d="M133.686,256.749a21.269,21.269,0,0,1-10.255,1.7c-6.317-.565-9.471-2.052-9.471-2.052a48.432,48.432,0,0,0,2.724,7.842c-2.192-.177-4.307-.593-5.492-1.479l-.331-10.119-.378-11.508-1.606-7.64,4.289.085s2.487,9.831,3.426,10.441,11.423,3.964,14.865,3.484Z" transform="translate(-107.967 -221.303)" fill="#606060" opacity="0.2"/>
              </g>
              <g id="Grupo_1112243" data-name="Grupo 1112243" transform="translate(22.996 9.522)">
                <path id="Trazado_903630" data-name="Trazado 903630" d="M170.839,264.133v0s0,0,0,0l.007,0v0c6.3,1.158,19.032-12.245,19.7-18.485A6.7,6.7,0,0,0,188,239.59c-3.112-2.648-7.984-3.454-8.6-3.548-.983-.4-12.167-5.131-15.42,1.824C161.323,243.551,164.847,261.858,170.839,264.133Z" transform="translate(-163.084 -225.269)" fill="#d93d46"/>
                <path id="Trazado_903631" data-name="Trazado 903631" d="M170.839,264.133c-11.909-23.14,2.067-26.224,2.067-26.224,4.352,3.378,5.8,1.043,5.8,1.043a10.4,10.4,0,0,0,6.869.946l2.429-.309c-3.112-2.648-7.984-3.454-8.6-3.548-.983-.4-12.167-5.131-15.42,1.824C161.323,243.55,164.847,261.858,170.839,264.133Z" transform="translate(-163.084 -225.269)" fill="#606060" opacity="0.2"/>
                <g id="Grupo_1112241" data-name="Grupo 1112241" transform="translate(5.603)">
                  <path id="Trazado_903632" data-name="Trazado 903632" d="M204.258,220.651l1.263-.171,1.24-.167c-1.015-.016-.12-6.561,3.977-7.971l.011,0-1.038-2.3C204.565,212.351,203.893,217.992,204.258,220.651Z" transform="translate(-194.699 -210.034)" fill="#289672"/>
                  <path id="Trazado_903633" data-name="Trazado 903633" d="M208.071,220.708c-.1.8-.171,1.492-.227,2.087l1.24-.167c-1.015-.016-.12-6.561,3.977-7.971l-1.109-.965S208.763,215.048,208.071,220.708Z" transform="translate(-197.022 -212.349)" fill="#606060" opacity="0.2"/>
                  <path id="Trazado_903634" data-name="Trazado 903634" d="M178.354,224.286a16.53,16.53,0,0,0,6.222,4.011,5.772,5.772,0,0,0,3.851-.08l.015-.005c.037.05.075.1.114.146,2.861,3.6,9.81,1.915,10.492,1.74l.055-.015-5.059-1.89-.156-.058c1.915.366,3.768-2.33,4.128-2.889.043-.065.063-.1.063-.1-2.952,1.516-8.8.131-8.8.131-.01.035-.039.026-.03-.008,0,0-5.719-1.847-7.458-4.674,0,0,0,3.972,2.033,4.728Z" transform="translate(-178.354 -216.719)" fill="#289672"/>
                  <path id="Trazado_903635" data-name="Trazado 903635" d="M207.885,234.448l4.821,1.768h.032l-.156-.058c1.915.366,3.768-2.33,4.128-2.889a6.814,6.814,0,0,1-5.84,1.809C209.824,234.911,207.885,234.448,207.885,234.448Z" transform="translate(-197.048 -224.743)" fill="#606060" opacity="0.2"/>
                  <path id="Trazado_903636" data-name="Trazado 903636" d="M193.051,226.158l-3.422-.644-.028-.015.164.031c-1.827-.679-2.014-3.946-2.033-4.61a6.814,6.814,0,0,0,4.056,4.574A4.52,4.52,0,0,1,193.051,226.158Z" transform="translate(-184.291 -216.925)" fill="#606060" opacity="0.2"/>
                  <path id="Trazado_903637" data-name="Trazado 903637" d="M199.428,238.685l0,.008a14.893,14.893,0,0,0,4.063,2.413c1.616.57,4.83.506,6.288.444-.683.175-7.629,1.851-10.491-1.743v0c-.04-.047-.078-.1-.115-.146a.05.05,0,0,1-.015.005,5.772,5.772,0,0,1-3.851.08A14.526,14.526,0,0,0,199.428,238.685Z" transform="translate(-189.087 -228.171)" fill="#606060" opacity="0.2"/>
                  <path id="Trazado_903638" data-name="Trazado 903638" d="M194.042,221.507l-.156-.058c1.915.367,3.768-2.33,4.128-2.889.043-.065.063-.1.063-.1-2.291,1.176-6.324.607-8.017.292.206-2.032,1.508-5.44,4.33-6.411l.011,0-1.039-2.3a9.591,9.591,0,0,0-5.463,8.049c-1.8-.731-4.909-2.217-6.111-4.173,0,0,0,3.972,2.034,4.728l-5.47-1.037a16.53,16.53,0,0,0,6.222,4.011,5.772,5.772,0,0,0,3.851-.08l.015-.005c.037.05.075.1.115.146,2.861,3.6,9.81,1.915,10.492,1.74l.055-.015Z" transform="translate(-178.353 -210.033)" fill="#606060" opacity="0.3"/>
                </g>
                <g id="Grupo_1112242" data-name="Grupo 1112242" transform="translate(5.161 14.857)">
                  <path id="Trazado_903639" data-name="Trazado 903639" d="M217.951,262.424a2.4,2.4,0,0,0,.5,1.79s1.113-.43,1.348-1.277a2.4,2.4,0,0,0-.5-1.79S218.187,261.577,217.951,262.424Z" transform="translate(-202.948 -257.247)" fill="#e6dd3b"/>
                  <path id="Trazado_903640" data-name="Trazado 903640" d="M204.365,258.881a2.4,2.4,0,0,0,.5,1.79s1.113-.43,1.348-1.277a2.4,2.4,0,0,0-.5-1.79S204.6,258.034,204.365,258.881Z" transform="translate(-194.348 -255.004)" fill="#e6dd3b"/>
                  <path id="Trazado_903641" data-name="Trazado 903641" d="M190.779,255.339a2.4,2.4,0,0,0,.5,1.79s1.113-.43,1.348-1.277a2.4,2.4,0,0,0-.5-1.79S191.015,254.492,190.779,255.339Z" transform="translate(-185.747 -252.762)" fill="#e6dd3b"/>
                  <path id="Trazado_903642" data-name="Trazado 903642" d="M177.194,251.8a2.4,2.4,0,0,0,.5,1.79s1.113-.43,1.348-1.277a2.4,2.4,0,0,0-.5-1.79S177.43,250.949,177.194,251.8Z" transform="translate(-177.148 -250.519)" fill="#e6dd3b"/>
                  <path id="Trazado_903643" data-name="Trazado 903643" d="M207.609,274.49a2.4,2.4,0,0,0,.5,1.79s1.113-.43,1.348-1.277a2.4,2.4,0,0,0-.5-1.79S207.845,273.643,207.609,274.49Z" transform="translate(-196.401 -264.885)" fill="#e6dd3b"/>
                  <path id="Trazado_903644" data-name="Trazado 903644" d="M194.023,270.948a2.4,2.4,0,0,0,.5,1.79s1.113-.43,1.348-1.277a2.4,2.4,0,0,0-.5-1.79S194.259,270.1,194.023,270.948Z" transform="translate(-187.801 -262.643)" fill="#e6dd3b"/>
                  <path id="Trazado_903645" data-name="Trazado 903645" d="M180.437,267.4a2.4,2.4,0,0,0,.5,1.79s1.113-.43,1.348-1.277a2.4,2.4,0,0,0-.5-1.79S180.673,266.558,180.437,267.4Z" transform="translate(-179.2 -260.4)" fill="#e6dd3b"/>
                  <path id="Trazado_903646" data-name="Trazado 903646" d="M187.4,294.193a2.4,2.4,0,0,0,.5,1.79s1.113-.43,1.348-1.277a2.4,2.4,0,0,0-.5-1.79S187.637,293.346,187.4,294.193Z" transform="translate(-183.609 -277.358)" fill="#e6dd3b"/>
                  <path id="Trazado_903647" data-name="Trazado 903647" d="M196.922,285.066a2.4,2.4,0,0,0,.5,1.79s1.113-.43,1.348-1.277a2.4,2.4,0,0,0-.5-1.79S197.158,284.219,196.922,285.066Z" transform="translate(-189.636 -271.58)" fill="#e6dd3b"/>
                  <path id="Trazado_903648" data-name="Trazado 903648" d="M183.337,281.523a2.4,2.4,0,0,0,.5,1.79s1.113-.43,1.348-1.277a2.4,2.4,0,0,0-.5-1.79S183.573,280.676,183.337,281.523Z" transform="translate(-181.036 -269.337)" fill="#e6dd3b"/>
                </g>
              </g>
              <g id="Grupo_1112250" data-name="Grupo 1112250" transform="translate(0 7.504)">
                <g id="Grupo_1112248" data-name="Grupo 1112248" transform="translate(19.53 26.979)">
                  <g id="Grupo_1112244" data-name="Grupo 1112244" transform="translate(1.656)">
                    <path id="Trazado_903649" data-name="Trazado 903649" d="M161.517,279.712l-3.327-.911-.038-.01h0c.023-.021.046-.04.07-.06a4.629,4.629,0,0,1,3.713-.55,3.177,3.177,0,0,0,.8.067c.181-.014.363-.037.516-.059l.1-.015.045-.007.151-.026.024,0h0l.022,0a.11.11,0,0,1,.064.047.139.139,0,0,1,.024.069.772.772,0,0,1-.626.911h0a2.542,2.542,0,0,1-.5.073h0l-.044,0c-.18.011-.321.04-.386.044a1.732,1.732,0,0,0-.226.03.906.906,0,0,0-.159.048A.3.3,0,0,0,161.517,279.712Z" transform="translate(-158.152 -278.051)" fill="#e5b7ac"/>
                    <path id="Trazado_903650" data-name="Trazado 903650" d="M163.19,280.4a5.473,5.473,0,0,1,2.55.275l-.044,0c-.18.011-.321.04-.386.044a1.251,1.251,0,0,0-.385.079C164.2,280.621,163.19,280.4,163.19,280.4Z" transform="translate(-161.341 -279.486)" fill="#e5b7ac"/>
                    <path id="Trazado_903651" data-name="Trazado 903651" d="M170.641,278.395a7.887,7.887,0,0,0,.811-.109.106.106,0,0,1,.11.048.813.813,0,0,1-.579.353A.268.268,0,0,1,170.641,278.395Z" transform="translate(-166.058 -278.198)" fill="#fff" opacity="0.5"/>
                  </g>
                  <path id="Trazado_903652" data-name="Trazado 903652" d="M156.483,283.437c0-.056-.007-.113-.01-.17,0-.029,0-.057,0-.085a0,0,0,0,1,0,0c0-.005,0-.011,0-.017s0-.009,0-.014h0a6.964,6.964,0,0,1,.051-1.069c.04-.252.093-.5.158-.751.009-.035.019-.07.028-.1.014-.049.028-.1.041-.141,0-.015.01-.032.015-.048.02-.069.039-.125.056-.178.008-.026.018-.057.029-.086l.008-.02c.006-.016.012-.033.017-.049.031-.086.054-.149.076-.2,0-.012.009-.025.014-.036l0-.006.028-.068c0-.013.009-.025.014-.036l.012-.03v-.005l0-.009v0l.018-.045.011-.024.028-.066.009-.019,0,0,0-.011.011-.026.014-.029-.038-.01h0l.041,0c.662.034,1.319.071,1.924.139a7.111,7.111,0,0,1,1.777.385,4,4,0,0,0,.442.209l.061.019h0l1.833.578,1.673.527s.558.123.5.512c-.058.364-.567.381-.567.381l.706.163s.365.058.322.343a.377.377,0,0,1-.371.346l-.593,0s.313.161.28.382c-.019.12-.139.2-.254.251a.884.884,0,0,1-.345.072l-.953.01a.443.443,0,0,1,.138.33.194.194,0,0,1-.092.128.373.373,0,0,1-.093.041.468.468,0,0,1-.09.019h0l-.028,0-.057,0-.092.009h0c-.239.024-.594.04-1.015.043-.531,0-1.166-.012-1.8-.054A10.686,10.686,0,0,1,156.483,283.437Z" transform="translate(-155.428 -279.33)" fill="#e5b7ac"/>
                  <path id="Trazado_903653" data-name="Trazado 903653" d="M153.639,282.577l.913-3.476.969.288-.828,3.434Z" transform="translate(-153.639 -278.716)" fill="#e5b7ac"/>
                  <g id="Grupo_1112246" data-name="Grupo 1112246" transform="translate(7.791 2.831)" opacity="0.5">
                    <g id="Grupo_1112245" data-name="Grupo 1112245">
                      <path id="Trazado_903654" data-name="Trazado 903654" d="M180.832,288.4a.471.471,0,0,0-.421-.076l-.06.454s.369.12.515-.127A.2.2,0,0,0,180.832,288.4Z" transform="translate(-178.339 -287.373)" fill="#fff"/>
                      <path id="Trazado_903655" data-name="Trazado 903655" d="M179.573,285.863a.482.482,0,0,0-.434-.083l-.057.474s.38.128.528-.129A.21.21,0,0,0,179.573,285.863Z" transform="translate(-177.537 -285.764)" fill="#fff"/>
                      <path id="Trazado_903656" data-name="Trazado 903656" d="M178.981,290.315a.479.479,0,0,0-.419-.072l-.052.441s.368.115.509-.125A.19.19,0,0,0,178.981,290.315Z" transform="translate(-177.173 -288.589)" fill="#fff"/>
                      <path id="Trazado_903657" data-name="Trazado 903657" d="M174.871,292.192a.442.442,0,0,1,.376.061.163.163,0,0,1,.041.212.258.258,0,0,1-.035.047.474.474,0,0,1-.183.061c-.03,0-.091.007-.177.015C174.859,292.582,174.871,292.192,174.871,292.192Z" transform="translate(-174.869 -289.824)" fill="#fff"/>
                    </g>
                  </g>
                  <g id="Grupo_1112247" data-name="Grupo 1112247" transform="translate(4.846 2.87)">
                    <path id="Trazado_903658" data-name="Trazado 903658" d="M168.915,285.871a19.481,19.481,0,0,0,3.526.616A24.782,24.782,0,0,0,168.915,285.871Z" transform="translate(-168.155 -285.871)" fill="#e5b7ac"/>
                    <path id="Trazado_903659" data-name="Trazado 903659" d="M168.88,288.123a22.6,22.6,0,0,0,3.734.627A28.916,28.916,0,0,0,168.88,288.123Z" transform="translate(-168.133 -287.297)" fill="#e5b7ac"/>
                    <path id="Trazado_903660" data-name="Trazado 903660" d="M169.854,291.124a19.063,19.063,0,0,0-3.009-.41A14.89,14.89,0,0,0,169.854,291.124Z" transform="translate(-166.845 -288.934)" fill="#e5b7ac"/>
                  </g>
                </g>
                <g id="Grupo_1112249" data-name="Grupo 1112249" transform="translate(17.346 26.301)">
                  <path id="Trazado_903661" data-name="Trazado 903661" d="M149.554,276.2a13.776,13.776,0,0,1,2.519.946c.236.275-.818,4.052-1.3,4.329s-3.084-.2-3.084-.2Z" transform="translate(-147.687 -276.204)" fill="#ff7e00"/>
                  <path id="Trazado_903662" data-name="Trazado 903662" d="M149.554,276.2a13.776,13.776,0,0,1,2.519.946c.236.275-.818,4.052-1.3,4.329s-3.084-.2-3.084-.2Z" transform="translate(-147.687 -276.204)" fill="#fff" opacity="0.5"/>
                </g>
                <path id="Trazado_903663" data-name="Trazado 903663" d="M105.474,233.25c2.326,2.141,11.551,4.606,12.262,2.884a12.5,12.5,0,0,0,1.869-5.073c-.256-1.811-4.273-2.6-9.732-4.354,0,0-1.261-8.1-1.977-10.967-.542-2.165.708-7.447,1.351-9.909.209-.8.354-1.3.354-1.3-.072.014-.142.033-.213.052a8.9,8.9,0,0,0-1.247.422c-3.4,1.412-7.356,5.02-7.714,7.606C100.277,213.68,102.486,230.5,105.474,233.25Z" transform="translate(-100.419 -204.533)" fill="#ff7e00"/>
              </g>
              <path id="Trazado_903664" data-name="Trazado 903664" d="M120.418,202.477c.141.07.965.418,1.486.659,1.881.876,5.729,2.473,7.922,1.987,1.86-.409,1.519-3.55,1.519-3.55a18.882,18.882,0,0,0-5.659-1.3,16.717,16.717,0,0,0-3.641,1.615,8.9,8.9,0,0,0-1.247.422S120.376,202.453,120.418,202.477Z" transform="translate(-113.077 -194.334)" fill="#fff" opacity="0.5"/>
              <g id="Grupo_1112251" data-name="Grupo 1112251" transform="translate(8.934)">
                <path id="Trazado_903665" data-name="Trazado 903665" d="M125.012,191.589s4.3,2.269,6.424,1.8a1.657,1.657,0,0,0,1.265-1.677l-.392-1.809-.574-2.657-.288-1.338-2.948,1.165-3.732-2.984.06,1.407.088,2.021.019.8Z" transform="translate(-124.766 -184.085)" fill="#e5b7ac"/>
                <path id="Trazado_903666" data-name="Trazado 903666" d="M132.627,193.321l-.789-3.651-3.024.882-3.885-2.632.088,2.021S130.159,196.05,132.627,193.321Z" transform="translate(-124.869 -186.512)" fill="#e5b7ac" opacity="0.5"/>
              </g>
            </g>
            <g id="Grupo_1112263" data-name="Grupo 1112263" transform="translate(5.304)">
              <path id="Trazado_903667" data-name="Trazado 903667" d="M151.824,159.753a4.686,4.686,0,0,1,.658,5.242C150.89,168.01,151.824,159.753,151.824,159.753Z" transform="translate(-138.092 -155.488)" fill="#606060"/>
              <path id="Trazado_903668" data-name="Trazado 903668" d="M127.451,155.768v0s-4.405-.517-5.993,4.911a9.451,9.451,0,0,0,.892,6.537s2.885,5.073,7.394,4.687c2.492-.483,3.755-4.292,3.739-8.764C133.3,159.037,131.575,155.563,127.451,155.768Z" transform="translate(-118.896 -152.954)" fill="#e5b7ac"/>
              <g id="Grupo_1112253" data-name="Grupo 1112253" transform="translate(8.262 13.861)">
                <path id="Trazado_903669" data-name="Trazado 903669" d="M139.7,187.345a2.928,2.928,0,0,1-2.291-.786.088.088,0,0,1,.125-.124,2.8,2.8,0,0,0,2.144.736,2.244,2.244,0,0,0,1.708-1.217.088.088,0,0,1,.161.07A2.39,2.39,0,0,1,139.7,187.345Z" transform="translate(-137.387 -185.901)" fill="#e5b7ac"/>
              </g>
              <g id="Grupo_1112254" data-name="Grupo 1112254" transform="translate(0.049 10.76)">
                <path id="Trazado_903670" data-name="Trazado 903670" d="M118.486,179.189l.259,1.989c-1.6.825-3.2-.655-3.628-1.978-.215-.668-.132-1.294.39-1.574,1.108-.584,2.132.434,2.64,1.083A4.773,4.773,0,0,1,118.486,179.189Z" transform="translate(-115.007 -177.451)" fill="#e5b7ac"/>
                <path id="Trazado_903671" data-name="Trazado 903671" d="M118.042,180.884a2.39,2.39,0,0,1,2.021.842.1.1,0,0,1-.014.139.1.1,0,0,1-.05.022.1.1,0,0,1-.089-.035,2.583,2.583,0,0,0-.794-.6c-.371.318-.073.977-.07.984a.1.1,0,0,1-.048.132.108.108,0,0,1-.029.009.1.1,0,0,1-.1-.056c-.015-.032-.328-.726.051-1.15a1.733,1.733,0,0,0-.816-.1l-.03,0a.1.1,0,0,1-.113-.083A.1.1,0,0,1,118.042,180.884Z" transform="translate(-116.875 -179.612)" fill="#e5b7ac"/>
              </g>
              <g id="Grupo_1112257" data-name="Grupo 1112257" transform="translate(5.51 11.757)">
                <g id="Grupo_1112255" data-name="Grupo 1112255" transform="translate(0 1.04)">
                  <path id="Trazado_903672" data-name="Trazado 903672" d="M130.941,183.181c0,.1-.238.171-.529.167s-.526-.084-.524-.18.238-.171.528-.167S130.942,183.086,130.941,183.181Z" transform="translate(-129.888 -183.002)" fill="#e5b7ac"/>
                  <path id="Trazado_903673" data-name="Trazado 903673" d="M131.338,184.878c-.026-.092-.274-.1-.554-.026s-.487.216-.461.308.274.1.554.026S131.364,184.97,131.338,184.878Z" transform="translate(-130.162 -184.141)" fill="#e5b7ac"/>
                </g>
                <g id="Grupo_1112256" data-name="Grupo 1112256" transform="translate(7.655)">
                  <path id="Trazado_903674" data-name="Trazado 903674" d="M151.088,182.378c0-.1.238-.171.529-.167s.526.084.524.179-.238.171-.529.167S151.087,182.474,151.088,182.378Z" transform="translate(-150.963 -181.461)" fill="#e5b7ac"/>
                  <path id="Trazado_903675" data-name="Trazado 903675" d="M150.75,180.526c.026.092.274.1.554.026s.487-.216.461-.308-.273-.1-.554-.026S150.725,180.434,150.75,180.526Z" transform="translate(-150.748 -180.167)" fill="#e5b7ac"/>
                </g>
              </g>
              <path id="Trazado_903676" data-name="Trazado 903676" d="M135.1,176.635c.065.669-.04,1.227-.236,1.246s-.406-.508-.471-1.177.04-1.227.236-1.246S135.033,175.966,135.1,176.635Z" transform="translate(-127.216 -165.429)" fill="#606060"/>
              <path id="Trazado_903677" data-name="Trazado 903677" d="M147.672,175.648c.065.67-.023,1.226-.2,1.243s-.367-.512-.432-1.182.023-1.226.2-1.243S147.607,174.979,147.672,175.648Z" transform="translate(-135.225 -164.801)" fill="#606060"/>
              <g id="Grupo_1112258" data-name="Grupo 1112258" transform="translate(9.689 10.342)">
                <path id="Trazado_903678" data-name="Trazado 903678" d="M142.32,179.74l.036-.006c.146-.032.477-.2.4-1.1a7.619,7.619,0,0,0-.484-2.267.1.1,0,0,0-.131-.05.1.1,0,0,0-.05.131,7.6,7.6,0,0,1,.467,2.2c.053.6-.091.852-.244.885-.223.052-.615-.291-.845-.929a.1.1,0,1,0-.186.067C141.523,179.35,141.955,179.788,142.32,179.74Z" transform="translate(-141.275 -176.312)" fill="#e5b7ac"/>
              </g>
              <g id="Grupo_1112259" data-name="Grupo 1112259" transform="translate(11.012 8.148)">
                <path id="Trazado_903679" data-name="Trazado 903679" d="M147.292,171.714c-.109.014-.527-.641-1.009-.8a1.309,1.309,0,0,0-1.018.137.264.264,0,0,1-.24-.47,1.814,1.814,0,0,1,1.43-.165C147.153,170.648,147.32,171.711,147.292,171.714Z" transform="translate(-144.881 -170.334)" fill="#606060"/>
              </g>
              <g id="Grupo_1112260" data-name="Grupo 1112260" transform="translate(5.714 8.666)">
                <path id="Trazado_903680" data-name="Trazado 903680" d="M130.512,173.693c-.161-.032-.06-1.2.632-1.652a2.039,2.039,0,0,1,1.6-.233.3.3,0,1,1-.126.581,1.469,1.469,0,0,0-1.151.148A5.1,5.1,0,0,0,130.512,173.693Z" transform="translate(-130.445 -171.745)" fill="#606060"/>
              </g>
              <path id="Trazado_903681" data-name="Trazado 903681" d="M135.1,176.635c.065.669-.04,1.227-.236,1.246s-.406-.508-.471-1.177.04-1.227.236-1.246S135.033,175.966,135.1,176.635Z" transform="translate(-127.216 -165.429)" fill="#606060" opacity="0.3"/>
              <path id="Trazado_903682" data-name="Trazado 903682" d="M147.672,175.648c.065.67-.023,1.226-.2,1.243s-.367-.512-.432-1.182.023-1.226.2-1.243S147.607,174.979,147.672,175.648Z" transform="translate(-135.225 -164.801)" fill="#606060" opacity="0.3"/>
              <g id="Grupo_1112261" data-name="Grupo 1112261" transform="translate(11.012 8.148)" opacity="0.3">
                <path id="Trazado_903683" data-name="Trazado 903683" d="M147.292,171.714c-.109.014-.527-.641-1.009-.8a1.309,1.309,0,0,0-1.018.137.264.264,0,0,1-.24-.47,1.814,1.814,0,0,1,1.43-.165C147.153,170.648,147.32,171.711,147.292,171.714Z" transform="translate(-144.881 -170.334)" fill="#606060"/>
              </g>
              <g id="Grupo_1112262" data-name="Grupo 1112262" transform="translate(5.714 8.666)" opacity="0.3">
                <path id="Trazado_903684" data-name="Trazado 903684" d="M130.512,173.693c-.161-.032-.06-1.2.632-1.652a2.039,2.039,0,0,1,1.6-.233.3.3,0,1,1-.126.581,1.469,1.469,0,0,0-1.151.148A5.1,5.1,0,0,0,130.512,173.693Z" transform="translate(-130.445 -171.745)" fill="#606060"/>
              </g>
              <path id="Trazado_903685" data-name="Trazado 903685" d="M115.1,155.433a3.427,3.427,0,0,1,2.731-4.707c7.049-7.267,14.733,3.028,14.733,3.028-1.349,1.1-8.371,2.175-12.951,1.049.073.56.21,2.716-.953,3.742a8.822,8.822,0,0,1,.246,4.068s-.75-2.621-1.511-3.168a2.651,2.651,0,0,0-1.266-.57Z" transform="translate(-114.873 -148.129)" fill="#606060"/>
            </g>
          </g>
          <g id="Grupo_1112297" data-name="Grupo 1112297" transform="translate(150.066 15.858)">
            <g id="Grupo_1112266" data-name="Grupo 1112266" transform="translate(0.141 46.88)">
              <path id="Trazado_903686" data-name="Trazado 903686" d="M539.347,327.406c-.851,2.793-4.986,3.834-9.1,4.159-3-.02-5.322-.293-5.322-.293a11.6,11.6,0,0,1-5.1-1.1c-.637-.61-1.46-1.389-2.335-2.2-2.16-2-4.633-4.182-5.393-4.424,1.986-2.145,5.033-2.267,8.717-2.968a72.6,72.6,0,0,1,8.44-1.373,18.379,18.379,0,0,1,3.593-.047C539.426,319.781,540.055,324.664,539.347,327.406Z" transform="translate(-511.229 -319.093)" fill="#693696"/>
              <path id="Trazado_903687" data-name="Trazado 903687" d="M547.531,329c-.851,2.793-4.986,3.834-9.1,4.159-3-.02-5.322-.293-5.322-.293a11.6,11.6,0,0,1-5.1-1.1c-.637-.61-1.46-1.389-2.335-2.2a5.554,5.554,0,0,1-.649-2.58c1.124-2.528,4.217-4.055,7.8-4.482,5.666-.681,6.665-1.005,8.156-.854C547.563,322.273,548.239,326.261,547.531,329Z" transform="translate(-519.412 -320.69)" fill="#606060" opacity="0.3"/>
              <path id="Trazado_903688" data-name="Trazado 903688" d="M525.566,362.042c-.72,1.4-2.354,1.828-4.416,1.808.74-5.164-15.459-28.263-10.45-32.92a10.382,10.382,0,0,1,4.036,1.634q.326.226.641.487a24.144,24.144,0,0,1,4.7,5.888c.914.823,1.559,4.167,3.4,15.566.075.479.154.97.237,1.476.048.3.1.582.146.855C524.617,360.906,525.566,362.042,525.566,362.042Z" transform="translate(-509.738 -326.586)" fill="#e5b7ac"/>
              <path id="Trazado_903689" data-name="Trazado 903689" d="M533.149,358.163c-3.541-7.371-8.59-16.765-8.1-21.453a24.14,24.14,0,0,1,4.7,5.888C530.66,343.42,531.305,346.764,533.149,358.163Z" transform="translate(-519.41 -330.245)" fill="#e5b7ac"/>
              <g id="Grupo_1112265" data-name="Grupo 1112265" transform="translate(1.983 34.493)">
                <path id="Trazado_903690" data-name="Trazado 903690" d="M529.66,418.056a25.858,25.858,0,0,1-14.3.486c-.014-.062-.023-.119-.031-.179v-.014c-.117-1.372,2.192-2.222,4.279-3.143v0c.006,0,.009-.006.012-.006,2.378-1.052,4.6-2.109,4.6-2.109a4.159,4.159,0,0,0,1.94,1.564,2.144,2.144,0,0,0,.273.1c1.179.383,2.238-1.458,2.238-1.458a5.864,5.864,0,0,1,.959,4.568Z" transform="translate(-515.259 -413.087)" fill="#fff"/>
                <path id="Trazado_903691" data-name="Trazado 903691" d="M521.007,422.988s-.4.38-.4.38l-5.242-1.189c-.014-.062-.023-.119-.031-.179v-.014c-.117-1.372,2.192-2.222,4.279-3.143v0c.006,0,.009-.006.012-.006C521.029,419.723,521,422.957,521.007,422.988Z" transform="translate(-515.259 -416.725)" fill="#606060" opacity="0.3"/>
                <path id="Trazado_903692" data-name="Trazado 903692" d="M529.554,426.1l-.072,1.333a29.531,29.531,0,0,1-14.34.487l.072-1.333A31.016,31.016,0,0,0,529.554,426.1Z" transform="translate(-515.142 -421.323)" fill="#fff"/>
                <path id="Trazado_903693" data-name="Trazado 903693" d="M529.554,426.1l-.072,1.333a29.531,29.531,0,0,1-14.34.487l.072-1.333A31.016,31.016,0,0,0,529.554,426.1Z" transform="translate(-515.142 -421.323)" fill="#606060" opacity="0.3"/>
              </g>
            </g>
            <g id="Grupo_1112268" data-name="Grupo 1112268" transform="translate(7.065 46.878)">
              <path id="Trazado_903694" data-name="Trazado 903694" d="M558.371,326.564a7.192,7.192,0,0,1-.162.839c-1.8,5.9-18.252,3.992-18.252,3.992l-.067-.067c-.74-.72-7.573-7.347-8.934-7.783,1.989-2.737,17.156-4.341,17.156-4.341C557.24,318.263,558.81,323.276,558.371,326.564Z" transform="translate(-530.092 -319.089)" fill="#693696"/>
              <path id="Trazado_903695" data-name="Trazado 903695" d="M570.73,339.459a7.218,7.218,0,0,1-.162.839c-1.8,5.9-18.252,3.992-18.252,3.992l-.067-.067a21.52,21.52,0,0,0-1.77-3.407S564.6,343.95,570.73,339.459Z" transform="translate(-542.451 -331.984)" fill="#606060" opacity="0.3"/>
              <path id="Trazado_903696" data-name="Trazado 903696" d="M538.94,338.942c.956.86,1.616,4.454,3.643,17.041.768,4.77,1.85,6.061,1.85,6.061-.719,1.4-2.354,1.829-4.414,1.809.738-5.163-15.462-28.261-10.451-32.917C533.665,331.746,535.71,333.856,538.94,338.942Z" transform="translate(-528.604 -326.589)" fill="#e5b7ac"/>
              <g id="Grupo_1112267" data-name="Grupo 1112267" transform="translate(2.459 34.51)">
                <path id="Trazado_903697" data-name="Trazado 903697" d="M549.576,417.79a25.859,25.859,0,0,1-14.206,1.7c-.019-.061-.033-.117-.046-.175V419.3c-.233-1.357,2-2.4,4-3.5v0c.006,0,.008-.007.011-.007,2.28-1.25,4.408-2.493,4.408-2.493a4.16,4.16,0,0,0,2.066,1.393,2.135,2.135,0,0,0,.28.079c1.207.281,2.106-1.643,2.106-1.643a5.865,5.865,0,0,1,1.343,4.47Z" transform="translate(-535.306 -413.13)" fill="#fff"/>
                <path id="Trazado_903698" data-name="Trazado 903698" d="M541.062,424.411s-.37.413-.37.413l-5.324-.739c-.019-.061-.033-.117-.046-.175V423.9c-.233-1.357,2-2.4,4-3.5v0c.006,0,.008-.007.011-.007C540.808,421.155,541.055,424.38,541.062,424.411Z" transform="translate(-535.305 -417.725)" fill="#606060" opacity="0.3"/>
                <path id="Trazado_903699" data-name="Trazado 903699" d="M549.6,425.3l.041,1.334a29.531,29.531,0,0,1-14.247,1.7L535.351,427A31.006,31.006,0,0,0,549.6,425.3Z" transform="translate(-535.334 -420.833)" fill="#fff"/>
                <path id="Trazado_903700" data-name="Trazado 903700" d="M549.6,425.3l.041,1.334a29.531,29.531,0,0,1-14.247,1.7L535.351,427A31.006,31.006,0,0,0,549.6,425.3Z" transform="translate(-535.334 -420.833)" fill="#606060" opacity="0.3"/>
              </g>
            </g>
            <g id="Grupo_1112272" data-name="Grupo 1112272" transform="translate(0 13.787)">
              <path id="Trazado_903701" data-name="Trazado 903701" d="M522.037,238.229l4.261,10.493-2.7,5.058-3.248-12.322Z" transform="translate(-516.312 -234.811)" fill="#e5b7ac"/>
              <g id="Grupo_1112270" data-name="Grupo 1112270">
                <g id="Grupo_1112269" data-name="Grupo 1112269">
                  <path id="Trazado_903702" data-name="Trazado 903702" d="M516.036,235.107l-2.451,1.01a20.289,20.289,0,0,1-2.87-2.651,17.09,17.09,0,0,1-1.287-2.218c-.028-.061-.045-.1-.056-.126a.265.265,0,0,1-.016-.143.139.139,0,0,1,.079-.106.544.544,0,0,1,.35-.017l-.358-.654a.483.483,0,0,1-.066-.259.261.261,0,0,1,.124-.257c.186-.1.45.062.45.062l-.226-.4a.255.255,0,0,1,.1-.4c.241-.124.613.191.613.191l.443.384c-.008-.031-.237-.393-.022-.527.308-.19.649.17.649.17l2.332,2.017h0l.04.035a2.418,2.418,0,0,0,.247.171h0a1.874,1.874,0,0,0,.243.121.793.793,0,0,0,.185.052c.17.029.2-.4.2-.608,0-.069,0-.116,0-.116.005-.046-.1-1.5.822-1.379.078.209-.016.529.076.755a10.628,10.628,0,0,1,.688,1.77C516.75,234.571,516.036,235.107,516.036,235.107Z" transform="translate(-509.352 -228.915)" fill="#e5b7ac"/>
                  <path id="Trazado_903703" data-name="Trazado 903703" d="M522.551,235.374a2.406,2.406,0,0,0-.651,2.2c-.272-1.171-.091-2.452.515-2.532.171-.023.2-.4.2-.608,0,0,0-.01,0-.014A1.5,1.5,0,0,1,522.551,235.374Z" transform="translate(-517.217 -232.399)" fill="#e5b7ac" opacity="0.5"/>
                  <path id="Trazado_903704" data-name="Trazado 903704" d="M513.681,230.652a20.942,20.942,0,0,1,2.221,2.255A16.516,16.516,0,0,1,513.681,230.652Z" transform="translate(-512.093 -230.015)" fill="#e5b7ac" opacity="0.5"/>
                  <path id="Trazado_903705" data-name="Trazado 903705" d="M511.079,231.306a29.579,29.579,0,0,1,2.573,2.658A23.425,23.425,0,0,1,511.079,231.306Z" transform="translate(-510.445 -230.429)" fill="#e5b7ac" opacity="0.5"/>
                  <path id="Trazado_903706" data-name="Trazado 903706" d="M510.7,234.38a16.345,16.345,0,0,0,2.123,2.3A31.181,31.181,0,0,0,510.7,234.38Z" transform="translate(-510.203 -232.374)" fill="#e5b7ac" opacity="0.5"/>
                </g>
              </g>
              <path id="Trazado_903707" data-name="Trazado 903707" d="M543.483,240.839a32.987,32.987,0,0,1-2.443,6.918s-.355.3-.967.806c-.28.228-.616.5-.995.808-1.757,1.419-4.456,3.514-7.081,5.24-.5.334-1.008.651-1.5.95-2.3,1.39-3.856,1.95-4.962,1.637-.41-.115-2.421-5.821-3.038-7.608.923-2.3,2.673-2.354,4.056-2.9l1.353,2.96s7.242-7.114,8.561-7.692C538.306,241.153,543.483,240.839,543.483,240.839Z" transform="translate(-517.672 -236.463)" fill="#e6dd3b"/>
              <g id="Grupo_1112271" data-name="Grupo 1112271" transform="translate(3.843 9.388)">
                <path id="Trazado_903708" data-name="Trazado 903708" d="M520.62,258.483l-.8-1.8a6.235,6.235,0,0,0,4.947-2.191l.8,1.8A7.57,7.57,0,0,1,520.62,258.483Z" transform="translate(-519.825 -254.497)" fill="#e6dd3b"/>
                <path id="Trazado_903709" data-name="Trazado 903709" d="M520.62,258.483l-.8-1.8a6.235,6.235,0,0,0,4.947-2.191l.8,1.8A7.57,7.57,0,0,1,520.62,258.483Z" transform="translate(-519.825 -254.497)" fill="#fff" opacity="0.5"/>
              </g>
              <path id="Trazado_903710" data-name="Trazado 903710" d="M556.464,259.053c-.28.228-.616.5-.995.808-1.757,1.419-4.457,3.514-7.081,5.24a14.846,14.846,0,0,1,.844-2.922c1.054-2.551,4.845-4.769,4.845-4.769Z" transform="translate(-534.063 -246.953)" fill="#ff7e00" opacity="0.2"/>
              <path id="Trazado_903711" data-name="Trazado 903711" d="M537.234,263.73a8.1,8.1,0,0,1,1.319,3.571s.419-2.712-.658-4.215Z" transform="translate(-527.002 -250.546)" fill="#ff7e00" opacity="0.2"/>
            </g>
            <g id="Grupo_1112296" data-name="Grupo 1112296" transform="translate(14.265)">
              <path id="Trazado_903712" data-name="Trazado 903712" d="M565.9,242.164s.311-1.117,3.418-1.244a15.356,15.356,0,0,1,5.68.569l-3.69,32.539c-2.454-2.549-6.731-3.66-11.308-4.269l1.488-16.884Z" transform="translate(-555.677 -222.713)" fill="#fff"/>
              <g id="Grupo_1112293" data-name="Grupo 1112293">
                <g id="Grupo_1112274" data-name="Grupo 1112274" transform="translate(0 0.48)">
                  <path id="Trazado_903713" data-name="Trazado 903713" d="M604.987,195.317s.305-1.208,2.268-1.037a2.7,2.7,0,0,1,2.405,2.606c.089.671,1.435,7.718,5.181,8.112,0,0-3.3,1.968-4.973-.478l-.03,1.685a4.1,4.1,0,0,1-2.734-3.477c-.2-2.674-.055-4.99-1.465-5.423S604.987,195.317,604.987,195.317Z" transform="translate(-584.029 -193.672)" fill="#606060"/>
                  <path id="Trazado_903714" data-name="Trazado 903714" d="M590.458,192.7s5.2-.817,6.724,4.223c1.326,4.375-5.007,10.92-5.007,10.92l.8-4.594Z" transform="translate(-574.96 -192.653)" fill="#606060"/>
                  <path id="Trazado_903715" data-name="Trazado 903715" d="M582.727,228.829s-4.44,7.961-6.7,7.293c-2.4-.713-.077-5.649-.064-5.7.048-.377.074-.74.088-1.092a11.188,11.188,0,0,0-.15-2.216,1.4,1.4,0,0,0-.017-.153.652.652,0,0,1-.011-.092c-.019-.089-.035-.174-.058-.268l.71-1.451.118-.235.366-.748,2.916,1.144,3.039-2.783s-.07.49-.137,1.231l0,.02c-.05.528-.288,2.067-.326,3.339A3.4,3.4,0,0,0,582.727,228.829Z" transform="translate(-565.139 -211.565)" fill="#e5b7ac"/>
                  <path id="Trazado_903716" data-name="Trazado 903716" d="M584.331,225.9c-.05.528-1.44,8.463-6.861,6.644.048-.377.075-.74.088-1.092a11.192,11.192,0,0,0-.15-2.216,1.415,1.415,0,0,0-.017-.153.653.653,0,0,1-.011-.092c-.019-.089-.035-.174-.058-.268l.71-1.451.211-.127,3.03,1.191,3.06-2.455Z" transform="translate(-566.645 -213.689)" fill="#e5b7ac" opacity="0.5"/>
                  <path id="Trazado_903717" data-name="Trazado 903717" d="M557.887,241.38c-1.429,1.565-5.4,6.386-6.952,9.938a6.326,6.326,0,0,0-.419,3.652c.06.332.127.708.2,1.112.457,2.543,1.1,6.138,1.116,6.314a8.924,8.924,0,0,1-.378,3.47c-.662,2.071-3.228,4.136-3.228,4.136a11.3,11.3,0,0,0,4.576-.1s3.8-2.349,2.647-7.84c-2.025-9.608,3.524-18.923,3.611-20.039.054-.685.082-1.067.082-1.067Z" transform="translate(-548.226 -223.233)" fill="#e6dd3b"/>
                  <g id="Grupo_1112273" data-name="Grupo 1112273" transform="translate(6.199 16.588)">
                    <path id="Trazado_903718" data-name="Trazado 903718" d="M569.963,237.856l-3.451,2.973-1.394,2.7s1.414-1.71,1.759-1.528a9.86,9.86,0,0,1,1.208,2.234s1.567-3.645,1.763-4.256A8.811,8.811,0,0,0,569.963,237.856Z" transform="translate(-565.118 -237.856)" fill="#e6dd3b"/>
                    <path id="Trazado_903719" data-name="Trazado 903719" d="M569.963,237.856l-3.451,2.973-1.394,2.7s1.414-1.71,1.759-1.528a9.86,9.86,0,0,1,1.208,2.234s1.567-3.645,1.763-4.256A8.811,8.811,0,0,0,569.963,237.856Z" transform="translate(-565.118 -237.856)" fill="#fff" opacity="0.5"/>
                  </g>
                </g>
                <g id="Grupo_1112292" data-name="Grupo 1112292" transform="translate(4.348)">
                  <g id="Grupo_1112291" data-name="Grupo 1112291">
                    <g id="Grupo_1112275" data-name="Grupo 1112275" transform="translate(13.031 10.352)">
                      <path id="Trazado_903720" data-name="Trazado 903720" d="M595.84,221.227s1.371-2.307,2.883-1.5-.81,4.63-3.14,3.425Z" transform="translate(-595.583 -219.555)" fill="#e5b7ac"/>
                      <path id="Trazado_903721" data-name="Trazado 903721" d="M598.962,222.868a2.311,2.311,0,0,0-1.956.809.1.1,0,1,0,.148.122,2.494,2.494,0,0,1,.77-.578c.358.309.068.945.065.952a.1.1,0,0,0,.046.127.089.089,0,0,0,.028.008.1.1,0,0,0,.1-.054c.015-.031.319-.7-.046-1.112a1.681,1.681,0,0,1,.789-.09l.029,0a.1.1,0,0,0,.109-.08A.1.1,0,0,0,598.962,222.868Z" transform="translate(-596.47 -221.639)" fill="#e5b7ac"/>
                    </g>
                    <g id="Grupo_1112276" data-name="Grupo 1112276" transform="translate(2.932 2.083)">
                      <path id="Trazado_903722" data-name="Trazado 903722" d="M579.072,205.879c-.6,4.473-4.329,7.7-6.542,7.37-2.151-.251-4.98-4.354-4.384-8.826s3.525-7.772,6.542-7.37S579.669,201.407,579.072,205.879Z" transform="translate(-568.065 -197.02)" fill="#e5b7ac"/>
                    </g>
                    <path id="Trazado_903723" data-name="Trazado 903723" d="M571.224,191.874s-3.969-1.865-6.447,1.406a6.422,6.422,0,0,1-4.7,2.771s4.256,2.681,6.283.222l-1.234,1.849s4.911,1.459,6.773-1.106c.6,2.2.866,3.735,2.094,5.431C576.849,198.084,575.671,194.884,571.224,191.874Z" transform="translate(-560.074 -191.344)" fill="#606060"/>
                    <g id="Grupo_1112286" data-name="Grupo 1112286" transform="translate(3.316 7.426)">
                      <g id="Grupo_1112279" data-name="Grupo 1112279" transform="translate(0 3.826)">
                        <g id="Grupo_1112277" data-name="Grupo 1112277">
                          <path id="Trazado_903724" data-name="Trazado 903724" d="M570.259,222.354c-.025.089-.265.1-.535.024s-.47-.21-.445-.3.265-.1.535-.024S570.284,222.264,570.259,222.354Z" transform="translate(-569.215 -222.004)" fill="#e5b7ac"/>
                          <path id="Trazado_903725" data-name="Trazado 903725" d="M570.127,224.179c0-.092-.229-.166-.511-.163s-.509.08-.508.172.229.165.51.163S570.128,224.272,570.127,224.179Z" transform="translate(-569.109 -223.278)" fill="#e5b7ac"/>
                        </g>
                        <g id="Grupo_1112278" data-name="Grupo 1112278" transform="translate(7.109 0.981)">
                          <path id="Trazado_903726" data-name="Trazado 903726" d="M588.484,226.521c.025-.089.265-.1.535-.024s.47.21.445.3-.265.1-.535.024S588.459,226.61,588.484,226.521Z" transform="translate(-588.482 -225.797)" fill="#e5b7ac"/>
                          <path id="Trazado_903727" data-name="Trazado 903727" d="M588.557,224.849c0,.092.229.166.51.163s.509-.08.508-.172-.229-.165-.511-.163S588.556,224.757,588.557,224.849Z" transform="translate(-588.529 -224.677)" fill="#e5b7ac"/>
                        </g>
                      </g>
                      <g id="Grupo_1112280" data-name="Grupo 1112280" transform="translate(2.984 2.748)">
                        <path id="Trazado_903728" data-name="Trazado 903728" d="M577.669,222.382l-.035-.006c-.141-.032-.461-.2-.382-1.061a7.376,7.376,0,0,1,.474-2.19.1.1,0,0,1,.175.079,7.336,7.336,0,0,0-.458,2.129c-.053.582.086.824.233.857.216.051.6-.279.82-.9a.1.1,0,0,1,.123-.057.1.1,0,0,1,.057.123C578.441,222.008,578.023,222.429,577.669,222.382Z" transform="translate(-577.24 -219.068)" fill="#e5b7ac"/>
                      </g>
                      <g id="Grupo_1112281" data-name="Grupo 1112281" transform="translate(1.377 6.064)">
                        <path id="Trazado_903729" data-name="Trazado 903729" d="M575.071,229.716a3.194,3.194,0,0,1-2.2-1.469.1.1,0,0,1,.166-.1,3.055,3.055,0,0,0,2.055,1.375,2.447,2.447,0,0,0,2.141-.807.1.1,0,1,1,.15.119A2.6,2.6,0,0,1,575.071,229.716Z" transform="translate(-572.862 -228.103)" fill="#e5b7ac"/>
                      </g>
                      <g id="Grupo_1112283" data-name="Grupo 1112283" transform="translate(5.987 0.842)">
                        <g id="Grupo_1112282" data-name="Grupo 1112282">
                          <path id="Trazado_903730" data-name="Trazado 903730" d="M586.88,214.642a1.425,1.425,0,0,0-1.109-.144.288.288,0,1,1-.119-.563,1.975,1.975,0,0,1,1.55.229c.667.442.762,1.569.606,1.6A4.912,4.912,0,0,0,586.88,214.642Z" transform="translate(-585.424 -213.875)" fill="#606060"/>
                        </g>
                      </g>
                      <g id="Grupo_1112285" data-name="Grupo 1112285" transform="translate(0.385)">
                        <g id="Grupo_1112284" data-name="Grupo 1112284">
                          <path id="Trazado_903731" data-name="Trazado 903731" d="M571.445,212.181a1.424,1.424,0,0,1,1.088.259.288.288,0,1,0,.311-.484,1.974,1.974,0,0,0-1.531-.335c-.781.176-1.269,1.2-1.134,1.28A4.909,4.909,0,0,1,571.445,212.181Z" transform="translate(-570.157 -211.579)" fill="#606060"/>
                        </g>
                      </g>
                    </g>
                    <path id="Trazado_903732" data-name="Trazado 903732" d="M574.217,216.868c.1-.726.023-1.335-.166-1.36l-.927-.089s.1.3.639.432a3.886,3.886,0,0,0-.228.926c-.1.726-.023,1.335.166,1.36S574.121,217.594,574.217,216.868Z" transform="translate(-568.336 -206.584)" fill="#606060"/>
                    <path id="Trazado_903733" data-name="Trazado 903733" d="M586.32,218.762a3.873,3.873,0,0,0,.023-.951.83.83,0,0,0,.73-.252l-.918-.157c-.188-.025-.419.543-.516,1.269s-.023,1.335.165,1.36S586.223,219.488,586.32,218.762Z" transform="translate(-576.23 -207.839)" fill="#606060"/>
                    <g id="Grupo_1112288" data-name="Grupo 1112288" transform="translate(9.303 8.268)" opacity="0.3">
                      <g id="Grupo_1112287" data-name="Grupo 1112287">
                        <path id="Trazado_903734" data-name="Trazado 903734" d="M586.88,214.642a1.425,1.425,0,0,0-1.109-.144.288.288,0,1,1-.119-.563,1.975,1.975,0,0,1,1.55.229c.667.442.762,1.569.606,1.6A4.912,4.912,0,0,0,586.88,214.642Z" transform="translate(-585.424 -213.875)" fill="#606060"/>
                      </g>
                    </g>
                    <g id="Grupo_1112290" data-name="Grupo 1112290" transform="translate(3.7 7.426)" opacity="0.3">
                      <g id="Grupo_1112289" data-name="Grupo 1112289">
                        <path id="Trazado_903735" data-name="Trazado 903735" d="M571.445,212.181a1.424,1.424,0,0,1,1.088.259.288.288,0,1,0,.311-.484,1.974,1.974,0,0,0-1.531-.335c-.781.176-1.269,1.2-1.134,1.28A4.909,4.909,0,0,1,571.445,212.181Z" transform="translate(-570.157 -211.579)" fill="#606060"/>
                      </g>
                    </g>
                    <path id="Trazado_903736" data-name="Trazado 903736" d="M574.217,216.868c.1-.726.023-1.335-.166-1.36l-.927-.089s.1.3.639.432a3.886,3.886,0,0,0-.228.926c-.1.726-.023,1.335.166,1.36S574.121,217.594,574.217,216.868Z" transform="translate(-568.336 -206.584)" fill="#606060" opacity="0.3"/>
                    <path id="Trazado_903737" data-name="Trazado 903737" d="M586.32,218.762a3.873,3.873,0,0,0,.023-.951.83.83,0,0,0,.73-.252l-.918-.157c-.188-.025-.419.543-.516,1.269s-.023,1.335.165,1.36S586.223,219.488,586.32,218.762Z" transform="translate(-576.23 -207.839)" fill="#606060" opacity="0.3"/>
                  </g>
                </g>
              </g>
              <path id="Trazado_903738" data-name="Trazado 903738" d="M587.522,277.4a9,9,0,0,1-4.705-1.927,51.242,51.242,0,0,1-3.86-3.5c-.656-.619-1.353-1.234-2.116-1.827,1.8-5.1-2.136-19.7,7.022-30.87,0,0,.479,1.186.694,1.274a.994.994,0,0,1,.115.047c.191.078.414.163.655.261a25.8,25.8,0,0,1,4.87,3.035l-2.461,8.228-2.048,6.856c-.322,1.253.458,3.871.8,5.12A34.892,34.892,0,0,1,587.522,277.4Z" transform="translate(-566.34 -221.69)" fill="#e6dd3b"/>
              <path id="Trazado_903739" data-name="Trazado 903739" d="M591.172,294.864a9,9,0,0,1-4.705-1.927,51.224,51.224,0,0,1-3.861-3.5c6.529-.443,3.169-14.736,3.169-14.736,3.924-.2,4.5-4.047,5.126-7.837l.484,2.721-2.048,6.856c-.322,1.253.458,3.871.8,5.12A34.9,34.9,0,0,1,591.172,294.864Z" transform="translate(-569.99 -239.154)" fill="#ff7e00" opacity="0.2"/>
              <path id="Trazado_903740" data-name="Trazado 903740" d="M576.175,305.066l11.929-2.908L592,306.508a98.319,98.319,0,0,1-13.677,1.141Z" transform="translate(-565.919 -261.493)" fill="#e5b7ac"/>
              <g id="Grupo_1112294" data-name="Grupo 1112294" transform="translate(4.519 40.899)">
                <path id="Trazado_903741" data-name="Trazado 903741" d="M563.079,308.365c0-.013,0-.021,0-.021l-.011.013c-.509.63-.782.637-.918.44s.095-.694.116-.742c-.324.526-1.1.532-1.168.169a8.082,8.082,0,0,1,1.721-2.741,14.878,14.878,0,0,1,1.942-.553l-1.486-.742s-.425-.111-1.464.448-1.341.075-1.259-.3a6.1,6.1,0,0,1,2.656-1.542c.38.062,3.148,1.44,3.4,1.521.792.25,2.753.989,3.1,1.538,0,0,0,0,0,.005.458.724.771,1.7-.232,2.321a2.772,2.772,0,0,1-1.844.327,12.03,12.03,0,0,1-2.781-.958c-.147.061-1,1.557-1.552,1.408C563.092,308.865,563.08,308.461,563.079,308.365Z" transform="translate(-560.54 -302.794)" fill="#e5b7ac"/>
                <path id="Trazado_903742" data-name="Trazado 903742" d="M565.128,314.342a5.6,5.6,0,0,1,.494-.9,3.661,3.661,0,0,1,.669-.775A18.8,18.8,0,0,1,565.128,314.342Z" transform="translate(-563.444 -309.047)" fill="#e5b7ac"/>
                <path id="Trazado_903743" data-name="Trazado 903743" d="M567.381,315.8a3.686,3.686,0,0,1,.433-.717,2.729,2.729,0,0,1,.6-.591A11.179,11.179,0,0,1,567.381,315.8Z" transform="translate(-564.871 -310.2)" fill="#e5b7ac"/>
              </g>
              <path id="Trazado_903744" data-name="Trazado 903744" d="M599.124,248.03a61.282,61.282,0,0,0-2.738-7.329,7.142,7.142,0,0,1-.414-1.425s6.707,3.439,8.082,4.9c1.831,1.942,4.192,21.1,1.522,22.577-.234.13-7.7.74-7.7.74.279-.05.161-3.226-1.258-4.162,0,0,3.774-1.307,4.441-1.644h0a.278.278,0,0,0,.058-.033c-.022-.2-.056-.494-.1-.85-.422-3.272-1.741-12.2-1.9-12.774Z" transform="translate(-578.451 -221.687)" fill="#e6dd3b"/>
              <g id="Grupo_1112295" data-name="Grupo 1112295" transform="translate(17.251 41.102)">
                <path id="Trazado_903745" data-name="Trazado 903745" d="M598.088,308.2l-1.762.4a5.736,5.736,0,0,0-1.091-4.855l1.762-.4A6.967,6.967,0,0,1,598.088,308.2Z" transform="translate(-595.235 -303.348)" fill="#e6dd3b"/>
                <path id="Trazado_903746" data-name="Trazado 903746" d="M598.088,308.2l-1.762.4a5.736,5.736,0,0,0-1.091-4.855l1.762-.4A6.967,6.967,0,0,1,598.088,308.2Z" transform="translate(-595.235 -303.348)" fill="#fff" opacity="0.5"/>
              </g>
              <path id="Trazado_903747" data-name="Trazado 903747" d="M588.766,237.015l-3.916,4.972-.2,3.082s1.208-2.272,1.477-2.185a17.009,17.009,0,0,1,1.66,2.483l2.3-6.847Z" transform="translate(-571.285 -220.255)" fill="#e6dd3b"/>
              <path id="Trazado_903748" data-name="Trazado 903748" d="M588.766,237.015l-3.916,4.972-.2,3.082s1.208-2.272,1.477-2.185a17.009,17.009,0,0,1,1.66,2.483l2.3-6.847Z" transform="translate(-571.285 -220.255)" fill="#fff" opacity="0.5"/>
              <path id="Trazado_903749" data-name="Trazado 903749" d="M612.841,299.951c-.686-1.365-3.032-1.027-3.109-1.027a.265.265,0,0,0,.057-.03c-.023-.192-.059-.463-.108-.8A3.53,3.53,0,0,1,612.841,299.951Z" transform="translate(-587.129 -258.915)" fill="#ff7e00" opacity="0.2"/>
            </g>
          </g>
        </g>
      </g>
      <g id="Grupo_1112310" data-name="Grupo 1112310" transform="translate(17.554 8.887)">
        <g id="Grupo_1112300" data-name="Grupo 1112300" opacity="0.3">
          <path id="Trazado_903750" data-name="Trazado 903750" d="M81.541,185.024a1.5,1.5,0,1,1-1.5-1.5A1.5,1.5,0,0,1,81.541,185.024Z" transform="translate(-67.269 -151.391)" fill="#289672"/>
          <circle id="Elipse_12055" data-name="Elipse 12055" cx="3.247" cy="3.247" r="3.247" transform="translate(40.265)" fill="#289672"/>
          <circle id="Elipse_12056" data-name="Elipse 12056" cx="3.247" cy="3.247" r="3.247" transform="translate(216.947 28.239)" fill="#289672"/>
          <path id="Trazado_903751" data-name="Trazado 903751" d="M287.017,172.952a.713.713,0,1,1-.713-.713A.713.713,0,0,1,287.017,172.952Z" transform="translate(-198.342 -144.248)" fill="#289672"/>
          <path id="Trazado_903752" data-name="Trazado 903752" d="M96.174,117.275a.713.713,0,1,1-.713-.713A.713.713,0,0,1,96.174,117.275Z" transform="translate(-77.533 -109.003)" fill="#289672"/>
          <path id="Trazado_903753" data-name="Trazado 903753" d="M645.407,117.964a.713.713,0,1,1-.713-.713A.712.712,0,0,1,645.407,117.964Z" transform="translate(-425.214 -109.439)" fill="#289672"/>
          <circle id="Elipse_12057" data-name="Elipse 12057" cx="1.447" cy="1.447" r="1.447" transform="translate(0 114.927)" fill="#289672"/>
          <path id="Trazado_903754" data-name="Trazado 903754" d="M384.116,161.867a1.861,1.861,0,1,1-1.861-1.861A1.861,1.861,0,0,1,384.116,161.867Z" transform="translate(-258.354 -136.504)" fill="#289672"/>
          <path id="Trazado_903755" data-name="Trazado 903755" d="M502.71,100.726a1.861,1.861,0,1,1-1.861-1.861A1.861,1.861,0,0,1,502.71,100.726Z" transform="translate(-333.428 -97.8)" fill="#289672"/>
          <path id="Trazado_903756" data-name="Trazado 903756" d="M686.823,346.2a1.861,1.861,0,1,1-1.861-1.861A1.861,1.861,0,0,1,686.823,346.2Z" transform="translate(-449.978 -253.194)" fill="#289672"/>
        </g>
        <g id="Grupo_1112303" data-name="Grupo 1112303" transform="translate(99.514 9.688)">
          <g id="Grupo_1112301" data-name="Grupo 1112301" transform="translate(0)">
            <circle id="Elipse_12058" data-name="Elipse 12058" cx="6.044" cy="6.044" r="6.044" transform="translate(0 12.089) rotate(-89.45)" fill="#289672"/>
          </g>
          <g id="Grupo_1112302" data-name="Grupo 1112302" transform="translate(2.125 2.13)">
            <rect id="Rectángulo_405141" data-name="Rectángulo 405141" width="2.545" height="7.604" transform="matrix(-0.979, 0.204, -0.204, -0.979, 5.996, 7.444)" fill="#fff"/>
            <rect id="Rectángulo_405142" data-name="Rectángulo 405142" width="2.545" height="7.604" transform="matrix(0.204, 0.979, -0.979, 0.204, 7.444, 1.96)" fill="#fff"/>
          </g>
        </g>
        <g id="Grupo_1112306" data-name="Grupo 1112306" transform="translate(219.388 56.977)">
          <g id="Grupo_1112304" data-name="Grupo 1112304" transform="translate(0)">
            <circle id="Elipse_12059" data-name="Elipse 12059" cx="6.745" cy="6.745" r="6.745" transform="translate(0 13.465) rotate(-86.577)" fill="#289672"/>
          </g>
          <g id="Grupo_1112305" data-name="Grupo 1112305" transform="translate(2.671 2.663)">
            <rect id="Rectángulo_405143" data-name="Rectángulo 405143" width="2.84" height="8.484" transform="matrix(-0.968, -0.252, 0.252, -0.968, 4.779, 8.926)" fill="#fff"/>
            <rect id="Rectángulo_405144" data-name="Rectángulo 405144" width="2.84" height="8.484" transform="matrix(-0.252, 0.968, -0.968, -0.252, 8.926, 4.16)" fill="#fff"/>
          </g>
        </g>
        <g id="Grupo_1112309" data-name="Grupo 1112309" transform="translate(1.093 61.366)">
          <g id="Grupo_1112307" data-name="Grupo 1112307">
            <path id="Trazado_903757" data-name="Trazado 903757" d="M50.931,268.685a6.744,6.744,0,1,0,7.876-5.38A6.745,6.745,0,0,0,50.931,268.685Z" transform="translate(-50.813 -263.187)" fill="#289672"/>
          </g>
          <g id="Grupo_1112308" data-name="Grupo 1112308" transform="translate(2.275 2.275)">
            <rect id="Rectángulo_405145" data-name="Rectángulo 405145" width="2.84" height="8.484" transform="translate(6.955 8.189) rotate(164.835)" fill="#fff"/>
            <rect id="Rectángulo_405146" data-name="Rectángulo 405146" width="2.84" height="8.484" transform="translate(8.189 1.987) rotate(74.835)" fill="#fff"/>
          </g>
        </g>
      </g>
    </g>
  </g>
</svg>
