<svg xmlns="http://www.w3.org/2000/svg" width="90" height="90" viewBox="0 0 90 90">
  <g id="Grupo_1112511" data-name="Grupo 1112511" transform="translate(-335.257 -1097)">
    <g id="Grupo_1098742" data-name="Grupo 1098742" transform="translate(-868.063 708.258)">
      <g id="Rect치ngulo_400898" data-name="Rect치ngulo 400898" transform="translate(1203.32 388.742)" fill="#b4d1f0" stroke="#fff" stroke-width="3" opacity="0.859">
        <rect width="90" height="90" rx="45" stroke="none"/>
        <rect x="1.5" y="1.5" width="87" height="87" rx="43.5" fill="none"/>
      </g>
      <g id="Rect치ngulo_400907" data-name="Rect치ngulo 400907" transform="translate(1203.32 388.742)" fill="none" stroke="#fff" stroke-width="3">
        <rect width="90" height="90" rx="45" stroke="none"/>
        <rect x="1.5" y="1.5" width="87" height="87" rx="43.5" fill="none"/>
      </g>
    </g>
    <g id="Grupo_1112317" data-name="Grupo 1112317" transform="translate(355.051 1117)">
      <path id="Trazado_903782" data-name="Trazado 903782" d="M2,3H48V6.067H2Z" transform="translate(0 -0.233)" fill="#d34a4a"/>
      <path id="Trazado_903783" data-name="Trazado 903783" d="M2,3H48V4.533H2Z" transform="translate(0 -0.233)" fill="#e86b6b"/>
      <path id="Trazado_903784" data-name="Trazado 903784" d="M2,30H48v3.067H2Z" transform="translate(0 -6.533)" fill="#d34a4a"/>
      <path id="Trazado_903785" data-name="Trazado 903785" d="M2,30H48v1.533H2Z" transform="translate(0 -6.533)" fill="#e86b6b"/>
      <path id="Trazado_903786" data-name="Trazado 903786" d="M2,57H48v3.067H2Z" transform="translate(0 -12.833)" fill="#d34a4a"/>
      <path id="Trazado_903787" data-name="Trazado 903787" d="M2,57H48v1.533H2Z" transform="translate(0 -12.833)" fill="#e86b6b"/>
      <path id="Trazado_903788" data-name="Trazado 903788" d="M2,7H48V24.633H2Z" transform="translate(0 -1.167)" fill="#ffe6e6"/>
      <path id="Trazado_903789" data-name="Trazado 903789" d="M23.3,28.367A10.038,10.038,0,0,0,14.242,23,10.038,10.038,0,0,0,5.18,28.367Z" transform="translate(-0.742 -4.9)" fill="#ead478"/>
      <path id="Trazado_903790" data-name="Trazado 903790" d="M54.005,7A10.4,10.4,0,0,1,36.74,7Z" transform="translate(-8.106 -1.167)" fill="#ead478"/>
      <ellipse id="Elipse_12068" data-name="Elipse 12068" cx="3" cy="2" rx="3" ry="2" transform="translate(41 12)" fill="#ce3a3a"/>
      <path id="Trazado_903791" data-name="Trazado 903791" d="M55.3,17.3a2.419,2.419,0,0,1,1.917-2.131A3.97,3.97,0,0,0,56.067,15C54.372,15,53,16.027,53,17.3s1.372,2.3,3.067,2.3a3.97,3.97,0,0,0,1.15-.169A2.419,2.419,0,0,1,55.3,17.3Z" transform="translate(-11.9 -3.033)" fill="#a32424"/>
      <ellipse id="Elipse_12069" data-name="Elipse 12069" cx="3" cy="2.5" rx="3" ry="2.5" transform="translate(23 16)" fill="#ce3a3a"/>
      <path id="Trazado_903792" data-name="Trazado 903792" d="M31.3,22.3a2.419,2.419,0,0,1,1.917-2.131A3.97,3.97,0,0,0,32.067,20C30.372,20,29,21.027,29,22.3s1.372,2.3,3.067,2.3a3.97,3.97,0,0,0,1.15-.169A2.419,2.419,0,0,1,31.3,22.3Z" transform="translate(-6.3 -4.2)" fill="#a32424"/>
      <ellipse id="Elipse_12070" data-name="Elipse 12070" cx="3" cy="2.5" rx="3" ry="2.5" transform="translate(33 16)" fill="#ce3a3a"/>
      <path id="Trazado_903793" data-name="Trazado 903793" d="M45.65,20a3.97,3.97,0,0,0-1.15.169A2.419,2.419,0,0,1,46.417,22.3,2.419,2.419,0,0,1,44.5,24.431a3.97,3.97,0,0,0,1.15.169c1.694,0,3.067-1.027,3.067-2.3S47.344,20,45.65,20Z" transform="translate(-9.917 -4.2)" fill="#a32424"/>
      <ellipse id="Elipse_12071" data-name="Elipse 12071" cx="3.5" cy="2" rx="3.5" ry="2" transform="translate(3 12)" fill="#ce3a3a"/>
      <path id="Trazado_903794" data-name="Trazado 903794" d="M7.65,15a3.97,3.97,0,0,0-1.15.169A2.419,2.419,0,0,1,8.417,17.3,2.419,2.419,0,0,1,6.5,19.431a3.97,3.97,0,0,0,1.15.169c1.694,0,3.067-1.027,3.067-2.3S9.344,15,7.65,15Z" transform="translate(-1.05 -3.033)" fill="#a32424"/>
      <ellipse id="Elipse_12072" data-name="Elipse 12072" cx="2.5" cy="2" rx="2.5" ry="2" transform="translate(13 9)" fill="#ce3a3a"/>
      <path id="Trazado_903795" data-name="Trazado 903795" d="M19.65,10a3.97,3.97,0,0,0-1.15.169A2.419,2.419,0,0,1,20.417,12.3,2.419,2.419,0,0,1,18.5,14.431a3.97,3.97,0,0,0,1.15.169c1.694,0,3.067-1.027,3.067-2.3S21.344,10,19.65,10Z" transform="translate(-3.85 -1.867)" fill="#a32424"/>
      <ellipse id="Elipse_12073" data-name="Elipse 12073" cx="3" cy="2" rx="3" ry="2" transform="translate(23 9)" fill="#ce3a3a"/>
      <path id="Trazado_903796" data-name="Trazado 903796" d="M32.65,10a3.97,3.97,0,0,0-1.15.169A2.419,2.419,0,0,1,33.417,12.3,2.419,2.419,0,0,1,31.5,14.431a3.97,3.97,0,0,0,1.15.169c1.694,0,3.067-1.027,3.067-2.3S34.344,10,32.65,10Z" transform="translate(-6.883 -1.867)" fill="#a32424"/>
      <path id="Trazado_903797" data-name="Trazado 903797" d="M2,34H48V51.633H2Z" transform="translate(0 -7.467)" fill="#ffe6e6"/>
      <ellipse id="Elipse_12074" data-name="Elipse 12074" cx="3" cy="2" rx="3" ry="2" transform="translate(41 34)" fill="#ce3a3a"/>
      <path id="Trazado_903798" data-name="Trazado 903798" d="M55.3,45.3a2.419,2.419,0,0,1,1.917-2.131A3.97,3.97,0,0,0,56.067,43C54.372,43,53,44.027,53,45.3s1.372,2.3,3.067,2.3a3.97,3.97,0,0,0,1.15-.169A2.419,2.419,0,0,1,55.3,45.3Z" transform="translate(-11.9 -9.567)" fill="#a32424"/>
      <ellipse id="Elipse_12075" data-name="Elipse 12075" cx="3" cy="2.5" rx="3" ry="2.5" transform="translate(33 29)" fill="#ce3a3a"/>
      <path id="Trazado_903799" data-name="Trazado 903799" d="M44.3,40.3a2.419,2.419,0,0,1,1.917-2.131A3.97,3.97,0,0,0,45.067,38C43.372,38,42,39.027,42,40.3s1.372,2.3,3.067,2.3a3.97,3.97,0,0,0,1.15-.169A2.419,2.419,0,0,1,44.3,40.3Z" transform="translate(-9.333 -8.4)" fill="#a32424"/>
      <ellipse id="Elipse_12076" data-name="Elipse 12076" cx="3" cy="2" rx="3" ry="2" transform="translate(23 37)" fill="#ce3a3a"/>
      <path id="Trazado_903800" data-name="Trazado 903800" d="M31.3,50.3a2.419,2.419,0,0,1,1.917-2.131A3.97,3.97,0,0,0,32.067,48C30.372,48,29,49.027,29,50.3s1.372,2.3,3.067,2.3a3.97,3.97,0,0,0,1.15-.169A2.419,2.419,0,0,1,31.3,50.3Z" transform="translate(-6.3 -10.733)" fill="#a32424"/>
      <ellipse id="Elipse_12077" data-name="Elipse 12077" cx="2.5" cy="2" rx="2.5" ry="2" transform="translate(13 37)" fill="#ce3a3a"/>
      <path id="Trazado_903801" data-name="Trazado 903801" d="M18.3,50.3a2.419,2.419,0,0,1,1.917-2.131A3.97,3.97,0,0,0,19.067,48C17.372,48,16,49.027,16,50.3s1.372,2.3,3.067,2.3a3.97,3.97,0,0,0,1.15-.169A2.419,2.419,0,0,1,18.3,50.3Z" transform="translate(-3.267 -10.733)" fill="#a32424"/>
      <ellipse id="Elipse_12078" data-name="Elipse 12078" cx="3" cy="2" rx="3" ry="2" transform="translate(33 37)" fill="#ce3a3a"/>
      <path id="Trazado_903802" data-name="Trazado 903802" d="M45.65,48a3.97,3.97,0,0,0-1.15.169,2.143,2.143,0,0,1,0,4.263,3.97,3.97,0,0,0,1.15.169c1.694,0,3.067-1.027,3.067-2.3S47.344,48,45.65,48Z" transform="translate(-9.917 -10.733)" fill="#a32424"/>
      <ellipse id="Elipse_12079" data-name="Elipse 12079" cx="3.5" cy="2" rx="3.5" ry="2" transform="translate(3 34)" fill="#ce3a3a"/>
      <path id="Trazado_903803" data-name="Trazado 903803" d="M7.65,43a3.97,3.97,0,0,0-1.15.169A2.419,2.419,0,0,1,8.417,45.3,2.419,2.419,0,0,1,6.5,47.431a3.97,3.97,0,0,0,1.15.169c1.694,0,3.067-1.027,3.067-2.3S9.344,43,7.65,43Z" transform="translate(-1.05 -9.567)" fill="#a32424"/>
      <circle id="Elipse_12080" data-name="Elipse 12080" cx="2.5" cy="2.5" r="2.5" transform="translate(13 29)" fill="#ce3a3a"/>
      <path id="Trazado_903804" data-name="Trazado 903804" d="M19.65,38a3.97,3.97,0,0,0-1.15.169A2.419,2.419,0,0,1,20.417,40.3,2.419,2.419,0,0,1,18.5,42.431a3.97,3.97,0,0,0,1.15.169c1.694,0,3.067-1.027,3.067-2.3S21.344,38,19.65,38Z" transform="translate(-3.85 -8.4)" fill="#a32424"/>
      <ellipse id="Elipse_12081" data-name="Elipse 12081" cx="3" cy="2.5" rx="3" ry="2.5" transform="translate(23 29)" fill="#ce3a3a"/>
      <path id="Trazado_903805" data-name="Trazado 903805" d="M32.65,38a3.97,3.97,0,0,0-1.15.169A2.419,2.419,0,0,1,33.417,40.3,2.419,2.419,0,0,1,31.5,42.431a3.97,3.97,0,0,0,1.15.169c1.694,0,3.067-1.027,3.067-2.3S34.344,38,32.65,38Z" transform="translate(-6.883 -8.4)" fill="#a32424"/>
      <path id="Trazado_903806" data-name="Trazado 903806" d="M16.321,23a11.234,11.234,0,0,0-2.231.23,9.84,9.84,0,0,1,6.831,5.137h4.462A10.038,10.038,0,0,0,16.321,23Z" transform="translate(-2.821 -4.9)" fill="#d8c46c"/>
      <path id="Trazado_903807" data-name="Trazado 903807" d="M41.539,7h-4.8a10.132,10.132,0,0,0,8.633,4.6,10.708,10.708,0,0,0,2.4-.284A9.937,9.937,0,0,1,41.539,7Z" transform="translate(-8.106 -1.167)" fill="#d8c46c"/>
      <path id="Trazado_903808" data-name="Trazado 903808" d="M2,56H48v1.533H2Z" transform="translate(0 -12.6)"/>
      <path id="Trazado_903809" data-name="Trazado 903809" d="M2,60H48v1.533H2Z" transform="translate(0 -13.533)"/>
      <path id="Trazado_903810" data-name="Trazado 903810" d="M31.833,53.133c2.116,0,3.833-1.372,3.833-3.067S33.949,47,31.833,47,28,48.372,28,50.067,29.717,53.133,31.833,53.133Zm0-4.6c1.25,0,2.3.705,2.3,1.533s-1.05,1.533-2.3,1.533-2.3-.705-2.3-1.533S30.584,48.533,31.833,48.533Z" transform="translate(-6.067 -10.5)"/>
      <path id="Trazado_903811" data-name="Trazado 903811" d="M44.833,37C42.717,37,41,38.372,41,40.067s1.717,3.067,3.833,3.067,3.833-1.372,3.833-3.067S46.949,37,44.833,37Zm0,4.6c-1.25,0-2.3-.705-2.3-1.533s1.05-1.533,2.3-1.533,2.3.705,2.3,1.533S46.083,41.6,44.833,41.6Z" transform="translate(-9.1 -8.167)"/>
      <path id="Trazado_903812" data-name="Trazado 903812" d="M55.833,42C53.717,42,52,43.372,52,45.067s1.717,3.067,3.833,3.067,3.833-1.372,3.833-3.067S57.949,42,55.833,42Zm0,4.6c-1.25,0-2.3-.705-2.3-1.533s1.05-1.533,2.3-1.533,2.3.705,2.3,1.533S57.083,46.6,55.833,46.6Z" transform="translate(-11.667 -9.333)"/>
      <ellipse id="Elipse_12082" data-name="Elipse 12082" cx="1" cy="0.5" rx="1" ry="0.5" transform="translate(30 29)"/>
      <circle id="Elipse_12083" data-name="Elipse 12083" cx="1" cy="1" r="1" transform="translate(30 35)"/>
      <circle id="Elipse_12084" data-name="Elipse 12084" cx="1" cy="1" r="1" transform="translate(27 35)"/>
      <circle id="Elipse_12085" data-name="Elipse 12085" cx="0.5" cy="0.5" r="0.5" transform="translate(26 39)"/>
      <circle id="Elipse_12086" data-name="Elipse 12086" cx="0.5" cy="0.5" r="0.5" transform="translate(36 32)"/>
      <path id="Trazado_903813" data-name="Trazado 903813" d="M44.833,47C42.717,47,41,48.372,41,50.067s1.717,3.067,3.833,3.067,3.833-1.372,3.833-3.067S46.949,47,44.833,47Zm0,4.6c-1.25,0-2.3-.705-2.3-1.533s1.05-1.533,2.3-1.533,2.3.705,2.3,1.533S46.083,51.6,44.833,51.6Z" transform="translate(-9.1 -10.5)"/>
      <ellipse id="Elipse_12087" data-name="Elipse 12087" cx="1" cy="0.5" rx="1" ry="0.5" transform="translate(34 39)"/>
      <ellipse id="Elipse_12088" data-name="Elipse 12088" cx="0.5" cy="1" rx="0.5" ry="1" transform="translate(44 35)"/>
      <ellipse id="Elipse_12089" data-name="Elipse 12089" cx="1" cy="1.5" rx="1" ry="1.5" transform="translate(41 29)"/>
      <ellipse id="Elipse_12090" data-name="Elipse 12090" cx="0.5" cy="1" rx="0.5" ry="1" transform="translate(46 30)"/>
      <ellipse id="Elipse_12091" data-name="Elipse 12091" cx="1" cy="0.5" rx="1" ry="0.5" transform="translate(41 40)"/>
      <circle id="Elipse_12092" data-name="Elipse 12092" cx="1" cy="1" r="1" transform="translate(30 41)"/>
      <ellipse id="Elipse_12093" data-name="Elipse 12093" cx="0.5" cy="1" rx="0.5" ry="1" transform="translate(46 39)"/>
      <ellipse id="Elipse_12094" data-name="Elipse 12094" cx="1" cy="0.5" rx="1" ry="0.5" transform="translate(9 40)"/>
      <circle id="Elipse_12095" data-name="Elipse 12095" cx="1" cy="1" r="1" transform="translate(4 39)"/>
      <ellipse id="Elipse_12096" data-name="Elipse 12096" cx="1" cy="1.5" rx="1" ry="1.5" transform="translate(9 29)"/>
      <circle id="Elipse_12097" data-name="Elipse 12097" cx="1" cy="1" r="1" transform="translate(11 35)"/>
      <circle id="Elipse_12098" data-name="Elipse 12098" cx="1" cy="1" r="1" transform="translate(4 30)"/>
      <path id="Trazado_903814" data-name="Trazado 903814" d="M18.833,37C16.717,37,15,38.372,15,40.067s1.717,3.067,3.833,3.067,3.833-1.372,3.833-3.067S20.949,37,18.833,37Zm0,4.6c-1.25,0-2.3-.705-2.3-1.533s1.05-1.533,2.3-1.533,2.3.705,2.3,1.533S20.083,41.6,18.833,41.6Z" transform="translate(-3.033 -8.167)"/>
      <path id="Trazado_903815" data-name="Trazado 903815" d="M3,45.067c0,1.694,1.717,3.067,3.833,3.067s3.833-1.372,3.833-3.067S8.949,42,6.833,42,3,43.372,3,45.067Zm3.833-1.533c1.25,0,2.3.705,2.3,1.533S8.083,46.6,6.833,46.6s-2.3-.705-2.3-1.533S5.584,43.533,6.833,43.533Z" transform="translate(-0.233 -9.333)"/>
      <circle id="Elipse_12099" data-name="Elipse 12099" cx="1" cy="1" r="1" transform="translate(20 41)"/>
      <ellipse id="Elipse_12100" data-name="Elipse 12100" cx="1" cy="0.5" rx="1" ry="0.5" transform="translate(14 32)"/>
      <path id="Trazado_903816" data-name="Trazado 903816" d="M18.833,47C16.717,47,15,48.372,15,50.067s1.717,3.067,3.833,3.067,3.833-1.372,3.833-3.067S20.949,47,18.833,47Zm0,4.6c-1.25,0-2.3-.705-2.3-1.533s1.05-1.533,2.3-1.533,2.3.705,2.3,1.533S20.083,51.6,18.833,51.6Z" transform="translate(-3.033 -10.5)"/>
      <circle id="Elipse_12101" data-name="Elipse 12101" cx="0.5" cy="0.5" r="0.5" transform="translate(16 39)"/>
      <path id="Trazado_903817" data-name="Trazado 903817" d="M35.667,40.067c0-1.694-1.717-3.067-3.833-3.067S28,38.372,28,40.067s1.717,3.067,3.833,3.067S35.667,41.761,35.667,40.067ZM31.833,41.6c-1.25,0-2.3-.705-2.3-1.533s1.05-1.533,2.3-1.533,2.3.705,2.3,1.533S33.083,41.6,31.833,41.6Z" transform="translate(-6.067 -8.167)"/>
      <ellipse id="Elipse_12102" data-name="Elipse 12102" cx="1" cy="0.5" rx="1" ry="0.5" transform="translate(24 32)"/>
      <ellipse id="Elipse_12103" data-name="Elipse 12103" cx="0.5" cy="1" rx="0.5" ry="1" transform="translate(5 35)"/>
      <circle id="Elipse_12104" data-name="Elipse 12104" cx="1" cy="1" r="1" transform="translate(20 35)"/>
      <ellipse id="Elipse_12105" data-name="Elipse 12105" cx="0.5" cy="1" rx="0.5" ry="1" transform="translate(23 35)"/>
      <ellipse id="Elipse_12106" data-name="Elipse 12106" cx="1" cy="0.5" rx="1" ry="0.5" transform="translate(20 29)"/>
      <path id="Trazado_903818" data-name="Trazado 903818" d="M2,2H48V3.533H2Z"/>
      <path id="Trazado_903819" data-name="Trazado 903819" d="M2,33H48v1.533H2Z" transform="translate(0 -7.233)"/>
      <path id="Trazado_903820" data-name="Trazado 903820" d="M31.833,25.133c2.116,0,3.833-1.372,3.833-3.067S33.949,19,31.833,19,28,20.372,28,22.067,29.717,25.133,31.833,25.133Zm0-4.6c1.25,0,2.3.705,2.3,1.533s-1.05,1.533-2.3,1.533-2.3-.705-2.3-1.533S30.584,20.533,31.833,20.533Z" transform="translate(-6.067 -3.967)"/>
      <path id="Trazado_903821" data-name="Trazado 903821" d="M55.833,14C53.717,14,52,15.372,52,17.067s1.717,3.067,3.833,3.067,3.833-1.372,3.833-3.067S57.949,14,55.833,14Zm0,4.6c-1.25,0-2.3-.705-2.3-1.533s1.05-1.533,2.3-1.533,2.3.705,2.3,1.533S57.083,18.6,55.833,18.6Z" transform="translate(-11.667 -2.8)"/>
      <ellipse id="Elipse_12107" data-name="Elipse 12107" cx="0.5" cy="1" rx="0.5" ry="1" transform="translate(32 11)"/>
      <ellipse id="Elipse_12108" data-name="Elipse 12108" cx="1" cy="0.5" rx="1" ry="0.5" transform="translate(30 15)"/>
      <ellipse id="Elipse_12109" data-name="Elipse 12109" cx="1" cy="0.5" rx="1" ry="0.5" transform="translate(27 14)"/>
      <circle id="Elipse_12110" data-name="Elipse 12110" cx="0.5" cy="0.5" r="0.5" transform="translate(26 17)"/>
      <path id="Trazado_903822" data-name="Trazado 903822" d="M41,22.067c0,1.694,1.717,3.067,3.833,3.067s3.833-1.372,3.833-3.067S46.949,19,44.833,19,41,20.372,41,22.067Zm6.133,0c0,.828-1.05,1.533-2.3,1.533s-2.3-.705-2.3-1.533,1.05-1.533,2.3-1.533S47.133,21.239,47.133,22.067Z" transform="translate(-9.1 -3.967)"/>
      <ellipse id="Elipse_12111" data-name="Elipse 12111" cx="1" cy="0.5" rx="1" ry="0.5" transform="translate(34 17)"/>
      <circle id="Elipse_12112" data-name="Elipse 12112" cx="0.5" cy="0.5" r="0.5" transform="translate(44 14)"/>
      <ellipse id="Elipse_12113" data-name="Elipse 12113" cx="1" cy="1.5" rx="1" ry="1.5" transform="translate(41 18)"/>
      <circle id="Elipse_12114" data-name="Elipse 12114" cx="1" cy="1" r="1" transform="translate(30 20)"/>
      <ellipse id="Elipse_12115" data-name="Elipse 12115" cx="0.5" cy="1" rx="0.5" ry="1" transform="translate(46 18)"/>
      <ellipse id="Elipse_12116" data-name="Elipse 12116" cx="1" cy="0.5" rx="1" ry="0.5" transform="translate(9 9)"/>
      <ellipse id="Elipse_12117" data-name="Elipse 12117" cx="1" cy="0.5" rx="1" ry="0.5" transform="translate(11 14)"/>
      <circle id="Elipse_12118" data-name="Elipse 12118" cx="1" cy="1" r="1" transform="translate(4 9)"/>
      <path id="Trazado_903823" data-name="Trazado 903823" d="M18.833,9C16.717,9,15,10.372,15,12.067s1.717,3.067,3.833,3.067,3.833-1.372,3.833-3.067S20.949,9,18.833,9Zm0,4.6c-1.25,0-2.3-.705-2.3-1.533s1.05-1.533,2.3-1.533,2.3.705,2.3,1.533S20.083,13.6,18.833,13.6Z" transform="translate(-3.033 -1.633)"/>
      <path id="Trazado_903824" data-name="Trazado 903824" d="M3,17.067c0,1.694,1.717,3.067,3.833,3.067s3.833-1.372,3.833-3.067S8.949,14,6.833,14,3,15.372,3,17.067Zm3.833-1.533c1.25,0,2.3.705,2.3,1.533S8.083,18.6,6.833,18.6s-2.3-.705-2.3-1.533S5.584,15.533,6.833,15.533Z" transform="translate(-0.233 -2.8)"/>
      <ellipse id="Elipse_12119" data-name="Elipse 12119" cx="1" cy="0.5" rx="1" ry="0.5" transform="translate(14 10)"/>
      <path id="Trazado_903825" data-name="Trazado 903825" d="M35.667,12.067C35.667,10.372,33.949,9,31.833,9S28,10.372,28,12.067s1.717,3.067,3.833,3.067S35.667,13.761,35.667,12.067ZM31.833,13.6c-1.25,0-2.3-.705-2.3-1.533s1.05-1.533,2.3-1.533,2.3.705,2.3,1.533S33.083,13.6,31.833,13.6Z" transform="translate(-6.067 -1.633)"/>
      <ellipse id="Elipse_12120" data-name="Elipse 12120" cx="1" cy="0.5" rx="1" ry="0.5" transform="translate(24 10)"/>
      <circle id="Elipse_12121" data-name="Elipse 12121" cx="0.5" cy="0.5" r="0.5" transform="translate(5 14)"/>
      <ellipse id="Elipse_12122" data-name="Elipse 12122" cx="1" cy="0.5" rx="1" ry="0.5" transform="translate(20 14)"/>
      <circle id="Elipse_12123" data-name="Elipse 12123" cx="1" cy="1" r="1" transform="translate(20 16)"/>
      <circle id="Elipse_12124" data-name="Elipse 12124" cx="0.5" cy="0.5" r="0.5" transform="translate(16 15)"/>
      <ellipse id="Elipse_12125" data-name="Elipse 12125" cx="0.5" cy="1" rx="0.5" ry="1" transform="translate(36 12)"/>
      <circle id="Elipse_12126" data-name="Elipse 12126" cx="0.5" cy="0.5" r="0.5" transform="translate(23 14)"/>
      <circle id="Elipse_12127" data-name="Elipse 12127" cx="1" cy="1" r="1" transform="translate(20 7)"/>
      <path id="Trazado_903826" data-name="Trazado 903826" d="M2,7.533H28.228a11.181,11.181,0,0,0,18.078,0H48V6H2ZM37.267,10.6A9.581,9.581,0,0,1,30.19,7.533H44.343A9.581,9.581,0,0,1,37.267,10.6Z" transform="translate(0 -0.933)"/>
      <path id="Trazado_903827" data-name="Trazado 903827" d="M13.5,22a10.885,10.885,0,0,0-9.514,5.367H2V28.9H48V27.367H23.014A10.894,10.894,0,0,0,13.5,22Zm0,1.533a9.474,9.474,0,0,1,7.713,3.833H5.787A9.464,9.464,0,0,1,13.5,23.533Z" transform="translate(0 -4.667)"/>
    </g>
  </g>
</svg>
