<svg xmlns="http://www.w3.org/2000/svg" xmlns:xlink="http://www.w3.org/1999/xlink" width="108" height="108" viewBox="0 0 108 108">
  <defs>
    <filter id="Rectángulo_400898" x="0" y="0" width="108" height="108" filterUnits="userSpaceOnUse">
      <feOffset dy="3" input="SourceAlpha"/>
      <feGaussianBlur stdDeviation="3" result="blur"/>
      <feFlood flood-opacity="0.161"/>
      <feComposite operator="in" in2="blur"/>
      <feComposite in="SourceGraphic"/>
    </filter>
  </defs>
  <g id="Grupo_1112512" data-name="Grupo 1112512" transform="translate(-747.257 -1091)">
    <g id="Grupo_1098742" data-name="Grupo 1098742" transform="translate(-447.063 708.258)">
      <g transform="matrix(1, 0, 0, 1, 1194.32, 382.74)" filter="url(#Rectángulo_400898)">
        <g id="Rectángulo_400898-2" data-name="Rectángulo 400898" transform="translate(9 6)" fill="#c6e697" stroke="#fff" stroke-width="3" opacity="0.859">
          <rect width="90" height="90" rx="45" stroke="none"/>
          <rect x="1.5" y="1.5" width="87" height="87" rx="43.5" fill="none"/>
        </g>
      </g>
      <g id="Rectángulo_400907" data-name="Rectángulo 400907" transform="translate(1203.32 388.742)" fill="none" stroke="#fff" stroke-width="3">
        <rect width="90" height="90" rx="45" stroke="none"/>
        <rect x="1.5" y="1.5" width="87" height="87" rx="43.5" fill="none"/>
      </g>
    </g>
    <g id="Plant_Research" data-name="Plant Research" transform="translate(762.167 1080.535)">
      <path id="path1408-7" d="M132.86,110.2c3.953-9.634,11.937-21.9,16.2-21.9s17.41,17.451,17.41,27.069a17.418,17.418,0,0,1-15.433,17.306h-3.956a17.383,17.383,0,0,1-11.371-6.12Z" transform="translate(-110.516 -47.936)" fill="#60d394"/>
      <path id="circle1240-0-9" d="M14,263.8A10.338,10.338,0,1,0,24.338,253.46,10.338,10.338,0,0,0,14,263.8Z" transform="translate(-6.61 -192.316)" fill="#e54857"/>
      <path id="path1264-6-6" d="M58.283,302.822,55.556,304.4l-2.726-1.574v-3.145l2.726-1.576,2.726,1.574Z" transform="translate(-40.555 -231.34)" fill="#f9f183"/>
      <path id="path1266-2-2" d="M101.622,302.839,98.9,304.413l-2.725-1.574v-3.145L98.9,298.12l2.726,1.574Z" transform="translate(-78.442 -231.357)" fill="#f9f183"/>
      <path id="path1268-6-17" d="M79.952,340.369l-2.725,1.574L74.5,340.369v-3.145l2.726-1.574,2.725,1.574Z" transform="translate(-59.498 -264.165)" fill="#f9f183"/>
      <path id="path1320-7-8" d="M185.668,250.974a1.909,1.909,0,0,1-1.028-.3l-6.761-4.319a1.909,1.909,0,1,1,2.056-3.216l5.728,3.663h3.953l5.728-3.662a1.909,1.909,0,1,1,2.056,3.216l-6.756,4.319a1.906,1.906,0,0,1-1.028.3Z" transform="translate(-149.101 -183.03)" fill="#f4d07d"/>
      <path id="path1510-4" d="M439.849,389.593a4.185,4.185,0,1,1-4.184-4.183,4.185,4.185,0,0,1,4.184,4.183Z" transform="translate(-371.565 -307.665)" fill="#f9f183"/>
      <g id="Grupo_1112318" data-name="Grupo 1112318" transform="translate(44.97 34.413)">
        <path id="path1527-1" d="M318.139,45.718l-2.723,1.573-2.726-1.573V42.573L315.416,41l2.723,1.57Z" transform="translate(-312.69 -41)" fill="#e54857"/>
        <path id="path1529-8" d="M361.457,45.718l-2.726,1.573L356,45.718V42.573L358.73,41l2.726,1.574Z" transform="translate(-350.551 -41)" fill="#e54857"/>
        <path id="path1531-5" d="M339.813,83.218l-2.73,1.578-2.723-1.578V80.073l2.723-1.573,2.73,1.573Z" transform="translate(-331.634 -73.782)" fill="#e54857"/>
      </g>
      <path id="path4425" d="M242.091,88.3a4.953,4.953,0,0,0-2.811,1.258c5.5,4.156,14.759,17.74,14.759,25.811a17.418,17.418,0,0,1-10.529,16l.56,1.307A17.418,17.418,0,0,0,259.5,115.369C259.5,105.751,246.353,88.3,242.091,88.3Z" transform="translate(-203.547 -47.936)" fill="#4ec480"/>
      <path id="path4442" d="M83.73,253.46a10.355,10.355,0,0,0-1.79.155,10.34,10.34,0,0,1,0,20.366,10.338,10.338,0,1,0,1.79-20.521Z" transform="translate(-66.002 -192.316)" fill="#db4056"/>
      <path id="path4447" d="M68.206,298.1l-.906.522,1.821,1.052v3.145L67.3,303.875l.906.523,2.726-1.574v-3.145Z" transform="translate(-53.204 -231.34)" fill="#f4d07d"/>
      <path id="path4449" d="M111.545,298.1l-.9.522,1.821,1.052v3.145l-1.821,1.056.9.523,2.726-1.574v-3.145Z" transform="translate(-91.091 -231.34)" fill="#f4d07d"/>
      <path id="path4451" d="M89.9,335.63l-.9.522,1.821,1.052v3.145L89,341.4l.906.523,2.725-1.574v-3.145Z" transform="translate(-72.174 -264.148)" fill="#f4d07d"/>
      <path id="path4447-9" d="M328.075,41l-.9.522,1.821,1.052v3.145L327.17,46.77l.9.521,2.723-1.573V42.573Z" transform="translate(-280.379 -6.587)" fill="#db4056"/>
      <path id="path4449-7" d="M371.406,41l-.906.522,1.824,1.048v3.145L370.5,46.769l.906.522,2.726-1.573V42.573Z" transform="translate(-318.257 -6.587)" fill="#db4056"/>
      <path id="path4451-5" d="M349.706,78.5l-.906.522,1.824,1.051v3.145L348.8,84.269l.906.523,2.726-1.574V80.073Z" transform="translate(-299.287 -39.369)" fill="#db4056"/>
      <path id="path1331-2-3" d="M187.139,333.351l-6.822-4.361a1.906,1.906,0,0,0-1.02-.3l-.616,3.785,7.431,4.75a1.91,1.91,0,0,0,1.028.3Z" transform="translate(-150.571 -258.081)" fill="#f4d07d"/>
      <path id="rect1406-1" d="M247.887,158.85a1.977,1.977,0,0,1,1.977,1.977v35.324a1.977,1.977,0,0,1-3.953,0v-35.32A1.977,1.977,0,0,1,247.887,158.85Z" transform="translate(-209.342 -109.609)" fill="#f9f183"/>
      <path id="Trazado_903828" data-name="Trazado 903828" d="M57.65,292.3l-2.726-1.574a.944.944,0,0,0-.944,0l-2.253,1.309-2.255-1.309a.944.944,0,0,0-.944,0L45.8,292.3a.945.945,0,0,0-.472.818v3.145a.942.942,0,0,0,.472.817l2.255,1.3v2.6a.942.942,0,0,0,.472.817l2.726,1.574a.94.94,0,0,0,.944,0l2.725-1.574a.94.94,0,0,0,.472-.817v-2.6l2.255-1.3a.942.942,0,0,0,.472-.817v-3.145A.945.945,0,0,0,57.65,292.3Zm-10.433,1.363L49,292.629l1.783,1.029v2.058l-.892.515-.891.515-1.783-1.029Zm4.509,7.808-1.783-1.028V298.38l.891-.515.892-.515.891.515.891.515v2.058Zm4.508-5.75-1.783,1.029-.891-.515-.891-.515v-2.058l1.782-1.029,1.783,1.029Z" transform="translate(-33.999 -224.779)"/>
      <path id="Trazado_903829" data-name="Trazado 903829" d="M64.1,118.181a5.135,5.135,0,0,0-5.039,4.183H55.425l-2.336-2.336A18.318,18.318,0,0,0,56.9,108.813c0-4.434-2.719-11.042-7.275-17.676C46.357,86.369,41.487,80.8,38.544,80.8c-2.329,0-5.352,2.6-8.986,7.739a79.225,79.225,0,0,0-7.7,13.825,11.283,11.283,0,1,0,3.281,19,18.25,18.25,0,0,0,10.483,5.582v.98a2.92,2.92,0,0,0,5.84,0v-.98a18.272,18.272,0,0,0,10.394-5.481l2.509,2.516a.945.945,0,0,0,.668.277h4.026a5.127,5.127,0,1,0,5.039-6.071ZM8.333,112.862a9.391,9.391,0,0,1,13.4-8.5.951.951,0,0,0,.252.157.941.941,0,0,0,.147.045A9.383,9.383,0,0,1,24.558,119.3a.881.881,0,0,0-.1.106,9.388,9.388,0,0,1-16.126-6.542ZM26.451,120a11.306,11.306,0,0,0,1.778-3.03l6.794,4.346a2.893,2.893,0,0,0,.593.288v3.42A16.367,16.367,0,0,1,26.456,120Zm2.782-6.92,6.386,4.083v2.29l-6.836-4.371A11.3,11.3,0,0,0,29,112.975a.982.982,0,0,1,.235.109Zm6.386-5.128-6.332-4.047a.964.964,0,1,1,1.035-1.626l5.293,3.383Zm3.953,19.964a1.033,1.033,0,1,1-2.066,0V92.6a1.033,1.033,0,0,1,2.066,0Zm1.887-22.254,5.293-3.383a.964.964,0,0,1,1.035,1.626l-6.332,4.047Zm0,19.359V110.1a2.894,2.894,0,0,0,.593-.287l6.756-4.319a2.852,2.852,0,0,0-1.535-5.255h-.013a2.847,2.847,0,0,0-1.524.449l-4.278,2.734V92.6a2.92,2.92,0,1,0-5.84,0v10.83l-4.278-2.734a2.847,2.847,0,0,0-1.524-.449h-.013a2.852,2.852,0,0,0-1.53,5.255l6.756,4.319a2.893,2.893,0,0,0,.593.287v4.823l-5.37-3.434a2.845,2.845,0,0,0-1.392-.444,11.3,11.3,0,0,0-5.309-7.846C27.94,92.9,35.369,82.687,38.544,82.687c.572,0,1.887.686,3.861,2.609a47.579,47.579,0,0,1,5.662,6.909c4.348,6.332,6.944,12.54,6.944,16.608a16.443,16.443,0,0,1-3.271,9.869L47,113.939a.944.944,0,1,0-1.335,1.335l4.858,4.858a16.377,16.377,0,0,1-9.055,4.894ZM64.1,126.545a2.414,2.414,0,1,1,.005,0Z" transform="translate(0 -41.379)"/>
      <path id="Trazado_903830" data-name="Trazado 903830" d="M405.914,118.34h-7.14a.944.944,0,0,0,0,1.887h7.14a.944.944,0,0,0,0-1.887Z" transform="translate(-342.148 -74.196)"/>
      <path id="Trazado_903831" data-name="Trazado 903831" d="M398.774,147.887h4.354a.944.944,0,0,0,0-1.887h-4.354a.944.944,0,0,0,0,1.887Z" transform="translate(-342.149 -98.376)"/>
      <path id="Trazado_903832" data-name="Trazado 903832" d="M398.774,175.577h7.14a.944.944,0,0,0,0-1.887h-7.14a.944.944,0,0,0,0,1.887Z" transform="translate(-342.148 -122.582)"/>
      <path id="Trazado_903833" data-name="Trazado 903833" d="M72.589,130H65.444a.944.944,0,0,0,0,1.887h7.14a.944.944,0,0,0,0-1.887Z" transform="translate(-50.757 -84.389)"/>
      <path id="Trazado_903834" data-name="Trazado 903834" d="M91.978,157.7H87.624a.944.944,0,0,0,0,1.887h4.354a.944.944,0,0,0,0-1.887Z" transform="translate(-70.146 -108.604)"/>
      <path id="Trazado_903835" data-name="Trazado 903835" d="M65.444,187.267h7.14a.944.944,0,1,0,0-1.887h-7.14a.944.944,0,0,0,0,1.887Z" transform="translate(-50.757 -132.802)"/>
      <path id="Trazado_903836" data-name="Trazado 903836" d="M317.511,35.168l-2.726-1.576a.944.944,0,0,0-.944,0l-2.258,1.3-2.251-1.3a.944.944,0,0,0-.944,0l-2.726,1.576a.945.945,0,0,0-.472.818v3.145a.942.942,0,0,0,.472.818l2.255,1.3v2.6a.942.942,0,0,0,.472.817l2.726,1.574a.94.94,0,0,0,.944,0l2.726-1.574a.942.942,0,0,0,.472-.817v-2.6l2.255-1.3a.942.942,0,0,0,.472-.817V35.987A.945.945,0,0,0,317.511,35.168Zm-10.434,1.36L308.86,35.5l1.783,1.029v2.058l-.891.515-.892.515-1.783-1.029Zm6.291,6.78-1.785,1.029L309.8,43.308V41.25l.9-.515.881-.515.891.515.892.515Zm2.726-4.722-1.782,1.029-.892-.515-.891-.515V36.528l1.783-1.029,1.783,1.029Z" transform="translate(-261.164)"/>
    </g>
  </g>
</svg>
