<svg xmlns="http://www.w3.org/2000/svg" width="100" height="112.217" viewBox="0 0 100 112.217">
  <g id="Grupo_1112514" data-name="Grupo 1112514" transform="translate(-403 -1562.779)">
    <rect id="Rectángulo_402721" data-name="Rectángulo 402721" width="100" height="112.217" rx="10" transform="translate(403 1562.779)" fill="#feeec9"/>
    <g id="_08-olive_oil" data-name="08-olive oil" transform="translate(416.949 1581.443)">
      <path id="Trazado_903867" data-name="Trazado 903867" d="M27.519,33.519,14,20S27.519,22.253,27.519,33.519Z" transform="translate(1.772 2.532)" fill="#679c20"/>
      <path id="Trazado_903868" data-name="Trazado 903868" d="M15.519,16,2,29.519C2,18.253,15.519,16,15.519,16Z" transform="translate(0.253 2.025)" fill="#679c20"/>
      <path id="Trazado_903869" data-name="Trazado 903869" d="M15.519,27,2,40.519C2,29.253,15.519,27,15.519,27Z" transform="translate(0.253 3.418)" fill="#679c20"/>
      <path id="Trazado_903870" data-name="Trazado 903870" d="M27.519,44.519,14,31S27.519,33.253,27.519,44.519Z" transform="translate(1.772 3.924)" fill="#679c20"/>
      <path id="Trazado_903871" data-name="Trazado 903871" d="M14,20,27.519,33.519S14,31.266,14,20Z" transform="translate(1.772 2.532)" fill="#345c00"/>
      <path id="Trazado_903872" data-name="Trazado 903872" d="M2,29.519,15.519,16C15.519,27.266,2,29.519,2,29.519Z" transform="translate(0.253 2.025)" fill="#345c00"/>
      <path id="Trazado_903873" data-name="Trazado 903873" d="M2,40.519,15.519,27C15.519,38.266,2,40.519,2,40.519Z" transform="translate(0.253 3.418)" fill="#345c00"/>
      <path id="Trazado_903874" data-name="Trazado 903874" d="M14,31,27.519,44.519S14,42.266,14,31Z" transform="translate(1.772 3.924)" fill="#345c00"/>
      <path id="Trazado_903875" data-name="Trazado 903875" d="M31.342,56.4a6.74,6.74,0,0,1,.135,1.363c0,3.729-3.031,6.76-8.01,6.76A13.294,13.294,0,0,1,18.33,63.46,13.1,13.1,0,0,0,21.991,60.9c3.256-3.256,3.47-7.165,1.318-9.79L23.467,51c4.36,0,7.221,2.321,7.875,5.4Z" transform="translate(2.32 6.456)" fill="#a7e340"/>
      <path id="Trazado_903876" data-name="Trazado 903876" d="M19.306,63.713c-2.985,1.4-6.23,1.521-8.044-.282a3.625,3.625,0,0,1-.642-.856A12.505,12.505,0,0,0,13.3,54.757a10.7,10.7,0,0,0-.282-2.478c.169-.192.338-.372.518-.552a8.562,8.562,0,0,1,5.4-2.7,5.971,5.971,0,0,1,2.2.225,6.1,6.1,0,0,1,2.7,1.611,3.819,3.819,0,0,1,.451.507c2.152,2.625,1.938,6.534-1.318,9.79A13.1,13.1,0,0,1,19.306,63.713Z" transform="translate(1.344 6.203)" fill="#cdf55f"/>
      <path id="Trazado_903877" data-name="Trazado 903877" d="M14.237,52.532a10.7,10.7,0,0,1,.282,2.478,12.505,12.505,0,0,1-2.681,7.819,5.458,5.458,0,0,1-4.078,2.2C4.031,65.025,1,59.99,1,55.01S4.031,47,7.76,47a6.647,6.647,0,0,1,6.478,5.532Z" transform="translate(0.127 5.95)" fill="#a7e340"/>
      <path id="Trazado_903878" data-name="Trazado 903878" d="M40,1h9.013V7.76H40Z" transform="translate(5.063 0.127)" fill="#9a6948"/>
      <path id="Trazado_903879" data-name="Trazado 903879" d="M40,11h9.013v6.76H40Z" transform="translate(5.063 1.392)" fill="#9a6948"/>
      <path id="Trazado_903880" data-name="Trazado 903880" d="M50.658,11.506H41.646v6.76h9.013Zm3.38,0v4.506a9.04,9.04,0,0,1,9.948,15.051A16.032,16.032,0,0,1,65.3,37.418v.507a33.761,33.761,0,0,1-.934,7.88L59.378,66.63A4.516,4.516,0,0,1,55,70.089H37.308a4.516,4.516,0,0,1-4.382-3.459L31.72,61.617,27.935,45.811A33.774,33.774,0,0,1,27,37.925v-.507a15.886,15.886,0,0,1,.135-2.073,17.087,17.087,0,0,1,11.131-13.6V14.886l-4.777-3.819A2.285,2.285,0,0,1,34.92,7H55.165a2.253,2.253,0,0,1,0,4.506Zm0,9.046v1.194A17.855,17.855,0,0,1,62.3,28.078a5.617,5.617,0,1,0-8.258-7.526Zm6.76,18.42v-.439a14.923,14.923,0,0,0-9.013-13.508H40.519a14.923,14.923,0,0,0-9.013,13.508v.439a32.835,32.835,0,0,0,.71,6.8l3.83,17.958a3.553,3.553,0,0,0,3.346,2.974H52.911a3.553,3.553,0,0,0,3.346-2.974l3.83-17.958a32.836,32.836,0,0,0,.71-6.8Z" transform="translate(3.418 0.886)" fill="#ede9e1"/>
      <path id="Trazado_903881" data-name="Trazado 903881" d="M55.506,17a5.617,5.617,0,0,1,3.752,9.813A17.855,17.855,0,0,0,51,20.481V19.287A5.6,5.6,0,0,1,55.506,17Z" transform="translate(6.456 2.152)" fill="#f6fafd"/>
      <path id="Trazado_903882" data-name="Trazado 903882" d="M60.291,36.508v.439a32.836,32.836,0,0,1-.71,6.8l-3.83,17.958a3.553,3.553,0,0,1-3.346,2.974H38.886a3.553,3.553,0,0,1-3.346-2.974L31.71,43.752a32.836,32.836,0,0,1-.71-6.8v-.439A14.923,14.923,0,0,1,40.013,23H51.279a14.923,14.923,0,0,1,9.013,13.508Z" transform="translate(3.924 2.911)" fill="#ffdf64"/>
      <path id="Trazado_903883" data-name="Trazado 903883" d="M25.371,60.9c3.042-3.042,3.425-6.647,1.717-9.238A9.9,9.9,0,0,0,23.467,51l-.158.113c2.152,2.625,1.938,6.534-1.318,9.79A13.1,13.1,0,0,1,18.33,63.46a13.461,13.461,0,0,0,1.795.6,12.238,12.238,0,0,0,1.585-.6A13.1,13.1,0,0,0,25.371,60.9Z" transform="translate(2.32 6.456)" fill="#78b22a"/>
      <path id="Trazado_903884" data-name="Trazado 903884" d="M10.014,60.326c-3.729,0-6.76-5.036-6.76-10.015a11.139,11.139,0,0,1,.14-1.785A8.431,8.431,0,0,0,1,54.817c0,4.98,3.031,10.015,6.76,10.015a5.458,5.458,0,0,0,4.078-2.2,11.554,11.554,0,0,0,2.242-4.5A5.449,5.449,0,0,1,10.014,60.326Z" transform="translate(0.126 6.143)" fill="#78b22a"/>
      <path id="Trazado_903885" data-name="Trazado 903885" d="M52.483,57.273H37.923a3.709,3.709,0,0,1-3.43-2.431l.6,2.837a3.553,3.553,0,0,0,3.346,2.974H51.963a3.553,3.553,0,0,0,3.346-2.974l.6-2.837a3.709,3.709,0,0,1-3.43,2.431Z" transform="translate(4.366 6.942)" fill="#ffce54"/>
      <path id="Trazado_903886" data-name="Trazado 903886" d="M44.506,1V3.253A2.253,2.253,0,0,0,46.76,5.506h2.253V7.76H40V1Z" transform="translate(5.063 0.127)" fill="#714226"/>
      <path id="Trazado_903887" data-name="Trazado 903887" d="M44.506,17.76V15.506a2.253,2.253,0,0,1,2.253-2.253h2.253V11H40v6.76Z" transform="translate(5.063 1.392)" fill="#714226"/>
      <path id="Trazado_903888" data-name="Trazado 903888" d="M54.532,9.127H34.253A2.246,2.246,0,0,1,32.312,8a2.24,2.24,0,0,0,1.941,3.38H54.532A2.24,2.24,0,0,0,56.473,8a2.246,2.246,0,0,1-1.941,1.127Z" transform="translate(4.051 1.013)" fill="#cdc3b4"/>
      <path id="Trazado_903889" data-name="Trazado 903889" d="M49.867,11v6.76H40.855V11H33.248l4.227,3.38a2.253,2.253,0,0,1,2.253,2.253v2.253a2.253,2.253,0,0,0,2.253,2.253h6.76a2.253,2.253,0,0,0,2.253-2.253V16.633a2.253,2.253,0,0,1,2.253-2.253V11Z" transform="translate(4.209 1.392)" fill="#cdc3b4"/>
      <path id="Trazado_903890" data-name="Trazado 903890" d="M40.855,11H33.248l2.818,2.253h4.789Z" transform="translate(4.209 1.392)" fill="#afa59b"/>
      <path id="Trazado_903891" data-name="Trazado 903891" d="M51.38,12.127V11H48v2.253h3.38Z" transform="translate(6.076 1.392)" fill="#afa59b"/>
      <path id="Trazado_903892" data-name="Trazado 903892" d="M54.884,15.213a2.253,2.253,0,0,0,.025,2.164c.047,0,.092-.009.14-.009A5.633,5.633,0,0,1,60.681,23a5.52,5.52,0,0,1-.283,1.746A2.242,2.242,0,0,0,64.061,23a9,9,0,0,0-7.71-8.908,2.236,2.236,0,0,0-1.467,1.12Z" transform="translate(6.914 1.784)" fill="#f7f3eb"/>
      <path id="Trazado_903893" data-name="Trazado 903893" d="M57.085,32.278A14.1,14.1,0,0,1,57.46,35.5v.439a32.836,32.836,0,0,1-.71,6.8L53.364,58.614a3.337,3.337,0,0,0,3.912-.172l3.756-15.669a33.774,33.774,0,0,0,.935-7.886V34.38a15.866,15.866,0,0,0-.252-2.712,3.337,3.337,0,0,0-4.629.609Z" transform="translate(6.755 3.924)" fill="#f7f3eb"/>
      <path id="Trazado_903894" data-name="Trazado 903894" d="M35.6,58.614,32.216,42.739a32.835,32.835,0,0,1-.71-6.8V35.5a14.1,14.1,0,0,1,.375-3.218,3.336,3.336,0,0,0-4.642-.6c-.036.21-.078.417-.1.629A15.885,15.885,0,0,0,27,34.38v.507a33.761,33.761,0,0,0,.934,7.88l3.753,15.666a3.336,3.336,0,0,0,3.916.177Z" transform="translate(3.418 3.924)" fill="#f7f3eb"/>
      <path id="Trazado_903895" data-name="Trazado 903895" d="M50.9,23H39.631a15,15,0,0,0-5.612,4.236,24.763,24.763,0,0,0,23.605,23.9L59.2,43.752a32.836,32.836,0,0,0,.707-6.8v-.439A14.923,14.923,0,0,0,50.9,23Z" transform="translate(4.306 2.911)" fill="#fff978"/>
      <path id="Trazado_903896" data-name="Trazado 903896" d="M25.565,53.724c-.548,3.557-2.8,6.22-5.5,6.22-3.34,0-6.1-3.628-6.654-8.4-.131.135-.261.27-.388.413a10.7,10.7,0,0,1,.282,2.478,12.505,12.505,0,0,1-2.681,7.819,3.625,3.625,0,0,0,.642.856c1.814,1.8,5.058,1.679,8.044.282a13.1,13.1,0,0,0,3.661-2.557,7.886,7.886,0,0,0,2.6-7.11Z" transform="translate(1.344 6.525)" fill="#a7e340"/>
      <rect id="Rectángulo_405152" data-name="Rectángulo 405152" width="9.013" height="2.253" rx="1" transform="translate(42.81 64.215)" fill="#ffb844"/>
      <rect id="Rectángulo_405153" data-name="Rectángulo 405153" width="3.38" height="2.2" rx="0.977" transform="translate(52.95 64.25)" fill="#ffb844"/>
      <g id="Grupo_1112320" data-name="Grupo 1112320" transform="translate(9.318 55.567)">
        <ellipse id="Elipse_12130" data-name="Elipse 12130" cx="1.85" cy="2.575" rx="1.85" ry="2.575" transform="translate(10.839 3.302) rotate(-45)" fill="#f6fafd"/>
        <ellipse id="Elipse_12131" data-name="Elipse 12131" cx="0.929" cy="1.293" rx="0.929" ry="1.293" transform="translate(0 1.314) rotate(-45)" fill="#f6fafd"/>
        <ellipse id="Elipse_12132" data-name="Elipse 12132" cx="0.929" cy="1.293" rx="0.929" ry="1.293" transform="translate(7.886 2.443) rotate(-45)" fill="#f6fafd"/>
        <ellipse id="Elipse_12133" data-name="Elipse 12133" cx="0.465" cy="0.647" rx="0.465" ry="0.647" transform="translate(1.624 4.261) rotate(-45)" fill="#f6fafd"/>
        <ellipse id="Elipse_12134" data-name="Elipse 12134" cx="0.929" cy="1.293" rx="0.929" ry="1.293" transform="translate(30.421 3.578) rotate(-45)" fill="#f6fafd"/>
        <ellipse id="Elipse_12135" data-name="Elipse 12135" cx="0.465" cy="0.647" rx="0.465" ry="0.647" transform="translate(32.045 6.525) rotate(-45)" fill="#f6fafd"/>
      </g>
      <path id="Trazado_903897" data-name="Trazado 903897" d="M72.1,24.785A10.152,10.152,0,0,0,61.962,14.646a10.7,10.7,0,0,0-3.38.519V13.519a3.38,3.38,0,0,0,0-6.76H55.2V1.127A1.127,1.127,0,0,0,54.076,0H45.063a1.127,1.127,0,0,0-1.127,1.127V6.76h-5.6A3.409,3.409,0,0,0,36.2,12.831l4.353,3.482v5.563A18.3,18.3,0,0,0,30.1,33.088C28.353,25.128,19.773,22.345,16.9,21.63V7.886H14.646v9.238c-3.205.8-13.519,4.168-13.519,14.42a1.127,1.127,0,0,0,1.127,1.127,1.035,1.035,0,0,0,.186-.016c.113-.018,8.169-1.44,12.207-7.232v4.093c-3.205.8-13.519,4.168-13.519,14.42a1.127,1.127,0,0,0,1.127,1.127,1.035,1.035,0,0,0,.186-.016c.113-.018,8.169-1.44,12.207-7.232v4.608l-7.334,9.43C3.042,52.161,0,55.892,0,60.961,0,66.231,3.239,72.1,7.886,72.1a6.023,6.023,0,0,0,3.995-1.622,6.156,6.156,0,0,0,4.4,1.622,10.033,10.033,0,0,0,2.085-.225,12.573,12.573,0,0,0,2.316-.748,14.25,14.25,0,0,0,5.1.973c4.678,0,8.217-2.591,8.98-6.346l.487,2.028A5.615,5.615,0,0,0,40.729,72.1H58.41a5.615,5.615,0,0,0,5.476-4.318l5-20.822a35.044,35.044,0,0,0,.963-8.151V38.3A17.011,17.011,0,0,0,68.759,32.3,10.045,10.045,0,0,0,72.1,24.785ZM46.19,2.253h6.76V6.76H46.19ZM25.321,46.066c-3-1.257-6.709-3.65-7.968-7.968ZM19.742,37.3c3,1.257,6.709,3.65,7.968,7.968ZM16.9,34.023V29.93c4.038,5.792,12.1,7.21,12.207,7.232a1.035,1.035,0,0,0,.186.016c.015,0,.028-.007.044-.008-.025.376-.044.754-.044,1.134v.507a34.909,34.909,0,0,0,.416,5.274C27.328,37.192,19.6,34.7,16.9,34.023Zm.451-8.315,7.968,7.968c-3-1.26-6.705-3.652-7.968-7.971Zm10.365,7.17-7.972-7.968C22.741,26.166,26.451,28.559,27.714,32.877ZM11.8,20.4,3.83,28.371C5.093,24.053,8.8,21.66,11.8,20.4ZM6.223,29.167,14.195,21.2c-1.263,4.318-4.973,6.711-7.972,7.968ZM11.8,32.795,3.83,40.763C5.093,36.445,8.8,34.052,11.8,32.795ZM6.223,41.56l7.972-7.968C12.932,37.91,9.222,40.3,6.223,41.56ZM9.961,52.116l4.829-6.207c.331,3.661,1.253,7.008,2.736,8.874a10.449,10.449,0,0,0-2.689,1.659,7.672,7.672,0,0,0-4.876-4.326Zm7.388-4.067,3.3,6.053c-.124,0-.246,0-.37.008v-.034c-.96,0-2.257-2.28-2.933-6.027Zm-9.463,21.8c-2.9,0-5.633-4.319-5.633-8.888,0-4.053,2.316-6.885,5.633-6.885s5.633,2.831,5.633,6.885C13.519,65.529,10.781,69.848,7.886,69.848ZM17.9,69.67a4.857,4.857,0,0,1-4.5-.836c-.014-.014-.021-.033-.035-.046a14.115,14.115,0,0,0,2.4-7.828,11.781,11.781,0,0,0-.195-2.126c.034-.036.065-.074.1-.113,2.816-2.816,6.4-3.179,8.71-.872s1.948,5.889-.872,8.71A11.591,11.591,0,0,1,17.9,69.67ZM29.677,56.984,28.9,59.1a5.379,5.379,0,0,1,3.774,5.117c0,3.317-2.831,5.633-6.885,5.633A11.894,11.894,0,0,1,23.4,69.6a13.877,13.877,0,0,0,1.708-1.438c3.7-3.7,4.066-8.7.873-11.9a7.394,7.394,0,0,0-2.488-1.645L16.9,42.523v-.2c4.038,5.792,12.1,7.21,12.207,7.232a1.035,1.035,0,0,0,.186.016,1.127,1.127,0,0,0,1.127-1.127c0-.326-.015-.641-.035-.953l2.892,12.049a8.224,8.224,0,0,0-3.6-2.555ZM67.6,38.811a32.807,32.807,0,0,1-.9,7.625l-5,20.822a3.371,3.371,0,0,1-3.286,2.591H40.729a3.371,3.371,0,0,1-3.286-2.591l-5-20.822a32.747,32.747,0,0,1-.9-7.625V38.3A15.737,15.737,0,0,1,42.082,23.692a1.127,1.127,0,0,0,.728-1.048V15.772a1.127,1.127,0,0,0-.422-.88l-4.777-3.82a1.157,1.157,0,0,1,.722-2.059H58.582a1.127,1.127,0,1,1,0,2.253h-16.9v2.253h2.253v5.633a1.127,1.127,0,0,0,1.127,1.127h9.013A1.127,1.127,0,0,0,55.2,19.152V13.519h1.127V16.9a1.127,1.127,0,0,0,1.69.974,7.766,7.766,0,0,1,3.943-.974,7.878,7.878,0,0,1,4.762,14.16,1.127,1.127,0,0,0-.351,1.343A14.8,14.8,0,0,1,67.6,38.3ZM46.19,13.519h6.76v4.506H46.19Z"/>
      <path id="Trazado_903898" data-name="Trazado 903898" d="M62.392,22.759a6.744,6.744,0,0,0-12.167-4.022A1.127,1.127,0,0,0,50,19.38v1.239a1.127,1.127,0,0,0,.728,1.053,16.643,16.643,0,0,1,7.737,5.919,1.127,1.127,0,0,0,.789.468,1.163,1.163,0,0,0,.125.007,1.127,1.127,0,0,0,.76-.294,6.76,6.76,0,0,0,2.253-5.012ZM52.253,19.85a4.259,4.259,0,0,1,.3-.32c.1-.1.2-.2.306-.286a4.382,4.382,0,0,1,.506-.338c.113-.066.217-.142.338-.2a4.327,4.327,0,0,1,.625-.225c.1-.032.2-.079.308-.1a4.464,4.464,0,0,1,5.42,5.223c-.014.07-.029.14-.045.208a4.358,4.358,0,0,1-.242.732c-.008.018-.012.037-.02.054a4.423,4.423,0,0,1-.322.551,18.927,18.927,0,0,0-7.173-5.3Z" transform="translate(6.329 2.026)"/>
      <path id="Trazado_903899" data-name="Trazado 903899" d="M57.805,30.557a13.092,13.092,0,0,1,1.038,5.106V36.1a31.682,31.682,0,0,1-.688,6.565L54.336,60.623a2.438,2.438,0,0,1-2.253,2.088H38.564a2.438,2.438,0,0,1-2.253-2.088l-.563-2.653-2.2.469.563,2.653a4.663,4.663,0,0,0,4.457,3.872H52.083a4.663,4.663,0,0,0,4.453-3.872l3.821-17.956A33.87,33.87,0,0,0,61.1,36.1v-.438a15.332,15.332,0,0,0-1.214-5.979Z" transform="translate(4.246 3.758)"/>
      <path id="Trazado_903900" data-name="Trazado 903900" d="M0,0H2.253V2.3H0Z" transform="translate(36.804 57.708) rotate(-12.007)"/>
      <path id="Trazado_903901" data-name="Trazado 903901" d="M32.942,43.641a31.686,31.686,0,0,1-.688-6.567v-.438a13.765,13.765,0,0,1,8.12-12.382h10.8a13.994,13.994,0,0,1,5.939,5.12L59,28.147a16.251,16.251,0,0,0-7.152-6.057,1.127,1.127,0,0,0-.442-.09H40.139a1.127,1.127,0,0,0-.442.09A16.041,16.041,0,0,0,30,36.635v.438a33.88,33.88,0,0,0,.739,7.04l1.817,8.539,2.2-.469Z" transform="translate(3.798 2.785)"/>
      <path id="Trazado_903902" data-name="Trazado 903902" d="M47.4,25.051l-.712,2.141c5.422,1.8,6.543,6.534,6.534,10.192l2.253.009C55.489,31.176,52.624,26.8,47.4,25.051Z" transform="translate(5.91 3.171)"/>
      <path id="Trazado_903903" data-name="Trazado 903903" d="M52.035,39.973l2.174.591a17.948,17.948,0,0,0,.434-2.418l-2.237-.262A16.283,16.283,0,0,1,52.035,39.973Z" transform="translate(6.587 4.796)"/>
    </g>
  </g>
</svg>
