<svg xmlns="http://www.w3.org/2000/svg" xmlns:xlink="http://www.w3.org/1999/xlink" width="97.288" height="97.289" viewBox="0 0 97.288 97.289">
  <defs>
    <filter id="Rectángulo_400898" x="0" y="0" width="97.288" height="97.289" filterUnits="userSpaceOnUse">
      <feOffset dy="3" input="SourceAlpha"/>
      <feGaussianBlur stdDeviation="3" result="blur"/>
      <feFlood flood-opacity="0.161"/>
      <feComposite operator="in" in2="blur"/>
      <feComposite in="SourceGraphic"/>
    </filter>
    <clipPath id="clip-path">
      <path id="path5124" d="M0-682.665H58v58H0Z" transform="translate(0 682.665)"/>
    </clipPath>
  </defs>
  <g id="Grupo_1111941" data-name="Grupo 1111941" transform="translate(-747.781 -3827)">
    <g id="Grupo_1098742" data-name="Grupo 1098742" transform="translate(756.781 3833)">
      <g transform="matrix(1, 0, 0, 1, -9, -6)" filter="url(#Rectángulo_400898)">
        <g id="Rectángulo_400898-2" data-name="Rectángulo 400898" transform="translate(9 6)" fill="#c6e697" stroke="#fff" stroke-width="3" opacity="0.859">
          <rect width="79.288" height="79.289" rx="39.644" stroke="none"/>
          <rect x="1.5" y="1.5" width="76.288" height="76.289" rx="38.144" fill="none"/>
        </g>
      </g>
      <g id="Rectángulo_400907" data-name="Rectángulo 400907" transform="translate(0 0)" fill="none" stroke="#fff" stroke-width="3">
        <rect width="79.288" height="79.289" rx="39.644" stroke="none"/>
        <rect x="1.5" y="1.5" width="76.288" height="76.289" rx="38.144" fill="none"/>
      </g>
    </g>
    <g id="g5118" transform="translate(767.427 4526.311)">
      <g id="g5120" transform="translate(0 -682.665)">
        <g id="g5122" clip-path="url(#clip-path)">
          <g id="g5128" transform="translate(6.05 8.569)">
            <path id="path5130" d="M-7.727-3.093l-.717,1.164.378,1.687L-6.9,2.042l1,1.282,2.5,1.455,1.882-1.038-1-.887L-4.763.211-5.31-2.942l-.718-.312A7.579,7.579,0,0,0-7.171-3.38c-.284.144-.555.287-.555.287" transform="translate(8.444 3.38)" fill="#00e49d"/>
          </g>
          <g id="g5132" transform="translate(28.573 1.946)">
            <path id="path5134" d="M-43.617,0l-3.115,3.483-.935,3.4.265,1.586.775,1.742.839-.271.7-.482a8.351,8.351,0,0,0,2.292-3.115A7.8,7.8,0,0,0-42.746,0Z" transform="translate(47.667 0)" fill="#00f4a8"/>
          </g>
          <g id="g5136" transform="translate(26.012 0.851)">
            <path id="path5138" d="M-40.46-119.863a7.87,7.87,0,0,1,.169-6.066,8.053,8.053,0,0,1,3.556-3.968c-.039-.083-.078-.166-.12-.246a1.585,1.585,0,0,0-1.837-.789,7.731,7.731,0,0,0-4.828,4.483,7.87,7.87,0,0,0-.169,6.066l.308.624,1.4.51,1.57-.506Z" transform="translate(44.216 130.992)" fill="#00e49d"/>
          </g>
          <g id="g5140" transform="translate(23.65 11.269)">
            <path id="path5142" d="M-129.048-7.649a7.113,7.113,0,0,0-1.8-.59,7.283,7.283,0,0,0-3.619.257,4.863,4.863,0,0,1-3.013,0,7.291,7.291,0,0,0-3.554-.268l.306.961,2.055,2.889,2.35,16.888h2.9l1.241-1.775.717-5.973,2.82-7.271V-6.751Z" transform="translate(141.029 8.359)" fill="#ff72c7"/>
          </g>
          <g id="g5144" transform="translate(3.578 8.565)">
            <path id="path5146" d="M-68.393-78.926a7.548,7.548,0,0,1-3.47-5.535,1.528,1.528,0,0,1,1.028-1.625c.132-.045.265-.085.4-.123a7.587,7.587,0,0,0-3.268.359,1.528,1.528,0,0,0-1.028,1.625,7.548,7.548,0,0,0,3.47,5.535,7.542,7.542,0,0,0,2.3.969h.879l.717-.292.384-.212a7.552,7.552,0,0,1-1.415-.7" transform="translate(74.743 86.254)" fill="#00d391"/>
          </g>
          <g id="g5148" transform="translate(19.768 11.378)">
            <path id="path5150" d="M-76.662-57.768A7.7,7.7,0,0,0-79.9-63.132l-.064.011A7.4,7.4,0,0,0-83.78-61.1v.756l2.745,2.568,2.473,15.387h3.852Z" transform="translate(83.78 63.132)" fill="#ff4fb9"/>
          </g>
          <g id="g5152" transform="translate(35.596 7.623)">
            <path id="path5154" d="M-167.117-140.9a14.3,14.3,0,0,1-2.552-6.484,9.013,9.013,0,0,0-3.831-6.6h-.9l-2.794,3.159-1.435,6.675-3.562,5.039-.441,3.843,1.534,5.286h14.608l.834-.56a11.361,11.361,0,0,0,.641-3.771,11.329,11.329,0,0,0-2.1-6.589" transform="translate(182.633 153.977)" fill="#fff1af"/>
          </g>
          <g id="g5156" transform="translate(30.452 6.784)">
            <path id="path5158" d="M-62.42-221.821a11.33,11.33,0,0,1,2.178-6.783,13.761,13.761,0,0,0,2.475-6.382,9.012,9.012,0,0,1,3.829-6.592,5.5,5.5,0,0,0-2.9-.839c-3.474,0-6.2,3.323-6.727,7.43a13.76,13.76,0,0,1-2.475,6.382,11.33,11.33,0,0,0-2.178,6.783,11.267,11.267,0,0,0,.624,3.622l.526.624h5.795l-.526-.624a11.267,11.267,0,0,1-.624-3.622" transform="translate(68.216 242.415)" fill="#ffe559"/>
          </g>
          <g id="g5160" transform="translate(11.343 5.092)">
            <path id="path5162" d="M-15.254-.173-15.9.29l-.767,2.993.14,2.814,1.5,2.575.941.807-.383.513,2.487-.938a7.635,7.635,0,0,0,0-5.346,7.569,7.569,0,0,0-3.257-3.9Z" transform="translate(16.671 0.189)" fill="#9df9d3"/>
          </g>
          <g id="g5164" transform="translate(8.46 4.35)">
            <path id="path5166" d="M-40.1-78.764a7.651,7.651,0,0,1,.576-6.554l.011-.017A7.587,7.587,0,0,0-40.964-86a1.523,1.523,0,0,0-1.8.679,7.652,7.652,0,0,0-.576,6.554,7.567,7.567,0,0,0,3.489,4.028l2.075-.783A7.565,7.565,0,0,1-40.1-78.764" transform="translate(43.823 86.076)" fill="#00f4a8"/>
          </g>
          <g id="g5168" transform="translate(36.037 22.728)">
            <path id="path5170" d="M-62.416,0a5.8,5.8,0,0,0-5.795,5.795,5.77,5.77,0,0,0,.556,2.477l.535.624h9.173l.771-.624a5.77,5.77,0,0,0,.556-2.477A5.8,5.8,0,0,0-62.416,0" transform="translate(68.211)" fill="#938493"/>
          </g>
          <g id="g5172" transform="translate(40.693 23.319)">
            <path id="path5174" d="M-39.714,0h-1.233L-43.4,3.058V5.663l.857,2.643h4.75l.771-.624A5.77,5.77,0,0,0-36.468,5.2,5.8,5.8,0,0,0-39.714,0" transform="translate(43.401)" fill="#938493"/>
          </g>
          <g id="g5176" transform="translate(36.037 22.728)">
            <path id="path5178" d="M-54.9-62.416a5.794,5.794,0,0,1,3.246-5.2,5.771,5.771,0,0,0-2.549-.59A5.8,5.8,0,0,0-60-62.416a5.772,5.772,0,0,0,.556,2.477l.535.624h5.1l-.535-.624a5.772,5.772,0,0,1-.556-2.477" transform="translate(60 68.211)" fill="#7b6c79"/>
          </g>
          <g id="g5180" transform="translate(7.955 13.366)">
            <path id="path5182" d="M-167.589-40.965a4.348,4.348,0,0,0-5.839-3.525l-6.9,2.582a4.348,4.348,0,0,0-2.088,6.493l5.548,8.281.881.624h9.493l.656-.624Z" transform="translate(183.149 44.769)" fill="#ffaa5b"/>
          </g>
          <g id="g5184" transform="translate(12.176 13.366)">
            <path id="path5186" d="M-122.119-40.965a4.348,4.348,0,0,0-5.839-3.525l-4.058,1.52-1.442,1.932.028,3.54,7.378,10.988h5.032l.656-.624Z" transform="translate(133.457 44.769)" fill="#ffaa5b"/>
          </g>
          <g id="g5188" transform="translate(7.955 14.97)">
            <path id="path5190" d="M-58.869-75.468a5.518,5.518,0,0,1,.716-7.007l-3.357,1.257A4.349,4.349,0,0,0-63.6-74.725l5.548,8.281.881.624h4.763Z" transform="translate(64.335 82.474)" fill="#ff9838"/>
          </g>
          <g id="g5192" transform="translate(24.556 52.609)">
            <path id="path5194" d="M-186.928,0h-17.355l1.412.758V3.03l.651.991,1.038.519h12.749a2.277,2.277,0,0,0,2.271-2.271V.621Z" transform="translate(204.283)" fill="#00e49d"/>
          </g>
          <g id="g5196" transform="translate(20.106 52.609)">
            <path id="path5198" d="M-68.19-24.446v-1.6l.849-.672h-6.331l-.849.672v1.6a2.277,2.277,0,0,0,2.271,2.271h6.331a2.277,2.277,0,0,1-2.271-2.271" transform="translate(74.521 26.716)" fill="#00d391"/>
          </g>
          <g id="g5200" transform="translate(14.102 31.001)">
            <path id="path5202" d="M-408.543,0h-36.229l-1.022.624-.68,1.331.2,2.8.664,4.673,2.168,4.956,3.4,4.3,2.549,2.124,2.889,1.551h15.5a5.208,5.208,0,0,0,2.971-.914A23.177,23.177,0,0,0-406.69,7.37l-.354-.592.378-2.755.478-.435c.02-.39.032-.782.032-1.178V2.386A2.386,2.386,0,0,0-408.543,0" transform="translate(446.474 0)" fill="#dbedff"/>
          </g>
          <g id="g5204" transform="translate(8.099 31.001)">
            <path id="path5206" d="M-73.933-79.382h0l.6-.445-.326-2.832-.774-.5c-.02-.39-.032-.782-.032-1.178v0a2.414,2.414,0,0,1,2.407-2.407H-78.39A2.414,2.414,0,0,0-80.8-84.345v0c0,.4.013.787.032,1.178l.774.5.326,2.832-.6.445A23.176,23.176,0,0,0-70.9-65.354a5.323,5.323,0,0,0,3.05.969h6.331a5.323,5.323,0,0,1-3.05-.969,23.176,23.176,0,0,1-9.365-14.027" transform="translate(80.797 86.752)" fill="#b5dcff"/>
          </g>
          <g id="g5208" transform="translate(14.217 34.589)">
            <path id="path5210" d="M0,0,.083,1.17.454,3.782H39.668A23.167,23.167,0,0,0,40.169,0Z" fill="#00e49d"/>
          </g>
          <g id="g5212" transform="translate(8.132 34.589)">
            <path id="path5214" d="M0,0A23.167,23.167,0,0,0,.5,3.782H6.832A23.167,23.167,0,0,1,6.331,0Z" fill="#00d391"/>
          </g>
          <g id="g5216" transform="translate(8.099 30.999)">
            <path id="path5218" d="M-473.193,0H-514.72a2.414,2.414,0,0,0-2.407,2.407v0a23.13,23.13,0,0,0,9.9,18.987,5.322,5.322,0,0,0,3.05.969h20.425a5.208,5.208,0,0,0,2.971-.915A23.131,23.131,0,0,0-470.807,2.41V2.386A2.386,2.386,0,0,0-473.193,0Z" transform="translate(517.127)" fill="none" stroke="#000" stroke-linecap="round" stroke-linejoin="round" stroke-miterlimit="10" stroke-width="1"/>
          </g>
          <g id="g5220" transform="translate(20.106 53.228)">
            <path id="path5222" d="M-230.135-1.477H-250.56a5.236,5.236,0,0,1-.942-.086v1.6A2.277,2.277,0,0,0-249.231,2.3h18.03A2.277,2.277,0,0,0-228.931.034V-1.615A5.348,5.348,0,0,1-230.135-1.477Z" transform="translate(251.502 1.615)" fill="none" stroke="#000" stroke-linecap="round" stroke-linejoin="round" stroke-miterlimit="10" stroke-width="1"/>
          </g>
          <g id="g5224" transform="translate(30.452 6.782)">
            <path id="path5226" d="M-232.445-260.829a2.391,2.391,0,0,1,.539.063,11.361,11.361,0,0,0,.641-3.771,11.328,11.328,0,0,0-2.1-6.589,14.3,14.3,0,0,1-2.552-6.484c-.524-4.115-3.259-7.436-6.728-7.436s-6.2,3.323-6.727,7.43a13.76,13.76,0,0,1-2.475,6.382,11.331,11.331,0,0,0-2.178,6.783,11.268,11.268,0,0,0,.624,3.622Z" transform="translate(254.026 285.046)" fill="none" stroke="#000" stroke-linecap="round" stroke-linejoin="round" stroke-miterlimit="10" stroke-width="1"/>
          </g>
          <g id="g5228" transform="translate(20.269 18.468)">
            <path id="path5230" d="M0-12.09l3-1.122" transform="translate(0 13.212)" fill="none" stroke="#000" stroke-linecap="round" stroke-linejoin="round" stroke-miterlimit="10" stroke-width="1"/>
          </g>
          <g id="g5232" transform="translate(11.696 25.445)">
            <path id="path5234" d="M0-12.826l3.18-1.191" transform="translate(0 14.017)" fill="none" stroke="#000" stroke-linecap="round" stroke-linejoin="round" stroke-miterlimit="10" stroke-width="1"/>
          </g>
          <g id="g5236" transform="translate(19.192 25.045)">
            <path id="path5238" d="M0-20.565l5.1-1.909" transform="translate(0 22.475)" fill="none" stroke="#000" stroke-linecap="round" stroke-linejoin="round" stroke-miterlimit="10" stroke-width="1"/>
          </g>
          <g id="g5240" transform="translate(3.578 8.562)">
            <path id="path5242" d="M-62.293-91.907a4.337,4.337,0,0,1,1.418-.869l1.652-.619a7.53,7.53,0,0,1-3.49-4,7.536,7.536,0,0,1-.476-2.915,7.585,7.585,0,0,0-3.849.273,1.528,1.528,0,0,0-1.028,1.625,7.548,7.548,0,0,0,3.47,5.535A7.545,7.545,0,0,0-62.293-91.907Z" transform="translate(68.077 100.44)" fill="none" stroke="#000" stroke-linecap="round" stroke-linejoin="round" stroke-miterlimit="10" stroke-width="1"/>
          </g>
          <g id="g5244" transform="translate(8.46 4.348)">
            <path id="path5246" d="M-81.467-106.783a7.529,7.529,0,0,0,0-5.308,7.548,7.548,0,0,0-4.709-4.528,1.528,1.528,0,0,0-1.8.675,7.548,7.548,0,0,0-.576,6.507,7.529,7.529,0,0,0,3.49,4Z" transform="translate(89.031 116.697)" fill="none" stroke="#000" stroke-linecap="round" stroke-linejoin="round" stroke-miterlimit="10" stroke-width="1"/>
          </g>
          <g id="g5248" transform="translate(7.955 13.365)">
            <path id="path5250" d="M-67.7-189.935h11.03l-1.756-13.831a4.348,4.348,0,0,0-5.839-3.525l-6.9,2.582a4.348,4.348,0,0,0-2.088,6.493Z" transform="translate(73.988 207.57)" fill="none" stroke="#000" stroke-linecap="round" stroke-linejoin="round" stroke-miterlimit="10" stroke-width="1"/>
          </g>
          <g id="g5252" transform="translate(19.768 11.268)">
            <path id="path5254" d="M-40.352-63.551-38.6-49.72h5.806a11.268,11.268,0,0,1-.624-3.622,11.331,11.331,0,0,1,2.178-6.783,13.759,13.759,0,0,0,2.475-6.382,10.913,10.913,0,0,1,.527-2.235,7.113,7.113,0,0,0-1.8-.59,7.288,7.288,0,0,0-3.619.257,4.86,4.86,0,0,1-3.012,0,7.287,7.287,0,0,0-3.619-.257A7.4,7.4,0,0,0-44.1-67.316,4.349,4.349,0,0,1-40.352-63.551Z" transform="translate(44.099 69.452)" fill="none" stroke="#000" stroke-linecap="round" stroke-linejoin="round" stroke-miterlimit="10" stroke-width="1"/>
          </g>
          <g id="g5256" transform="translate(26.012 0.85)">
            <path id="path5258" d="M-12.847-116.265a4.861,4.861,0,0,0,3.012,0,7.775,7.775,0,0,1,.938-.243A8.351,8.351,0,0,0-6.6-119.623a7.731,7.731,0,0,0-.073-6.588A1.585,1.585,0,0,0-8.515-127a7.731,7.731,0,0,0-4.828,4.483,7.87,7.87,0,0,0-.169,6.066Q-13.177-116.373-12.847-116.265Z" transform="translate(14.04 127.06)" fill="none" stroke="#000" stroke-linecap="round" stroke-linejoin="round" stroke-miterlimit="10" stroke-width="1"/>
          </g>
          <g id="g5260" transform="translate(36.037 23.075)">
            <path id="path5262" d="M-41.065,0a5.8,5.8,0,0,0-3.813,5.447,5.77,5.77,0,0,0,.556,2.477h10.479a5.77,5.77,0,0,0,.556-2.477A5.8,5.8,0,0,0-37.1,0" transform="translate(44.877)" fill="none" stroke="#000" stroke-linecap="round" stroke-linejoin="round" stroke-miterlimit="10" stroke-width="1"/>
          </g>
          <g id="g5264" transform="translate(8.132 34.587)">
            <path id="path5266" d="M-270.449-40.738h20.644a23.169,23.169,0,0,0,.5-3.782h-46.255a23.166,23.166,0,0,0,.5,3.782h20.644" transform="translate(295.559 44.52)" fill="none" stroke="#000" stroke-linecap="round" stroke-linejoin="round" stroke-miterlimit="10" stroke-width="1"/>
          </g>
        </g>
      </g>
    </g>
  </g>
</svg>
