<svg xmlns="http://www.w3.org/2000/svg" xmlns:xlink="http://www.w3.org/1999/xlink" width="108" height="108" viewBox="0 0 108 108">
  <defs>
    <filter id="Rectángulo_400898" x="0" y="0" width="108" height="108" filterUnits="userSpaceOnUse">
      <feOffset dy="3" input="SourceAlpha"/>
      <feGaussianBlur stdDeviation="3" result="blur"/>
      <feFlood flood-opacity="0.161"/>
      <feComposite operator="in" in2="blur"/>
      <feComposite in="SourceGraphic"/>
    </filter>
  </defs>
  <g id="Grupo_1112517" data-name="Grupo 1112517" transform="translate(-746.051 -696)">
    <g id="Grupo_1098742" data-name="Grupo 1098742" transform="translate(-448.269 313.258)">
      <g transform="matrix(1, 0, 0, 1, 1194.32, 382.74)" filter="url(#Rectángulo_400898)">
        <g id="Rectángulo_400898-2" data-name="Rectángulo 400898" transform="translate(9 6)" fill="#c6e697" stroke="#fff" stroke-width="3" opacity="0.859">
          <rect width="90" height="90" rx="45" stroke="none"/>
          <rect x="1.5" y="1.5" width="87" height="87" rx="43.5" fill="none"/>
        </g>
      </g>
      <g id="Rectángulo_400907" data-name="Rectángulo 400907" transform="translate(1203.32 388.742)" fill="none" stroke="#fff" stroke-width="3">
        <rect width="90" height="90" rx="45" stroke="none"/>
        <rect x="1.5" y="1.5" width="87" height="87" rx="43.5" fill="none"/>
      </g>
    </g>
    <g id="_29._Herbal_Treatment" data-name="29. Herbal Treatment" transform="translate(773.051 720)">
      <path id="Trazado_904336" data-name="Trazado 904336" d="M69.49,149.472a17.892,17.892,0,0,1-21.479-21.479A17.888,17.888,0,0,1,69.49,149.472Z" transform="translate(-42.49 -114.035)" fill="#73cab2"/>
      <path id="Trazado_904337" data-name="Trazado 904337" d="M101.98,278.75a17.86,17.86,0,0,1-18.16-6.423A13.574,13.574,0,0,1,86.792,272h15.479A16.206,16.206,0,0,1,101.98,278.75Z" transform="translate(-74.98 -243.312)" fill="#64af93"/>
      <path id="Trazado_904338" data-name="Trazado 904338" d="M45.011,138.147a18.643,18.643,0,0,1-5-17.519.844.844,0,0,1,.6-.6,18.731,18.731,0,0,1,22.511,22.512.844.844,0,0,1-.6.6,18.635,18.635,0,0,1-17.515-4.992Zm-3.48-16.6a17.079,17.079,0,0,0,20.085,20.085,17.079,17.079,0,0,0-20.085-20.085Z" transform="translate(-35.308 -106.886)"/>
      <path id="Trazado_904339" data-name="Trazado 904339" d="M127.184,208.027a.844.844,0,0,1-.6-.247l-14.344-14.344a.844.844,0,1,1,1.194-1.194l14.344,14.344a.844.844,0,0,1-.6,1.441Z" transform="translate(-100.184 -171.746)"/>
      <path id="Trazado_904340" data-name="Trazado 904340" d="M117.063,233.688h-4.219a.844.844,0,0,1,0-1.687h4.219a.844.844,0,0,1,0,1.688Z" transform="translate(-100.188 -207.531)"/>
      <path id="Trazado_904341" data-name="Trazado 904341" d="M192.274,232.64a.844.844,0,0,1-.844-.844v-4.772a.844.844,0,0,1,1.688,0V231.8A.844.844,0,0,1,192.274,232.64Z" transform="translate(-171.24 -202.325)"/>
      <path id="Trazado_904342" data-name="Trazado 904342" d="M269.8,143.035a17.861,17.861,0,0,1-18.158,6.421,17.888,17.888,0,0,1,21.479-21.479A17.692,17.692,0,0,1,269.8,143.035Z" transform="translate(-224.644 -114.018)" fill="#73cab2"/>
      <path id="Trazado_904343" data-name="Trazado 904343" d="M269.779,272.329a17.861,17.861,0,0,1-18.157,6.421,16.206,16.206,0,0,1-.291-6.75h15.479A13.51,13.51,0,0,1,269.779,272.329Z" transform="translate(-224.621 -243.312)" fill="#64af93"/>
      <path id="Trazado_904344" data-name="Trazado 904344" d="M244.275,143.123a.844.844,0,0,1-.6-.6,18.731,18.731,0,0,1,22.511-22.512.844.844,0,0,1,.6.6,17.208,17.208,0,0,1,.238,7.505.844.844,0,1,1-1.659-.306,15.644,15.644,0,0,0-.1-6.281,17.073,17.073,0,0,0-20.081,20.081,17.109,17.109,0,0,0,19.256-10.581.844.844,0,1,1,1.57.616,19.083,19.083,0,0,1-4.219,6.484A18.673,18.673,0,0,1,244.275,143.123Z" transform="translate(-217.494 -106.87)"/>
      <path id="Trazado_904345" data-name="Trazado 904345" d="M248.838,208.027a.844.844,0,0,1-.6-1.441l14.344-14.344a.844.844,0,1,1,1.194,1.194L249.435,207.78A.844.844,0,0,1,248.838,208.027Z" transform="translate(-221.838 -171.746)"/>
      <path id="Trazado_904346" data-name="Trazado 904346" d="M192.875,63.188a17.821,17.821,0,0,1-8.437,15.188,17.887,17.887,0,0,1,0-30.375A17.821,17.821,0,0,1,192.875,63.188Z" transform="translate(-157.438 -42.938)" fill="#b1da7a"/>
      <path id="Trazado_904347" data-name="Trazado 904347" d="M208.656,272a16.775,16.775,0,0,1-6.328,6.75A16.761,16.761,0,0,1,196,272Z" transform="translate(-175.328 -243.313)" fill="#96bf5b"/>
      <path id="Trazado_904348" data-name="Trazado 904348" d="M176.942,71.948a17.445,17.445,0,0,1-6.425-6.666c-5.346-9.584-1.249-20.733,6.425-25.171a.844.844,0,0,1,.844,0,18.731,18.731,0,0,1,0,31.837A.844.844,0,0,1,176.942,71.948Zm.422-30.121a17.078,17.078,0,0,0,0,28.4,17.078,17.078,0,0,0,0-28.4Z" transform="translate(-150.364 -35.78)"/>
      <path id="Trazado_904349" data-name="Trazado 904349" d="M248.844,165.094a.844.844,0,0,1-.844-.844V144.844a.844.844,0,0,1,1.688,0V164.25A.844.844,0,0,1,248.844,165.094Z" transform="translate(-221.844 -128.813)"/>
      <path id="Trazado_904350" data-name="Trazado 904350" d="M60.313,306.969a10.969,10.969,0,0,1-10.969,10.969H18.969a10.969,10.969,0,0,1,0-21.937H49.344a10.969,10.969,0,0,1,10.969,10.969Z" transform="translate(-7.156 -264.781)" fill="#a8edfd"/>
      <path id="Trazado_904351" data-name="Trazado 904351" d="M49.338,397.7H18.963a10.969,10.969,0,0,1-10.9-9.7,10.969,10.969,0,0,0,10.9,12.235H49.338A10.969,10.969,0,0,0,60.234,388,10.969,10.969,0,0,1,49.338,397.7Z" transform="translate(-7.151 -347.074)" fill="#8bd4de"/>
      <path id="Trazado_904352" data-name="Trazado 904352" d="M282.156,306.969a10.969,10.969,0,0,1-10.969,10.969H256V296h15.188A10.969,10.969,0,0,1,282.156,306.969Z" transform="translate(-229 -264.781)" fill="#e9a648"/>
      <path id="Trazado_904353" data-name="Trazado 904353" d="M271.188,397.7H256v2.531h15.188A10.969,10.969,0,0,0,282.083,388,10.969,10.969,0,0,1,271.188,397.7Z" transform="translate(-229 -347.078)" fill="#d08840"/>
      <path id="Trazado_904354" data-name="Trazado 904354" d="M42.188,311.625H27a.844.844,0,0,1,0-1.687H42.188a10.125,10.125,0,1,0,0-20.25H11.813a10.125,10.125,0,1,0,0,20.25H23.625a.844.844,0,0,1,0,1.688H11.813a11.813,11.813,0,1,1,0-23.625H42.188a11.812,11.812,0,0,1,0,23.625Z" transform="translate(0 -257.625)"/>
      <path id="Trazado_904355" data-name="Trazado 904355" d="M248.844,311.625a.844.844,0,0,1-.844-.844V288.844a.844.844,0,0,1,1.688,0v21.938A.844.844,0,0,1,248.844,311.625Z" transform="translate(-221.844 -257.625)"/>
      <path id="Trazado_904356" data-name="Trazado 904356" d="M220.215,181.059a.844.844,0,0,1-.6-.247l-3.375-3.375a.844.844,0,1,1,1.194-1.194l3.375,3.375a.844.844,0,0,1-.6,1.441Z" transform="translate(-193.215 -157.434)"/>
      <path id="Trazado_904357" data-name="Trazado 904357" d="M248.838,221.059a.844.844,0,0,1-.6-1.441l3.375-3.375a.844.844,0,1,1,1.194,1.194l-3.375,3.375A.844.844,0,0,1,248.838,221.059Z" transform="translate(-221.838 -193.215)"/>
      <path id="Trazado_904358" data-name="Trazado 904358" d="M356.219,225.688h-3.375a.844.844,0,0,1,0-1.687h3.375a.844.844,0,0,1,0,1.688Z" transform="translate(-314.875 -200.375)"/>
      <path id="Trazado_904359" data-name="Trazado 904359" d="M424.844,6.75A.844.844,0,0,1,424,5.906V.844a.844.844,0,0,1,1.688,0V5.906A.844.844,0,0,1,424.844,6.75Z" transform="translate(-379.281)"/>
      <path id="Trazado_904360" data-name="Trazado 904360" d="M405.906,25.688h-5.062a.844.844,0,0,1,0-1.687h5.063a.844.844,0,0,1,0,1.688Z" transform="translate(-357.813 -21.469)"/>
      <path id="Trazado_904361" data-name="Trazado 904361" d="M56.844,30.75A.844.844,0,0,1,56,29.906V24.844a.844.844,0,0,1,1.688,0v5.063A.844.844,0,0,1,56.844,30.75Z" transform="translate(-50.094 -21.469)"/>
      <path id="Trazado_904362" data-name="Trazado 904362" d="M37.906,49.688H32.844a.844.844,0,0,1,0-1.687h5.063a.844.844,0,0,1,0,1.688Z" transform="translate(-28.625 -42.938)"/>
    </g>
  </g>
</svg>
