<svg xmlns="http://www.w3.org/2000/svg" xmlns:xlink="http://www.w3.org/1999/xlink" width="90" height="90" viewBox="0 0 90 90">
  <defs>
    <filter id="Rectángulo_400898" x="0" y="0" width="90" height="90" filterUnits="userSpaceOnUse">
      <feOffset dy="3" input="SourceAlpha"/>
      <feGaussianBlur stdDeviation="3" result="blur"/>
      <feFlood flood-opacity="0.161" result="color"/>
      <feComposite operator="out" in="SourceGraphic" in2="blur"/>
      <feComposite operator="in" in="color"/>
      <feComposite operator="in" in2="SourceGraphic"/>
    </filter>
  </defs>
  <g id="Grupo_1112518" data-name="Grupo 1112518" transform="translate(-1175.051 -702)">
    <g data-type="innerShadowGroup">
      <rect id="Rectángulo_400898-2" data-name="Rectángulo 400898" width="90" height="90" rx="45" transform="translate(1175.051 702)" fill="#c6e697" opacity="0.859"/>
      <g transform="matrix(1, 0, 0, 1, 1175.05, 702)" filter="url(#Rectángulo_400898)">
        <rect id="Rectángulo_400898-3" data-name="Rectángulo 400898" width="90" height="90" rx="45" fill="#fff" opacity="0.859"/>
      </g>
      <g id="Rectángulo_400898-4" data-name="Rectángulo 400898" transform="translate(1175.051 702)" fill="none" stroke="#fff" stroke-width="3" opacity="0.859">
        <rect width="90" height="90" rx="45" stroke="none"/>
        <rect x="1.5" y="1.5" width="87" height="87" rx="43.5" fill="none"/>
      </g>
    </g>
    <g id="Grupo_1112328" data-name="Grupo 1112328" transform="translate(1178.475 711.5)">
      <g id="Grupo_1112326" data-name="Grupo 1112326" transform="translate(16 7.5)">
        <path id="Trazado_904363" data-name="Trazado 904363" d="M152.468,24.7l4.952,6.329-1.835.733-.94,1.438-4.414-5.641L145.817,33.2l-.94-1.438-1.835-.733,4.952-6.329-3.21-4.1c-.707-.777-4.132-5.315,2.819-9.242h5.255c6.951,3.926,3.526,8.465,2.819,9.242l-3.209,4.1Zm1.524-7.666a1.723,1.723,0,0,0-1.736-1.747h-4.05a1.723,1.723,0,0,0-1.736,1.747l3.761,4.807,3.761-4.807Zm9.132,16.762V10.76a3.27,3.27,0,0,0-3.26-3.26H140.6a3.269,3.269,0,0,0-3.26,3.26V33.794a3.27,3.27,0,0,0,3.26,3.26h19.266A3.27,3.27,0,0,0,163.124,33.794Z" transform="translate(-124.155 -7.5)" fill="#fff" fill-rule="evenodd"/>
        <path id="Trazado_904364" data-name="Trazado 904364" d="M114.365,80.148H95.1c-.334,2.259,3.888,3.962,5.338,5.672a2.644,2.644,0,0,1-3.207,4.145c-1.07-.528-2.894-2.318-4.2-2.8-3.214-1.177-7.148,1.182-4.6,5.4,2.7,4.456-.215,4.883-2.135,4.394a26.082,26.082,0,0,0,41.775-6.789c-3.726-1.04-2.891-3.788-2.459-5.433,1.51-5.756-6.053-6.758-1.448-11.651A18.178,18.178,0,0,0,128,66.74a26.2,26.2,0,0,0-10.378-10.892v21.04a3.27,3.27,0,0,1-3.26,3.26Zm-3.141,9.822c.757-1.9,2.482-5.353,6.156-2.31.93.77,3.617,3.177,2.36,5.857-1.943,4.145-9.668,6.258-12.519,5.66-3.094-.648-2.919-5.174-.336-5.984C108.788,92.6,110.13,92.716,111.225,89.97Z" transform="translate(-78.656 -50.595)" fill="#acf3f9" fill-rule="evenodd"/>
        <path id="Trazado_904365" data-name="Trazado 904365" d="M32.443,80.149a3.27,3.27,0,0,1-3.26-3.26V55.849a26.08,26.08,0,0,0-5.546,41.109c1.919.489,4.831.062,2.135-4.394-2.55-4.214,1.385-6.573,4.6-5.4,1.311.48,3.134,2.27,4.2,2.8a2.644,2.644,0,0,0,3.207-4.145C36.331,84.111,32.109,82.408,32.443,80.149Z" transform="translate(-16 -50.596)" fill="#b5efbc" fill-rule="evenodd"/>
        <path id="Trazado_904366" data-name="Trazado 904366" d="M270.225,338.757c-3.674-3.044-5.4.411-6.156,2.31-1.095,2.745-2.436,2.626-4.339,3.223-2.583.81-2.758,5.336.336,5.984,2.852.6,10.577-1.515,12.519-5.66C273.842,341.933,271.155,339.527,270.225,338.757Z" transform="translate(-231.5 -301.691)" fill="#b5efbc" fill-rule="evenodd"/>
        <path id="Trazado_904367" data-name="Trazado 904367" d="M422.457,162.44c-4.6,4.893,2.958,5.9,1.448,11.651-.431,1.645-1.267,4.393,2.459,5.433A26.127,26.127,0,0,0,426.3,156.1,18.18,18.18,0,0,1,422.457,162.44Z" transform="translate(-376.953 -139.952)" fill="#b5efbc" fill-rule="evenodd"/>
        <path id="Trazado_904368" data-name="Trazado 904368" d="M222.23,48.653c2.349-3-1.133-5.678-1.133-5.678h-5.255s-3.482,2.676-1.133,5.678a1.723,1.723,0,0,1,1.736-1.747h4.05A1.723,1.723,0,0,1,222.23,48.653Z" transform="translate(-192.392 -39.121)" fill="#d571ab" fill-rule="evenodd"/>
        <path id="Trazado_904369" data-name="Trazado 904369" d="M199.284,53.46l-3.761-4.807c-2.349-3,1.133-5.678,1.133-5.678-6.951,3.926-3.526,8.465-2.819,9.242l3.21,4.1,2.237-2.859Zm2.237,2.859-2.237,2.859L203.7,64.82l.94-1.438,1.835-.733Z" transform="translate(-173.208 -39.121)" fill="#df95c0" fill-rule="evenodd"/>
        <path id="Trazado_904370" data-name="Trazado 904370" d="M224.917,123.2l-1.552-1.984-2.237,2.859,1.552,1.984,2.237-2.859Zm3.789,4.843-2.237,2.859-1.552-1.984,2.237-2.859Z" transform="translate(-198.841 -108.864)" fill="#d571ab" fill-rule="evenodd"/>
        <path id="Trazado_904371" data-name="Trazado 904371" d="M189.838,62.648l1.835.733.94,1.438,9.86-12.6c.707-.777,4.132-5.315-2.819-9.242,0,0,3.482,2.676,1.133,5.678Z" transform="translate(-170.95 -39.121)" fill="#df95c0" fill-rule="evenodd"/>
        <path id="Trazado_904372" data-name="Trazado 904372" d="M143.042,7.5H140.6a3.269,3.269,0,0,0-3.26,3.26V33.794a3.27,3.27,0,0,0,3.26,3.26h2.445a3.27,3.27,0,0,1-3.26-3.26V10.76A3.269,3.269,0,0,1,143.042,7.5Z" transform="translate(-124.155 -7.5)" fill="#b6e6fa" fill-rule="evenodd"/>
        <path id="Trazado_904373" data-name="Trazado 904373" d="M88.676,433.617a3.8,3.8,0,0,1-2.382.064,26,26,0,0,0,18.439,7.638c.411,0,.819-.011,1.225-.029A25.991,25.991,0,0,1,88.676,433.617Z" transform="translate(-78.656 -387.319)" fill="#5ceaee" fill-rule="evenodd"/>
        <path id="Trazado_904374" data-name="Trazado 904374" d="M29.184,57.43V55.849a26.08,26.08,0,0,0-5.546,41.109,3.8,3.8,0,0,0,2.382-.064A26.076,26.076,0,0,1,29.184,57.43Z" transform="translate(-16 -50.596)" fill="#6ee0bc" fill-rule="evenodd"/>
        <path id="Trazado_904375" data-name="Trazado 904375" d="M406.824,129.357h1.63m-4.075-3.26h1.63" transform="translate(-362.181 -113.211)" fill="none" stroke="#fff" stroke-miterlimit="22.926" stroke-width="2" fill-rule="evenodd"/>
      </g>
      <g id="Grupo_1112327" data-name="Grupo 1112327" transform="translate(16 7.5)">
        <path id="Trazado_904376" data-name="Trazado 904376" d="M199.654,42.975s3.482,2.676,1.133,5.678l-10.95,14,1.835.733.94,1.438,9.86-12.6c.707-.777,4.132-5.315-2.819-9.242H194.4c-6.951,3.926-3.526,8.465-2.819,9.242l3.21,4.1m2.237,2.859,4.414,5.641.94-1.438,1.835-.733-4.952-6.329m-2.237-2.859-3.761-4.807c-2.349-3,1.133-5.678,1.133-5.678" transform="translate(-170.95 -39.121)" fill="none" stroke="#000" stroke-miterlimit="22.926" stroke-width="2" fill-rule="evenodd"/>
        <path id="Trazado_904377" data-name="Trazado 904377" d="M221.383,80.9a1.723,1.723,0,0,1,1.736-1.747h4.05a1.723,1.723,0,0,1,1.736,1.747" transform="translate(-199.068 -71.364)" fill="none" stroke="#000" stroke-miterlimit="22.926" stroke-width="2" fill-rule="evenodd"/>
        <path id="Trazado_904378" data-name="Trazado 904378" d="M137.338,17.618V10.76A3.269,3.269,0,0,1,140.6,7.5h19.266a3.27,3.27,0,0,1,3.26,3.26V33.794a3.27,3.27,0,0,1-3.26,3.26H140.6a3.27,3.27,0,0,1-3.26-3.26V19.248" transform="translate(-124.155 -7.5)" fill="none" stroke="#000" stroke-miterlimit="22.926" stroke-width="2" fill-rule="evenodd"/>
        <path id="Trazado_904379" data-name="Trazado 904379" d="M54.969,55.849a26.078,26.078,0,0,1,6.131,40.5m-1.191,1.19A26.077,26.077,0,1,1,29.184,55.849" transform="translate(-16 -50.596)" fill="none" stroke="#000" stroke-miterlimit="22.926" stroke-width="2" fill-rule="evenodd"/>
        <path id="Trazado_904380" data-name="Trazado 904380" d="M95.1,279.5c-.334,2.259,3.888,3.962,5.338,5.672a2.644,2.644,0,0,1-3.207,4.145c-1.07-.528-2.894-2.318-4.2-2.8-3.214-1.177-7.148,1.182-4.6,5.4,2.7,4.456-.215,4.883-2.135,4.394" transform="translate(-78.656 -249.949)" fill="none" stroke="#000" stroke-miterlimit="22.926" stroke-width="2" fill-rule="evenodd"/>
        <path id="Trazado_904381" data-name="Trazado 904381" d="M259.729,344.289c1.9-.6,3.244-.478,4.339-3.223.757-1.9,2.482-5.353,6.156-2.31.93.77,3.617,3.177,2.36,5.857-1.943,4.145-9.668,6.258-12.519,5.66C256.971,349.625,257.146,345.1,259.729,344.289Z" transform="translate(-231.499 -301.69)" fill="none" stroke="#000" stroke-miterlimit="22.926" stroke-width="2" fill-rule="evenodd"/>
        <path id="Trazado_904382" data-name="Trazado 904382" d="M426.3,156.1a18.183,18.183,0,0,1-3.842,6.343c-4.6,4.893,2.958,5.9,1.448,11.651-.431,1.645-1.267,4.393,2.459,5.433" transform="translate(-376.954 -139.952)" fill="none" stroke="#000" stroke-miterlimit="22.926" stroke-width="2" fill-rule="evenodd"/>
      </g>
    </g>
  </g>
</svg>
