<svg xmlns="http://www.w3.org/2000/svg" width="673.383" height="459.362" viewBox="0 0 673.383 459.362">
  <g id="_2" data-name="2" transform="translate(-4.955 -1.5)">
    <g id="Grupo_1111953" data-name="Grupo 1111953">
      <path id="Trazado_900794" data-name="Trazado 900794" d="M182.9,395.9l-64.1.3L86.5,340.9l31.8-55.7,64.1-.2,32.2,55.3Z" fill="none" stroke="#1d1d1b" stroke-miterlimit="10" stroke-width="1"/>
      <path id="Trazado_900795" data-name="Trazado 900795" d="M278.6,339.2l-64.1.3-32.3-55.3L214,228.6l64.1-.3,32.3,55.3Z" fill="none" stroke="#1d1d1b" stroke-miterlimit="10" stroke-width="1"/>
      <path id="Trazado_900796" data-name="Trazado 900796" d="M374.3,174.6l-64,.3L278,119.5l31.8-55.6,64-.3,32.3,55.3Z" fill="none" stroke="#1d1d1b" stroke-miterlimit="10" stroke-width="1"/>
      <path id="Trazado_900797" data-name="Trazado 900797" d="M564.3,395.2l-64.1.2L468,340.1l31.7-55.6,64.1-.3,32.3,55.3Z" fill="none" stroke="#1d1d1b" stroke-miterlimit="10" stroke-width="1"/>
      <line id="Línea_589" data-name="Línea 589" x2="52.8" transform="translate(316.4 73.9)" fill="none" stroke="#1d1d1b" stroke-miterlimit="10" stroke-width="1"/>
      <line id="Línea_590" data-name="Línea 590" x2="28.4" y2="46" transform="translate(289.2 119.2)" fill="none" stroke="#1d1d1b" stroke-miterlimit="10" stroke-width="1"/>
      <line id="Línea_591" data-name="Línea 591" x1="25.2" y2="46" transform="translate(369.5 118.8)" fill="none" stroke="#1d1d1b" stroke-miterlimit="10" stroke-width="1"/>
      <line id="Línea_592" data-name="Línea 592" x2="52.8" transform="translate(125.4 295)" fill="none" stroke="#1d1d1b" stroke-miterlimit="10" stroke-width="1"/>
      <line id="Línea_593" data-name="Línea 593" x2="28.4" y2="46" transform="translate(98.2 340.3)" fill="none" stroke="#1d1d1b" stroke-miterlimit="10" stroke-width="1"/>
      <line id="Línea_594" data-name="Línea 594" x1="25.3" y2="46" transform="translate(178.5 339.9)" fill="none" stroke="#1d1d1b" stroke-miterlimit="10" stroke-width="1"/>
      <line id="Línea_595" data-name="Línea 595" x2="52.9" transform="translate(507 295)" fill="none" stroke="#1d1d1b" stroke-miterlimit="10" stroke-width="1"/>
      <line id="Línea_596" data-name="Línea 596" x2="28.3" y2="46" transform="translate(479.9 340.3)" fill="none" stroke="#1d1d1b" stroke-miterlimit="10" stroke-width="1"/>
      <line id="Línea_597" data-name="Línea 597" x1="25.3" y2="46" transform="translate(560.1 339.9)" fill="none" stroke="#1d1d1b" stroke-miterlimit="10" stroke-width="1"/>
      <line id="Línea_598" data-name="Línea 598" x1="15.8" y1="27.8" transform="translate(294 36.1)" fill="none" stroke="#1d1d1b" stroke-miterlimit="10" stroke-width="1"/>
      <line id="Línea_599" data-name="Línea 599" y1="28.2" x2="17.2" transform="translate(373.8 35.4)" fill="none" stroke="#1d1d1b" stroke-miterlimit="10" stroke-width="1"/>
      <line id="Línea_600" data-name="Línea 600" x2="31.5" y2="0.2" transform="translate(406.1 118.9)" fill="none" stroke="#1d1d1b" stroke-miterlimit="10" stroke-width="1"/>
      <line id="Línea_601" data-name="Línea 601" x2="31.5" y2="0.2" transform="translate(596.1 339.5)" fill="none" stroke="#1d1d1b" stroke-miterlimit="10" stroke-width="1"/>
      <line id="Línea_602" data-name="Línea 602" x2="31.5" y2="0.2" transform="translate(54.6 339.5)" fill="none" stroke="#1d1d1b" stroke-miterlimit="10" stroke-width="1"/>
      <line id="Línea_603" data-name="Línea 603" x2="16.9" y2="28.8" transform="translate(564.1 395.4)" fill="none" stroke="#1d1d1b" stroke-miterlimit="10" stroke-width="1"/>
      <line id="Línea_604" data-name="Línea 604" x2="16.9" y2="28.8" transform="translate(182.6 395.4)" fill="none" stroke="#1d1d1b" stroke-miterlimit="10" stroke-width="1"/>
      <line id="Línea_605" data-name="Línea 605" y1="26.2" x2="17.2" transform="translate(563.8 258)" fill="none" stroke="#1d1d1b" stroke-miterlimit="10" stroke-width="1"/>
      <line id="Línea_606" data-name="Línea 606" y1="27.6" x2="16.4" transform="translate(387.9 336)" fill="none" stroke="#1d1d1b" stroke-miterlimit="10" stroke-width="1"/>
      <line id="Línea_607" data-name="Línea 607" y1="27.5" x2="16.3" transform="translate(395.1 340.1)" fill="none" stroke="#1d1d1b" stroke-miterlimit="10" stroke-width="1"/>
      <path id="Trazado_900798" data-name="Trazado 900798" d="M468,340.1H406.7l-22.5-41.2" fill="none" stroke="#1d1d1b" stroke-miterlimit="10" stroke-width="1"/>
      <g id="Grupo_1111950" data-name="Grupo 1111950">
        <path id="Trazado_900799" data-name="Trazado 900799" d="M307.9,185.8l5.5-9-8.4-4-4.4,9.3Z" fill="#1d1d1b"/>
        <path id="Trazado_900800" data-name="Trazado 900800" d="M297.9,187.8l-4.6,9.7,5.8,2.9,5.5-9.2Z" fill="#1d1d1b"/>
        <path id="Trazado_900801" data-name="Trazado 900801" d="M289.7,215.9l6.1-10.1-5.2-2.6-5,10.5Z" fill="#1d1d1b"/>
        <path id="Trazado_900802" data-name="Trazado 900802" d="M282.8,219.4l-4.1,8.8,1.7,3.1,6-10Z" fill="#1d1d1b"/>
      </g>
      <g id="Grupo_1111951" data-name="Grupo 1111951">
        <path id="Trazado_900803" data-name="Trazado 900803" d="M349.7,288.5l8.2.4-.3-7.1-8,.3Z" fill="#1d1d1b"/>
        <path id="Trazado_900804" data-name="Trazado 900804" d="M344.8,282.4l-8.3.4.1,5,8.3.4Z" fill="#1d1d1b"/>
        <path id="Trazado_900805" data-name="Trazado 900805" d="M322.7,287l9,.5-.1-4.5-9,.4Z" fill="#1d1d1b"/>
        <path id="Trazado_900806" data-name="Trazado 900806" d="M317.8,283.7l-7.6.3-1.4,2.3,9,.5Z" fill="#1d1d1b"/>
      </g>
      <text id="H0" transform="translate(4.955 351.436)" fill="#b80707" font-size="35.96" font-family="Roboto-Bold, Roboto" font-weight="700"><tspan x="0" y="0">H0</tspan></text>
      <text id="H0-2" data-name="H0" transform="translate(251.423 34.5)" fill="#b80707" font-size="35.96" font-family="Roboto-Bold, Roboto" font-weight="700"><tspan x="0" y="0">H0</tspan></text>
      <text id="_0H" data-name="0H" transform="translate(389.635 34.5)" fill="#b80707" font-size="35.96" font-family="Roboto-Bold, Roboto" font-weight="700"><tspan x="0" y="0">0H</tspan></text>
      <text id="_0H-2" data-name="0H" transform="translate(441.721 131.861)" fill="#b80707" font-size="35.96" font-family="Roboto-Bold, Roboto" font-weight="700"><tspan x="0" y="0">0H</tspan></text>
      <text id="_0H-3" data-name="0H" transform="translate(579.593 255.776)" fill="#b80707" font-size="35.96" font-family="Roboto-Bold, Roboto" font-weight="700"><tspan x="0" y="0">0H</tspan></text>
      <text id="_0H-4" data-name="0H" transform="translate(631.338 352.457)" fill="#b80707" font-size="35.96" font-family="Roboto-Bold, Roboto" font-weight="700"><tspan x="0" y="0">0H</tspan></text>
      <text id="_0H-5" data-name="0H" transform="translate(579.253 451.861)" fill="#b80707" font-size="35.96" font-family="Roboto-Bold, Roboto" font-weight="700"><tspan x="0" y="0">0H</tspan></text>
      <text id="H0-3" data-name="H0" transform="translate(242.962 425.737) rotate(180)" fill="#b80707" font-size="35.96" font-family="Roboto-Bold, Roboto" font-weight="700"><tspan x="0" y="0">H0</tspan></text>
      <g id="Grupo_1111952" data-name="Grupo 1111952">
        <path id="Trazado_900807" data-name="Trazado 900807" d="M231.3,249.7H204.5a3.116,3.116,0,0,1-3.1-3.1V218.3a3.116,3.116,0,0,1,3.1-3.1h26.8a3.116,3.116,0,0,1,3.1,3.1v28.3A3.052,3.052,0,0,1,231.3,249.7Z" fill="#fff"/>
        <text id="_0" data-name="0" transform="translate(227.983 219.78) rotate(180)" fill="#b80707" font-size="35.96" font-family="Roboto-Bold, Roboto" font-weight="700"><tspan x="0" y="0">0</tspan></text>
      </g>
      <text id="_0-2" data-name="0" transform="translate(382.196 273.567) rotate(180)" fill="#b80707" font-size="35.96" font-family="Roboto-Bold, Roboto" font-weight="700"><tspan x="0" y="0">0</tspan></text>
      <text id="_0-3" data-name="0" transform="translate(395.813 369.567) rotate(180)" font-size="35.96" font-family="Roboto-Bold, Roboto" font-weight="700"><tspan x="0" y="0">0</tspan></text>
    </g>
  </g>
</svg>
