<svg xmlns="http://www.w3.org/2000/svg" xmlns:xlink="http://www.w3.org/1999/xlink" width="68" height="68" viewBox="0 0 68 68">
  <defs>
    <filter id="Rectángulo_400907" x="0" y="0" width="68" height="68" filterUnits="userSpaceOnUse">
      <feOffset dy="3" input="SourceAlpha"/>
      <feGaussianBlur stdDeviation="3" result="blur"/>
      <feFlood flood-opacity="0.161"/>
      <feComposite operator="in" in2="blur"/>
      <feComposite in="SourceGraphic"/>
    </filter>
  </defs>
  <g id="Grupo_1111961" data-name="Grupo 1111961" transform="translate(-326.73 -3826.949)">
    <g id="Grupo_1098742" data-name="Grupo 1098742" transform="translate(335.781 3833)">
      <g id="Rectángulo_400898" data-name="Rectángulo 400898" transform="translate(-0.051 -0.051)" fill="#b4d1f0" stroke="#fff" stroke-width="3" opacity="0.859">
        <rect width="50" height="50" rx="25" stroke="none"/>
        <rect x="1.5" y="1.5" width="47" height="47" rx="23.5" fill="none"/>
      </g>
      <g transform="matrix(1, 0, 0, 1, -9.05, -6.05)" filter="url(#Rectángulo_400907)">
        <g id="Rectángulo_400907-2" data-name="Rectángulo 400907" transform="translate(9 6)" fill="none" stroke="#fff" stroke-width="3">
          <rect width="50" height="50" rx="25" stroke="none"/>
          <rect x="1.5" y="1.5" width="47" height="47" rx="23.5" fill="none"/>
        </g>
      </g>
    </g>
    <g id="Filled_outline" data-name="Filled outline" transform="translate(344.507 3841.726)">
      <g id="Color" transform="translate(2.477 2.474)">
        <path id="Trazado_904425" data-name="Trazado 904425" d="M30.413,39.91a7.641,7.641,0,0,1-4.239,1.4c-1.737,1.422-4.628,2.09-7.486,2.08-2.858.01-5.75-.658-7.486-2.08a7.641,7.641,0,0,1-4.239-1.4c-.6,3.963-.211,7.358,1.09,9.387a1.383,1.383,0,0,0,1.172.612H28.151a1.383,1.383,0,0,0,1.171-.616c1.3-2.024,1.694-5.42,1.091-9.383Z" transform="translate(-4.942 -22.411)" fill="#0c96da"/>
        <path id="Trazado_904426" data-name="Trazado 904426" d="M30.418,39.909A7.338,7.338,0,0,1,26.9,41.237c-.23.03-.468.055-.716.072-1.707,1.432-4.8,2.1-7.486,2.08-2.683.025-5.778-.648-7.486-2.08-.247-.017-.485-.042-.716-.072a7.34,7.34,0,0,1-3.523-1.327,22.065,22.065,0,0,0-.256,4.3,4.021,4.021,0,0,0,3.417-2.08c.237.036.469.078.718.1a12.718,12.718,0,0,0,6.9,2.078v5.6h1.9v-5.6a12.718,12.718,0,0,0,6.9-2.078c.249-.023.481-.064.718-.1a4.021,4.021,0,0,0,3.417,2.083A22.065,22.065,0,0,0,30.418,39.909Z" transform="translate(-4.947 -22.41)" fill="#0971a3"/>
        <path id="Trazado_904427" data-name="Trazado 904427" d="M26.842,8.011a6.775,6.775,0,0,0,2.6-4.463A.47.47,0,0,0,28.973,3H4.532a.47.47,0,0,0-.465.548,6.775,6.775,0,0,0,2.6,4.463c-3.1,2.48-5.552,9.463-1.636,12.488a7.641,7.641,0,0,0,4.239,1.4c1.737,1.422,4.628,2.09,7.486,2.08,2.858.01,5.75-.658,7.486-2.08a7.641,7.641,0,0,0,4.239-1.4c3.916-3.025,1.465-10.008-1.636-12.488Z" transform="translate(-3.006 -3)" fill="#ffcebf"/>
      </g>
      <g id="Outline" transform="translate(2 2)">
        <path id="Trazado_904428" data-name="Trazado 904428" d="M30.443,15.512A11.8,11.8,0,0,0,27.056,7.5a7.487,7.487,0,0,0,2.323-4.4A.948.948,0,0,0,28.444,2H4A.948.948,0,0,0,3.07,3.1,7.487,7.487,0,0,0,5.391,7.5,11.8,11.8,0,0,0,2,15.512a5.956,5.956,0,0,0,1.991,4.646c-.572,4.01-.15,7.361,1.2,9.457a1.849,1.849,0,0,0,1.57.832H25.686a1.849,1.849,0,0,0,1.57-.832c1.346-2.1,1.767-5.447,1.2-9.454a5.956,5.956,0,0,0,1.991-4.649ZM14.8,29.5H6.761a.915.915,0,0,1-.772-.4A9.5,9.5,0,0,1,4.743,24.71a4.534,4.534,0,0,0,3.61-2.9c.068.007.134.016.2.022A11.686,11.686,0,0,0,14.8,23.873ZM4.7,23.752a21.525,21.525,0,0,1,.164-2.969,7.835,7.835,0,0,0,2.517.9A3.576,3.576,0,0,1,4.7,23.752ZM16.7,29.5h-.948V23.914c.314.016.634.015.948,0Zm9.761-.4a.915.915,0,0,1-.772.4h-8.04V23.873a11.7,11.7,0,0,0,6.245-2.039c.069-.006.135-.015.2-.022a4.534,4.534,0,0,0,3.61,2.9A9.5,9.5,0,0,1,26.458,29.1Zm-1.394-7.424a7.835,7.835,0,0,0,2.517-.9,21.524,21.524,0,0,1,.164,2.969,3.576,3.576,0,0,1-2.681-2.073Zm2.595-2.08a6.4,6.4,0,0,1-2.817,1.159,8.945,8.945,0,0,0,1.331-3.5.474.474,0,0,0-.933-.17,6.808,6.808,0,0,1-1.845,3.93c-2.879,2.655-11.456,2.658-14.339,0a6.813,6.813,0,0,1-1.849-3.935.474.474,0,1,0-.933.17,8.945,8.945,0,0,0,1.331,3.5A6.4,6.4,0,0,1,4.787,19.6,5.06,5.06,0,0,1,2.95,15.5,10.837,10.837,0,0,1,6.172,8.078a8.2,8.2,0,0,0,4.865,1.034.475.475,0,1,0-.059-.948A6.157,6.157,0,0,1,4,2.948l24.439,0a6.151,6.151,0,0,1-6.974,5.221.48.48,0,0,0-.5.444.474.474,0,0,0,.444.5,8.2,8.2,0,0,0,4.865-1.034A10.837,10.837,0,0,1,29.5,15.5a5.06,5.06,0,0,1-1.84,4.094Z" transform="translate(-2 -2)" fill="#1e120b"/>
        <ellipse id="Elipse_12143" data-name="Elipse 12143" cx="0.861" cy="0.43" rx="0.861" ry="0.43" transform="translate(13.362 15.945)" fill="#1e120b"/>
      </g>
    </g>
  </g>
</svg>
