<svg xmlns="http://www.w3.org/2000/svg" xmlns:xlink="http://www.w3.org/1999/xlink" width="68" height="68" viewBox="0 0 68 68">
  <defs>
    <filter id="Rectángulo_400907" x="0" y="0" width="68" height="68" filterUnits="userSpaceOnUse">
      <feOffset dy="3" input="SourceAlpha"/>
      <feGaussianBlur stdDeviation="3" result="blur"/>
      <feFlood flood-opacity="0.161"/>
      <feComposite operator="in" in2="blur"/>
      <feComposite in="SourceGraphic"/>
    </filter>
  </defs>
  <g id="Grupo_1111962" data-name="Grupo 1111962" transform="translate(-326.73 -3826.949)">
    <g id="Grupo_1098742" data-name="Grupo 1098742" transform="translate(335.781 3833)">
      <g id="Rectángulo_400898" data-name="Rectángulo 400898" transform="translate(-0.051 -0.051)" fill="#b4d1f0" stroke="#fff" stroke-width="3" opacity="0.859">
        <rect width="50" height="50" rx="25" stroke="none"/>
        <rect x="1.5" y="1.5" width="47" height="47" rx="23.5" fill="none"/>
      </g>
      <g transform="matrix(1, 0, 0, 1, -9.05, -6.05)" filter="url(#Rectángulo_400907)">
        <g id="Rectángulo_400907-2" data-name="Rectángulo 400907" transform="translate(9 6)" fill="none" stroke="#fff" stroke-width="3">
          <rect width="50" height="50" rx="25" stroke="none"/>
          <rect x="1.5" y="1.5" width="47" height="47" rx="23.5" fill="none"/>
        </g>
      </g>
    </g>
    <g id="Grupo_1112351" data-name="Grupo 1112351" transform="translate(329.325 3833.102)">
      <path id="Trazado_904429" data-name="Trazado 904429" d="M231.6,8.734l.212-.791a.351.351,0,0,0-.41-.435L225.477,8.72a.351.351,0,0,0-.163.607l4.525,4.012a.351.351,0,0,0,.572-.172l.249-.931a.176.176,0,0,1,.21-.126,13.095,13.095,0,0,1,1.766,24.921.35.35,0,0,0-.2.446l.88,2.417a.352.352,0,0,0,.459.207A16.369,16.369,0,0,0,231.728,8.95.175.175,0,0,1,231.6,8.734Z" transform="translate(-195.941 -0.001)" fill="#02c7dd"/>
      <path id="Trazado_904430" data-name="Trazado 904430" d="M47.537,67.949l-4.525-4.012a.351.351,0,0,0-.572.172l-.249.931a.176.176,0,0,1-.21.126,13.1,13.1,0,0,1-1.766-24.921.35.35,0,0,0,.2-.446l-.88-2.417a.352.352,0,0,0-.459-.207,16.369,16.369,0,0,0,2.046,31.152.175.175,0,0,1,.129.216l-.212.791a.351.351,0,0,0,.41.435l5.924-1.212A.351.351,0,0,0,47.537,67.949Z" transform="translate(-13.116 -27.581)" fill="#02c7dd"/>
      <path id="Trazado_904431" data-name="Trazado 904431" d="M114.535,321.554c.839,1.454,1.046,3.969.245,5.1a1.326,1.326,0,0,1-1.011.584c-1.375.131-3.451-1.306-4.29-2.76a2.968,2.968,0,1,1,5.056-2.919Z" transform="translate(-87.793 -290.355)" fill="#68ca44"/>
      <path id="Trazado_904432" data-name="Trazado 904432" d="M228.709,141.793v5.815a.376.376,0,0,1-.376.376h-2.519a.376.376,0,0,1-.336-.544l.5-1a3.759,3.759,0,0,0,.4-1.681v-3.936l-4.127-9.075H234.2Z" transform="translate(-193.198 -115.576)" fill="#fff6ce"/>
      <path id="Trazado_904433" data-name="Trazado 904433" d="M327.088,133.5h-.354a3.893,3.893,0,0,1-1.983-.556,8.565,8.565,0,0,0-4.428-1.2,5.557,5.557,0,0,0-5.5,5.564v4.478a2.082,2.082,0,0,0,3.123,1.8h0a11.638,11.638,0,0,0,3.3-2.843,57.6,57.6,0,0,1,4.413-4.895l1.7-1.7A.381.381,0,0,0,327.088,133.5Z" transform="translate(-279.308 -115.576)" fill="#e94444"/>
      <path id="Trazado_904434" data-name="Trazado 904434" d="M76.518,135.877a4.127,4.127,0,0,0-4.127-4.127h0A11.246,11.246,0,0,0,61.144,143v9.261a1.128,1.128,0,0,0,1.963.757l.453-.5a17.068,17.068,0,0,1,6.362-4.388,19.394,19.394,0,0,0,3.829-2.031,6.4,6.4,0,0,0,2.766-5.272Z" transform="translate(-43.341 -115.576)" fill="#e94444"/>
      <path id="Trazado_904435" data-name="Trazado 904435" d="M328.594,150.979h-.354a3.863,3.863,0,0,1-1.776-.441l-1.4,1.4a57.644,57.644,0,0,0-4.413,4.895,11.637,11.637,0,0,1-3.3,2.843h0a2.073,2.073,0,0,1-.916.278,2.085,2.085,0,0,0,3.01,1.118h0a11.638,11.638,0,0,0,3.3-2.843,57.6,57.6,0,0,1,4.413-4.895l1.7-1.7A.381.381,0,0,0,328.594,150.979Z" transform="translate(-280.814 -133.053)" fill="#d83131"/>
      <path id="Trazado_904436" data-name="Trazado 904436" d="M73.523,134a4.11,4.11,0,0,1,.9,2.574v4.948a6.4,6.4,0,0,1-2.766,5.272,19.393,19.393,0,0,1-3.829,2.031,17.067,17.067,0,0,0-6.362,4.388l-.322.355v.783a1.128,1.128,0,0,0,1.963.757l.453-.5a17.068,17.068,0,0,1,6.362-4.388,19.39,19.39,0,0,0,3.829-2.031,6.4,6.4,0,0,0,2.766-5.272v-4.948A4.129,4.129,0,0,0,73.523,134Z" transform="translate(-43.341 -117.672)" fill="#d83131"/>
      <line id="Línea_640" data-name="Línea 640" x2="11.954" transform="translate(29.049 16.174)" fill="none" stroke="#000" stroke-linecap="round" stroke-linejoin="round" stroke-miterlimit="10" stroke-width="1"/>
      <path id="Trazado_904437" data-name="Trazado 904437" d="M271.235,262.715v5.815a.376.376,0,0,1-.376.376H268.34a.376.376,0,0,1-.336-.544l.5-1a3.76,3.76,0,0,0,.4-1.681v-3.936" transform="translate(-235.723 -236.498)" fill="none" stroke="#000" stroke-linecap="round" stroke-linejoin="round" stroke-miterlimit="10" stroke-width="1"/>
      <path id="Trazado_904438" data-name="Trazado 904438" d="M314.82,140.737v1.057a2.082,2.082,0,0,0,3.123,1.8h0a11.638,11.638,0,0,0,3.3-2.843,57.613,57.613,0,0,1,4.413-4.895l1.7-1.7a.381.381,0,0,0-.269-.65h-.354a3.893,3.893,0,0,1-1.983-.556,8.565,8.565,0,0,0-4.428-1.2,5.557,5.557,0,0,0-5.5,5.564v.978" transform="translate(-279.309 -115.577)" fill="none" stroke="#000" stroke-linecap="round" stroke-linejoin="round" stroke-miterlimit="10" stroke-width="1"/>
      <line id="Línea_641" data-name="Línea 641" y1="1.084" transform="translate(17.261 7.5)" fill="none" stroke="#000" stroke-linecap="round" stroke-linejoin="round" stroke-miterlimit="10" stroke-width="1"/>
      <line id="Línea_642" data-name="Línea 642" y1="1.084" transform="translate(17.261 11.837)" fill="none" stroke="#000" stroke-linecap="round" stroke-linejoin="round" stroke-miterlimit="10" stroke-width="1"/>
      <line id="Línea_643" data-name="Línea 643" x2="1.084" transform="translate(18.887 10.211)" fill="none" stroke="#000" stroke-linecap="round" stroke-linejoin="round" stroke-miterlimit="10" stroke-width="1"/>
      <line id="Línea_644" data-name="Línea 644" x2="1.084" transform="translate(14.55 10.211)" fill="none" stroke="#000" stroke-linecap="round" stroke-linejoin="round" stroke-miterlimit="10" stroke-width="1"/>
      <line id="Línea_645" data-name="Línea 645" y1="1.084" transform="translate(24.85 21.053)" fill="none" stroke="#000" stroke-linecap="round" stroke-linejoin="round" stroke-miterlimit="10" stroke-width="1"/>
      <line id="Línea_646" data-name="Línea 646" y1="1.084" transform="translate(24.85 25.39)" fill="none" stroke="#000" stroke-linecap="round" stroke-linejoin="round" stroke-miterlimit="10" stroke-width="1"/>
      <line id="Línea_647" data-name="Línea 647" x2="1.084" transform="translate(26.476 23.763)" fill="none" stroke="#000" stroke-linecap="round" stroke-linejoin="round" stroke-miterlimit="10" stroke-width="1"/>
      <line id="Línea_648" data-name="Línea 648" x2="1.084" transform="translate(22.14 23.763)" fill="none" stroke="#000" stroke-linecap="round" stroke-linejoin="round" stroke-miterlimit="10" stroke-width="1"/>
      <path id="Trazado_904439" data-name="Trazado 904439" d="M68.777,148.631q.562-.271,1.145-.5a19.4,19.4,0,0,0,3.829-2.031,6.4,6.4,0,0,0,2.766-5.272v-4.948a4.127,4.127,0,0,0-4.127-4.127h0A11.246,11.246,0,0,0,61.144,143v9.261a1.128,1.128,0,0,0,1.963.757l.453-.5a16.833,16.833,0,0,1,3.082-2.662" transform="translate(-43.341 -115.577)" fill="none" stroke="#000" stroke-linecap="round" stroke-linejoin="round" stroke-miterlimit="10" stroke-width="1"/>
      <path id="Trazado_904440" data-name="Trazado 904440" d="M125.974,365.342a5.223,5.223,0,0,0,3.648,1.9,1.325,1.325,0,0,0,1.011-.584,5.158,5.158,0,0,0,.215-4" transform="translate(-103.646 -330.361)" fill="none" stroke="#000" stroke-linecap="round" stroke-linejoin="round" stroke-miterlimit="10" stroke-width="1"/>
      <path id="Trazado_904441" data-name="Trazado 904441" d="M100.124,419.935a16.335,16.335,0,0,0,7.484,4.134.175.175,0,0,1,.129.216l-.212.791a.351.351,0,0,0,.41.435l5.924-1.212a.351.351,0,0,0,.163-.607L109.5,419.68a.351.351,0,0,0-.572.172l-.249.931a.176.176,0,0,1-.21.126,12.993,12.993,0,0,1-2.416-.831" transform="translate(-79.6 -383.324)" fill="none" stroke="#000" stroke-linecap="round" stroke-linejoin="round" stroke-miterlimit="10" stroke-width="1"/>
      <path id="Trazado_904442" data-name="Trazado 904442" d="M33.381,91.137a16.371,16.371,0,0,0-2.463,19.826" transform="translate(-13.116 -77.798)" fill="none" stroke="#000" stroke-linecap="round" stroke-linejoin="round" stroke-miterlimit="10" stroke-width="1"/>
      <path id="Trazado_904443" data-name="Trazado 904443" d="M79.275,49.812a13.114,13.114,0,0,1,8.032-9.568.35.35,0,0,0,.2-.446l-.88-2.417a.352.352,0,0,0-.459-.207,16.333,16.333,0,0,0-3.823,2.117" transform="translate(-60.207 -27.58)" fill="none" stroke="#000" stroke-linecap="round" stroke-linejoin="round" stroke-miterlimit="10" stroke-width="1"/>
      <path id="Trazado_904444" data-name="Trazado 904444" d="M242.636,17.855a16.4,16.4,0,0,0-10.908-8.9.175.175,0,0,1-.129-.216l.212-.791a.351.351,0,0,0-.41-.435L225.477,8.72a.351.351,0,0,0-.163.607l4.525,4.012a.351.351,0,0,0,.572-.172l.249-.931a.176.176,0,0,1,.21-.126,13.085,13.085,0,0,1,6.795,4.088" transform="translate(-195.941 -0.001)" fill="none" stroke="#000" stroke-linecap="round" stroke-linejoin="round" stroke-miterlimit="10" stroke-width="1"/>
      <path id="Trazado_904445" data-name="Trazado 904445" d="M336.8,179.518a13.111,13.111,0,0,1-7.983,15.029.35.35,0,0,0-.2.446l.88,2.417a.352.352,0,0,0,.459.207,16.384,16.384,0,0,0,9.471-20.78" transform="translate(-292.119 -157.516)" fill="none" stroke="#000" stroke-linecap="round" stroke-linejoin="round" stroke-miterlimit="10" stroke-width="1"/>
    </g>
  </g>
</svg>
