<svg xmlns="http://www.w3.org/2000/svg" xmlns:xlink="http://www.w3.org/1999/xlink" width="68" height="68" viewBox="0 0 68 68">
  <defs>
    <filter id="Rectángulo_400898" x="0" y="0" width="68" height="68" filterUnits="userSpaceOnUse">
      <feOffset dy="3" input="SourceAlpha"/>
      <feGaussianBlur stdDeviation="3" result="blur"/>
      <feFlood flood-opacity="0.161"/>
      <feComposite operator="in" in2="blur"/>
      <feComposite in="SourceGraphic"/>
    </filter>
  </defs>
  <g id="Grupo_1111963" data-name="Grupo 1111963" transform="translate(-326.73 -3826.949)">
    <g id="Grupo_1098742" data-name="Grupo 1098742" transform="translate(335.781 3833)">
      <g transform="matrix(1, 0, 0, 1, -9.05, -6.05)" filter="url(#Rectángulo_400898)">
        <g id="Rectángulo_400898-2" data-name="Rectángulo 400898" transform="translate(9 6)" fill="#b4d1f0" stroke="#fff" stroke-width="3" opacity="0.859">
          <rect width="50" height="50" rx="25" stroke="none"/>
          <rect x="1.5" y="1.5" width="47" height="47" rx="23.5" fill="none"/>
        </g>
      </g>
      <g id="Rectángulo_400907" data-name="Rectángulo 400907" transform="translate(-0.051 -0.051)" fill="none" stroke="#fff" stroke-width="3">
        <rect width="50" height="50" rx="25" stroke="none"/>
        <rect x="1.5" y="1.5" width="47" height="47" rx="23.5" fill="none"/>
      </g>
    </g>
    <g id="Grupo_1112360" data-name="Grupo 1112360" transform="translate(343.875 3817.706)">
      <path id="Trazado_904446" data-name="Trazado 904446" d="M339.975,284,338,290.518l1.975,6.518h3.292V284Z" transform="translate(-315.746 -244.282)" fill="#c0e4fc"/>
      <path id="Trazado_904447" data-name="Trazado 904447" d="M108.617,284l-3.95,1.646L100.716,284H94v13.037h18.041V284Z" transform="translate(-87.811 -244.282)" fill="#fff"/>
      <g id="Grupo_1112352" data-name="Grupo 1112352" transform="translate(8.164 28.47)">
        <path id="Trazado_904448" data-name="Trazado 904448" d="M199.952,286.963A4.116,4.116,0,0,0,203.9,284H196A4.116,4.116,0,0,0,199.952,286.963Z" transform="translate(-191.261 -272.752)" fill="#ffc28e"/>
        <path id="Trazado_904449" data-name="Trazado 904449" d="M125.975,113.172a1.975,1.975,0,1,0,0,3.95h6.716v-3.95Z" transform="translate(-124 -113.172)" fill="#ffc28e"/>
      </g>
      <g id="Grupo_1112353" data-name="Grupo 1112353" transform="translate(16.855 22.994)">
        <path id="Trazado_904450" data-name="Trazado 904450" d="M262.716,113.172H256v3.95h6.716a1.975,1.975,0,1,0,0-3.95Z" transform="translate(-256 -107.696)" fill="#ff9d73"/>
        <path id="Trazado_904451" data-name="Trazado 904451" d="M256,30V44.749a6.387,6.387,0,0,0,6.387-6.387V36.387A6.387,6.387,0,0,0,256,30Z" transform="translate(-256 -30)" fill="#ff9d73"/>
      </g>
      <path id="Trazado_904452" data-name="Trazado 904452" d="M169.8,38.362V36.387c0-3.527-1.975-6.387-4.411-6.387A6.387,6.387,0,0,0,159,36.387v1.975a6.387,6.387,0,0,0,6.387,6.387C167.823,44.749,169.8,41.889,169.8,38.362Z" transform="translate(-148.531 -7.006)" fill="#ffc28e"/>
      <g id="Grupo_1112354" data-name="Grupo 1112354" transform="translate(10.14 24.762)">
        <path id="Trazado_904453" data-name="Trazado 904453" d="M155.975,56.859A1.975,1.975,0,0,0,154,58.834v2.643h.329A1.975,1.975,0,0,0,156.3,59.5V56.859Z" transform="translate(-154 -56.859)" fill="#fff"/>
        <path id="Trazado_904454" data-name="Trazado 904454" d="M324.975,61.477A1.975,1.975,0,0,1,323,59.5V56.859h.329a1.975,1.975,0,0,1,1.975,1.975v2.643Z" transform="translate(-311.873 -56.859)" fill="#fff"/>
      </g>
      <g id="Grupo_1112355" data-name="Grupo 1112355" transform="translate(11.851 30.511)">
        <circle id="Elipse_12144" data-name="Elipse 12144" cx="1.053" cy="1.053" r="1.053" transform="translate(0 0)" fill="#ff9d73"/>
        <path id="Trazado_904455" data-name="Trazado 904455" d="M301.514,144.279a1.053,1.053,0,1,0-.077,1.926,9.226,9.226,0,0,0,.077-1.189Z" transform="translate(-292.099 -144.172)" fill="#ff9d73"/>
      </g>
      <g id="Grupo_1112356" data-name="Grupo 1112356" transform="translate(15.045 30.618)">
        <path id="Trazado_904456" data-name="Trazado 904456" d="M321.913,145.8l-.077,1.926a1.052,1.052,0,0,0,.077-1.926Z" transform="translate(-315.69 -145.801)" fill="#ff7859"/>
        <path id="Trazado_904457" data-name="Trazado 904457" d="M230.309,163.586a1.9,1.9,0,0,1-1.782-1.258.494.494,0,0,1,.931-.331.9.9,0,0,0,1.7,0,.494.494,0,0,1,.931.331A1.9,1.9,0,0,1,230.309,163.586Z" transform="translate(-228.498 -160.624)" fill="#ff7859"/>
      </g>
      <g id="Grupo_1112357" data-name="Grupo 1112357" transform="translate(5.695 41.199)">
        <path id="Trazado_904458" data-name="Trazado 904458" d="M164.376,445.488H146.994a.494.494,0,1,1,0-.988h17.382a.494.494,0,1,1,0,.988Z" transform="translate(-142.55 -435.414)" fill="#4999d1"/>
        <path id="Trazado_904459" data-name="Trazado 904459" d="M88.969,445.488H86.994a.494.494,0,1,1,0-.988h1.975a.494.494,0,1,1,0,.988Z" transform="translate(-86.5 -435.414)" fill="#4999d1"/>
        <path id="Trazado_904460" data-name="Trazado 904460" d="M134.986,399.488H117.7a.494.494,0,1,1,0-.988h17.29a.494.494,0,0,1,0,.988Z" transform="translate(-115.181 -392.443)" fill="#4999d1"/>
        <path id="Trazado_904461" data-name="Trazado 904461" d="M161.963,353.488h-13.2a.494.494,0,1,1,0-.988h13.2a.494.494,0,0,1,0,.988Z" transform="translate(-144.204 -349.471)" fill="#4999d1"/>
        <path id="Trazado_904462" data-name="Trazado 904462" d="M154.306,307.488h-3.812a.494.494,0,1,1,0-.988h3.812a.494.494,0,1,1,0,.988Z" transform="translate(-145.819 -306.5)" fill="#4999d1"/>
        <path id="Trazado_904463" data-name="Trazado 904463" d="M293.4,307.488h-3.813a.494.494,0,0,1,0-.988H293.4a.494.494,0,1,1,0,.988Z" transform="translate(-275.751 -306.5)" fill="#4999d1"/>
      </g>
      <g id="Grupo_1112358" data-name="Grupo 1112358" transform="translate(25.316 33.792)">
        <path id="Trazado_904464" data-name="Trazado 904464" d="M445.488,209a.988.988,0,0,0-.988.988v5.267h1.975v-5.267A.988.988,0,0,0,445.488,209Z" transform="translate(-440.549 -208.012)" fill="#ffc28e"/>
        <path id="Trazado_904465" data-name="Trazado 904465" d="M385.488,209a.988.988,0,0,0-.988.988v5.267h1.975v-5.267A.988.988,0,0,0,385.488,209Z" transform="translate(-384.5 -208.012)" fill="#ffc28e"/>
        <path id="Trazado_904466" data-name="Trazado 904466" d="M415.488,194a.988.988,0,0,0-.988.988v6.255h1.975v-6.255A.988.988,0,0,0,415.488,194Z" transform="translate(-412.525 -194)" fill="#ffc28e"/>
      </g>
      <path id="Trazado_904467" data-name="Trazado 904467" d="M433.451,254a.988.988,0,0,0-.988.988l-2.963,9.876a4.938,4.938,0,0,0,4.938-4.938v-4.938A.988.988,0,0,0,433.451,254Z" transform="translate(-401.221 -216.258)" fill="#ff9d73"/>
      <path id="Trazado_904468" data-name="Trazado 904468" d="M362.4,273.938V269l-5.926.988a.988.988,0,1,0-1.975,0v3.951a4.938,4.938,0,0,0,4.938,4.938C361.074,278.876,362.4,276.665,362.4,273.938Z" transform="translate(-331.159 -230.27)" fill="#ffc28e"/>
      <path id="Trazado_904469" data-name="Trazado 904469" d="M86.45,269a.988.988,0,0,0-.988.988L82.5,278.876a4.938,4.938,0,0,0,4.938-4.938v-3.951A.988.988,0,0,0,86.45,269Z" transform="translate(-77.068 -230.27)" fill="#ff9d73"/>
      <g id="Grupo_1112359" data-name="Grupo 1112359" transform="translate(0.494 33.792)">
        <path id="Trazado_904470" data-name="Trazado 904470" d="M15.4,259.926v-3.951l-5.926-.988a.988.988,0,1,0-1.975,0v4.938a4.938,4.938,0,0,0,4.938,4.938C14.074,264.864,15.4,262.653,15.4,259.926Z" transform="translate(-7.5 -250.05)" fill="#ffc28e"/>
        <path id="Trazado_904471" data-name="Trazado 904471" d="M38.488,209a.988.988,0,0,1,.988.988v5.267H37.5v-5.267A.988.988,0,0,1,38.488,209Z" transform="translate(-35.525 -208.012)" fill="#ffc28e"/>
        <path id="Trazado_904472" data-name="Trazado 904472" d="M98.488,209a.988.988,0,0,1,.988.988v5.267H97.5v-5.267A.988.988,0,0,1,98.488,209Z" transform="translate(-91.574 -208.012)" fill="#ffc28e"/>
        <path id="Trazado_904473" data-name="Trazado 904473" d="M68.488,194a.988.988,0,0,1,.988.988v6.255H67.5v-6.255A.988.988,0,0,1,68.488,194Z" transform="translate(-63.55 -194)" fill="#ffc28e"/>
      </g>
      <path id="Trazado_904474" data-name="Trazado 904474" d="M118.969,32.914h.013a6.881,6.881,0,0,0,13.4,0h.014a2.469,2.469,0,0,0,.494-4.888V26.737a2.472,2.472,0,0,0-2.469-2.469h-.136a6.879,6.879,0,0,0-9.21,0h-.136a2.472,2.472,0,0,0-2.469,2.469v1.288a2.469,2.469,0,0,0,.494,4.888Zm11.621-7.649a1.484,1.484,0,0,1,1.317,1.472v2.14a1.484,1.484,0,0,1-1.317-1.472Zm-11.127,1.472a1.484,1.484,0,0,1,1.317-1.472v2.14a1.484,1.484,0,0,1-1.317,1.472Zm-.988,2.311v.332a.494.494,0,0,0,.494.494h.329a2.472,2.472,0,0,0,2.469-2.469V24.98a5.887,5.887,0,0,1,7.835,0v2.425a2.472,2.472,0,0,0,2.469,2.469h.329a.494.494,0,0,0,.494-.494v-.332a1.481,1.481,0,0,1-.352,2.871c.015-.186.023-.374.023-.564a.494.494,0,1,0-.988,0,5.893,5.893,0,1,1-11.786,0,.494.494,0,1,0-.988,0c0,.19.008.378.023.564a1.481,1.481,0,0,1-.352-2.871Z" transform="translate(-108.829)"/>
      <path id="Trazado_904475" data-name="Trazado 904475" d="M228.527,162.329a1.891,1.891,0,0,0,3.564,0,.494.494,0,1,0-.931-.331.9.9,0,0,1-1.7,0,.494.494,0,1,0-.93.331Z" transform="translate(-213.454 -130.006)"/>
      <path id="Trazado_904476" data-name="Trazado 904476" d="M198.994,121.66h.833a.494.494,0,0,0,.978-.1v-.4a.494.494,0,0,0-.494-.494h-1.317a.494.494,0,1,0,0,.988Z" transform="translate(-185.43 -91.708)"/>
      <path id="Trazado_904477" data-name="Trazado 904477" d="M278.994,122.055a.494.494,0,0,0,.484-.4h.833a.494.494,0,0,0,0-.988h-1.317a.494.494,0,0,0-.494.494v.4A.494.494,0,0,0,278.994,122.055Z" transform="translate(-260.163 -91.708)"/>
      <path id="Trazado_904478" data-name="Trazado 904478" d="M32.229,190.451a1.475,1.475,0,0,0-.494.085v-1.566a1.48,1.48,0,0,0-2.027-1.377,1.481,1.481,0,0,0-2.858,0,1.48,1.48,0,0,0-2.027,1.377v2.554a1.481,1.481,0,0,0-1.89.9H10.779a1.481,1.481,0,0,0-1.89-.9v-2.554a1.48,1.48,0,0,0-2.027-1.377,1.481,1.481,0,0,0-2.858,0,1.48,1.48,0,0,0-2.027,1.377v1.566A1.481,1.481,0,0,0,0,191.932v4.938A5.438,5.438,0,0,0,5.432,202.3c.088,0,.176,0,.263-.007v3.661a.494.494,0,0,0,.494.494H27.522a.494.494,0,0,0,.494-.494V202.3c.087,0,.175.007.263.007a5.438,5.438,0,0,0,5.432-5.432v-4.938A1.483,1.483,0,0,0,32.229,190.451Zm-12.15,2.963a3.619,3.619,0,0,1-6.448,0ZM.988,196.87v-4.938a.494.494,0,0,1,.988,0v2.3a.494.494,0,1,0,.988,0v-5.267a.494.494,0,0,1,.988,0v5.267a.494.494,0,1,0,.988,0v-6.255a.494.494,0,1,1,.988,0v6.255a.494.494,0,1,0,.988,0v-5.267a.494.494,0,0,1,.988,0v6.455a3.462,3.462,0,0,0-2.963,3.422.494.494,0,0,0,.988,0,2.472,2.472,0,0,1,2.469-2.469.494.494,0,0,0,.494-.494V192.92a.494.494,0,1,1,.988,0v3.95a4.444,4.444,0,0,1-8.889,0Zm26.04,8.592H6.683v-3.307a5.44,5.44,0,0,0,4.181-5.285v-3.457h1.687a4.608,4.608,0,0,0,8.609,0h1.687v3.457a5.44,5.44,0,0,0,4.181,5.285Zm5.7-8.592a4.444,4.444,0,0,1-8.889,0v-3.95a.494.494,0,1,1,.988,0v2.963a.494.494,0,0,0,.494.494,2.472,2.472,0,0,1,2.469,2.469.494.494,0,0,0,.988,0,3.462,3.462,0,0,0-2.963-3.422v-6.455a.494.494,0,0,1,.988,0v5.267a.494.494,0,1,0,.988,0v-6.255a.494.494,0,1,1,.988,0v6.255a.494.494,0,1,0,.988,0v-5.267a.494.494,0,0,1,.988,0v5.267a.494.494,0,1,0,.988,0v-2.3a.494.494,0,0,1,.988,0Z" transform="translate(0 -153.202)"/>
    </g>
  </g>
</svg>
