<svg xmlns="http://www.w3.org/2000/svg" xmlns:xlink="http://www.w3.org/1999/xlink" width="68" height="68" viewBox="0 0 68 68">
  <defs>
    <filter id="Rectángulo_400898" x="0" y="0" width="68" height="68" filterUnits="userSpaceOnUse">
      <feOffset dy="3" input="SourceAlpha"/>
      <feGaussianBlur stdDeviation="3" result="blur"/>
      <feFlood flood-opacity="0.161"/>
      <feComposite operator="in" in2="blur"/>
      <feComposite in="SourceGraphic"/>
    </filter>
  </defs>
  <g id="Grupo_1111964" data-name="Grupo 1111964" transform="translate(-326.73 -3826.949)">
    <g id="Grupo_1098742" data-name="Grupo 1098742" transform="translate(335.781 3833)">
      <g transform="matrix(1, 0, 0, 1, -9.05, -6.05)" filter="url(#Rectángulo_400898)">
        <g id="Rectángulo_400898-2" data-name="Rectángulo 400898" transform="translate(9 6)" fill="#b4d1f0" stroke="#fff" stroke-width="3" opacity="0.859">
          <rect width="50" height="50" rx="25" stroke="none"/>
          <rect x="1.5" y="1.5" width="47" height="47" rx="23.5" fill="none"/>
        </g>
      </g>
      <g id="Rectángulo_400907" data-name="Rectángulo 400907" transform="translate(-0.051 -0.051)" fill="none" stroke="#fff" stroke-width="3">
        <rect width="50" height="50" rx="25" stroke="none"/>
        <rect x="1.5" y="1.5" width="47" height="47" rx="23.5" fill="none"/>
      </g>
    </g>
    <g id="Grupo_1112366" data-name="Grupo 1112366" transform="translate(347.559 3844.779)">
      <g id="Grupo_1112364" data-name="Grupo 1112364" transform="translate(0.387 0.385)">
        <path id="Trazado_904479" data-name="Trazado 904479" d="M33.07,258.312H7.5v-9.632a1.554,1.554,0,0,1,1.554-1.554h1.176a3.813,3.813,0,0,1,2.308.778,3.9,3.9,0,0,0,.415.28l.94.54v-3.764H26.678v3.764l1.127-.657c.14-.082.275-.172.409-.264a3.813,3.813,0,0,1,2.169-.677h1.134a1.554,1.554,0,0,1,1.554,1.554Z" transform="translate(-7.501 -232.742)" fill="#ff8086"/>
        <g id="Grupo_1112361" data-name="Grupo 1112361" transform="translate(0 14.383)">
          <path id="Trazado_904480" data-name="Trazado 904480" d="M11.084,287.16a3.812,3.812,0,0,0-.854-.1H9.054A1.554,1.554,0,0,0,7.5,288.616v9.632h2.572v-9.633A1.555,1.555,0,0,1,11.084,287.16Z" transform="translate(-7.5 -287.062)" fill="#e5646e"/>
        </g>
        <path id="Trazado_904481" data-name="Trazado 904481" d="M69.434,7.5a5.361,5.361,0,0,0-3.082,1,3.22,3.22,0,0,1-3.741,0,5.38,5.38,0,0,0-4.459-.831.67.67,0,0,0-.4.993,2.4,2.4,0,0,1-2.768,3.524.674.674,0,0,0-.884.621c0,.005,0,.01,0,.015a5.372,5.372,0,0,0,1.55,3.849h0a6.022,6.022,0,0,1,1.8,3.9l.489,7.1a2.371,2.371,0,0,0,4.729.015l.527-6.2a1.292,1.292,0,0,1,2.577,0l.527,6.2a2.371,2.371,0,0,0,4.729-.015l.484-7.019a6.228,6.228,0,0,1,1.809-3.975A5.389,5.389,0,0,0,69.434,7.5Zm-8.148,9.588a1.357,1.357,0,1,1,1.357-1.357A1.357,1.357,0,0,1,61.285,17.089Zm6.392,1.6a.8.8,0,1,1,.8-.8A.8.8,0,0,1,67.678,18.687Zm2.4-6.392a.8.8,0,1,1,.8-.8A.8.8,0,0,1,70.075,12.295Z" transform="translate(-51.697 -7.5)" fill="#e9f5ff"/>
        <g id="Grupo_1112363" data-name="Grupo 1112363" transform="translate(2.397)">
          <g id="Grupo_1112362" data-name="Grupo 1112362">
            <path id="Trazado_904482" data-name="Trazado 904482" d="M324.2,193.875a.8.8,0,0,0-.3.058.8.8,0,0,1,0,1.482.8.8,0,1,0,.3-1.54Z" transform="translate(-310.025 -184.286)" fill="#cfe8f9"/>
            <path id="Trazado_904483" data-name="Trazado 904483" d="M371.239,69.626a.8.8,0,0,0-.319.067.8.8,0,0,1,0,1.465.8.8,0,1,0,.319-1.531Z" transform="translate(-354.62 -66.43)" fill="#cfe8f9"/>
            <path id="Trazado_904484" data-name="Trazado 904484" d="M278.843,263.4l-.527-6.2a1.292,1.292,0,0,0-2.318-.684,1.287,1.287,0,0,1,.26.684l.527,6.2a2.37,2.37,0,0,0,3.393,1.958A2.37,2.37,0,0,1,278.843,263.4Z" transform="translate(-264.582 -243.215)" fill="#cfe8f9"/>
            <path id="Trazado_904485" data-name="Trazado 904485" d="M59.994,27.666l-.489-7.1a6.022,6.022,0,0,0-1.8-3.9h0a5.372,5.372,0,0,1-1.55-3.849c0-.005,0-.01,0-.015a.674.674,0,0,1,.884-.621A2.4,2.4,0,0,0,59.8,8.662a.67.67,0,0,1,.4-.993q.151-.039.306-.069a5.406,5.406,0,0,0-.986-.1,5.345,5.345,0,0,0-1.378.168.67.67,0,0,0-.4.993,2.4,2.4,0,0,1-2.768,3.524.674.674,0,0,0-.884.621c0,.005,0,.01,0,.015a5.372,5.372,0,0,0,1.55,3.849h0a6.022,6.022,0,0,1,1.8,3.9l.489,7.1a2.37,2.37,0,0,0,3.394,1.973A2.37,2.37,0,0,1,59.994,27.666Z" transform="translate(-54.093 -7.5)" fill="#cfe8f9"/>
          </g>
          <path id="Trazado_904486" data-name="Trazado 904486" d="M204.532,141.109a1.353,1.353,0,0,0-.521.1,1.358,1.358,0,0,1,0,2.507,1.357,1.357,0,1,0,.521-2.611Z" transform="translate(-196.298 -134.235)" fill="#cfe8f9"/>
        </g>
      </g>
      <g id="Grupo_1112365" data-name="Grupo 1112365" transform="translate(0.001 0)">
        <path id="Trazado_904487" data-name="Trazado 904487" d="M24.4,54.9H23.268A4.667,4.667,0,0,0,20.5,55.9l-.038.022.127-1.839a5.843,5.843,0,0,1,1.7-3.731,5.76,5.76,0,0,0,.531-7.474.386.386,0,1,0-.62.459,4.988,4.988,0,0,1-.459,6.471,6.613,6.613,0,0,0-1.921,4.222L19.638,56.6h0l-.307,4.45a1.985,1.985,0,0,1-3.96.009l-.526-6.2a1.678,1.678,0,0,0-3.346,0l-.527,6.2a1.985,1.985,0,0,1-3.96-.013l-.489-7.1a6.406,6.406,0,0,0-.376-1.764.386.386,0,1,0-.725.265A5.634,5.634,0,0,1,5.753,54l.132,1.919A4.428,4.428,0,0,0,3.117,54.9H1.941A1.942,1.942,0,0,0,0,56.845v9.632a.386.386,0,0,0,.386.386H15.569a.386.386,0,1,0,0-.772H.773V56.845a1.17,1.17,0,0,1,1.168-1.168H3.117a4.2,4.2,0,0,1,2.531,1.006l.3.174L6.242,61.1a2.757,2.757,0,0,0,5.5.021l.527-6.2a.906.906,0,0,1,1.808,0l.526,6.2a2.757,2.757,0,0,0,5.5-.017l.293-4.248.491-.287a4.019,4.019,0,0,1,2.383-.888H24.4a1.17,1.17,0,0,1,1.168,1.168v9.247H17.234a.386.386,0,0,0,0,.772h8.723a.386.386,0,0,0,.386-.386V56.845A1.942,1.942,0,0,0,24.4,54.9Z" transform="translate(-0.001 -40.522)"/>
        <path id="Trazado_904488" data-name="Trazado 904488" d="M295.092,187.56a1.185,1.185,0,1,0,1.185-1.185A1.186,1.186,0,0,0,295.092,187.56Zm1.6,0a.413.413,0,1,1-.413-.413A.414.414,0,0,1,296.69,187.56Z" transform="translate(-279.91 -176.786)"/>
        <path id="Trazado_904489" data-name="Trazado 904489" d="M161.734,133.609a1.743,1.743,0,1,0,1.743,1.743A1.745,1.745,0,0,0,161.734,133.609Zm0,2.715a.971.971,0,1,1,.971-.971A.973.973,0,0,1,161.734,136.324Z" transform="translate(-151.76 -126.735)"/>
        <path id="Trazado_904490" data-name="Trazado 904490" d="M48.26,9.833a5.65,5.65,0,0,1,.613.706.386.386,0,0,0,.623-.456,6.421,6.421,0,0,0-.691-.8h0A5.012,5.012,0,0,1,47.366,5.7a.288.288,0,0,1,.384-.259,2.783,2.783,0,0,0,3.213-4.092.284.284,0,0,1,.171-.42A4.965,4.965,0,0,1,52.324.772h.051a5.036,5.036,0,0,1,4.589,3.01.386.386,0,0,0,.707-.31,5.786,5.786,0,0,0-.648-1.118A3.6,3.6,0,0,0,59.461,1.7,4.967,4.967,0,0,1,62.322.771h.042a4.952,4.952,0,0,1,2.913.943.386.386,0,0,0,.451-.626,5.758,5.758,0,0,0-6.716-.016,2.833,2.833,0,0,1-3.293,0A5.766,5.766,0,0,0,50.94.18,1.056,1.056,0,0,0,50.3,1.747,2.012,2.012,0,0,1,47.979,4.7a1.082,1.082,0,0,0-.953.154,1.035,1.035,0,0,0-.432.83V5.7a5.736,5.736,0,0,0,1.654,4.118Z" transform="translate(-44.196 0)"/>
        <path id="Trazado_904491" data-name="Trazado 904491" d="M341.685,63.312a1.185,1.185,0,1,0,1.185-1.185A1.186,1.186,0,0,0,341.685,63.312Zm1.6,0a.413.413,0,1,1-.413-.413A.414.414,0,0,1,343.283,63.312Z" transform="translate(-324.106 -58.931)"/>
      </g>
    </g>
  </g>
</svg>
