<svg xmlns="http://www.w3.org/2000/svg" width="50" height="50" viewBox="0 0 50 50">
  <g id="Grupo_1111965" data-name="Grupo 1111965" transform="translate(-335.73 -3832.949)">
    <g id="Grupo_1098742" data-name="Grupo 1098742" transform="translate(335.781 3833)">
      <g id="Rectángulo_400898" data-name="Rectángulo 400898" transform="translate(-0.051 -0.051)" fill="#b4d1f0" stroke="#fff" stroke-width="3" opacity="0.859">
        <rect width="50" height="50" rx="25" stroke="none"/>
        <rect x="1.5" y="1.5" width="47" height="47" rx="23.5" fill="none"/>
      </g>
      <g id="Rectángulo_400907" data-name="Rectángulo 400907" transform="translate(-0.051 -0.051)" fill="none" stroke="#fff" stroke-width="3">
        <rect width="50" height="50" rx="25" stroke="none"/>
        <rect x="1.5" y="1.5" width="47" height="47" rx="23.5" fill="none"/>
      </g>
    </g>
    <g id="Grupo_1112384" data-name="Grupo 1112384" transform="translate(313.438 3835.04)">
      <g id="Grupo_1112379" data-name="Grupo 1112379" transform="translate(33.495 9.759)">
        <g id="Grupo_1112378" data-name="Grupo 1112378" transform="translate(0 0)">
          <g id="Grupo_1112370" data-name="Grupo 1112370" transform="translate(7.117)">
            <g id="Grupo_1112368" data-name="Grupo 1112368">
              <path id="Trazado_904492" data-name="Trazado 904492" d="M332.527,43.931a1,1,0,0,0-1,1v1l.133.062h1.748l.117-.062v-1A1,1,0,0,0,332.527,43.931Z" transform="translate(-320.164 -43.931)" fill="#c96e59"/>
              <g id="Grupo_1112367" data-name="Grupo 1112367" transform="translate(12.278)">
                <path id="Trazado_904493" data-name="Trazado 904493" d="M346.352,43.931c-.029,0-.057,0-.085,0V45.99h.966l.117-.062v-1A1,1,0,0,0,346.352,43.931Z" transform="translate(-346.267 -43.931)" fill="#bb5d4c"/>
              </g>
              <path id="Trazado_904494" data-name="Trazado 904494" d="M150.137,45.99l.124-.062v-1a1,1,0,1,0-2,0v1l.126.062Z" transform="translate(-148.264 -43.931)" fill="#c96e59"/>
              <path id="Trazado_904495" data-name="Trazado 904495" d="M163,45.99h.96l.124-.062v-1a1,1,0,0,0-1-1c-.029,0-.057,0-.085,0Z" transform="translate(-162.089 -43.931)" fill="#bb5d4c"/>
            </g>
            <path id="Trazado_904496" data-name="Trazado 904496" d="M159.628,76.139v2.795h-9.367V76.139h-2v3.793a1,1,0,0,0,1,1h2.686v2.179h5.992V80.931h2.686a1,1,0,0,0,1-1V76.139Z" transform="translate(-148.264 -74.142)" fill="#fe4fb7"/>
            <g id="Grupo_1112369" data-name="Grupo 1112369" transform="translate(0.914 1.997)">
              <path id="Trazado_904497" data-name="Trazado 904497" d="M163.623,78.934h.463V76.139H163v2.174A.62.62,0,0,0,163.623,78.934Z" transform="translate(-163.003 -76.139)" fill="#fe2aa8"/>
              <path id="Trazado_904498" data-name="Trazado 904498" d="M290.528,76.139v3.3a.62.62,0,0,1-.62.62h-2.445a.62.62,0,0,0-.62.62v2.427h1.083V80.931h2.686a1,1,0,0,0,1-1V76.139Z" transform="translate(-279.164 -76.139)" fill="#fe2aa8"/>
            </g>
            <circle id="Elipse_12145" data-name="Elipse 12145" cx="2.477" cy="2.477" r="2.477" transform="translate(4.204 0.558)" fill="#c96e59"/>
            <path id="Trazado_904499" data-name="Trazado 904499" d="M227.612,53.005a2.476,2.476,0,0,1-1.887,4.08c-.051,0-.1,0-.15,0a2.476,2.476,0,1,0,2.037-4.075Z" transform="translate(-220.781 -52.442)" fill="#bb5d4c"/>
          </g>
          <g id="Grupo_1112374" data-name="Grupo 1112374" transform="translate(3.153 8.906)">
            <g id="Grupo_1112371" data-name="Grupo 1112371" transform="translate(2.909)">
              <path id="Trazado_904500" data-name="Trazado 904500" d="M292.276,191.852a5.448,5.448,0,0,1-3.389,5.056l-.038.016v1.3a.362.362,0,0,0,.362.362h3.448a4.708,4.708,0,0,1,1.889.394V187.9a.352.352,0,0,0-.352-.352h-1.919v4.3Z" transform="translate(-279.076 -187.55)" fill="#c57a44"/>
              <path id="Trazado_904501" data-name="Trazado 904501" d="M133.143,198.587h3.448a.362.362,0,0,0,.362-.362v-1.3l-.038-.016a5.448,5.448,0,0,1-3.389-5.056v-4.3h-1.919a.352.352,0,0,0-.352.352v11.08A4.707,4.707,0,0,1,133.143,198.587Z" transform="translate(-131.254 -187.55)" fill="#d88a55"/>
            </g>
            <g id="Grupo_1112372" data-name="Grupo 1112372" transform="translate(0 10.975)">
              <path id="Trazado_904502" data-name="Trazado 904502" d="M84.346,369.34v3.282a.6.6,0,0,0,.6.6h20.089a.6.6,0,0,0,.6-.6V369.34a4.8,4.8,0,0,0-4.8-4.8H89.143A4.8,4.8,0,0,0,84.346,369.34Z" transform="translate(-84.346 -364.543)" fill="#05e39c"/>
            </g>
            <path id="Trazado_904503" data-name="Trazado 904503" d="M193.939,339.481v-1.337a5.449,5.449,0,0,1-4.2,0v1.337a.3.3,0,0,1-.3.3H187.6v.782a4.241,4.241,0,0,0,4.241,4.241h0a4.241,4.241,0,0,0,4.241-4.241v-.782h-1.843A.3.3,0,0,1,193.939,339.481Z" transform="translate(-181.196 -328.806)" fill="#ffb09e"/>
            <path id="Trazado_904504" data-name="Trazado 904504" d="M102.725,370.777v5.5a.62.62,0,0,1-.62.62H84.346v1.571a.6.6,0,0,0,.6.6h20.089a.6.6,0,0,0,.6-.6v-3.282A4.8,4.8,0,0,0,102.725,370.777Z" transform="translate(-84.346 -359.415)" fill="#0ed290"/>
            <path id="Trazado_904505" data-name="Trazado 904505" d="M342.033,219.3H341.2a4.794,4.794,0,0,1,.027.5v1.829a5.444,5.444,0,0,1-.183,1.4h.988a1.866,1.866,0,0,0,0-3.732Z" transform="translate(-325.127 -217.334)" fill="#ffb09e"/>
            <path id="Trazado_904506" data-name="Trazado 904506" d="M127.6,221.637v-1.829a4.922,4.922,0,0,1,.026-.5H126.8a1.866,1.866,0,1,0,0,3.732h.988A5.447,5.447,0,0,1,127.6,221.637Z" transform="translate(-122.412 -217.335)" fill="#ffcebf"/>
            <path id="Trazado_904507" data-name="Trazado 904507" d="M166.876,187.55v4.3a5.526,5.526,0,0,0,5.526,5.526h0a5.526,5.526,0,0,0,5.526-5.526v-4.3Z" transform="translate(-161.758 -187.55)" fill="#ffdfcf"/>
            <g id="Grupo_1112373" data-name="Grupo 1112373" transform="translate(10.922)">
              <path id="Trazado_904508" data-name="Trazado 904508" d="M263.554,187.55v4.866a5.526,5.526,0,0,1-3.079,4.956,5.527,5.527,0,0,0,5.249-5.52v-4.3Z" transform="translate(-260.475 -187.55)" fill="#ffcebf"/>
            </g>
          </g>
          <g id="Grupo_1112377" data-name="Grupo 1112377" transform="translate(0 1.818)">
            <path id="Trazado_904509" data-name="Trazado 904509" d="M408.485,78.009l-3.523,4.533a.189.189,0,0,1-.335-.15l.709-4a.189.189,0,0,0-.186-.223h-1.062a.19.19,0,0,1-.149-.306l3.523-4.533a.189.189,0,0,1,.335.15l-.709,4a.189.189,0,0,0,.186.223h1.062A.19.19,0,0,1,408.485,78.009Z" transform="translate(-380.931 -73.256)" fill="#ffe177"/>
            <g id="Grupo_1112375" data-name="Grupo 1112375" transform="translate(23.693 0)">
              <path id="Trazado_904510" data-name="Trazado 904510" d="M435.634,76.974a.62.62,0,0,0,.611.728h.788a.189.189,0,0,1-.186-.223l.709-4a.189.189,0,0,0-.335-.149L436,74.9Z" transform="translate(-434.382 -73.255)" fill="#ffd15b"/>
              <path id="Trazado_904511" data-name="Trazado 904511" d="M419.3,144.969h-.915l-2.543,3.271-.251,1.418a.189.189,0,0,0,.335.15l3.523-4.533A.19.19,0,0,0,419.3,144.969Z" transform="translate(-415.588 -140.522)" fill="#ffd15b"/>
            </g>
            <path id="Trazado_904512" data-name="Trazado 904512" d="M33.536,78.008l3.523,4.533a.189.189,0,0,0,.335-.15l-.709-4a.189.189,0,0,1,.186-.223h1.062a.19.19,0,0,0,.149-.306l-3.523-4.533a.189.189,0,0,0-.335.15l.709,4a.189.189,0,0,1-.186.223H33.685A.19.19,0,0,0,33.536,78.008Z" transform="translate(-33.495 -73.255)" fill="#ffe177"/>
            <g id="Grupo_1112376" data-name="Grupo 1112376" transform="translate(0.725)">
              <path id="Trazado_904513" data-name="Trazado 904513" d="M66.442,152.706a.189.189,0,0,1,.186-.223H65.84a.62.62,0,0,0-.611.728l.368,2.077,1.219,1.568a.189.189,0,0,0,.335-.149Z" transform="translate(-63.978 -147.57)" fill="#ffd15b"/>
              <path id="Trazado_904514" data-name="Trazado 904514" d="M49.046,77.861l-3.523-4.533a.189.189,0,0,0-.335.15l.251,1.418,2.543,3.271H48.9A.19.19,0,0,0,49.046,77.861Z" transform="translate(-45.185 -73.255)" fill="#ffd15b"/>
            </g>
          </g>
        </g>
      </g>
      <g id="Grupo_1112383" data-name="Grupo 1112383" transform="translate(33.495 7.5)">
        <g id="Grupo_1112380" data-name="Grupo 1112380" transform="translate(11.151)">
          <g id="_x3C_Radial_Repeat_x3E__00000168811203457196759520000012082568057645907076_" transform="translate(0 0.709)">
            <line id="Línea_649" data-name="Línea 649" x2="0.188" y2="0.325" fill="none" stroke="#000" stroke-linecap="round" stroke-linejoin="round" stroke-miterlimit="10" stroke-width="1"/>
          </g>
          <g id="_x3C_Radial_Repeat_x3E__00000079461506788030874390000002025893729448935868_" transform="translate(2.647)">
            <line id="Línea_650" data-name="Línea 650" y2="0.375" fill="none" stroke="#000" stroke-linecap="round" stroke-linejoin="round" stroke-miterlimit="10" stroke-width="1"/>
          </g>
          <g id="_x3C_Radial_Repeat_x3E__00000158012930250089939230000002489992821269096603_" transform="translate(5.106 0.709)">
            <line id="Línea_651" data-name="Línea 651" x1="0.188" y2="0.325" fill="none" stroke="#000" stroke-linecap="round" stroke-linejoin="round" stroke-miterlimit="10" stroke-width="1"/>
          </g>
        </g>
        <g id="Grupo_1112381" data-name="Grupo 1112381" transform="translate(19.324 11.165)">
          <line id="Línea_652" data-name="Línea 652" y1="6.383" transform="translate(2.209 4.979)" fill="none" stroke="#000" stroke-linejoin="round" stroke-miterlimit="10" stroke-width="1"/>
          <path id="Trazado_904515" data-name="Trazado 904515" d="M347.334,190.241V187.9a.352.352,0,0,0-.352-.352h-1.857" transform="translate(-345.125 -187.55)" fill="none" stroke="#000" stroke-linejoin="round" stroke-miterlimit="10" stroke-width="1"/>
        </g>
        <g id="Grupo_1112382" data-name="Grupo 1112382" transform="translate(6.062 11.165)">
          <path id="Trazado_904516" data-name="Trazado 904516" d="M133.463,187.55h-1.857a.352.352,0,0,0-.352.352v2.34" transform="translate(-131.254 -187.55)" fill="none" stroke="#000" stroke-linejoin="round" stroke-miterlimit="10" stroke-width="1"/>
          <line id="Línea_653" data-name="Línea 653" y2="6.383" transform="translate(0 4.979)" fill="none" stroke="#000" stroke-linejoin="round" stroke-miterlimit="10" stroke-width="1"/>
        </g>
        <path id="Trazado_904517" data-name="Trazado 904517" d="M189.742,339.4v1.259a.3.3,0,0,1-.3.3H187.6" transform="translate(-178.043 -318.817)" fill="none" stroke="#000" stroke-linejoin="round" stroke-miterlimit="10" stroke-width="1"/>
        <path id="Trazado_904518" data-name="Trazado 904518" d="M291.99,340.957h-1.843a.3.3,0,0,1-.3-.3V339.4" transform="translate(-273.951 -318.817)" fill="none" stroke="#000" stroke-linejoin="round" stroke-miterlimit="10" stroke-width="1"/>
        <path id="Trazado_904519" data-name="Trazado 904519" d="M342.24,223.036h.914a1.866,1.866,0,0,0,0-3.732h-.735" transform="translate(-323.095 -206.17)" fill="none" stroke="#000" stroke-linejoin="round" stroke-miterlimit="10" stroke-width="1"/>
        <path id="Trazado_904520" data-name="Trazado 904520" d="M127.531,219.3H126.8a1.866,1.866,0,1,0,0,3.732h.914" transform="translate(-119.26 -206.169)" fill="none" stroke="#000" stroke-linejoin="round" stroke-miterlimit="10" stroke-width="1"/>
        <line id="Línea_654" data-name="Línea 654" y2="0.409" transform="translate(11.546 13.707)" fill="none" stroke="#000" stroke-linecap="round" stroke-linejoin="round" stroke-miterlimit="10" stroke-width="1"/>
        <line id="Línea_655" data-name="Línea 655" y2="0.409" transform="translate(16.049 13.707)" fill="none" stroke="#000" stroke-linecap="round" stroke-linejoin="round" stroke-miterlimit="10" stroke-width="1"/>
        <path id="Trazado_904521" data-name="Trazado 904521" d="M243.219,233.725l-.442-.21a.707.707,0,0,1-.024-1.265h0a.869.869,0,0,0,.466-.77v-.293" transform="translate(-229.422 -217.316)" fill="none" stroke="#000" stroke-linecap="round" stroke-linejoin="round" stroke-miterlimit="10" stroke-width="1"/>
        <path id="Trazado_904522" data-name="Trazado 904522" d="M235.76,297.938a3,3,0,0,1-2.866,0" transform="translate(-220.53 -279.928)" fill="none" stroke="#000" stroke-linecap="round" stroke-linejoin="round" stroke-miterlimit="10" stroke-width="1"/>
        <path id="Trazado_904523" data-name="Trazado 904523" d="M91.067,366.938a4.228,4.228,0,0,1-.319-1.614v-.782H89.143a4.8,4.8,0,0,0-4.8,4.8v3.282a.6.6,0,0,0,.6.6h20.089a.6.6,0,0,0,.6-.6v-3.282a4.8,4.8,0,0,0-4.8-4.8H99.232v.782a4.241,4.241,0,0,1-4.241,4.241h0a4.222,4.222,0,0,1-2.61-.9" transform="translate(-81.193 -342.402)" fill="none" stroke="#000" stroke-linecap="round" stroke-linejoin="round" stroke-miterlimit="10" stroke-width="1"/>
        <circle id="Elipse_12146" data-name="Elipse 12146" cx="2.477" cy="2.477" r="2.477" transform="translate(11.321 2.817)" fill="none" stroke="#000" stroke-linecap="round" stroke-linejoin="round" stroke-miterlimit="10" stroke-width="1"/>
        <path id="Trazado_904524" data-name="Trazado 904524" d="M404.677,76.911l-.738.949a.19.19,0,0,0,.149.306h1.062a.189.189,0,0,1,.186.223l-.709,4a.189.189,0,0,0,.335.15l3.523-4.533a.19.19,0,0,0-.149-.307h-1.062a.189.189,0,0,1-.186-.223l.709-4a.189.189,0,0,0-.335-.15L406.009,75.2" transform="translate(-380.93 -69.176)" fill="none" stroke="#000" stroke-linecap="round" stroke-linejoin="round" stroke-miterlimit="10" stroke-width="1"/>
        <path id="Trazado_904525" data-name="Trazado 904525" d="M33.536,78.008l3.523,4.533a.189.189,0,0,0,.335-.15l-.709-4a.189.189,0,0,1,.186-.223h1.062a.19.19,0,0,0,.149-.306l-3.523-4.533a.189.189,0,0,0-.335.15l.709,4a.189.189,0,0,1-.186.223H33.685A.19.19,0,0,0,33.536,78.008Z" transform="translate(-33.495 -69.177)" fill="none" stroke="#000" stroke-linecap="round" stroke-linejoin="round" stroke-miterlimit="10" stroke-width="1"/>
        <path id="Trazado_904526" data-name="Trazado 904526" d="M153.2,48.723h-2.939V44.93a1,1,0,1,0-2,0v2.129" transform="translate(-141.147 -41.672)" fill="none" stroke="#000" stroke-linecap="round" stroke-linejoin="round" stroke-miterlimit="10" stroke-width="1"/>
        <path id="Trazado_904527" data-name="Trazado 904527" d="M148.264,49.229v.492a1,1,0,0,0,1,1h2.686v2.117h5.992V50.72h2.686a1,1,0,0,0,1-1V44.93a1,1,0,1,0-2,0v3.793h-2.939" transform="translate(-141.147 -41.672)" fill="none" stroke="#000" stroke-linecap="round" stroke-linejoin="round" stroke-miterlimit="10" stroke-width="1"/>
        <line id="Línea_656" data-name="Línea 656" x1="1.997" transform="translate(18.481 4.256)" fill="none" stroke="#000" stroke-linejoin="round" stroke-miterlimit="10" stroke-width="1"/>
        <line id="Línea_657" data-name="Línea 657" x1="1.997" transform="translate(7.117 4.256)" fill="none" stroke="#000" stroke-linejoin="round" stroke-miterlimit="10" stroke-width="1"/>
        <path id="Trazado_904528" data-name="Trazado 904528" d="M166.876,187.55v4.3a5.526,5.526,0,0,0,5.526,5.526h0a5.526,5.526,0,0,0,5.526-5.526v-4.3Z" transform="translate(-158.605 -176.385)" fill="none" stroke="#000" stroke-linecap="round" stroke-linejoin="round" stroke-miterlimit="10" stroke-width="1"/>
      </g>
    </g>
  </g>
</svg>
