<svg xmlns="http://www.w3.org/2000/svg" xmlns:xlink="http://www.w3.org/1999/xlink" width="75.489" height="75.489" viewBox="0 0 75.489 75.489">
  <defs>
    <filter id="Rectángulo_400898" x="0" y="0" width="75.489" height="75.489" filterUnits="userSpaceOnUse">
      <feOffset dy="3" input="SourceAlpha"/>
      <feGaussianBlur stdDeviation="3" result="blur"/>
      <feFlood flood-opacity="0.161"/>
      <feComposite operator="in" in2="blur"/>
      <feComposite in="SourceGraphic"/>
    </filter>
  </defs>
  <g id="Grupo_1111958" data-name="Grupo 1111958" transform="translate(-326.73 -3826.949)">
    <g id="Grupo_1098742" data-name="Grupo 1098742" transform="translate(335.73 3832.949)">
      <g transform="matrix(1, 0, 0, 1, -9, -6)" filter="url(#Rectángulo_400898)">
        <g id="Rectángulo_400898-2" data-name="Rectángulo 400898" transform="translate(9 6)" fill="#b4d1f0" stroke="#fff" stroke-width="3" opacity="0.859">
          <rect width="57.489" height="57.489" rx="28.744" stroke="none"/>
          <rect x="1.5" y="1.5" width="54.489" height="54.489" rx="27.244" fill="none"/>
        </g>
      </g>
      <g id="Rectángulo_400907" data-name="Rectángulo 400907" transform="translate(0 0)" fill="none" stroke="#fff" stroke-width="3">
        <rect width="57.489" height="57.489" rx="28.744" stroke="none"/>
        <rect x="1.5" y="1.5" width="54.489" height="54.489" rx="27.244" fill="none"/>
      </g>
    </g>
    <g id="Page-1" transform="translate(348.42 3844.371)">
      <g id="_038---Heart-Pressure" data-name="038---Heart-Pressure" transform="translate(0.022 0.054)">
        <g id="Icons" transform="translate(0.563 0.544)">
          <path id="Shape" d="M24.058,10.886c-.622-.23-1.435.444-1.826,1.5s-.207,2.086.4,2.322c-3.284-1.037-5.18-.478-6.124.063v.006c1.959-.2,3.463,1.59,4.315,3.123a16.189,16.189,0,0,1,1.613,9.472A23.905,23.905,0,0,1,20.9,33.7a7,7,0,0,1-2.771,3.641,7.006,7.006,0,0,1-5.278.357,21.56,21.56,0,0,1-4.275-1.665C.234,31.863-1.633,22.455,1.3,17.333A6.719,6.719,0,0,1,4.993,14.2a7.329,7.329,0,0,1,3.071-.4,5.865,5.865,0,0,1,2,.559l.052-.069v-.006C11.308,12.677,15.5,7.913,22.18,10.1a12.937,12.937,0,0,1,1.878.784Z" transform="translate(0 -4.617)" fill="#ef314c"/>
          <path id="Shape-2" data-name="Shape" d="M26.763,18.808a6.369,6.369,0,0,1,2.946,2.938,16.189,16.189,0,0,1,1.613,9.472,23.905,23.905,0,0,1-1.533,6.32,7,7,0,0,1-2.771,3.641,5.162,5.162,0,0,1-1.968.644,5.98,5.98,0,0,0,3.7-.644,7,7,0,0,0,2.771-3.641,23.906,23.906,0,0,0,1.533-6.32,16.189,16.189,0,0,0-1.613-9.472c-.853-1.533-2.356-3.324-4.315-3.123v-.006Z" transform="translate(-10.618 -8.462)" fill="#bb193b"/>
          <path id="Shape-3" data-name="Shape" d="M35.381,10.107a10.477,10.477,0,0,0-4.239-.524,11.152,11.152,0,0,1,2.511.524,12.937,12.937,0,0,1,1.878.784c-.622-.23-1.435.444-1.826,1.5a2.557,2.557,0,0,0-.067,1.821,12.815,12.815,0,0,1,2.193.5c-.6-.236-.789-1.273-.4-2.322s1.2-1.734,1.826-1.5A12.937,12.937,0,0,0,35.381,10.107Z" transform="translate(-13.2 -4.622)" fill="#bb193b"/>
          <path id="Shape-4" data-name="Shape" d="M40.67,14.172c-.38,1.043-1.181,1.711-1.8,1.51a.052.052,0,0,1-.029-.006c-.006,0-.006-.006-.012-.006-.6-.236-.789-1.273-.4-2.322s1.2-1.734,1.826-1.5.8,1.273.409,2.328Z" transform="translate(-16.203 -5.576)" fill="#37474f"/>
          <path id="Shape-5" data-name="Shape" d="M11.9,3.128V5.052a19.607,19.607,0,0,1-.83,6.516v.006l-.052.069a5.865,5.865,0,0,0-2-.559,7.329,7.329,0,0,0-3.071.4,6.719,6.719,0,0,0-3.693,3.134,5.687,5.687,0,0,1,2.472-5.4c1.072-.732,1.36-2.426,1.417-3.324.046-.691,0-1.619,0-2.76H6.14c.04.645,1.314,1.158,2.875,1.158s2.835-.513,2.875-1.158Z" transform="translate(-0.945 -1.901)" fill="#e91e63"/>
          <path id="Shape-6" data-name="Shape" d="M17.22,3.128c-.03.475-.732.877-1.723,1.057v.868a20.814,20.814,0,0,1-.7,6.1,5.884,5.884,0,0,1,1.543.494l.052-.069v-.006a19.607,19.607,0,0,0,.83-6.516V3.128Z" transform="translate(-6.273 -1.901)" fill="#ad1457"/>
          <path id="Shape-7" data-name="Shape" d="M14.767,2.191a.073.073,0,0,1-.006.035c-.04.645-1.314,1.158-2.875,1.158S9.052,2.87,9.012,2.225a.073.073,0,0,1-.006-.035C9.006,1.534,10.3,1,11.887,1S14.767,1.534,14.767,2.191Z" transform="translate(-3.817 -0.998)" fill="#37474f"/>
          <path id="Shape-8" data-name="Shape" d="M45.284,32.642A8.642,8.642,0,1,1,36.642,24,8.642,8.642,0,0,1,45.284,32.642Z" transform="translate(-11.868 -10.747)" fill="#00bcd4"/>
          <path id="Shape-9" data-name="Shape" d="M42.364,24c-.292,0-.58.016-.864.044a8.636,8.636,0,0,1,0,17.193c.285.028.573.048.864.048a8.642,8.642,0,1,0,0-17.284Z" transform="translate(-17.59 -10.747)" fill="#00838f"/>
          <circle id="Oval" cx="1.728" cy="1.728" r="1.728" transform="translate(23.046 20.166)" fill="#cfd8dc"/>
          <path id="Shape-10" data-name="Shape" d="M43.609,53.46v1.463a1.728,1.728,0,0,1-1.728,1.728H40.728A1.728,1.728,0,0,1,39,54.923V53.46A8.691,8.691,0,0,0,43.609,53.46Z" transform="translate(-16.53 -23.234)" fill="#9e9e9e"/>
          <path id="Shape-11" data-name="Shape" d="M42.94,53.752v1.172a1.723,1.723,0,0,1-1.44,1.7,1.757,1.757,0,0,0,.288.029H42.94a1.728,1.728,0,0,0,1.728-1.728V53.46A8.7,8.7,0,0,1,42.94,53.752Z" transform="translate(-17.59 -23.234)" fill="#707070"/>
        </g>
        <g id="Icons_copy">
          <path id="Shape-12" data-name="Shape" d="M19.666,31.731c-1.223,1.49-3.615,3.086-10.25-.242A14.361,14.361,0,0,1,1.191,17.761a9.852,9.852,0,0,1,1.095-4,.568.568,0,0,0,.148-.255,6.114,6.114,0,0,1,3.323-2.779,6.78,6.78,0,0,1,2.835-.37,5.286,5.286,0,0,1,1.807.5c2.99,1.45,4.157,5.408,4.17,5.447a.576.576,0,0,0,1.107-.316c-.049-.173-1.163-3.972-4.157-5.828A9.922,9.922,0,0,1,22.586,6.632c.18.058.36.133.54.2a3.709,3.709,0,0,0-1.069,2.954,7.231,7.231,0,0,0-5.239.461l-.025.014a3.191,3.191,0,0,0-.935.765.576.576,0,0,0,.461.915.582.582,0,0,0,.457-.221,2.277,2.277,0,0,1,.49-.4A3.667,3.667,0,0,1,20.137,13a.576.576,0,0,0,.9-.715,6.309,6.309,0,0,0-1.771-1.576,10.353,10.353,0,0,1,3.749.519l.007,0a1.824,1.824,0,0,0,.461.082,2.579,2.579,0,0,0,2.106-1.925,3.482,3.482,0,0,0,.2-1.776A1.658,1.658,0,0,0,24.9,6.35a13.746,13.746,0,0,0-1.954-.813,10.662,10.662,0,0,0-11.12,2.6,27.828,27.828,0,0,0,.288-4.393V1.822c0-1.16-1.74-1.768-3.457-1.768S5.2.662,5.2,1.823c0,.413.006.8.011,1.152.01.617.018,1.152-.01,1.569-.034.513-.218,2.239-1.169,2.888A6.246,6.246,0,0,0,1.3,13.149,10.974,10.974,0,0,0,.044,17.677,15.513,15.513,0,0,0,8.9,32.518a16.271,16.271,0,0,0,7,2.067,5.71,5.71,0,0,0,4.658-2.124.576.576,0,1,0-.89-.732ZM24.512,9c-.314.852-.874,1.24-1.085,1.162-.094-.035-.179-.2-.217-.413a2.349,2.349,0,0,1,.146-1.176,2.354,2.354,0,0,1,.653-.988.691.691,0,0,1,.379-.182.163.163,0,0,1,.058.009c.093.035.179.2.217.414A2.352,2.352,0,0,1,24.512,9ZM8.655,1.206a3.294,3.294,0,0,1,2.3.617,3.289,3.289,0,0,1-2.3.618,3.431,3.431,0,0,1-2.3-.6V1.838a3.165,3.165,0,0,1,2.3-.631ZM4.676,8.387C6.02,7.471,6.289,5.448,6.347,4.622c.027-.411.023-.9.016-1.444a6.022,6.022,0,0,0,2.29.415,6,6,0,0,0,2.3-.421v.576a20.59,20.59,0,0,1-.634,5.827A6.421,6.421,0,0,0,8.7,9.2a7.967,7.967,0,0,0-3.311.424A6.986,6.986,0,0,0,2.61,11.382,4.864,4.864,0,0,1,4.676,8.387Z" transform="translate(-0.022 -0.054)"/>
          <path id="Shape-13" data-name="Shape" d="M7.831,20.446c-2.151.718-3.565,2.972-3.781,6.028a.576.576,0,0,0,.534.615h.041a.576.576,0,0,0,.576-.535c.182-2.575,1.3-4.451,3-5.017a.577.577,0,0,0-.365-1.095Z" transform="translate(-1.729 -8.683)" fill="#fff"/>
          <g id="Grupo_1112385" data-name="Grupo 1112385" transform="translate(16.117 13.22)">
            <path id="Shape-14" data-name="Shape" d="M37.217,23a9.215,9.215,0,0,0-2.881,17.969v1.043a2.3,2.3,0,0,0,2.3,2.3h1.152a2.3,2.3,0,0,0,2.3-2.3V40.969A9.215,9.215,0,0,0,37.217,23Zm1.728,19.013a1.152,1.152,0,0,1-1.152,1.152H36.641a1.152,1.152,0,0,1-1.152-1.152v-.744a8.963,8.963,0,0,0,3.457,0Zm-1.152-1.758V39.132a.576.576,0,1,0-1.152,0v1.123a8.066,8.066,0,0,1-7.461-7.461H30.3a.576.576,0,0,0,0-1.152H29.18a8.066,8.066,0,0,1,7.461-7.461V25.3a.576.576,0,0,0,1.152,0V24.182a8.066,8.066,0,0,1,7.461,7.461H44.131a.576.576,0,1,0,0,1.152h1.123A8.066,8.066,0,0,1,37.793,40.255Z" transform="translate(-27.997 -23)"/>
            <path id="Shape-15" data-name="Shape" d="M46.506,30.174l-3.039,3.039a2.274,2.274,0,0,0-1.163-.327,2.3,2.3,0,1,0,2.3,2.3,2.274,2.274,0,0,0-.327-1.163l3.039-3.039a.576.576,0,0,0-.815-.815Zm-4.2,6.169a1.152,1.152,0,1,1,1.064-.712,1.152,1.152,0,0,1-1.064.712Z" transform="translate(-33.084 -25.972)"/>
          </g>
        </g>
      </g>
    </g>
  </g>
</svg>
