<svg xmlns="http://www.w3.org/2000/svg" xmlns:xlink="http://www.w3.org/1999/xlink" width="75.489" height="75.489" viewBox="0 0 75.489 75.489">
  <defs>
    <filter id="Rectángulo_400898" x="0" y="0" width="75.489" height="75.489" filterUnits="userSpaceOnUse">
      <feOffset dy="3" input="SourceAlpha"/>
      <feGaussianBlur stdDeviation="3" result="blur"/>
      <feFlood flood-opacity="0.161"/>
      <feComposite operator="in" in2="blur"/>
      <feComposite in="SourceGraphic"/>
    </filter>
  </defs>
  <g id="Grupo_1111987" data-name="Grupo 1111987" transform="translate(-326.73 -3826.949)">
    <g id="Grupo_1098742" data-name="Grupo 1098742" transform="translate(335.73 3832.949)">
      <g transform="matrix(1, 0, 0, 1, -9, -6)" filter="url(#Rectángulo_400898)">
        <g id="Rectángulo_400898-2" data-name="Rectángulo 400898" transform="translate(9 6)" fill="#b4d1f0" stroke="#fff" stroke-width="3" opacity="0.859">
          <rect width="57.489" height="57.489" rx="28.744" stroke="none"/>
          <rect x="1.5" y="1.5" width="54.489" height="54.489" rx="27.244" fill="none"/>
        </g>
      </g>
      <g id="Rectángulo_400907" data-name="Rectángulo 400907" transform="translate(0 0)" fill="none" stroke="#fff" stroke-width="3">
        <rect width="57.489" height="57.489" rx="28.744" stroke="none"/>
        <rect x="1.5" y="1.5" width="54.489" height="54.489" rx="27.244" fill="none"/>
      </g>
    </g>
    <g id="Page-1" transform="translate(344.5 3841.949)">
      <g id="_052---Cancer-Research" data-name="052---Cancer-Research" transform="translate(0 0)">
        <circle id="Oval" cx="14" cy="14" r="14" transform="translate(6 6)" fill="#ef314c"/>
        <path id="Path" d="M29.5,9c-.337,0-.667.027-1,.051a13.984,13.984,0,0,1,0,27.9c.333.024.663.051,1,.051a14,14,0,1,0,0-28Z" transform="translate(-9.5 -3)" fill="#bb193b" fill-rule="evenodd"/>
        <path id="Path-2" data-name="Path" d="M37.287,36.433l-1.22,2.827a.569.569,0,0,1-.947.16L30,33.76l2.66-2.94,4.527,5.007A.577.577,0,0,1,37.287,36.433Z" transform="translate(-10 -10.273)" fill="#02a9f4" fill-rule="evenodd"/>
        <path id="Path-3" data-name="Path" d="M38.017,35.827,33.49,30.82l-1,1.105,3.527,3.9a.577.577,0,0,1,.1.607L35.19,38.58l.76.84a.569.569,0,0,0,.947-.16l1.22-2.827a.577.577,0,0,0-.1-.607Z" transform="translate(-10.83 -10.273)" fill="#0377bc" fill-rule="evenodd"/>
        <path id="Path-4" data-name="Path" d="M32.453,16.86l-1.38,1.52a5.933,5.933,0,0,0-3.527-.967,5.933,5.933,0,0,0-3.527.967l-1.38-1.52A5.055,5.055,0,0,1,27.547,14,5.055,5.055,0,0,1,32.453,16.86Z" transform="translate(-7.547 -4.667)" fill="#0377bc" fill-rule="evenodd"/>
        <path id="Path-5" data-name="Path" d="M32.121,22.51a1.739,1.739,0,0,1-.44,1.167l-2.687,2.967-2.66,2.94-5.12,5.66a.569.569,0,0,1-.947-.16l-1.22-2.827a.577.577,0,0,1,.1-.607l4.527-5.007,2.66-2.933,3.527-3.9,1.38-1.52a9.89,9.89,0,0,1,.88,4.22Z" transform="translate(-6.334 -6.097)" fill="#02a9f4" fill-rule="evenodd"/>
        <path id="Path-6" data-name="Path" d="M31.727,18.29l-1.38,1.52-.053.059a11.451,11.451,0,0,1,.313,2.641,1.739,1.739,0,0,1-.44,1.167L27.48,26.643l-2.66,2.94L20.46,34.4l.293.68a.569.569,0,0,0,.947.16l5.12-5.66,2.66-2.94,2.687-2.967a1.739,1.739,0,0,0,.44-1.167A9.89,9.89,0,0,0,31.727,18.29Z" transform="translate(-6.82 -6.097)" fill="#0377bc" fill-rule="evenodd"/>
        <path id="Path-7" data-name="Path" d="M27.106,23.71l-2.66,2.933L21.76,23.677a1.739,1.739,0,0,1-.44-1.167,9.89,9.89,0,0,1,.88-4.22l1.38,1.52Z" transform="translate(-7.106 -6.097)" fill="#02a9f4" fill-rule="evenodd"/>
        <path id="Path-8" data-name="Path" d="M23.737,19.81l-1.38-1.52a7.681,7.681,0,0,0-.567,1.579l3.473,3.841L23.6,25.54l1,1.1,2.659-2.933Z" transform="translate(-7.263 -6.097)" fill="#0377bc" fill-rule="evenodd"/>
        <g id="Grupo_1112388" data-name="Grupo 1112388">
          <path id="Shape" d="M39.733,16.8a.667.667,0,0,0-.933.133l-1.8,2.4H34.65a14.558,14.558,0,0,0-1.633-6.079l2.039-1.177,2.759,1.179a.667.667,0,0,0,.523-1.227l-2.6-1.113L36.072,8.1a.667.667,0,1,0-1.323-.16l-.359,2.979L32.349,12.1A14.777,14.777,0,0,0,27.9,7.652l1.178-2.041,2.978-.359A.667.667,0,1,0,31.9,3.929l-2.813.338-1.113-2.6a.667.667,0,1,0-1.226.523l1.178,2.759L26.745,6.983A14.558,14.558,0,0,0,20.667,5.35V3l2.4-1.8a.667.667,0,0,0-.8-1.067L20,1.833,17.733.133a.667.667,0,0,0-.8,1.067l2.4,1.8V5.35a14.558,14.558,0,0,0-6.079,1.633L12.077,4.944l1.178-2.759a.667.667,0,1,0-1.226-.523l-1.113,2.6L8.1,3.928a.667.667,0,0,0-.159,1.324l2.978.359L12.1,7.651A14.777,14.777,0,0,0,7.652,12.1L5.611,10.923,5.252,7.944a.667.667,0,1,0-1.323.16l.338,2.813-2.6,1.113a.667.667,0,0,0,.523,1.227l2.759-1.179,2.039,1.177A14.558,14.558,0,0,0,5.35,19.333H3l-1.8-2.4a.667.667,0,1,0-1.067.8L1.833,20l-1.7,2.267a.667.667,0,1,0,1.067.8l1.8-2.4H5.35a14.558,14.558,0,0,0,1.633,6.079L4.944,27.923,2.185,26.744a.667.667,0,1,0-.523,1.227l2.6,1.113L3.928,31.9a.667.667,0,0,0,.582.742.655.655,0,0,0,.081,0,.667.667,0,0,0,.661-.587l.359-2.979L7.651,27.9A14.777,14.777,0,0,0,12.1,32.348l-1.178,2.041-2.978.359A.667.667,0,0,0,8.1,36.071l2.813-.339,1.113,2.605a.667.667,0,0,0,.613.4.657.657,0,0,0,.261-.053.667.667,0,0,0,.351-.875l-1.178-2.759,1.177-2.039a14.558,14.558,0,0,0,6.079,1.633V37l-2.4,1.8a.667.667,0,1,0,.8,1.067L20,38.167l2.267,1.7a.667.667,0,1,0,.8-1.067l-2.4-1.8V34.65a14.558,14.558,0,0,0,6.079-1.633l1.177,2.039-1.178,2.759a.667.667,0,0,0,.351.875.657.657,0,0,0,.261.053.667.667,0,0,0,.613-.4l1.113-2.6,2.813.339a.667.667,0,0,0,.159-1.324l-2.978-.359L27.9,32.349A14.777,14.777,0,0,0,32.348,27.9l2.041,1.178.359,2.979a.667.667,0,0,0,.661.587.655.655,0,0,0,.081,0,.667.667,0,0,0,.582-.742l-.338-2.813,2.605-1.113a.667.667,0,1,0-.523-1.227l-2.759,1.179-2.039-1.177a14.558,14.558,0,0,0,1.633-6.079H37l1.8,2.4a.667.667,0,0,0,1.067-.8L38.167,20l1.7-2.267a.667.667,0,0,0-.133-.933ZM20,33.333A13.333,13.333,0,1,1,33.333,20,13.333,13.333,0,0,1,20,33.333Z" transform="translate(0 0)"/>
          <path id="Shape-2" data-name="Shape" d="M29.56,24.878l2.281-2.522a2.378,2.378,0,0,0,.613-1.619,10.54,10.54,0,0,0-.945-4.5l-.015-.029A5.752,5.752,0,0,0,26,13a5.752,5.752,0,0,0-5.5,3.229l-.007.016v.005a10.543,10.543,0,0,0-.943,4.491,2.379,2.379,0,0,0,.613,1.619l2.283,2.521-4.125,4.56a1.239,1.239,0,0,0-.218,1.315l1.219,2.829a1.231,1.231,0,0,0,.933.733,1.19,1.19,0,0,0,.205.017,1.234,1.234,0,0,0,.917-.407L26,28.811l4.624,5.111a1.231,1.231,0,0,0,.917.407,1.26,1.26,0,0,0,.205-.017,1.231,1.231,0,0,0,.933-.733L33.9,30.751a1.239,1.239,0,0,0-.219-1.317ZM26,20.947l-2.478-2.738A6,6,0,0,1,26,17.743a6,6,0,0,1,2.478.467Zm0-6.619a4.4,4.4,0,0,1,4.091,2.1l-.7.769A6.965,6.965,0,0,0,26,16.407a6.968,6.968,0,0,0-3.4.788l-.689-.76A4.394,4.394,0,0,1,26,14.329ZM21.15,21.462a1.049,1.049,0,0,1-.267-.715,10.282,10.282,0,0,1,.436-2.987L25.1,21.942l-1.758,1.942Zm-.663,11.457-1.133-2.635,4.479-4.955.01-.011,6.844-7.561a10.3,10.3,0,0,1,.434,2.991,1.049,1.049,0,0,1-.267.714Zm11.028,0-4.615-5.1,1.76-1.945,3.99,4.411Z" transform="translate(-6.002 -4.329)"/>
        </g>
      </g>
    </g>
  </g>
</svg>
