<svg xmlns="http://www.w3.org/2000/svg" xmlns:xlink="http://www.w3.org/1999/xlink" width="75.489" height="75.489" viewBox="0 0 75.489 75.489">
  <defs>
    <filter id="Rectángulo_400898" x="0" y="0" width="75.489" height="75.489" filterUnits="userSpaceOnUse">
      <feOffset dy="3" input="SourceAlpha"/>
      <feGaussianBlur stdDeviation="3" result="blur"/>
      <feFlood flood-opacity="0.161"/>
      <feComposite operator="in" in2="blur"/>
      <feComposite in="SourceGraphic"/>
    </filter>
  </defs>
  <g id="Grupo_1111988" data-name="Grupo 1111988" transform="translate(-326.73 -3826.949)">
    <g id="Grupo_1098742" data-name="Grupo 1098742" transform="translate(335.73 3832.949)">
      <g transform="matrix(1, 0, 0, 1, -9, -6)" filter="url(#Rectángulo_400898)">
        <g id="Rectángulo_400898-2" data-name="Rectángulo 400898" transform="translate(9 6)" fill="#b4d1f0" stroke="#fff" stroke-width="3" opacity="0.859">
          <rect width="57.489" height="57.489" rx="28.744" stroke="none"/>
          <rect x="1.5" y="1.5" width="54.489" height="54.489" rx="27.244" fill="none"/>
        </g>
      </g>
      <g id="Rectángulo_400907" data-name="Rectángulo 400907" transform="translate(0 0)" fill="none" stroke="#fff" stroke-width="3">
        <rect width="57.489" height="57.489" rx="28.744" stroke="none"/>
        <rect x="1.5" y="1.5" width="54.489" height="54.489" rx="27.244" fill="none"/>
      </g>
    </g>
    <g id="Grupo_1112396" data-name="Grupo 1112396" transform="translate(345.949 3829.849)">
      <g id="Grupo_1112395" data-name="Grupo 1112395" transform="translate(0.959 18.351)">
        <g id="Grupo_1112389" data-name="Grupo 1112389" transform="translate(0 0)">
          <path id="Trazado_904553" data-name="Trazado 904553" d="M24.117,95.076H17.585c1.006-4.514.646-9.587-.54-15a39.356,39.356,0,0,1-5.992,11.893L7,89.31a93.622,93.622,0,0,1,5.694-15.063A6.923,6.923,0,0,1,15.8,71.112a19.478,19.478,0,0,0,5.526-3.92V64.738h6.486v2.454a19.47,19.47,0,0,0,5.524,3.92,6.913,6.913,0,0,1,3.106,3.136A93.623,93.623,0,0,1,42.134,89.31L38.08,91.968a39.355,39.355,0,0,1-5.99-11.893c-1.186,5.414-1.548,10.487-.542,15H24.117Z" transform="translate(-7 -64.738)" fill="#ffcebf" fill-rule="evenodd"/>
        </g>
        <g id="Grupo_1112390" data-name="Grupo 1112390" transform="translate(0 0)">
          <path id="Trazado_904554" data-name="Trazado 904554" d="M7.992,89.96,7,89.31a93.622,93.622,0,0,1,5.694-15.063A6.923,6.923,0,0,1,15.8,71.112a19.478,19.478,0,0,0,5.526-3.92V64.738h.93v3.3a19.473,19.473,0,0,1-5.524,3.918A6.928,6.928,0,0,0,13.626,75.1,92.637,92.637,0,0,0,7.992,89.96Z" transform="translate(-7 -64.738)" fill="#ffb09e" fill-rule="evenodd"/>
        </g>
        <g id="Grupo_1112391" data-name="Grupo 1112391" transform="translate(7.51 2.812)">
          <path id="Trazado_904555" data-name="Trazado 904555" d="M116.039,109.784a2.595,2.595,0,1,0-2.6-2.594,2.6,2.6,0,0,0,2.6,2.594Z" transform="translate(-113.443 -104.594)" fill="#fe5694" fill-rule="evenodd"/>
        </g>
        <g id="Grupo_1112392" data-name="Grupo 1112392" transform="translate(21.694 20.524)">
          <path id="Trazado_904556" data-name="Trazado 904556" d="M319.338,356.95a2.594,2.594,0,1,0-.95,3.544A2.592,2.592,0,0,0,319.338,356.95Z" transform="translate(-314.495 -355.651)" fill="#fe5694" fill-rule="evenodd"/>
        </g>
        <g id="Grupo_1112393" data-name="Grupo 1112393" transform="translate(7.51 2.812)">
          <path id="Trazado_904557" data-name="Trazado 904557" d="M114.311,107.19a2.6,2.6,0,0,1,2.16-2.56,2.595,2.595,0,1,0,0,5.118,2.591,2.591,0,0,1-2.16-2.558Z" transform="translate(-113.443 -104.594)" fill="#e54d85" fill-rule="evenodd"/>
        </g>
        <g id="Grupo_1112394" data-name="Grupo 1112394" transform="translate(21.695 20.525)">
          <path id="Trazado_904558" data-name="Trazado 904558" d="M315.377,358.257a2.6,2.6,0,0,1,2.16-2.558,2.595,2.595,0,1,0,0,5.118,2.595,2.595,0,0,1-2.16-2.56Z" transform="translate(-314.509 -355.663)" fill="#e54d85" fill-rule="evenodd"/>
        </g>
      </g>
      <path id="Trazado_904559" data-name="Trazado 904559" d="M25.975,48.258a.493.493,0,1,1-.962.215,24.416,24.416,0,0,1-.461-2.917.493.493,0,0,1,.981-.1,23.443,23.443,0,0,0,.442,2.8ZM8,26.454a.493.493,0,0,0-.751-.639,7.781,7.781,0,0,0-1.016,1.542A92.586,92.586,0,0,0,.522,42.467a.493.493,0,1,0,.943.288A91.721,91.721,0,0,1,7.115,27.8,6.8,6.8,0,0,1,8,26.454Zm7.287-8.86a.493.493,0,0,0-.493.493v2.255c-.127.132-.264.269-.415.413a.493.493,0,1,0,.682.712c.218-.209.41-.4.587-.593a.493.493,0,0,0,.132-.336V18.087a.493.493,0,0,0-.493-.493ZM11.5,33.284a.5.5,0,0,0-.021-.068l0,0h0c-.274-.7-.595-1.4-.954-2.106a.493.493,0,1,0-.877.45c.319.62.6,1.246.852,1.862A38.541,38.541,0,0,1,4.638,44.977a.493.493,0,1,0,.8.574,40.206,40.206,0,0,0,5.467-10.226,32.324,32.324,0,0,1,.17,12.934.493.493,0,1,0,.962.215c.946-4.243.77-9.209-.539-15.182l0-.007Zm19.594,9.761a.493.493,0,1,0-.826.538c.411.632.851,1.275,1.345,1.967a.493.493,0,1,0,.8-.573c-.486-.681-.918-1.313-1.321-1.933Zm5.437-.578a92.594,92.594,0,0,0-5.714-15.11A7.434,7.434,0,0,0,27.5,24.011a19.008,19.008,0,0,1-5.247-3.669V18.087a.493.493,0,1,0-.986,0v2.451a.493.493,0,0,0,.132.336,20.019,20.019,0,0,0,5.646,4.011A6.4,6.4,0,0,1,29.936,27.8a91.724,91.724,0,0,1,5.651,14.953.493.493,0,1,0,.943-.288Zm-18-22.62a.493.493,0,0,0-.493.493V47.392a.493.493,0,1,0,.986,0V20.341A.493.493,0,0,0,18.526,19.848Zm8.668,11.044a.493.493,0,0,0-.664.214c-.354.69-.675,1.4-.952,2.106h0l0,0a.5.5,0,0,0-.021.068l0,.006c-.258,1.178-.476,2.339-.648,3.451a.493.493,0,0,0,.412.562.488.488,0,0,0,.076.006.493.493,0,0,0,.487-.418c.079-.514.169-1.039.268-1.571q.121.342.247.674a.493.493,0,0,0,.922-.349c-.269-.711-.523-1.461-.758-2.228.251-.626.536-1.252.849-1.863A.493.493,0,0,0,27.193,30.892ZM14.161,23.484A3.083,3.083,0,1,1,11.077,20.4a3.087,3.087,0,0,1,3.084,3.082Zm-.986,0a2.1,2.1,0,1,0-2.1,2.1A2.1,2.1,0,0,0,13.174,23.484ZM2.989,21.721l1.762,1.138a.493.493,0,0,0,.694-.168l.366-.635.794.689A.493.493,0,0,0,7.252,22L6.007,20.919a.493.493,0,0,0-.751.126l-.406.7-1.327-.856a.493.493,0,1,0-.535.828Zm4.064-2.732a.493.493,0,0,0,.685.2l.635-.366.344.993a.493.493,0,1,0,.932-.322L9.11,17.938a.493.493,0,0,0-.712-.266l-.7.406-.72-1.4a.493.493,0,0,0-.877.45Zm4.516-1.116.727.1-.336.994a.493.493,0,1,0,.934.315l.527-1.561a.493.493,0,0,0-.4-.646l-.805-.108.29-1.552a.493.493,0,0,0-.969-.181l-.385,2.062a.493.493,0,0,0,.419.579ZM28.213,41.96a3.084,3.084,0,1,1-.309-2.339,3.067,3.067,0,0,1,.309,2.339Zm-1.163-1.846h0a2.08,2.08,0,0,0-1.273-.977,2.11,2.11,0,0,0-.546-.072,2.1,2.1,0,1,0,1.819,1.05Zm4.207,6.295-1.405-.722.406-.7a.493.493,0,0,0-.266-.712l-1.557-.539a.493.493,0,1,0-.322.932l.993.344-.366.635a.493.493,0,0,0,.2.685l1.866.958a.493.493,0,0,0,.45-.877Zm1.928-5.1-1.576.078v-.813a.493.493,0,0,0-.587-.484L29.4,40.4a.493.493,0,0,0,.187.968l1.032-.2v.734a.493.493,0,0,0,.493.493h.024l2.094-.1a.493.493,0,1,0-.049-.985Zm-5.173-3.127a.493.493,0,0,0,.7-.045l.693-.789.449.579a.493.493,0,0,0,.71.073l1.593-1.363a.493.493,0,0,0-.641-.749l-1.2,1.027-.5-.642a.493.493,0,0,0-.76-.024l-1.088,1.238a.493.493,0,0,0,.045.7Z" transform="translate(0 0)"/>
    </g>
  </g>
</svg>
