<svg xmlns="http://www.w3.org/2000/svg" xmlns:xlink="http://www.w3.org/1999/xlink" width="75.489" height="75.489" viewBox="0 0 75.489 75.489">
  <defs>
    <filter id="Rectángulo_400898" x="0" y="0" width="75.489" height="75.489" filterUnits="userSpaceOnUse">
      <feOffset dy="3" input="SourceAlpha"/>
      <feGaussianBlur stdDeviation="3" result="blur"/>
      <feFlood flood-opacity="0.161"/>
      <feComposite operator="in" in2="blur"/>
      <feComposite in="SourceGraphic"/>
    </filter>
  </defs>
  <g id="Grupo_1111989" data-name="Grupo 1111989" transform="translate(-326.73 -3826.949)">
    <g id="Grupo_1098742" data-name="Grupo 1098742" transform="translate(335.73 3832.949)">
      <g transform="matrix(1, 0, 0, 1, -9, -6)" filter="url(#Rectángulo_400898)">
        <g id="Rectángulo_400898-2" data-name="Rectángulo 400898" transform="translate(9 6)" fill="#b4d1f0" stroke="#fff" stroke-width="3" opacity="0.859">
          <rect width="57.489" height="57.489" rx="28.744" stroke="none"/>
          <rect x="1.5" y="1.5" width="54.489" height="54.489" rx="27.244" fill="none"/>
        </g>
      </g>
      <g id="Rectángulo_400907" data-name="Rectángulo 400907" transform="translate(0 0)" fill="none" stroke="#fff" stroke-width="3">
        <rect width="57.489" height="57.489" rx="28.744" stroke="none"/>
        <rect x="1.5" y="1.5" width="54.489" height="54.489" rx="27.244" fill="none"/>
      </g>
    </g>
    <g id="Grupo_1112404" data-name="Grupo 1112404" transform="translate(340.263 3845.154)">
      <g id="Grupo_1112403" data-name="Grupo 1112403" transform="translate(9.019 0.83)">
        <g id="Grupo_1112397" data-name="Grupo 1112397" transform="translate(0 0.187)">
          <path id="Trazado_904560" data-name="Trazado 904560" d="M23.643,35.642a8.364,8.364,0,0,1,1.9,4.333H39.495c-1.917-4.14-2.953-8.244-1.336-12.141C42.617,17.1,37.633,9.655,29.7,8.82c-4.6-.483-11.492,1.3-13.391,6.045a7.783,7.783,0,0,0,.665,6.928c-2.144,3.28-4.993,5.151-.894,7.153-1.2,1.236-1.141,1.835.052,2.65-.608,1.064-.622,1.756.932,2.024C14.9,39.515,22.2,36.607,23.643,35.642Z" transform="translate(-13.999 -8.744)" fill="#f7c5b8" fill-rule="evenodd"/>
        </g>
        <g id="Grupo_1112398" data-name="Grupo 1112398" transform="translate(3.985 2.34)">
          <path id="Trazado_904561" data-name="Trazado 904561" d="M97.411,51.89a3.127,3.127,0,0,1-1.031,2.327,3.427,3.427,0,0,1-2.127,2.908,6.7,6.7,0,0,1,1.491,4.4H93.959c-1.14-3.251-3.875-1.856-4.638-4.265a4.22,4.22,0,0,1-.168-.868h0c-.055,0-.11.005-.166.005a3.232,3.232,0,0,1-1.057-.177,3.234,3.234,0,0,1-5.046-1.114,0,0,0,0,0,0,0,3.706,3.706,0,0,1-.84.266,3.838,3.838,0,0,1-3.615-6.3l0-.008h0a1.69,1.69,0,0,1,1.093-2.354h0a2.5,2.5,0,0,1,2.5-2.409,2.546,2.546,0,0,1,.721.105,3.253,3.253,0,0,1,4.891-.483,1.683,1.683,0,0,1,3.086.274,3.644,3.644,0,0,1,.7-.068A3.687,3.687,0,0,1,95.11,47.8a1.835,1.835,0,0,1,.244-.018,1.684,1.684,0,0,1,1.683,1.683,1.705,1.705,0,0,1-.146.69,3.137,3.137,0,0,1,.522,1.735Z" transform="translate(-77.476 -43.03)" fill="#df646e" fill-rule="evenodd"/>
        </g>
        <g id="Grupo_1112399" data-name="Grupo 1112399" transform="translate(15.297 2.34)">
          <path id="Trazado_904562" data-name="Trazado 904562" d="M265.225,54.505l-5.866-5.866a5.8,5.8,0,0,1-1.5-5.6c.043,0,.088-.005.131-.005a1.683,1.683,0,0,1,1.6,1.164,3.65,3.65,0,0,1,.7-.068,3.688,3.688,0,0,1,3.688,3.673,1.832,1.832,0,0,1,.243-.018,1.684,1.684,0,0,1,1.683,1.683,1.706,1.706,0,0,1-.147.69,3.141,3.141,0,0,1-.51,4.061C265.251,54.316,265.241,54.412,265.225,54.505Z" transform="translate(-257.667 -43.033)" fill="#d82f3c" fill-rule="evenodd"/>
        </g>
        <g id="Grupo_1112400" data-name="Grupo 1112400" transform="translate(17.238 0)">
          <path id="Trazado_904563" data-name="Trazado 904563" d="M289.711,6.881a3.864,3.864,0,0,1,5.449,0,3.853,3.853,0,0,1,5.449,5.449L295.16,17.78l-5.449-5.449A3.864,3.864,0,0,1,289.711,6.881Z" transform="translate(-288.587 -5.757)" fill="#55d1f5" fill-rule="evenodd"/>
        </g>
        <g id="Grupo_1112401" data-name="Grupo 1112401" transform="translate(9.144 5.922)">
          <path id="Trazado_904564" data-name="Trazado 904564" d="M165.671,106.256h0a.442.442,0,0,1-.409-.283l-1.65-4.277-.852,1.956a.442.442,0,0,1-.4.265h-2.244a.442.442,0,0,1,0-.884h1.955l1.167-2.677a.442.442,0,0,1,.817.018l1.634,4.237.525-1.3a.442.442,0,0,1,.41-.276h2.225a.442.442,0,0,1,0,.884h-1.927l-.833,2.063A.442.442,0,0,1,165.671,106.256Z" transform="translate(-159.666 -100.092)" fill="#fff"/>
        </g>
        <g id="Grupo_1112402" data-name="Grupo 1112402" transform="translate(23.022 0.008)">
          <path id="Trazado_904565" data-name="Trazado 904565" d="M384.494,5.885a3.848,3.848,0,0,1,2.475,6.565L381.52,17.9l-.789-.789,4.882-4.88a3.864,3.864,0,0,0,0-5.449A6.918,6.918,0,0,0,384.494,5.885Z" transform="translate(-380.731 -5.885)" fill="#3fc3e8" fill-rule="evenodd"/>
        </g>
      </g>
      <path id="Trazado_904566" data-name="Trazado 904566" d="M358.208,54.018h-1.54v-1.54a.439.439,0,1,0-.877,0v1.54h-1.54a.439.439,0,1,0,0,.877h1.54v1.54a.439.439,0,1,0,.877,0V54.9h1.54a.439.439,0,0,0,0-.877Z" transform="translate(-323.461 -48.304)"/>
      <path id="Trazado_904567" data-name="Trazado 904567" d="M38.49,1.747a4.271,4.271,0,0,0-5.721-.281,4.282,4.282,0,0,0-5.262-.117A13.223,13.223,0,0,0,24.764.767a17.754,17.754,0,0,0-7.857,1.082c-2.058.794-4.75,2.339-5.893,5.191a8.1,8.1,0,0,0,.553,7.027c-.376.556-.766,1.068-1.145,1.564-1.056,1.383-1.967,2.578-1.684,3.776a3.187,3.187,0,0,0,1.751,1.906A2.044,2.044,0,0,0,9.9,22.758a1.808,1.808,0,0,0,.785,1.193,1.67,1.67,0,0,0-.146,1.428,1.6,1.6,0,0,0,1.065.773c-.466,1.515-.313,2.589.456,3.195a2.758,2.758,0,0,0,1.731.492A11.694,11.694,0,0,0,18.609,28.4a8.312,8.312,0,0,1,1.541,3.823.439.439,0,0,0,.43.353H34.441a.439.439,0,0,0,.4-.623c-2.253-4.866-2.66-8.476-1.32-11.7a19.15,19.15,0,0,0,1.633-9.136L38.49,7.779a4.27,4.27,0,0,0,0-6.031ZM32.71,19.916a11.376,11.376,0,0,0-.682,6.169A21.909,21.909,0,0,0,33.762,31.7H20.939a8.281,8.281,0,0,0-1.916-4.161.439.439,0,0,0-.567-.067,11.681,11.681,0,0,1-2.891,1.207c-1.408.383-2.462.375-2.968-.023-.641-.5-.362-1.733-.016-2.674a.439.439,0,0,0-.337-.584c-.719-.124-.881-.317-.917-.394-.052-.111-.043-.369.3-.967a.439.439,0,0,0-.133-.58c-.466-.319-.7-.576-.724-.788-.025-.253.217-.637.74-1.176a.439.439,0,0,0-.122-.7c-1.079-.527-1.666-1.047-1.794-1.589-.188-.794.569-1.786,1.528-3.042.418-.547.891-1.168,1.329-1.838a.438.438,0,0,0,.011-.462,7.286,7.286,0,0,1-.632-6.5c1.025-2.559,3.5-3.968,5.395-4.7a16.833,16.833,0,0,1,7.45-1.028,12.518,12.518,0,0,1,2.106.4,4.212,4.212,0,0,0-.74,1.313,2.114,2.114,0,0,0-2.957.157,3.67,3.67,0,0,0-4.947.624A2.922,2.922,0,0,0,14.7,6.595a2.117,2.117,0,0,0-1.176,2.589,4.253,4.253,0,0,0,4.722,6.621,3.647,3.647,0,0,0,5.308,1.043,3.589,3.589,0,0,0,.739.122,3.048,3.048,0,0,0,2.362,2.563,3.316,3.316,0,0,1,2.381,2.242.439.439,0,0,0,.414.293h1.772a.439.439,0,0,0,.439-.443,7.19,7.19,0,0,0-1.249-4.208,3.81,3.81,0,0,0,1.861-2.839,3.543,3.543,0,0,0,.886-1.469l1.171-1.171a18.9,18.9,0,0,1-1.62,7.977Zm-5.087-5.01a3.556,3.556,0,0,0,3.533.428,2.985,2.985,0,0,1-1.582,1.52.439.439,0,0,0-.172.687,6.061,6.061,0,0,1,1.367,3.649H29.752a4.175,4.175,0,0,0-2.783-2.477c-.876-.335-1.536-.588-1.782-1.741a5.012,5.012,0,0,0,1.055-.135.439.439,0,1,0-.21-.852,4.841,4.841,0,0,1-1.339.108h-.044c-.045,0-.091,0-.137,0a2.72,2.72,0,0,1-.9-.153.438.438,0,0,0-.432.081,2.767,2.767,0,0,1-4.573-2.1v0a2.725,2.725,0,0,1,.32-1.291.439.439,0,1,0-.775-.412,3.619,3.619,0,0,0-.374,1.121,1.329,1.329,0,0,1-.754-1.19.439.439,0,1,0-.873.087,2.2,2.2,0,0,0,1.6,2.028,3.622,3.622,0,0,0,.145.731,3.373,3.373,0,0,1-3.892-4.948,2.632,2.632,0,0,0,.809.68.439.439,0,1,0,.42-.77,1.8,1.8,0,0,1-.8-.878l0-.007,0,0a1.237,1.237,0,0,1,.8-1.73h0a.44.44,0,0,0,.047-.015,1.346,1.346,0,0,1,1.184.115.439.439,0,0,0,.54-.692,2.086,2.086,0,0,0-1.344-.381,2.036,2.036,0,0,1,1.942-1.4,2.074,2.074,0,0,1,.591.087.439.439,0,0,0,.483-.167,2.791,2.791,0,0,1,4.2-.415.439.439,0,0,0,.689-.112,1.233,1.233,0,0,1,2.256.189q-.005.109-.006.218a4.235,4.235,0,0,0,1.245,3.016L32.268,13a2.673,2.673,0,0,1-.711,1.048h0a2.677,2.677,0,0,1-3.406.157.439.439,0,0,0-.528.7Zm5.146-2.647-5.1-5.1a3.388,3.388,0,0,1,4.791-4.791.439.439,0,0,0,.62,0,3.388,3.388,0,0,1,4.791,4.791Z"/>
    </g>
  </g>
</svg>
