<svg xmlns="http://www.w3.org/2000/svg" width="85" height="85" viewBox="0 0 85 85">
  <g id="Grupo_1112077" data-name="Grupo 1112077" transform="translate(-180.051 -8296)">
    <rect id="Rectángulo_403563" data-name="Rectángulo 403563" width="85" height="85" transform="translate(180.051 8296)" fill="#fed57b"/>
    <g id="Grupo_1112092" data-name="Grupo 1112092" transform="translate(188.773 8298.806)">
      <g id="Grupo_1112081" data-name="Grupo 1112081" transform="translate(26.222 6.95)">
        <g id="Grupo_1112077-2" data-name="Grupo 1112077" transform="translate(11.349 0)">
          <path id="Trazado_902707" data-name="Trazado 902707" d="M286.074,20.583h9.913l1.8-6.2a.721.721,0,0,0-.693-.923H284.9a.721.721,0,0,0-.691.929Z" transform="translate(-284.183 -13.459)" fill="#ffbd86"/>
          <path id="Trazado_902708" data-name="Trazado 902708" d="M286.074,20.584h4.188l-1.859-6.2a.721.721,0,0,1,.691-.929h-4.188a.721.721,0,0,0-.691.929Z" transform="translate(-284.184 -13.46)" fill="#f6a96c"/>
          <path id="Trazado_902709" data-name="Trazado 902709" d="M376.127,177.058A5.041,5.041,0,1,1,383.439,184a17.527,17.527,0,0,1,3.2,2.07,8.808,8.808,0,0,0-10.513-13.587v4.58Z" transform="translate(-363.971 -150.74)" fill="#62dbfb"/>
        </g>
        <path id="Trazado_902710" data-name="Trazado 902710" d="M224.615,121.585a3.412,3.412,0,0,1-2.769-3.358V101.506H211.41v16.678a3.413,3.413,0,0,1-2.81,3.366,17.432,17.432,0,0,0-9.542,5.116c.1,1.123.152,2.278.152,3.459a36.823,36.823,0,0,1-.868,8.077,9.055,9.055,0,0,1,4.163,2.392c3.292,3.292,3.555,8.369.586,11.338-.15.15-.308.29-.469.424A15.154,15.154,0,0,0,209.493,154h14.031A15.339,15.339,0,0,0,238.818,138.7,17.485,17.485,0,0,0,224.615,121.585Z" transform="translate(-198.342 -89.866)" fill="#c8effe"/>
        <g id="Grupo_1112078" data-name="Grupo 1112078" transform="translate(0.716 11.64)">
          <path id="Trazado_902711" data-name="Trazado 902711" d="M203.855,132.164c0-.02,0-.04,0-.061a14.2,14.2,0,0,1,10.014-7.3l3.308.006c.094-.018.188-.039.282-.055a3.413,3.413,0,0,0,2.81-3.366V101.506h-4.165v16.678a3.413,3.413,0,0,1-2.81,3.366,17.432,17.432,0,0,0-9.542,5.116c.1,1.123.152,2.278.152,3.459q0,1.033-.054,2.039Z" transform="translate(-203.756 -101.506)" fill="#99e6fc"/>
        </g>
        <path id="Trazado_902712" data-name="Trazado 902712" d="M232.207,282.587a14.188,14.188,0,0,0-8.2-4.825l-14.829-.028a14.2,14.2,0,0,0-10.014,7.3,35.861,35.861,0,0,1-.818,6.1,9.056,9.056,0,0,1,4.163,2.392,8.447,8.447,0,0,1,2.1,9.056,11.919,11.919,0,0,0,4.888,1.043h14.031a12,12,0,0,0,11.989-11.989A14.094,14.094,0,0,0,232.207,282.587Z" transform="translate(-198.342 -242.795)" fill="#fac600"/>
        <path id="Trazado_902713" data-name="Trazado 902713" d="M204.445,291.631a14.175,14.175,0,0,1,11.606-13.885l-6.876-.013a14.2,14.2,0,0,0-10.014,7.3,35.86,35.86,0,0,1-.818,6.1,9.055,9.055,0,0,1,4.163,2.392,8.447,8.447,0,0,1,2.1,9.056,11.919,11.919,0,0,0,4.888,1.043h6.941a12,12,0,0,1-11.989-11.989Z" transform="translate(-198.342 -242.794)" fill="#e8b800"/>
        <g id="Grupo_1112079" data-name="Grupo 1112079" transform="translate(7.328 7.124)">
          <path id="Trazado_902714" data-name="Trazado 902714" d="M270.915,71.859h-12.84a3.422,3.422,0,0,1-2.811-1.471L253.9,68.417a.684.684,0,0,1,.562-1.075h16.458a2.258,2.258,0,0,1,0,4.517Z" transform="translate(-253.772 -67.342)" fill="#99e6fc"/>
        </g>
        <g id="Grupo_1112080" data-name="Grupo 1112080" transform="translate(7.328 7.124)">
          <path id="Trazado_902715" data-name="Trazado 902715" d="M262.17,70.389,260.8,68.418a.684.684,0,0,1,.562-1.075h-6.9a.684.684,0,0,0-.562,1.075l1.368,1.971a3.422,3.422,0,0,0,2.811,1.471h6.9A3.422,3.422,0,0,1,262.17,70.389Z" transform="translate(-253.773 -67.343)" fill="#62dbfb"/>
        </g>
      </g>
      <g id="Grupo_1112090" data-name="Grupo 1112090" transform="translate(0.992 31.299)">
        <g id="Grupo_1112082" data-name="Grupo 1112082" transform="translate(17.517)">
          <path id="Trazado_902716" data-name="Trazado 902716" d="M142.2,222.2a7.718,7.718,0,0,1,5.509-.58,36.822,36.822,0,0,0,.868-8.077c0-6.446-1.554-12.164-3.951-15.73a.41.41,0,0,0-.679,0c-2.4,3.566-3.951,9.284-3.951,15.73a37.909,37.909,0,0,0,.489,6.128C141.116,220.512,141.688,221.357,142.2,222.2Z" transform="translate(-139.999 -197.632)" fill="#09a76d"/>
          <path id="Trazado_902717" data-name="Trazado 902717" d="M142.2,222.2a7.12,7.12,0,0,1,1.442-.569,36.8,36.8,0,0,1-.87-8.088,31.7,31.7,0,0,1,2.9-13.927,16.834,16.834,0,0,0-1.049-1.8.41.41,0,0,0-.679,0c-2.4,3.566-3.951,9.284-3.951,15.73a37.908,37.908,0,0,0,.489,6.128C141.117,220.511,141.689,221.356,142.2,222.2Z" transform="translate(-140 -197.631)" fill="#02905d"/>
        </g>
        <g id="Grupo_1112083" data-name="Grupo 1112083" transform="translate(0 9.551)">
          <path id="Trazado_902718" data-name="Trazado 902718" d="M17.183,285.564a9.178,9.178,0,0,1,3.448-.665,9.037,9.037,0,0,1,4.8,1.351c.043-.045.084-.091.127-.135a6.91,6.91,0,0,1,1.666-1.226A36.562,36.562,0,0,0,21.9,278.21c-4.558-4.558-9.7-7.5-13.917-8.329a.41.41,0,0,0-.48.48c.826,4.217,3.771,9.359,8.329,13.917Q16.5,284.944,17.183,285.564Z" transform="translate(-7.499 -269.873)" fill="#09a76d"/>
          <path id="Trazado_902719" data-name="Trazado 902719" d="M17.184,285.565a9.178,9.178,0,0,1,3.448-.665c.185,0,.367.007.549.018a38.842,38.842,0,0,1-2.993-2.7,31.991,31.991,0,0,1-7.706-11.638,17.361,17.361,0,0,0-2.494-.7.41.41,0,0,0-.48.48c.826,4.217,3.771,9.359,8.329,13.917Q16.5,284.945,17.184,285.565Z" transform="translate(-7.499 -269.874)" fill="#02905d"/>
        </g>
        <g id="Grupo_1112089" data-name="Grupo 1112089" transform="translate(4.701 20.415)">
          <g id="Grupo_1112085" data-name="Grupo 1112085" transform="translate(0 4.161)">
            <path id="Trazado_902720" data-name="Trazado 902720" d="M57,396.078c-3.244-3.244-3.544-8.217-.713-11.2a9.036,9.036,0,0,0-4.8-1.351c-4.656,0-8.431,3.4-8.431,7.6s3.775,7.6,8.431,7.6a8.886,8.886,0,0,0,5.964-2.229c-.154-.135-.307-.275-.455-.422Z" transform="translate(-43.057 -383.524)" fill="#8bc727"/>
            <g id="Grupo_1112084" data-name="Grupo 1112084" transform="translate(0 0)">
              <path id="Trazado_902721" data-name="Trazado 902721" d="M47.208,391.127a7.8,7.8,0,0,1,6.355-7.37,9.321,9.321,0,0,0-2.076-.233c-4.656,0-8.431,3.4-8.431,7.6s3.775,7.6,8.431,7.6a9.319,9.319,0,0,0,2.076-.233A7.8,7.8,0,0,1,47.208,391.127Z" transform="translate(-43.057 -383.524)" fill="#81b823"/>
            </g>
          </g>
          <g id="Grupo_1112088" data-name="Grupo 1112088" transform="translate(7.972)">
            <g id="Grupo_1112086" data-name="Grupo 1112086" transform="translate(0)">
              <ellipse id="Elipse_11671" data-name="Elipse 11671" cx="7.603" cy="8.431" rx="7.603" ry="8.431" transform="translate(0 10.751) rotate(-45)" fill="#8bc727"/>
            </g>
            <g id="Grupo_1112087" data-name="Grupo 1112087" transform="translate(3.317 3.314)">
              <path id="Trazado_902722" data-name="Trazado 902722" d="M135.209,390.514c-3.292-3.292-3.555-8.369-.586-11.338a6.974,6.974,0,0,1,3.105-1.794,7.444,7.444,0,0,0-7.218,1.794c-2.969,2.969-2.707,8.045.586,11.338a8.571,8.571,0,0,0,8.233,2.38A9.058,9.058,0,0,1,135.209,390.514Z" transform="translate(-128.444 -377.111)" fill="#81b823"/>
            </g>
          </g>
        </g>
      </g>
      <g id="Grupo_1112091" data-name="Grupo 1112091" transform="translate(0 5.958)">
        <path id="Trazado_902723" data-name="Trazado 902723" d="M63.378,43.979a18.562,18.562,0,0,0-1.8-1.858,9.779,9.779,0,0,0,.549-9.984.992.992,0,0,0-1.757.919,7.8,7.8,0,0,1-.34,7.814q-.723-.523-1.492-.974a6.03,6.03,0,0,0-7.824-8.605V29.347a7.809,7.809,0,0,1,6.861.693.992.992,0,1,0,1.051-1.682,9.774,9.774,0,0,0-7.912-1.1V19.581a3.25,3.25,0,0,0-.023-6.5L52.13,8.149a1.713,1.713,0,0,0-1.645-2.191H38.293a1.713,1.713,0,0,0-1.641,2.205l1.476,4.919H34.236a1.676,1.676,0,0,0-1.377,2.632l1.368,1.971a4.414,4.414,0,0,0,3.626,1.9H38.3V35.268a2.416,2.416,0,0,1-1.99,2.389A18.411,18.411,0,0,0,27.7,41.685a26.1,26.1,0,0,0-3.739-10.759,1.4,1.4,0,0,0-2.325,0c-2.618,3.895-4.12,9.829-4.12,16.283,0,.975.036,1.94.105,2.89q-.734-.821-1.526-1.614c-.344-.344-.7-.684-1.08-1.039a.992.992,0,1,0-1.35,1.453c.365.339.7.662,1.027.989a36.351,36.351,0,0,1,4.645,5.662c-.2.141-.388.293-.574.453a9.887,9.887,0,0,0-1.99-.771L9.69,48.146a.991.991,0,0,0-1.4,1.4l5.347,5.347a10.151,10.151,0,0,0-2.73.505q-.442-.414-.875-.847C6.1,50.621,3.217,46.011,2.176,42.034a25.208,25.208,0,0,1,7.994,3.992.992.992,0,0,0,1.158-1.61A25.544,25.544,0,0,0,1.67,39.884,1.4,1.4,0,0,0,.026,41.528a23.228,23.228,0,0,0,2.885,7.144,37.025,37.025,0,0,0,5.716,7.282c.113.113.227.223.341.334A8.433,8.433,0,0,0,4.7,63.478c0,4.739,4.227,8.595,9.423,8.595a9.937,9.937,0,0,0,5.96-1.948,9.7,9.7,0,0,0,5.756,1.943A8.293,8.293,0,0,0,30.614,70.6a16.186,16.186,0,0,0,6.76,1.472H51.4A16.3,16.3,0,0,0,67.69,55.787a18.4,18.4,0,0,0-4.312-11.808ZM53.445,32.62a4.048,4.048,0,0,1,3.326,6.362,18.22,18.22,0,0,0-4.091-1.287,2.42,2.42,0,0,1-1.961-2.384V33.678a4.033,4.033,0,0,1,2.726-1.058ZM38.656,7.941H50.125L48.63,13.082H40.2Zm-2.8,8.613-1.034-1.489h15.87a1.267,1.267,0,0,1,0,2.534H37.854A2.431,2.431,0,0,1,35.857,16.554ZM22.8,32.8c2.076,3.548,3.3,8.844,3.3,14.405a36.558,36.558,0,0,1-.646,6.92,9.135,9.135,0,0,0-1.662-.08V42.438a.992.992,0,1,0-1.983,0v11.93q-.366.1-.721.242-.541-.833-1.148-1.658a37.143,37.143,0,0,1-.439-5.743c0-5.561,1.223-10.857,3.3-14.405ZM6.684,63.478c0-3.646,3.337-6.611,7.439-6.611a8.164,8.164,0,0,1,3.275.676,9.182,9.182,0,0,0,1.186,11.222,8.024,8.024,0,0,1-4.461,1.324c-4.1,0-7.439-2.966-7.439-6.611Zm13.65,4.25c-2.9-2.9-3.163-7.358-.586-9.936a6.169,6.169,0,0,1,4.426-1.776q.183,0,.369.01a7.871,7.871,0,0,1,5.14,2.352c2.9,2.9,3.163,7.358.586,9.936S23.235,70.629,20.334,67.728ZM51.4,70.09H37.374a14.225,14.225,0,0,1-5.167-.967A7.872,7.872,0,0,0,32.973,68a12.921,12.921,0,0,0,4.4.768H51.4A12.992,12.992,0,0,0,64.287,57.381a.992.992,0,0,0-1.968-.242A11.006,11.006,0,0,1,51.4,66.784H37.374a10.918,10.918,0,0,1-3.652-.627,9.575,9.575,0,0,0-2.635-9.181,10.1,10.1,0,0,0-3.711-2.367,37.48,37.48,0,0,0,.64-5.137,13.2,13.2,0,0,1,9.127-6.592l14.646.028a13.2,13.2,0,0,1,10.276,9.949A.992.992,0,0,0,64,52.409,15.185,15.185,0,0,0,52.067,40.942a1,1,0,0,0-.182-.017L37.057,40.9a1.373,1.373,0,0,0-.174.015,15.166,15.166,0,0,0-8.82,5.041q-.028-.925-.1-1.832a16.462,16.462,0,0,1,8.688-4.511,4.4,4.4,0,0,0,3.629-4.342V19.582h8.454V35.311a4.4,4.4,0,0,0,3.577,4.333,16.493,16.493,0,0,1,13.4,16.144,14.319,14.319,0,0,1-14.3,14.3Z" transform="translate(0 -5.958)"/>
        <path id="Trazado_902724" data-name="Trazado 902724" d="M62.74,426.7a.992.992,0,0,0-.992.992V429.5a.992.992,0,1,0,1.983,0v-1.807A.991.991,0,0,0,62.74,426.7Z" transform="translate(-53.584 -371.074)"/>
        <path id="Trazado_902725" data-name="Trazado 902725" d="M151.829,399.206l-1.278,1.278a.991.991,0,1,0,1.4,1.4l1.278-1.278a.992.992,0,1,0-1.4-1.4Z" transform="translate(-130.396 -346.963)"/>
      </g>
    </g>
  </g>
</svg>
