<svg xmlns="http://www.w3.org/2000/svg" xmlns:xlink="http://www.w3.org/1999/xlink" width="90.051" height="90.051" viewBox="0 0 90.051 90.051">
  <defs>
    <filter id="Rectángulo_400898" x="0" y="0" width="90.051" height="90.051" filterUnits="userSpaceOnUse">
      <feOffset dy="3" input="SourceAlpha"/>
      <feGaussianBlur stdDeviation="3" result="blur"/>
      <feFlood flood-opacity="0.161"/>
      <feComposite operator="in" in2="blur"/>
      <feComposite in="SourceGraphic"/>
    </filter>
  </defs>
  <g id="Grupo_1112104" data-name="Grupo 1112104" transform="translate(-326.73 -3826.949)">
    <g id="Grupo_1098742" data-name="Grupo 1098742" transform="translate(335.73 3832.949)">
      <g transform="matrix(1, 0, 0, 1, -9, -6)" filter="url(#Rectángulo_400898)">
        <g id="Rectángulo_400898-2" data-name="Rectángulo 400898" transform="translate(9 6)" fill="#b4d1f0" stroke="#fff" stroke-width="3" opacity="0.859">
          <rect width="72.051" height="72.051" rx="36.025" stroke="none"/>
          <rect x="1.5" y="1.5" width="69.051" height="69.051" rx="34.525" fill="none"/>
        </g>
      </g>
      <g id="Rectángulo_400907" data-name="Rectángulo 400907" transform="translate(0 0)" fill="none" stroke="#fff" stroke-width="3">
        <rect width="72.051" height="72.051" rx="36.025" stroke="none"/>
        <rect x="1.5" y="1.5" width="69.051" height="69.051" rx="34.525" fill="none"/>
      </g>
    </g>
    <g id="Grupo_1112459" data-name="Grupo 1112459" transform="translate(337.062 3831.143)">
      <g id="Grupo_1112412" data-name="Grupo 1112412" transform="translate(47.406 52.698)">
        <g id="Grupo_1112409" data-name="Grupo 1112409" transform="translate(0.555 0.555)">
          <g id="Grupo_1112408" data-name="Grupo 1112408">
            <path id="Trazado_904596" data-name="Trazado 904596" d="M398.653,422.585c1.463,1.337,2.4,2.262,3.907,3.619l1,.334a2.7,2.7,0,0,1,1.69,1.591,2.246,2.246,0,0,1,.155.788l-4.173-.179c-.194,0-.755-.74-.9-.867l-1.7-1.72Z" transform="translate(-398.636 -422.585)" fill="#f9cec7"/>
          </g>
        </g>
        <g id="Grupo_1112411" data-name="Grupo 1112411" transform="translate(0 0)">
          <g id="Grupo_1112410" data-name="Grupo 1112410">
            <path id="Trazado_904597" data-name="Trazado 904597" d="M400,424.059h-.024l-4.166-.179c-.364-.009-.651-.32-1.086-.822-.06-.069-.141-.163-.167-.188l-.023-.021-1.7-1.72a.555.555,0,0,1-.16-.393l.017-3.565a.555.555,0,0,1,.929-.407c.653.6,1.206,1.116,1.741,1.617.661.62,1.286,1.206,2.077,1.921l.892.3a3.243,3.243,0,0,1,2.032,1.915,2.789,2.789,0,0,1,.193.981.555.555,0,0,1-.555.563Zm-4.026-1.283,3.355.144h0a2.141,2.141,0,0,0-1.344-1.265l-1.008-.336a.556.556,0,0,1-.2-.114c-.84-.757-1.49-1.367-2.179-2.013-.262-.245-.528-.495-.808-.755l-.01,2.076,1.53,1.547c.062.058.131.137.249.273C395.656,422.439,395.856,422.671,395.973,422.776Zm-.146-.006h0Z" transform="translate(-392.672 -416.619)" fill="#29292b"/>
          </g>
        </g>
      </g>
      <g id="Grupo_1112417" data-name="Grupo 1112417" transform="translate(14.971 15.38)">
        <g id="Grupo_1112414" data-name="Grupo 1112414" transform="translate(0.555 0.555)">
          <g id="Grupo_1112413" data-name="Grupo 1112413">
            <path id="Trazado_904598" data-name="Trazado 904598" d="M82.431,45.1l0,.017L82.341,62.9a1.858,1.858,0,0,1-3.657.29,1.163,1.163,0,0,0-.52-.692l-.038-.023a1.2,1.2,0,0,1-.327-1.73,6.178,6.178,0,0,0,1.034-2.629l.039-11.428-.058.849c-1.286-.069-3.22-.523-3.779-2.2l-2.549-.22a77.568,77.568,0,0,1,6.313,10l-.272,4.2-3.493-2.672-9.053-9.887a1.04,1.04,0,0,0-1.35-.159L53.113,62.62c1.165.353,1.7,1,1.7,1.991a3.2,3.2,0,0,1-.019.344l-4.531.04c-.325-.016-.381-.083-.336-.405l.118-.853a6.575,6.575,0,0,1,.432-1.589l5.832-14.835L57.5,44.292c.987-5.021,4.606-6.6,7.453-7.161a37.6,37.6,0,0,1,5.466-.306c3.226,0,7.017.117,9.18.2l.109,2.154.777-11.511a6.614,6.614,0,0,0-.858-2.8,1.2,1.2,0,0,1,.51-1.705l.472-.223a1.887,1.887,0,0,1,3.749.376L83.168,41.238l-.086.451" transform="translate(-49.912 -21.345)" fill="#ff738d"/>
          </g>
        </g>
        <g id="Grupo_1112416" data-name="Grupo 1112416" transform="translate(0 0)">
          <g id="Grupo_1112415" data-name="Grupo 1112415">
            <path id="Trazado_904599" data-name="Trazado 904599" d="M44.845,60.14h-.027a.808.808,0,0,1-.858-1.037l.118-.852a7.139,7.139,0,0,1,.468-1.724L50.374,41.7l1.17-2.975c.831-4.139,3.481-6.679,7.88-7.549A38.307,38.307,0,0,1,65,30.86c2.915,0,6.46.1,8.917.194l.592-8.779a6.073,6.073,0,0,0-.777-2.526,1.772,1.772,0,0,1-.176-1.423,1.747,1.747,0,0,1,.925-1.069l.216-.1a2.317,2.317,0,0,1,2.453-1.768A2.449,2.449,0,0,1,79.491,17.9c0,.014,0,.029,0,.043L78.3,35.865a.562.562,0,0,1-.009.067l-.086.451a.555.555,0,0,1-1.09-.208l.08-.418L78.381,17.9a1.355,1.355,0,0,0-1.3-1.4,1.216,1.216,0,0,0-1.344,1.115.555.555,0,0,1-.313.428l-.472.223a.627.627,0,0,0-.337.389.652.652,0,0,0,.067.53,7.167,7.167,0,0,1,.933,3.022.555.555,0,0,1,0,.1L74.841,33.81a.555.555,0,0,1-1.108-.009l-.083-1.647c-2.435-.092-5.84-.184-8.652-.184a37.2,37.2,0,0,0-5.359.3c-3.987.789-6.282,2.988-7.016,6.724a.551.551,0,0,1-.028.1l-1.188,3.021L45.575,56.941a6.047,6.047,0,0,0-.4,1.463l-.086.623L48.831,59c-.047-.467-.294-.95-1.3-1.254a.555.555,0,0,1-.29-.855L58.763,40.858a.556.556,0,0,1,.139-.136,1.6,1.6,0,0,1,2.071.244l9.02,9.85,2.63,2.012.195-3a77.7,77.7,0,0,0-6.187-9.78.555.555,0,0,1,.486-.894l2.549.22a.555.555,0,0,1,.479.377c.412,1.237,1.8,1.64,2.739,1.77l.019-.281a.555.555,0,0,1,1.108.04L73.971,52.7a.557.557,0,0,1-.009.1,6.726,6.726,0,0,1-1.13,2.854.661.661,0,0,0-.115.519.626.626,0,0,0,.287.415l.034.021a1.711,1.711,0,0,1,.769,1.029,1.347,1.347,0,0,0,1.451.994,1.189,1.189,0,0,0,1.114-1.173L76.457,39.7a.561.561,0,0,1,.008-.088l0-.017a.555.555,0,0,1,1.1.149L77.48,57.49c0,.014,0,.029,0,.043a2.285,2.285,0,0,1-2.128,2.208,2.469,2.469,0,0,1-2.62-1.826.613.613,0,0,0-.276-.359l-.033-.02a1.727,1.727,0,0,1-.793-1.145,1.784,1.784,0,0,1,.3-1.384,4.57,4.57,0,0,0,.514-.917L69.28,51.669a.558.558,0,0,1-.072-.066l-9.053-9.887A.488.488,0,0,0,59.6,41.6L48.561,56.958A2.364,2.364,0,0,1,49.95,59.2a3.753,3.753,0,0,1-.023.4.555.555,0,0,1-.547.495l-4.531.04h0Zm23.4-19.779a83.13,83.13,0,0,1,4.634,7.282l.017-5.006a4.443,4.443,0,0,1-3.667-2.191Z" transform="translate(-43.94 -15.381)" fill="#29292b"/>
          </g>
        </g>
      </g>
      <g id="Grupo_1112422" data-name="Grupo 1112422" transform="translate(14.97 31.011)">
        <g id="Grupo_1112419" data-name="Grupo 1112419" transform="translate(0.555 0.555)">
          <g id="Grupo_1112418" data-name="Grupo 1112418">
            <path id="Trazado_904600" data-name="Trazado 904600" d="M78.794,207.54l-.272,4.2-3.493-2.672-9.053-9.887a1.04,1.04,0,0,0-1.35-.159L53.109,215.049c1.165.353,1.7,1,1.7,1.991a3.173,3.173,0,0,1-.019.344l-4.531.04c-.325-.016-.381-.083-.336-.405l.118-.853a6.573,6.573,0,0,1,.432-1.589L56.3,199.742l1.188-3.021c.987-5.021,4.606-6.6,7.453-7.161a12.24,12.24,0,0,1,1.274-.154,13.79,13.79,0,0,0,6.719,8.176l-.457-.04A77.532,77.532,0,0,1,78.794,207.54Z" transform="translate(-49.908 -189.405)" fill="#9783c9"/>
          </g>
        </g>
        <g id="Grupo_1112421" data-name="Grupo 1112421" transform="translate(0 0)">
          <g id="Grupo_1112420" data-name="Grupo 1112420">
            <path id="Trazado_904601" data-name="Trazado 904601" d="M44.841,212.568h-.027a.808.808,0,0,1-.858-1.037l.118-.852a7.136,7.136,0,0,1,.468-1.724l5.828-14.827,1.17-2.975c.83-4.139,3.481-6.679,7.879-7.549a12.789,12.789,0,0,1,1.337-.163.556.556,0,0,1,.575.389,13.322,13.322,0,0,0,6.434,7.842.555.555,0,0,1,.232.782,83.575,83.575,0,0,1,5.869,9.412.555.555,0,0,1,.065.3l-.272,4.2a.555.555,0,0,1-.891.4L69.277,204.1a.557.557,0,0,1-.072-.066l-9.053-9.887a.488.488,0,0,0-.559-.114L48.558,209.386a2.363,2.363,0,0,1,1.389,2.243,3.752,3.752,0,0,1-.023.4.555.555,0,0,1-.547.495l-4.531.04Zm15.573-27.981c-.327.033-.6.07-.778.106-3.987.789-6.282,2.989-7.017,6.724a.552.552,0,0,1-.028.1L51.4,194.535,45.572,209.37a6.049,6.049,0,0,0-.4,1.463l-.086.623,3.741-.033c-.047-.467-.294-.95-1.3-1.254a.555.555,0,0,1-.29-.855L58.76,193.287a.553.553,0,0,1,.139-.136,1.6,1.6,0,0,1,2.071.244l9.02,9.85,2.63,2.012.195-3a77.689,77.689,0,0,0-6.187-9.78.555.555,0,0,1-.1-.205A14.561,14.561,0,0,1,60.414,184.587Z" transform="translate(-43.936 -183.44)" fill="#29292b"/>
          </g>
        </g>
      </g>
      <g id="Grupo_1112425" data-name="Grupo 1112425" transform="translate(29.69 38.703)">
        <g id="Grupo_1112424" data-name="Grupo 1112424" transform="translate(0)">
          <g id="Grupo_1112423" data-name="Grupo 1112423">
            <path id="Trazado_904602" data-name="Trazado 904602" d="M202.751,269.176a.555.555,0,0,1-.442-.89l1.456-1.923a.555.555,0,0,1,.885.67l-1.456,1.923A.554.554,0,0,1,202.751,269.176Z" transform="translate(-202.196 -266.144)" fill="#29292b"/>
          </g>
        </g>
      </g>
      <g id="Grupo_1112430" data-name="Grupo 1112430" transform="translate(14.971 50.766)">
        <g id="Grupo_1112427" data-name="Grupo 1112427" transform="translate(0.555 0.555)">
          <g id="Grupo_1112426" data-name="Grupo 1112426">
            <path id="Trazado_904603" data-name="Trazado 904603" d="M52.6,401.815l3.6,1.583h0l-3.093,4.3c1.165.353,1.7,1,1.7,1.991a3.2,3.2,0,0,1-.019.344l-4.531.04c-.325-.016-.381-.083-.336-.405l.118-.853a6.575,6.575,0,0,1,.432-1.589l2.129-5.415Z" transform="translate(-49.911 -401.815)" fill="#f9cec7"/>
          </g>
        </g>
        <g id="Grupo_1112429" data-name="Grupo 1112429" transform="translate(0)">
          <g id="Grupo_1112428" data-name="Grupo 1112428">
            <path id="Trazado_904604" data-name="Trazado 904604" d="M44.844,405.22h-.027a.808.808,0,0,1-.858-1.037l.118-.852a7.139,7.139,0,0,1,.468-1.724l2.117-5.386a.555.555,0,0,1,.747-.327L51,397.471a.555.555,0,0,1,.233.85l-2.671,3.717a2.364,2.364,0,0,1,1.389,2.243,3.752,3.752,0,0,1-.023.4.555.555,0,0,1-.547.495l-4.531.04Zm2.649-8.077-1.918,4.878a6.046,6.046,0,0,0-.4,1.463l-.086.623,3.741-.033c-.047-.467-.294-.95-1.3-1.254a.555.555,0,0,1-.29-.855l2.694-3.748Z" transform="translate(-43.94 -395.848)" fill="#29292b"/>
          </g>
        </g>
      </g>
      <g id="Grupo_1112433" data-name="Grupo 1112433" transform="translate(12 59.029)">
        <g id="Grupo_1112432" data-name="Grupo 1112432" transform="translate(0)">
          <g id="Grupo_1112431" data-name="Grupo 1112431">
            <path id="Trazado_904605" data-name="Trazado 904605" d="M55.951,485.8h-43.4a.555.555,0,1,1,0-1.11h43.4a.555.555,0,1,1,0,1.11Z" transform="translate(-12 -484.687)" fill="#29292b"/>
          </g>
        </g>
      </g>
      <g id="Grupo_1112438" data-name="Grupo 1112438" transform="translate(44.509 15.38)">
        <g id="Grupo_1112435" data-name="Grupo 1112435" transform="translate(0.555 0.555)">
          <g id="Grupo_1112434" data-name="Grupo 1112434">
            <path id="Trazado_904606" data-name="Trazado 904606" d="M368.179,32.709l.34-5.039a6.614,6.614,0,0,0-.858-2.8,1.2,1.2,0,0,1,.51-1.705l.472-.223a1.887,1.887,0,0,1,3.749.376l-.633,9.576h0Z" transform="translate(-367.488 -21.344)" fill="#f9cec7"/>
          </g>
        </g>
        <g id="Grupo_1112437" data-name="Grupo 1112437" transform="translate(0 0)">
          <g id="Grupo_1112436" data-name="Grupo 1112436">
            <path id="Trazado_904607" data-name="Trazado 904607" d="M366.351,28.041h-.019l-.042,0-3.547-.184a.555.555,0,0,1-.525-.592l.337-4.989a6.073,6.073,0,0,0-.777-2.526,1.772,1.772,0,0,1-.176-1.423,1.747,1.747,0,0,1,.925-1.069l.216-.1a2.316,2.316,0,0,1,2.453-1.768,2.449,2.449,0,0,1,2.343,2.519c0,.014,0,.029,0,.043l-.633,9.576a.555.555,0,0,1-.553.518Zm-2.988-1.266,2.47.128.6-9.006a1.355,1.355,0,0,0-1.3-1.4,1.218,1.218,0,0,0-1.344,1.115.555.555,0,0,1-.313.428l-.472.223a.627.627,0,0,0-.337.389.652.652,0,0,0,.067.53,7.167,7.167,0,0,1,.933,3.022.555.555,0,0,1,0,.1Z" transform="translate(-361.526 -15.38)" fill="#29292b"/>
          </g>
        </g>
      </g>
      <g id="Grupo_1112443" data-name="Grupo 1112443" transform="translate(42.625 45.703)">
        <g id="Grupo_1112440" data-name="Grupo 1112440" transform="translate(0.554 0.555)">
          <g id="Grupo_1112439" data-name="Grupo 1112439">
            <path id="Trazado_904608" data-name="Trazado 904608" d="M348.525,347.374l-.022,6.444a6.178,6.178,0,0,1-1.034,2.629,1.2,1.2,0,0,0,.327,1.73l.038.023a1.163,1.163,0,0,1,.52.692,1.858,1.858,0,0,0,3.657-.29l.054-11.044Z" transform="translate(-347.236 -347.374)" fill="#f9cec7"/>
          </g>
        </g>
        <g id="Grupo_1112442" data-name="Grupo 1112442">
          <g id="Grupo_1112441" data-name="Grupo 1112441">
            <path id="Trazado_904609" data-name="Trazado 904609" d="M344.826,355.452a2.458,2.458,0,0,1-2.416-1.834.613.613,0,0,0-.276-.359l-.033-.02a1.727,1.727,0,0,1-.793-1.145,1.784,1.784,0,0,1,.3-1.384,5.633,5.633,0,0,0,.929-2.357l.022-6.393a.555.555,0,0,1,.584-.552l3.54.184a.555.555,0,0,1,.526.557l-.054,11.044c0,.014,0,.029,0,.043a2.285,2.285,0,0,1-2.128,2.208C344.962,355.449,344.894,355.452,344.826,355.452Zm-1.155-12.905-.02,5.861a.557.557,0,0,1-.009.1,6.725,6.725,0,0,1-1.13,2.854.661.661,0,0,0-.115.519.626.626,0,0,0,.287.415l.034.021a1.711,1.711,0,0,1,.769,1.029,1.347,1.347,0,0,0,1.451.994,1.189,1.189,0,0,0,1.114-1.173l.051-10.492Zm-.575,5.859h0Z" transform="translate(-341.275 -341.407)" fill="#29292b"/>
          </g>
        </g>
      </g>
      <g id="Grupo_1112448" data-name="Grupo 1112448" transform="translate(47.235 34.663)">
        <g id="Grupo_1112445" data-name="Grupo 1112445" transform="translate(0.554 0.554)">
          <g id="Grupo_1112444" data-name="Grupo 1112444">
            <path id="Trazado_904610" data-name="Trazado 904610" d="M405.777,233.421c-.413,1.877-2.526,2.962-4.716,2.424l-.974-.242a4.365,4.365,0,0,1-3.028-2.467,3.164,3.164,0,0,1-.184-1.9,3,3,0,0,1,.835-1.5,4.117,4.117,0,0,1,3.881-.924l.973.242C404.754,229.586,406.19,231.544,405.777,233.421Z" transform="translate(-396.804 -228.668)" fill="#f9cec7"/>
          </g>
        </g>
        <g id="Grupo_1112447" data-name="Grupo 1112447" transform="translate(0 0)">
          <g id="Grupo_1112446" data-name="Grupo 1112446">
            <path id="Trazado_904611" data-name="Trazado 904611" d="M396.776,231.136a5.26,5.26,0,0,1-1.255-.153l-.975-.243a4.9,4.9,0,0,1-3.406-2.793,3.724,3.724,0,0,1-.213-2.237,3.569,3.569,0,0,1,.987-1.777,4.679,4.679,0,0,1,4.4-1.068l.975.243c2.473.608,4.1,2.865,3.62,5.031a3.664,3.664,0,0,1-1.68,2.322A4.649,4.649,0,0,1,396.776,231.136Zm-1.717-7.314a3.342,3.342,0,0,0-2.365.9,2.429,2.429,0,0,0-.683,1.225,2.62,2.62,0,0,0,.155,1.573,3.841,3.841,0,0,0,2.647,2.141l.976.243a3.745,3.745,0,0,0,2.858-.387,2.564,2.564,0,0,0,1.182-1.618c.349-1.583-.909-3.25-2.8-3.715l-.975-.243A4.168,4.168,0,0,0,395.059,223.822Z" transform="translate(-390.842 -222.713)" fill="#29292b"/>
          </g>
        </g>
      </g>
      <g id="Grupo_1112453" data-name="Grupo 1112453" transform="translate(48.1 35.429)">
        <g id="Grupo_1112450" data-name="Grupo 1112450" transform="translate(0.555 0.555)">
          <g id="Grupo_1112449" data-name="Grupo 1112449">
            <path id="Trazado_904612" data-name="Trazado 904612" d="M414.209,240.9c-.413,1.877-2.526,2.962-4.716,2.424l-.974-.242A4.562,4.562,0,0,1,406.1,241.6l2.865-1.251a1.466,1.466,0,0,1,.932-.068,1.233,1.233,0,0,0,1.566-.8l.571-2.571A3.729,3.729,0,0,1,414.209,240.9Z" transform="translate(-406.101 -236.909)" fill="#5b6972"/>
          </g>
        </g>
        <g id="Grupo_1112452" data-name="Grupo 1112452" transform="translate(0 0)">
          <g id="Grupo_1112451" data-name="Grupo 1112451">
            <path id="Trazado_904613" data-name="Trazado 904613" d="M405.205,238.6a5.26,5.26,0,0,1-1.255-.153l-.975-.243a5.138,5.138,0,0,1-2.709-1.656.555.555,0,0,1,.2-.865l2.865-1.251a2.038,2.038,0,0,1,1.292-.1.868.868,0,0,0,.659-.084.485.485,0,0,0,.228-.3l.57-2.57a.555.555,0,0,1,.794-.374,4.287,4.287,0,0,1,2.465,4.6,3.665,3.665,0,0,1-1.68,2.322A4.648,4.648,0,0,1,405.205,238.6Zm-3.536-2.23a4.149,4.149,0,0,0,1.571.757l.976.243a3.745,3.745,0,0,0,2.858-.387,2.564,2.564,0,0,0,1.182-1.618h0A3.024,3.024,0,0,0,407,232.386l-.4,1.8a1.587,1.587,0,0,1-.726,1,1.986,1.986,0,0,1-1.514.217.92.92,0,0,0-.585.041Z" transform="translate(-400.136 -230.944)" fill="#29292b"/>
          </g>
        </g>
      </g>
      <g id="Grupo_1112458" data-name="Grupo 1112458" transform="translate(51.196 41.978)">
        <g id="Grupo_1112455" data-name="Grupo 1112455" transform="translate(0.555 0.555)">
          <g id="Grupo_1112454" data-name="Grupo 1112454">
            <path id="Trazado_904614" data-name="Trazado 904614" d="M442.764,308.4h0a1.08,1.08,0,0,1-1.08,1.08h-1.211a1.08,1.08,0,0,1-1.08-1.08h0a1.08,1.08,0,0,1,1.08-1.08h1.211A1.08,1.08,0,0,1,442.764,308.4Z" transform="translate(-439.393 -307.318)" fill="#5b6972"/>
          </g>
        </g>
        <g id="Grupo_1112457" data-name="Grupo 1112457" transform="translate(0)">
          <g id="Grupo_1112456" data-name="Grupo 1112456">
            <path id="Trazado_904615" data-name="Trazado 904615" d="M436.272,304.623h-1.211a1.635,1.635,0,0,1,0-3.271h1.211a1.637,1.637,0,0,1,1.635,1.635h0A1.637,1.637,0,0,1,436.272,304.623Zm-1.211-2.161a.526.526,0,0,0,0,1.051h1.211a.526.526,0,0,0,.525-.525h0a.526.526,0,0,0-.525-.525Z" transform="translate(-433.427 -301.352)" fill="#29292b"/>
          </g>
        </g>
      </g>
    </g>
  </g>
</svg>
