<svg xmlns="http://www.w3.org/2000/svg" xmlns:xlink="http://www.w3.org/1999/xlink" width="90.051" height="90.051" viewBox="0 0 90.051 90.051">
  <defs>
    <filter id="Rectángulo_400898" x="0" y="0" width="90.051" height="90.051" filterUnits="userSpaceOnUse">
      <feOffset dy="3" input="SourceAlpha"/>
      <feGaussianBlur stdDeviation="3" result="blur"/>
      <feFlood flood-opacity="0.161"/>
      <feComposite operator="in" in2="blur"/>
      <feComposite in="SourceGraphic"/>
    </filter>
  </defs>
  <g id="Grupo_1112100" data-name="Grupo 1112100" transform="translate(-326.73 -3826.949)">
    <g id="Grupo_1098742" data-name="Grupo 1098742" transform="translate(335.73 3832.949)">
      <g transform="matrix(1, 0, 0, 1, -9, -6)" filter="url(#Rectángulo_400898)">
        <g id="Rectángulo_400898-2" data-name="Rectángulo 400898" transform="translate(9 6)" fill="#b4d1f0" stroke="#fff" stroke-width="3" opacity="0.859">
          <rect width="72.051" height="72.051" rx="36.025" stroke="none"/>
          <rect x="1.5" y="1.5" width="69.051" height="69.051" rx="34.525" fill="none"/>
        </g>
      </g>
      <g id="Rectángulo_400907" data-name="Rectángulo 400907" transform="translate(0 0)" fill="none" stroke="#fff" stroke-width="3">
        <rect width="72.051" height="72.051" rx="36.025" stroke="none"/>
        <rect x="1.5" y="1.5" width="69.051" height="69.051" rx="34.525" fill="none"/>
      </g>
    </g>
    <g id="Grupo_1112494" data-name="Grupo 1112494" transform="translate(347.5 3844.855)">
      <g id="Grupo_1112492" data-name="Grupo 1112492" transform="translate(1.742 1.742)">
        <g id="Grupo_1112475" data-name="Grupo 1112475" transform="translate(23.742 7.419)">
          <circle id="Elipse_12147" data-name="Elipse 12147" cx="10.5" cy="10.5" r="10.5" transform="translate(-0.484 -0.161)" fill="#fcd770"/>
        </g>
        <g id="Grupo_1112476" data-name="Grupo 1112476" transform="translate(5.935)">
          <path id="Trazado_904655" data-name="Trazado 904655" d="M12.226,13.871a2.216,2.216,0,0,0-1.7.786A14.552,14.552,0,0,1,10,10.785,8.784,8.784,0,0,1,18.785,2H21.99a8.79,8.79,0,0,1,8.785,8.785,14.416,14.416,0,0,1-.126,1.877,13.978,13.978,0,0,1-.4,2,2.216,2.216,0,0,0-1.7-.786h-.742a2.681,2.681,0,0,1-1.484-2.4v-.386a3.148,3.148,0,0,0-5.372-2.226l-.564.564-.564-.564a3.148,3.148,0,0,0-5.372,2.226v.386a2.681,2.681,0,0,1-1.484,2.4Z" transform="translate(-10 -2)" fill="#656d78"/>
        </g>
        <g id="Grupo_1112477" data-name="Grupo 1112477" transform="translate(17.806 31.161)">
          <path id="Trazado_904656" data-name="Trazado 904656" d="M36.387,44.742V55.871H28.968V54.387A1.488,1.488,0,0,0,27.484,52.9H26V44.742A.744.744,0,0,1,26.742,44h2.226v.742a.744.744,0,0,0,.742.742h2.968a.744.744,0,0,0,.742-.742V44h2.226A.744.744,0,0,1,36.387,44.742Z" transform="translate(-26 -44)" fill="#e6e9ed"/>
        </g>
        <g id="Grupo_1112478" data-name="Grupo 1112478" transform="translate(20.774 29.677)">
          <path id="Trazado_904657" data-name="Trazado 904657" d="M34.452,43.484v.742a.744.744,0,0,1-.742.742H30.742A.744.744,0,0,1,30,44.226V42.742A.744.744,0,0,1,30.742,42h3.71Z" transform="translate(-30 -42)" fill="#b4dd7f"/>
        </g>
        <g id="Grupo_1112479" data-name="Grupo 1112479" transform="translate(19.639 25.226)">
          <path id="Trazado_904658" data-name="Trazado 904658" d="M28.47,41.935a4.43,4.43,0,0,0,1.135-2.968V36h4.452v4.452h-3.71a.744.744,0,0,0-.742.742v.742Z" transform="translate(-28.47 -36)" fill="#ff826e"/>
        </g>
        <g id="Grupo_1112480" data-name="Grupo 1112480" transform="translate(7.419 25.226)">
          <path id="Trazado_904659" data-name="Trazado 904659" d="M22.387,43.167v7.39a1.2,1.2,0,0,0-1.736-1.076l-2.715,1.358H12V36h4.452v2.968A4.458,4.458,0,0,0,20.9,43.419a4.483,4.483,0,0,0,1.484-.252Z" transform="translate(-12 -36)" fill="#ff826e"/>
        </g>
        <g id="Grupo_1112481" data-name="Grupo 1112481" transform="translate(0 25.226)">
          <path id="Trazado_904660" data-name="Trazado 904660" d="M22.774,53.806A1.488,1.488,0,0,1,21.29,55.29H7.7a5.692,5.692,0,0,1-4.741-8.851l.527-.794-.156-.312A12.562,12.562,0,0,1,2,39.71,3.7,3.7,0,0,1,5.71,36h3.71V50.839h5.935l2.715-1.358a1.2,1.2,0,0,1,1.736,1.076v.282H21.29a1.488,1.488,0,0,1,1.484,1.484Z" transform="translate(-2 -36)" fill="#f0d0b4"/>
        </g>
        <g id="Grupo_1112482" data-name="Grupo 1112482" transform="translate(25.226 25.226)">
          <path id="Trazado_904661" data-name="Trazado 904661" d="M43.315,38.849l.1.861a12.562,12.562,0,0,1-1.328,5.624l-.156.312.527.794a5.689,5.689,0,0,1-.905,7.367H38.968V42.677a.744.744,0,0,0-.742-.742H36V36h3.71a3.685,3.685,0,0,1,3.606,2.849Z" transform="translate(-36 -36)" fill="#f0d0b4"/>
        </g>
        <g id="Grupo_1112483" data-name="Grupo 1112483" transform="translate(23.178 11.871)">
          <path id="Trazado_904662" data-name="Trazado 904662" d="M36.119,21.8a2.22,2.22,0,0,1-1.573.653H33.24a9.777,9.777,0,0,0,.564-3.287V18h.742a2.224,2.224,0,0,1,1.573,3.8Z" transform="translate(-33.24 -18)" fill="#f0d0b4"/>
        </g>
        <g id="Grupo_1112484" data-name="Grupo 1112484" transform="translate(11.871 21.227)">
          <path id="Trazado_904663" data-name="Trazado 904663" d="M26.9,34.609v2.968a4.43,4.43,0,0,1-1.135,2.968H24.677a.744.744,0,0,0-.742.742v.49a4.483,4.483,0,0,1-1.484.252A4.458,4.458,0,0,1,18,37.577V34.609l1.335-4c.119.082.245.163.371.245a5.184,5.184,0,0,0,5.49,0c.126-.082.252-.163.371-.245Z" transform="translate(-18 -30.61)" fill="#f0d0b4"/>
        </g>
        <g id="Grupo_1112485" data-name="Grupo 1112485" transform="translate(8.903 5.935)">
          <path id="Trazado_904664" data-name="Trazado 904664" d="M28.839,15.935V17.1a9.777,9.777,0,0,1-.564,3.287,9.892,9.892,0,0,1-3.739,4.9c-.119.082-.245.163-.371.245a5.184,5.184,0,0,1-5.49,0c-.126-.082-.252-.163-.371-.245a9.9,9.9,0,0,1-3.057-3.368,10.179,10.179,0,0,1-.683-1.536A9.777,9.777,0,0,1,14,17.1V15.935a2.681,2.681,0,0,0,1.484-2.4v-.386a3.148,3.148,0,0,1,5.372-2.226l.564.564.564-.564a3.146,3.146,0,0,1,5.372,2.226v.386A2.681,2.681,0,0,0,28.839,15.935Z" transform="translate(-14 -10)" fill="#f0d0b4"/>
        </g>
        <g id="Grupo_1112486" data-name="Grupo 1112486" transform="translate(5.935 11.871)">
          <path id="Trazado_904665" data-name="Trazado 904665" d="M12.968,19.165a9.777,9.777,0,0,0,.564,3.287H12.226a2.226,2.226,0,1,1,0-4.452h.742Z" transform="translate(-10 -18)" fill="#f0d0b4"/>
        </g>
        <g id="Grupo_1112487" data-name="Grupo 1112487" transform="translate(31.161 1.484)">
          <path id="Trazado_904666" data-name="Trazado 904666" d="M49.935,4.742V6.226a.744.744,0,0,1-.742.742H44.742A.744.744,0,0,1,44,6.226V4.742A.744.744,0,0,1,44.742,4h4.452A.744.744,0,0,1,49.935,4.742Z" transform="translate(-44 -4)" fill="#aab2bd"/>
        </g>
        <g id="Grupo_1112488" data-name="Grupo 1112488" transform="translate(32.645 4.452)">
          <path id="Trazado_904667" data-name="Trazado 904667" d="M48.968,8v3.072a10.651,10.651,0,0,0-2.968,0V8Z" transform="translate(-46 -8)" fill="#ccd1d9"/>
        </g>
        <g id="Grupo_1112489" data-name="Grupo 1112489" transform="translate(40.272 7.419)">
          <path id="Trazado_904668" data-name="Trazado 904668" d="M58.506,16.244a10.215,10.215,0,0,0-2.226-2.226l.007-.007,1.551-1.551a1.574,1.574,0,0,1,2.226,2.226l-1.551,1.551Z" transform="translate(-56.28 -12)" fill="#ccd1d9"/>
        </g>
        <g id="Grupo_1112490" data-name="Grupo 1112490" transform="translate(26.71 10.387)">
          <path id="Trazado_904669" data-name="Trazado 904669" d="M52.839,23.419A7.419,7.419,0,1,1,45.419,16v7.419Z" transform="translate(-38 -16)" fill="#69d6f4"/>
        </g>
        <g id="Grupo_1112491" data-name="Grupo 1112491" transform="translate(34.129 10.387)">
          <path id="Trazado_904670" data-name="Trazado 904670" d="M55.419,23.419H48V16A7.422,7.422,0,0,1,55.419,23.419Z" transform="translate(-48 -16)" fill="#e6e9ed"/>
        </g>
      </g>
      <g id="Grupo_1112493" data-name="Grupo 1112493" transform="translate(1 1)">
        <ellipse id="Elipse_12148" data-name="Elipse 12148" cx="1" cy="0.5" rx="1" ry="0.5" transform="translate(13 12)"/>
        <ellipse id="Elipse_12149" data-name="Elipse 12149" cx="1" cy="0.5" rx="1" ry="0.5" transform="translate(19 12)"/>
        <path id="Trazado_904671" data-name="Trazado 904671" d="M23,26.11a3.125,3.125,0,0,0,2.811-1.738l.078-.157-1.327-.664-.078.157a1.659,1.659,0,0,1-2.968,0l-.078-.157-1.327.664.078.157A3.126,3.126,0,0,0,23,26.11Z" transform="translate(-5.931 -6.82)"/>
        <path id="Trazado_904672" data-name="Trazado 904672" d="M47,19.548A11.059,11.059,0,0,0,45.2,13.5l1.124-1.124A2.316,2.316,0,0,0,43.047,9.1l-1.124,1.124A11.054,11.054,0,0,0,38.1,8.643V6.935a1.485,1.485,0,0,0,1.484-1.484V3.968A1.485,1.485,0,0,0,38.1,2.484H33.645a1.485,1.485,0,0,0-1.484,1.484V5.452a1.485,1.485,0,0,0,1.484,1.484V8.641a10.938,10.938,0,0,0-4.456,2.02c0-.045,0-.091,0-.136A9.536,9.536,0,0,0,19.669,1H16.46a9.536,9.536,0,0,0-9.525,9.525,15.176,15.176,0,0,0,.471,3.722,2.958,2.958,0,0,0,2.5,4.559h.783a10.609,10.609,0,0,0,3.387,4.435l-.995,2.984H5.452A4.456,4.456,0,0,0,1,30.677a13.38,13.38,0,0,0,1.37,5.882l-.289.433A6.437,6.437,0,0,0,7.437,47h13.6a2.223,2.223,0,0,0,2.089-1.484H47V44.032H34.1a6.409,6.409,0,0,0-.055-7.04l-.289-.433a13.375,13.375,0,0,0,1.37-5.881c0-.01,0-.019,0-.028.248.016.5.028.743.028A11.142,11.142,0,0,0,47,19.548Zm-2.9-9.4a.832.832,0,0,1,1.177,1.177L44.3,12.3a11.294,11.294,0,0,0-1.177-1.177ZM33.645,3.968H38.1V5.452H33.645Zm1.484,2.968h1.484V8.457c-.246-.016-.491-.038-.742-.038s-.5.022-.742.037Zm1.484,5.979A6.687,6.687,0,0,1,42.5,18.806H36.613ZM42.5,20.29a6.676,6.676,0,1,1-7.376-7.376V20.29ZM31.248,26.267a4.394,4.394,0,0,0-.571-.041H28.925a9.561,9.561,0,0,1-2.7-6.677c0-.249.011-.5.03-.745a2.945,2.945,0,0,0,1.554-.464,8.038,8.038,0,0,0,3.438,7.927ZM29.194,44.032H23.258V43.29a2.229,2.229,0,0,0-2.226-2.226H20.29V33.645h1.484a1.485,1.485,0,0,0,1.484,1.484h2.968a1.485,1.485,0,0,0,1.484-1.484h1.484ZM18.815,33.561a3.676,3.676,0,0,1-4.461-3.625V27.088l1.005-3.016a5.793,5.793,0,0,0,5.409,0l1.005,3.016v2.848a3.689,3.689,0,0,1-.761,2.226H20.29a1.481,1.481,0,0,0-1.475,1.4Zm7.41-18.786v-.42a1.484,1.484,0,0,1,0,2.968h-.307A10.789,10.789,0,0,0,26.226,14.775Zm-1.453,5.39a11,11,0,0,0,2.209,6.061H23.051l-.995-2.984A10.641,10.641,0,0,0,24.772,20.165Zm-1.514,13.48V32.161h2.968v1.484Zm2.968-2.968H23.258c-.02,0-.039.005-.059.006a5.222,5.222,0,0,0,.059-.748V27.71h2.968ZM16.46,2.484h3.208a8.05,8.05,0,0,1,8.041,8.041,13.722,13.722,0,0,1-.257,2.619,2.944,2.944,0,0,0-1.227-.273H25.7a1.92,1.92,0,0,1-.96-1.659v-.387a3.89,3.89,0,0,0-6.64-2.75l-.037.037-.037-.037a3.89,3.89,0,0,0-6.64,2.75v.387a1.921,1.921,0,0,1-.96,1.659H9.9a2.944,2.944,0,0,0-1.227.273,13.722,13.722,0,0,1-.257-2.619A8.05,8.05,0,0,1,16.46,2.484ZM9.9,17.323a1.484,1.484,0,0,1,0-2.968v.42a10.789,10.789,0,0,0,.307,2.548Zm1.484-2.548v-.74a3.4,3.4,0,0,0,1.484-2.823v-.387a2.406,2.406,0,0,1,4.107-1.7l1.086,1.086,1.086-1.086a2.406,2.406,0,0,1,4.107,1.7v.387a3.4,3.4,0,0,0,1.484,2.823v.74a9.157,9.157,0,0,1-4.328,7.81,4.5,4.5,0,0,1-4.7,0,9.157,9.157,0,0,1-4.328-7.81ZM12.871,27.71v2.226a5.2,5.2,0,0,0,5.194,5.194,5.258,5.258,0,0,0,.742-.062v4.575a1.908,1.908,0,0,0-.459-.061,1.962,1.962,0,0,0-.869.2l-2.557,1.279H9.9V27.71Zm8.9,17.065a.743.743,0,0,1-.742.742H7.437a4.953,4.953,0,0,1-4.121-7.7l.766-1.149-.349-.7a11.876,11.876,0,0,1-1.249-5.29A2.971,2.971,0,0,1,5.452,27.71H8.419V41.065H6.935v1.484h8.336l2.871-1.436a.471.471,0,0,1,.663.41v1.025h2.226a.743.743,0,0,1,.742.742Zm8.9-.742V33.645a1.485,1.485,0,0,0-1.484-1.484H27.71V27.71h2.968a2.971,2.971,0,0,1,2.968,2.968A11.882,11.882,0,0,1,32.4,35.968l-.349.7.766,1.149a4.94,4.94,0,0,1-.6,6.217ZM33.683,27.4a8.158,8.158,0,1,0-4.611-12.359,2.938,2.938,0,0,0-.349-.8c.123-.488.225-.981.3-1.478A9.548,9.548,0,0,1,35.871,9.9a9.645,9.645,0,0,1,0,19.29,9.833,9.833,0,0,1-1.024-.06,4.461,4.461,0,0,0-1.164-1.73Z" transform="translate(-1 -1)"/>
      </g>
    </g>
  </g>
</svg>
