<svg xmlns="http://www.w3.org/2000/svg" width="100" height="112.217" viewBox="0 0 100 112.217">
  <g id="Grupo_1112502" data-name="Grupo 1112502" transform="translate(-193.051 -910.779)">
    <rect id="Rectángulo_402721" data-name="Rectángulo 402721" width="100" height="112.217" rx="10" transform="translate(193.051 910.779)" fill="#feeec9"/>
    <g id="Grupo_1112133" data-name="Grupo 1112133" transform="translate(184.746 923.82)">
      <path id="Trazado_903409" data-name="Trazado 903409" d="M45.231,11.076a45.9,45.9,0,0,1,0,75.157,45.9,45.9,0,0,1,0-75.157Z" transform="translate(-5.857 -5.896)" fill="#dbff78" fill-rule="evenodd"/>
      <path id="Trazado_903410" data-name="Trazado 903410" d="M142.685,11.076a45.9,45.9,0,0,1,0,75.157Z" transform="translate(-103.311 -5.896)" fill="#c9f550" fill-rule="evenodd"/>
      <path id="Trazado_903411" data-name="Trazado 903411" d="M411.423,226.1a3.435,3.435,0,1,1-2.429-4.207A3.435,3.435,0,0,1,411.423,226.1Z" transform="translate(-321.527 -181.392)" fill="#fcdb35" fill-rule="evenodd"/>
      <circle id="Elipse_12047" data-name="Elipse 12047" cx="3.437" cy="3.437" r="3.437" transform="matrix(0.795, -0.606, 0.606, 0.795, 72.435, 77.844)" fill="#fcdb35"/>
      <g id="Grupo_1112132" data-name="Grupo 1112132" transform="translate(18.652 3.997)">
        <path id="Trazado_903412" data-name="Trazado 903412" d="M407.1,229.243a3.435,3.435,0,1,1,2.315-2.4,3.435,3.435,0,0,1-2.315,2.4Z" transform="translate(-340.178 -186.139)" fill="#ffeb87" fill-rule="evenodd"/>
        <path id="Trazado_903413" data-name="Trazado 903413" d="M351.469,436.841a3.437,3.437,0,1,1,2.317-2.4A3.437,3.437,0,0,1,351.469,436.841Z" transform="translate(-293.837 -359.051)" fill="#ffeb87" fill-rule="evenodd"/>
        <path id="Trazado_903414" data-name="Trazado 903414" d="M373.72,29.46a3.435,3.435,0,1,1-2.429-4.207A3.435,3.435,0,0,1,373.72,29.46Z" transform="translate(-308.774 -21.604)" fill="#fcdb35" fill-rule="evenodd"/>
        <path id="Trazado_903415" data-name="Trazado 903415" d="M295.476,15.328a3.435,3.435,0,1,1-2.429-4.207,3.435,3.435,0,0,1,2.429,4.207Z" transform="translate(-243.602 -9.833)" fill="#fcdb35" fill-rule="evenodd"/>
        <path id="Trazado_903416" data-name="Trazado 903416" d="M451.964,43.592a3.435,3.435,0,1,1-2.429-4.207,3.435,3.435,0,0,1,2.429,4.207Z" transform="translate(-373.947 -33.375)" fill="#fcdb35" fill-rule="evenodd"/>
        <path id="Trazado_903417" data-name="Trazado 903417" d="M369.464,32.533a3.435,3.435,0,1,1,2.377-2.415,3.435,3.435,0,0,1-2.377,2.415Z" transform="translate(-308.775 -22.262)" fill="#ffeb87" fill-rule="evenodd"/>
        <path id="Trazado_903418" data-name="Trazado 903418" d="M291.219,18.4a3.435,3.435,0,1,1,2.377-2.415,3.435,3.435,0,0,1-2.377,2.415Z" transform="translate(-243.602 -10.491)" fill="#ffeb87" fill-rule="evenodd"/>
        <path id="Trazado_903419" data-name="Trazado 903419" d="M447.707,46.665a3.435,3.435,0,1,1,2.378-2.415,3.435,3.435,0,0,1-2.378,2.415Z" transform="translate(-373.946 -34.033)" fill="#ffeb87" fill-rule="evenodd"/>
        <path id="Trazado_903420" data-name="Trazado 903420" d="M227.808,214.161l8.52,2.283,2.283,8.52-6.237,6.237-8.52-2.283-2.283-8.52Z" transform="translate(-187.67 -179.05)" fill="#78eaff" fill-rule="evenodd"/>
        <path id="Trazado_903421" data-name="Trazado 903421" d="M275.843,239.818l-2.09-.56,6.233-6.233L277.7,224.51l2.09.56,2.281,8.514Z" transform="translate(-231.134 -187.67)" fill="#54ddfc" fill-rule="evenodd"/>
        <path id="Trazado_903422" data-name="Trazado 903422" d="M204.155,302.434l8.52,2.283,2.283,8.52-6.237,6.237-8.52-2.283-2.283-8.52Z" transform="translate(-167.969 -252.575)" fill="#ff8298" fill-rule="evenodd"/>
        <path id="Trazado_903423" data-name="Trazado 903423" d="M252.191,328.091l-2.09-.56,6.233-6.233-2.281-8.514,2.09.56,2.281,8.514Z" transform="translate(-211.434 -261.195)" fill="#ff5471" fill-rule="evenodd"/>
        <path id="Trazado_903424" data-name="Trazado 903424" d="M292.676,278.88l8.52,2.283,2.283,8.52-6.237,6.237-8.52-2.283-2.283-8.52Z" transform="translate(-241.701 -232.956)" fill="#dbff78" fill-rule="evenodd"/>
        <path id="Trazado_903425" data-name="Trazado 903425" d="M340.711,304.537l-2.09-.56,6.233-6.233-2.281-8.514,2.09.56,2.281,8.514Z" transform="translate(-285.165 -241.576)" fill="#c9f550" fill-rule="evenodd"/>
        <path id="Trazado_903426" data-name="Trazado 903426" d="M95.542,13.911a2.266,2.266,0,1,1-3.321-2.548,2.245,2.245,0,0,1,1.129-.306,2.308,2.308,0,0,1,.589.078,2.27,2.27,0,0,1,1.6,2.775ZM57.568,38.636,51.693,44.51a1.168,1.168,0,0,0-.3,1.13l2.116,7.9-5.784,5.786a1.163,1.163,0,0,0-.3,1.129l2.163,8.08a44.833,44.833,0,0,1-9.04,9.489V18.613a1.17,1.17,0,0,0-2.339,0v9.351l-4.439-4.439a1.17,1.17,0,0,0-1.654,1.654l6.093,6.093v9.008l-9-9a1.17,1.17,0,0,0-1.654,1.654L38.206,43.586v9.008l-9.869-9.867a1.169,1.169,0,0,0-1.654,1.652L38.206,55.9v7.258L31.8,56.751A1.17,1.17,0,1,0,30.144,58.4l8.062,8.063V78.027a44.738,44.738,0,0,1,1.17-71.421,45.016,45.016,0,0,1,8.306,7.857H45.254a1.169,1.169,0,1,0,0,2.339h4.221a44.662,44.662,0,0,1,2.989,4.813H48.754a1.17,1.17,0,0,0,0,2.339h4.88a44.428,44.428,0,0,1,1.9,4.813H51.118a1.17,1.17,0,1,0,0,2.339h5.109a44.673,44.673,0,0,1,1.342,7.53Zm21.6,21.782-5.308,5.308-7.249-1.943-1.943-7.251,5.308-5.306,7.249,1.941ZM84.392,43.23a2.268,2.268,0,0,1,2.189-1.681,2.223,2.223,0,0,1,.586.078,2.266,2.266,0,1,1-2.775,1.6ZM59.131,40.378l-5.307,5.308,1.943,7.251,7.249,1.941,5.308-5.306-1.943-7.251ZM59.048,69.7l5.306-5.308-1.941-7.249L55.161,55.2,49.854,60.5,51.8,67.752Zm20.429,9.391a2.264,2.264,0,1,1-2.193-2.855,2.273,2.273,0,0,1,2.194,2.855ZM65.02,8.017a2.265,2.265,0,0,1,2.185-1.68,2.309,2.309,0,0,1,.59.078,2.266,2.266,0,1,1-2.775,1.6Zm13.073,2.361a2.266,2.266,0,1,1,3.322,2.548,2.265,2.265,0,0,1-3.322-2.548Zm16.451-1.5a4.6,4.6,0,0,0-5.165,6.768L76.257,28.767H57.986A46.963,46.963,0,0,0,56.2,23.954H68.462a1.172,1.172,0,0,0,.827-.343l8.669-8.671a4.6,4.6,0,0,0,4.626.012,4.606,4.606,0,1,0-6.29-1.686.127.127,0,0,0,.011.02l-8.328,8.328H55.1a46.729,46.729,0,0,0-2.8-4.813H60.18a1.17,1.17,0,0,0,.827-.342l3.879-3.881a4.548,4.548,0,0,0,1.131.473,4.609,4.609,0,1,0-2.783-2.127L59.7,14.463h-9.04A47.377,47.377,0,0,0,40.047,4.21a1.172,1.172,0,0,0-1.345,0A47.1,47.1,0,0,0,24.132,64.818,47.477,47.477,0,0,0,38.205,80.945V87.03a1.17,1.17,0,0,0,2.339,0V80.949A47.137,47.137,0,0,0,51.373,70.059l7.069,1.895,1.634,6.1a1.169,1.169,0,1,0,2.259-.606L60.7,71.349l5.306-5.308,7.251,1.943L75,74.5l-.02.01a4.609,4.609,0,1,0,2.279-.616L75.517,67.38l5.308-5.308,6.1,1.632a1.129,1.129,0,0,0,.3.04,1.169,1.169,0,0,0,.3-2.3l-6.1-1.634-1.941-7.249,4.77-4.77a4.605,4.605,0,1,0-2.125-5.169,4.577,4.577,0,0,0,.459,3.5.229.229,0,0,1,.012.02l-4.77,4.77-7.251-1.943-1.942-7.249L73.1,37.254A1.17,1.17,0,0,0,71.449,35.6l-4.462,4.462-7.115-1.908a46.978,46.978,0,0,0-1.228-7.048h18.1a1.169,1.169,0,0,0,.827-.343L91.032,17.3a4.592,4.592,0,0,0,2.32.63,4.605,4.605,0,0,0,1.193-9.053Z" transform="translate(-18.652 -3.997)" fill-rule="evenodd"/>
      </g>
    </g>
  </g>
</svg>
