<svg xmlns="http://www.w3.org/2000/svg" xmlns:xlink="http://www.w3.org/1999/xlink" width="108.914" height="108.914" viewBox="0 0 108.914 108.914">
  <defs>
    <filter id="Trazado_874925" x="0" y="0" width="108.914" height="108.914" filterUnits="userSpaceOnUse">
      <feOffset dy="3" input="SourceAlpha"/>
      <feGaussianBlur stdDeviation="3" result="blur"/>
      <feFlood flood-opacity="0.161"/>
      <feComposite operator="in" in2="blur"/>
      <feComposite in="SourceGraphic"/>
    </filter>
  </defs>
  <g id="Grupo_1112505" data-name="Grupo 1112505" transform="translate(-584.043 -1294.727)">
    <g id="Grupo_1098742" data-name="Grupo 1098742" transform="translate(593.043 1300.727)">
      <g transform="matrix(1, 0, 0, 1, -9, -6)" filter="url(#Trazado_874925)">
        <g id="Trazado_874925-2" data-name="Trazado 874925" transform="translate(9 6)" fill="#c6e697" opacity="0.859">
          <path d="M 45.45676803588867 89.41407012939453 C 39.52198028564453 89.41407012939453 33.76551818847656 88.25206756591797 28.34726715087891 85.96034240722656 C 23.11311721801758 83.74648284912109 18.41204261779785 80.57682800292969 14.37464332580566 76.5394287109375 C 10.33724308013916 72.50202941894531 7.167593002319336 67.80095672607422 4.953730583190918 62.56679534912109 C 2.662005424499512 57.14855575561523 1.500005483627319 51.39208221435547 1.500005483627319 45.45729446411133 C 1.500005483627319 39.52198028564453 2.662005424499512 33.76551818847656 4.953730583190918 28.34726905822754 C 7.167593002319336 23.11310577392578 10.33724308013916 18.41203117370605 14.37464332580566 14.37464332580566 C 18.41204261779785 10.33724403381348 23.11311721801758 7.167593955993652 28.34726715087891 4.953731060028076 C 33.76551818847656 2.662006139755249 39.52198028564453 1.500006198883057 45.45676803588867 1.500006198883057 C 51.39155578613281 1.500006198883057 57.14802932739258 2.662006139755249 62.56626892089844 4.953731060028076 C 67.80043029785156 7.167593955993652 72.50150299072266 10.33724403381348 76.53890228271484 14.37464332580566 C 80.57630920410156 18.41203117370605 83.74595642089844 23.11310577392578 85.95981597900391 28.34726905822754 C 88.25154113769531 33.76551818847656 89.41354370117188 39.52198028564453 89.41354370117188 45.45676803588867 C 89.41354370117188 51.39208221435547 88.25154113769531 57.14855575561523 85.95981597900391 62.56679534912109 C 83.74595642089844 67.80095672607422 80.57630920410156 72.50202941894531 76.53890228271484 76.5394287109375 C 72.50150299072266 80.57682800292969 67.80043029785156 83.74648284912109 62.56626892089844 85.96034240722656 C 57.14802932739258 88.25206756591797 51.39155578613281 89.41407012939453 45.45676803588867 89.41407012939453 Z" stroke="none"/>
          <path d="M 45.45676803588867 3 C 39.72381210327148 3 34.1639404296875 4.12213134765625 28.93159484863281 6.335227966308594 C 23.87622833251953 8.473472595214844 19.33542633056641 11.53517150878906 15.43529510498047 15.435302734375 C 11.53517150878906 19.33543395996094 8.473464965820312 23.87622833251953 6.335227966308594 28.93160247802734 C 4.122123718261719 34.16394424438477 3 39.72381591796875 3 45.4572868347168 C 3 51.19024658203125 4.122123718261719 56.75011825561523 6.335227966308594 61.98246002197266 C 8.473464965820312 67.03782653808594 11.53517150878906 71.57862854003906 15.43529510498047 75.478759765625 C 19.33542633056641 79.37889099121094 23.87622833251953 82.44058990478516 28.93159484863281 84.57883453369141 C 34.1639404296875 86.79193115234375 39.72381210327148 87.9140625 45.45676803588867 87.9140625 C 51.18972396850586 87.9140625 56.74959564208984 86.79193115234375 61.98194122314453 84.57883453369141 C 67.03730773925781 82.44058990478516 71.57810974121094 79.37889099121094 75.47824096679688 75.478759765625 C 79.37837219238281 71.57862854003906 82.44007110595703 67.03782653808594 84.57830810546875 61.98246002197266 C 86.79141235351562 56.75011825561523 87.91353607177734 51.19024658203125 87.91353607177734 45.4567756652832 C 87.91353607177734 39.72381591796875 86.79141235351562 34.16394424438477 84.57830810546875 28.93160247802734 C 82.44007110595703 23.87622833251953 79.37837219238281 19.33543395996094 75.47824096679688 15.435302734375 C 71.57810974121094 11.53517150878906 67.03730773925781 8.473472595214844 61.98194122314453 6.335227966308594 C 56.74959564208984 4.12213134765625 51.18972396850586 3 45.45676803588867 3 M 45.45676803588867 0 C 70.56185150146484 0 90.91353607177734 20.35169219970703 90.91353607177734 45.4567756652832 L 90.91353607177734 45.4572868347168 C 90.91353607177734 70.5623779296875 70.56185150146484 90.9140625 45.45676803588867 90.9140625 C 20.3516845703125 90.9140625 0 70.5623779296875 0 45.4572868347168 L 0 45.4567756652832 C 0 20.35169219970703 20.3516845703125 0 45.45676803588867 0 Z" stroke="none" fill="#fff"/>
        </g>
      </g>
      <g id="Trazado_874923" data-name="Trazado 874923" transform="translate(0 0)" fill="none">
        <path d="M45.457,0A45.457,45.457,0,0,1,90.914,45.457h0A45.457,45.457,0,0,1,0,45.457H0A45.457,45.457,0,0,1,45.457,0Z" stroke="none"/>
        <path d="M 45.45676803588867 3 C 39.72381210327148 3 34.1639404296875 4.12213134765625 28.93159484863281 6.335227966308594 C 23.87622833251953 8.473472595214844 19.33542633056641 11.53517150878906 15.43529510498047 15.435302734375 C 11.53517150878906 19.33543395996094 8.473464965820312 23.87622833251953 6.335227966308594 28.93160247802734 C 4.122123718261719 34.16394424438477 3 39.72381591796875 3 45.4572868347168 C 3 51.19024658203125 4.122123718261719 56.75011825561523 6.335227966308594 61.98246002197266 C 8.473464965820312 67.03782653808594 11.53517150878906 71.57862854003906 15.43529510498047 75.478759765625 C 19.33542633056641 79.37889099121094 23.87622833251953 82.44058990478516 28.93159484863281 84.57883453369141 C 34.1639404296875 86.79193115234375 39.72381210327148 87.9140625 45.45676803588867 87.9140625 C 51.18972396850586 87.9140625 56.74959564208984 86.79193115234375 61.98194122314453 84.57883453369141 C 67.03730773925781 82.44058990478516 71.57810974121094 79.37889099121094 75.47824096679688 75.478759765625 C 79.37837219238281 71.57862854003906 82.44007110595703 67.03782653808594 84.57830810546875 61.98246002197266 C 86.79141235351562 56.75011825561523 87.91353607177734 51.19024658203125 87.91353607177734 45.4567756652832 C 87.91353607177734 39.72381591796875 86.79141235351562 34.16394424438477 84.57830810546875 28.93160247802734 C 82.44007110595703 23.87622833251953 79.37837219238281 19.33543395996094 75.47824096679688 15.435302734375 C 71.57810974121094 11.53517150878906 67.03730773925781 8.473472595214844 61.98194122314453 6.335227966308594 C 56.74959564208984 4.12213134765625 51.18972396850586 3 45.45676803588867 3 M 45.45676803588867 0 C 70.56185150146484 0 90.91353607177734 20.35169219970703 90.91353607177734 45.4567756652832 L 90.91353607177734 45.4572868347168 C 90.91353607177734 70.5623779296875 70.56185150146484 90.9140625 45.45676803588867 90.9140625 C 20.3516845703125 90.9140625 0 70.5623779296875 0 45.4572868347168 L 0 45.4567756652832 C 0 20.35169219970703 20.3516845703125 0 45.45676803588867 0 Z" stroke="none" fill="#fff"/>
      </g>
    </g>
    <g id="Grupo_1112139" data-name="Grupo 1112139" transform="translate(611.949 1319.604)">
      <g id="Grupo_1112137" data-name="Grupo 1112137" transform="translate(1.037 1.037)">
        <path id="Trazado_903439" data-name="Trazado 903439" d="M307.032,18.75a2.074,2.074,0,0,1,2.933,0l1.22,1.22,3.6-3.6a2.074,2.074,0,0,1,2.933,2.933l-5.062,5.062a2.074,2.074,0,0,1-2.933,0l-2.686-2.686A2.074,2.074,0,0,1,307.032,18.75Zm-.074,10.469a10.369,10.369,0,1,0-3.433-3.433q-.448,1.671-.9,3.342a.808.808,0,0,0,1,.985Z" transform="translate(-271.717 -10)" fill="#e0ef9b" fill-rule="evenodd"/>
        <path id="Trazado_903440" data-name="Trazado 903440" d="M353,66.2l-3.6,3.6-1.22-1.22a2.074,2.074,0,0,0-2.933,2.933l2.686,2.686a2.074,2.074,0,0,0,2.933,0l5.063-5.062A2.074,2.074,0,0,0,353,66.2Z" transform="translate(-309.94 -59.83)" fill="#fff" fill-rule="evenodd"/>
        <path id="Trazado_903441" data-name="Trazado 903441" d="M381.954,282h-5.565a17.172,17.172,0,0,1-2.309,8.627l4.82,2.783A22.711,22.711,0,0,0,381.954,282Z" transform="translate(-336.32 -253.792)" fill="#ffc144" fill-rule="evenodd"/>
        <path id="Trazado_903442" data-name="Trazado 903442" d="M151.155,367.969l-4.82-2.783a17.262,17.262,0,0,1-23.57,6.316l-2.783,4.82a22.831,22.831,0,0,0,31.174-8.353Z" transform="translate(-108.574 -328.348)" fill="#ffad95" fill-rule="evenodd"/>
        <path id="Trazado_903443" data-name="Trazado 903443" d="M24.19,198.337a17.263,17.263,0,0,1-6.316-23.57l-4.82-2.783a22.831,22.831,0,0,0,8.353,31.174Z" transform="translate(-10 -155.183)" fill="#ccf5fc" fill-rule="evenodd"/>
        <path id="Trazado_903444" data-name="Trazado 903444" d="M44.263,76.192a17.245,17.245,0,0,1,14.943-8.625V62A22.808,22.808,0,0,0,39.443,73.409Z" transform="translate(-36.389 -56.609)" fill="#ffc144" fill-rule="evenodd"/>
        <ellipse id="Elipse_12049" data-name="Elipse 12049" cx="2.192" cy="3.827" rx="2.192" ry="3.827" transform="translate(16.786 18.419) rotate(-34.945)" fill="#b8ecbc"/>
        <path id="Trazado_903445" data-name="Trazado 903445" d="M151.843,231.26c-1.266,0-2.652-1.4-4.328-1.084a5.888,5.888,0,0,0-4.534,4.694,12.306,12.306,0,0,0,1.369,7.739c.634,1.291,2.6,4.339,4.344,4,.93-.179,1.869-.836,3.15-.836s2.22.657,3.15.836c1.74.334,3.71-2.714,4.344-4a12.3,12.3,0,0,0,1.369-7.739,5.888,5.888,0,0,0-4.534-4.694c-1.676-.319-3.062,1.084-4.328,1.084Z" transform="translate(-129.026 -207.298)" fill="#ff7d97" fill-rule="evenodd"/>
      </g>
      <g id="Grupo_1112138" data-name="Grupo 1112138" transform="translate(0)">
        <path id="Trazado_903446" data-name="Trazado 903446" d="M46.671,74.818H41.106a1.037,1.037,0,0,0-1.037,1.037A16.258,16.258,0,0,1,28.2,91.48a1.037,1.037,0,1,0,.555,2,18.413,18.413,0,0,0,9.588-6.464q.426-.553.807-1.13l3.019,1.743a21.761,21.761,0,0,1-28.294,7.584l1.747-3.026a18.068,18.068,0,0,0,3.329,1.293,1.037,1.037,0,1,0,.555-2A16.217,16.217,0,0,1,23.854,59.64,1.037,1.037,0,0,0,24.891,58.6V53.038A1.037,1.037,0,0,0,23.854,52,23.854,23.854,0,1,0,47.708,75.855,1.037,1.037,0,0,0,46.671,74.818ZM22.817,54.1v3.5A18.3,18.3,0,0,0,8.565,65.83L5.538,64.083A21.788,21.788,0,0,1,22.817,54.1ZM2.074,75.855A21.647,21.647,0,0,1,4.5,65.878l3.027,1.747a18.279,18.279,0,0,0,1.839,19.39,18.4,18.4,0,0,0,4.465,4.13l-1.747,3.026A21.781,21.781,0,0,1,2.074,75.855ZM43.21,85.833l-3.018-1.742a18.068,18.068,0,0,0,1.922-7.2h3.5A21.626,21.626,0,0,1,43.21,85.833Z" transform="translate(0 -46.608)"/>
        <path id="Trazado_903447" data-name="Trazado 903447" d="M143.659,167.368a5.955,5.955,0,0,0-4.859-2.683,1.039,1.039,0,0,0-.909.5,5.024,5.024,0,0,0,.108,5.335c.012.018.024.035.036.053A6.948,6.948,0,0,0,133,176a13.423,13.423,0,0,0,1.453,8.41c.1.2,2.3,4.611,5,4.61a2.468,2.468,0,0,0,.467-.045,7.331,7.331,0,0,0,1.247-.395,3.657,3.657,0,0,1,3.415,0,7.345,7.345,0,0,0,1.247.395,2.47,2.47,0,0,0,.467.045c2.706,0,4.906-4.412,5-4.61a13.423,13.423,0,0,0,1.453-8.41,6.915,6.915,0,0,0-5.355-5.5,4.966,4.966,0,0,0-3,.523A5.11,5.11,0,0,0,143.659,167.368Zm-4.261-.542a3.813,3.813,0,0,1,2.511,1.656,2.967,2.967,0,0,1,.35,2.579,3.814,3.814,0,0,1-2.511-1.656A2.967,2.967,0,0,1,139.4,166.826Zm7.616,5.712a4.85,4.85,0,0,1,3.713,3.889,11.407,11.407,0,0,1-1.285,7.068c-.826,1.681-2.445,3.593-3.217,3.443a5.683,5.683,0,0,1-.894-.294,5.637,5.637,0,0,0-4.9,0,5.692,5.692,0,0,1-.894.294c-.773.149-2.392-1.762-3.217-3.443a11.409,11.409,0,0,1-1.285-7.068,4.85,4.85,0,0,1,3.713-3.889,1.639,1.639,0,0,1,.308-.028,4.475,4.475,0,0,1,1.724.526,3.956,3.956,0,0,0,4.2,0A3.581,3.581,0,0,1,147.014,172.538Z" transform="translate(-119.026 -147.604)"/>
        <path id="Trazado_903448" data-name="Trazado 903448" d="M303.41,0a11.411,11.411,0,0,0-9.961,16.972l-.784,2.925a1.822,1.822,0,0,0,.487,1.786,1.848,1.848,0,0,0,1.787.466l2.908-.78A11.409,11.409,0,1,0,303.41,0Zm0,20.743a9.313,9.313,0,0,1-4.872-1.371,1.038,1.038,0,0,0-.811-.118l-2.955.793.793-2.955a1.037,1.037,0,0,0-.118-.811,9.335,9.335,0,1,1,7.963,4.463Z" transform="translate(-261.717)"/>
        <path id="Trazado_903449" data-name="Trazado 903449" d="M347.72,56.507a3.111,3.111,0,0,0-4.4,0l-2.863,2.862-.486-.486a3.111,3.111,0,1,0-4.4,4.4l2.686,2.686a3.115,3.115,0,0,0,4.4,0l5.062-5.062a3.111,3.111,0,0,0,0-4.4Zm-1.467,2.933L341.191,64.5a1.038,1.038,0,0,1-1.466,0l-2.686-2.686A1.037,1.037,0,0,1,338.5,60.35l1.22,1.22a1.037,1.037,0,0,0,1.467,0l3.6-3.6a1.037,1.037,0,0,1,1.467,1.466Z" transform="translate(-299.953 -49.83)"/>
        <path id="Trazado_903450" data-name="Trazado 903450" d="M221.041,438.343a1.037,1.037,0,1,0,1.038,1.037,1.037,1.037,0,0,0-1.038-1.037Z" transform="translate(-197.187 -392.881)"/>
      </g>
    </g>
  </g>
</svg>
