<svg xmlns="http://www.w3.org/2000/svg" xmlns:xlink="http://www.w3.org/1999/xlink" width="108.914" height="108.914" viewBox="0 0 108.914 108.914">
  <defs>
    <filter id="Trazado_874925" x="0" y="0" width="108.914" height="108.914" filterUnits="userSpaceOnUse">
      <feOffset dy="3" input="SourceAlpha"/>
      <feGaussianBlur stdDeviation="3" result="blur"/>
      <feFlood flood-opacity="0.161"/>
      <feComposite operator="in" in2="blur"/>
      <feComposite in="SourceGraphic"/>
    </filter>
  </defs>
  <g id="Grupo_1112506" data-name="Grupo 1112506" transform="translate(-903.293 -1294.727)">
    <g id="Grupo_1098742" data-name="Grupo 1098742" transform="translate(912.293 1300.727)">
      <g transform="matrix(1, 0, 0, 1, -9, -6)" filter="url(#Trazado_874925)">
        <g id="Trazado_874925-2" data-name="Trazado 874925" transform="translate(9 6)" fill="#c6e697" opacity="0.859">
          <path d="M 45.45676803588867 89.41407012939453 C 39.52198028564453 89.41407012939453 33.76551818847656 88.25206756591797 28.34726715087891 85.96034240722656 C 23.11311721801758 83.74648284912109 18.41204261779785 80.57682800292969 14.37464332580566 76.5394287109375 C 10.33724308013916 72.50202941894531 7.167593002319336 67.80095672607422 4.953730583190918 62.56679534912109 C 2.662005424499512 57.14855575561523 1.500005483627319 51.39208221435547 1.500005483627319 45.45729446411133 C 1.500005483627319 39.52198028564453 2.662005424499512 33.76551818847656 4.953730583190918 28.34726905822754 C 7.167593002319336 23.11310577392578 10.33724308013916 18.41203117370605 14.37464332580566 14.37464332580566 C 18.41204261779785 10.33724403381348 23.11311721801758 7.167593955993652 28.34726715087891 4.953731060028076 C 33.76551818847656 2.662006139755249 39.52198028564453 1.500006198883057 45.45676803588867 1.500006198883057 C 51.39155578613281 1.500006198883057 57.14802932739258 2.662006139755249 62.56626892089844 4.953731060028076 C 67.80043029785156 7.167593955993652 72.50150299072266 10.33724403381348 76.53890228271484 14.37464332580566 C 80.57630920410156 18.41203117370605 83.74595642089844 23.11310577392578 85.95981597900391 28.34726905822754 C 88.25154113769531 33.76551818847656 89.41354370117188 39.52198028564453 89.41354370117188 45.45676803588867 C 89.41354370117188 51.39208221435547 88.25154113769531 57.14855575561523 85.95981597900391 62.56679534912109 C 83.74595642089844 67.80095672607422 80.57630920410156 72.50202941894531 76.53890228271484 76.5394287109375 C 72.50150299072266 80.57682800292969 67.80043029785156 83.74648284912109 62.56626892089844 85.96034240722656 C 57.14802932739258 88.25206756591797 51.39155578613281 89.41407012939453 45.45676803588867 89.41407012939453 Z" stroke="none"/>
          <path d="M 45.45676803588867 3 C 39.72381210327148 3 34.1639404296875 4.12213134765625 28.93159484863281 6.335227966308594 C 23.87622833251953 8.473472595214844 19.33542633056641 11.53517150878906 15.43529510498047 15.435302734375 C 11.53517150878906 19.33543395996094 8.473464965820312 23.87622833251953 6.335227966308594 28.93160247802734 C 4.122123718261719 34.16394424438477 3 39.72381591796875 3 45.4572868347168 C 3 51.19024658203125 4.122123718261719 56.75011825561523 6.335227966308594 61.98246002197266 C 8.473464965820312 67.03782653808594 11.53517150878906 71.57862854003906 15.43529510498047 75.478759765625 C 19.33542633056641 79.37889099121094 23.87622833251953 82.44058990478516 28.93159484863281 84.57883453369141 C 34.1639404296875 86.79193115234375 39.72381210327148 87.9140625 45.45676803588867 87.9140625 C 51.18972396850586 87.9140625 56.74959564208984 86.79193115234375 61.98194122314453 84.57883453369141 C 67.03730773925781 82.44058990478516 71.57810974121094 79.37889099121094 75.47824096679688 75.478759765625 C 79.37837219238281 71.57862854003906 82.44007110595703 67.03782653808594 84.57830810546875 61.98246002197266 C 86.79141235351562 56.75011825561523 87.91353607177734 51.19024658203125 87.91353607177734 45.4567756652832 C 87.91353607177734 39.72381591796875 86.79141235351562 34.16394424438477 84.57830810546875 28.93160247802734 C 82.44007110595703 23.87622833251953 79.37837219238281 19.33543395996094 75.47824096679688 15.435302734375 C 71.57810974121094 11.53517150878906 67.03730773925781 8.473472595214844 61.98194122314453 6.335227966308594 C 56.74959564208984 4.12213134765625 51.18972396850586 3 45.45676803588867 3 M 45.45676803588867 0 C 70.56185150146484 0 90.91353607177734 20.35169219970703 90.91353607177734 45.4567756652832 L 90.91353607177734 45.4572868347168 C 90.91353607177734 70.5623779296875 70.56185150146484 90.9140625 45.45676803588867 90.9140625 C 20.3516845703125 90.9140625 0 70.5623779296875 0 45.4572868347168 L 0 45.4567756652832 C 0 20.35169219970703 20.3516845703125 0 45.45676803588867 0 Z" stroke="none" fill="#fff"/>
        </g>
      </g>
      <g id="Trazado_874923" data-name="Trazado 874923" transform="translate(0 0)" fill="none">
        <path d="M45.457,0A45.457,45.457,0,0,1,90.914,45.457h0A45.457,45.457,0,0,1,0,45.457H0A45.457,45.457,0,0,1,45.457,0Z" stroke="none"/>
        <path d="M 45.45676803588867 3 C 39.72381210327148 3 34.1639404296875 4.12213134765625 28.93159484863281 6.335227966308594 C 23.87622833251953 8.473472595214844 19.33542633056641 11.53517150878906 15.43529510498047 15.435302734375 C 11.53517150878906 19.33543395996094 8.473464965820312 23.87622833251953 6.335227966308594 28.93160247802734 C 4.122123718261719 34.16394424438477 3 39.72381591796875 3 45.4572868347168 C 3 51.19024658203125 4.122123718261719 56.75011825561523 6.335227966308594 61.98246002197266 C 8.473464965820312 67.03782653808594 11.53517150878906 71.57862854003906 15.43529510498047 75.478759765625 C 19.33542633056641 79.37889099121094 23.87622833251953 82.44058990478516 28.93159484863281 84.57883453369141 C 34.1639404296875 86.79193115234375 39.72381210327148 87.9140625 45.45676803588867 87.9140625 C 51.18972396850586 87.9140625 56.74959564208984 86.79193115234375 61.98194122314453 84.57883453369141 C 67.03730773925781 82.44058990478516 71.57810974121094 79.37889099121094 75.47824096679688 75.478759765625 C 79.37837219238281 71.57862854003906 82.44007110595703 67.03782653808594 84.57830810546875 61.98246002197266 C 86.79141235351562 56.75011825561523 87.91353607177734 51.19024658203125 87.91353607177734 45.4567756652832 C 87.91353607177734 39.72381591796875 86.79141235351562 34.16394424438477 84.57830810546875 28.93160247802734 C 82.44007110595703 23.87622833251953 79.37837219238281 19.33543395996094 75.47824096679688 15.435302734375 C 71.57810974121094 11.53517150878906 67.03730773925781 8.473472595214844 61.98194122314453 6.335227966308594 C 56.74959564208984 4.12213134765625 51.18972396850586 3 45.45676803588867 3 M 45.45676803588867 0 C 70.56185150146484 0 90.91353607177734 20.35169219970703 90.91353607177734 45.4567756652832 L 90.91353607177734 45.4572868347168 C 90.91353607177734 70.5623779296875 70.56185150146484 90.9140625 45.45676803588867 90.9140625 C 20.3516845703125 90.9140625 0 70.5623779296875 0 45.4572868347168 L 0 45.4567756652832 C 0 20.35169219970703 20.3516845703125 0 45.45676803588867 0 Z" stroke="none" fill="#fff"/>
      </g>
    </g>
    <g id="Grupo_1112145" data-name="Grupo 1112145" transform="translate(893.904 1312.163)">
      <g id="Grupo_1112142" data-name="Grupo 1112142" transform="translate(40.887 7.498)">
        <g id="Grupo_1112140" data-name="Grupo 1112140" transform="translate(0 18.7)">
          <path id="Trazado_903451" data-name="Trazado 903451" d="M70.039,204.095l-1.592,4.139-.573,1.492-5.631,2.164-1.806-3.476c-2.363.608-4.321,1.62-8.006-.764a6.164,6.164,0,0,1-2.931-4.717,2.028,2.028,0,0,0-1.389-1.743,5.263,5.263,0,0,1-3.138-2.854,7.728,7.728,0,0,1-.76-4.184,3.332,3.332,0,0,0-1.2-2.887c-5.737-4.783,1.428-12.311,6.4-6.374a3.3,3.3,0,0,0,2.867,1.178,7.714,7.714,0,0,1,4.21.757,5.263,5.263,0,0,1,2.854,3.138,2.028,2.028,0,0,0,1.743,1.389,6.385,6.385,0,0,1,1.162.218,6.206,6.206,0,0,1,3.555,2.713c2.384,3.684,1.373,5.643.764,8.006Z" transform="translate(-40.887 -182.705)" fill="#70d162"/>
        </g>
        <g id="Grupo_1112141" data-name="Grupo 1112141" transform="translate(2.847 18.7)">
          <path id="Trazado_903452" data-name="Trazado 903452" d="M93.871,204.094l-2.166,5.631-5.631,2.164-.533-1.026,2.962-1.139,2.166-5.631-3.477-1.806c.608-2.363,1.62-4.321-.764-8.006a6.164,6.164,0,0,0-4.717-2.931,2.028,2.028,0,0,1-1.743-1.389,5.263,5.263,0,0,0-2.854-3.138,7.714,7.714,0,0,0-4.21-.757,3.3,3.3,0,0,1-2.867-1.178,6.219,6.219,0,0,0-2.47-1.873c1.678-.68,3.826-.333,5.672,1.873a3.3,3.3,0,0,0,2.867,1.178,7.714,7.714,0,0,1,4.21.757,5.263,5.263,0,0,1,2.854,3.138,2.028,2.028,0,0,0,1.743,1.389,6.164,6.164,0,0,1,4.717,2.931c2.384,3.684,1.373,5.643.764,8.006Z" transform="translate(-67.566 -182.704)" fill="#58c945"/>
          <path id="Trazado_903453" data-name="Trazado 903453" d="M223.914,278.285l-1.592,4.139a3.686,3.686,0,0,1-2.681,1.241,3.935,3.935,0,0,1-3.547-2.274c-1.936-3.945-4.769-11.218-1.338-14.562a7.7,7.7,0,0,1,1.362-1.068,6.206,6.206,0,0,1,3.555,2.713c2.384,3.684,1.373,5.643.764,8.006Z" transform="translate(-197.609 -256.895)" fill="#58c945"/>
          <circle id="Elipse_12050" data-name="Elipse 12050" cx="7.567" cy="7.567" r="7.567" transform="translate(6.808 12.891)" fill="#58c945"/>
        </g>
        <circle id="Elipse_12051" data-name="Elipse 12051" cx="10.792" cy="10.792" r="10.792" transform="translate(13.127 0)" fill="#dcf5f8"/>
        <path id="Trazado_903454" data-name="Trazado 903454" d="M262.394,18.291A10.8,10.8,0,0,1,250,28.965a10.794,10.794,0,0,0,0-21.348,10.8,10.8,0,0,1,12.392,10.674Z" transform="translate(-227.683 -7.498)" fill="#c2eef2"/>
        <path id="Trazado_903455" data-name="Trazado 903455" d="M215.036,52.146h-2.82a.489.489,0,0,1-.489-.489V48.792a1.6,1.6,0,0,0-1.6-1.6h0a1.6,1.6,0,0,0-1.6,1.6v2.865a.489.489,0,0,1-.489.489h-2.82a1.631,1.631,0,0,0-1.644,1.524,1.6,1.6,0,0,0,1.6,1.678h2.865a.489.489,0,0,1,.489.489V58.7a1.6,1.6,0,0,0,1.6,1.6h0a1.6,1.6,0,0,0,1.6-1.6V55.837a.489.489,0,0,1,.489-.489h2.865a1.6,1.6,0,0,0,1.6-1.678A1.631,1.631,0,0,0,215.036,52.146Z" transform="translate(-186.207 -42.955)" fill="#fe646f"/>
        <path id="Trazado_903456" data-name="Trazado 903456" d="M261.166,258.1a5.709,5.709,0,0,0-7.281,1.921c-1.808-2.585-5.792-3.838-9.132-.582-3.43,3.344-.6,10.618,1.339,14.562a3.934,3.934,0,0,0,3.547,2.275c1.7,0,3.045-1.238,4.246-3.47,1.2,2.232,2.542,3.47,4.245,3.47A3.934,3.934,0,0,0,261.677,274c1.356-2.763,3.152-7.159,2.928-10.694Z" transform="translate(-221.559 -230.802)" fill="#fe646f"/>
        <path id="Trazado_903457" data-name="Trazado 903457" d="M374.238,274a3.935,3.935,0,0,1-3.547,2.274,3.3,3.3,0,0,1-1.536-.376,4.218,4.218,0,0,0,1.881-1.9c1.936-3.945,4.769-11.218,1.339-14.562a6.857,6.857,0,0,0-2.786-1.712,5.914,5.914,0,0,1,5.988,1.712C379.007,262.778,376.174,270.052,374.238,274Z" transform="translate(-334.12 -230.802)" fill="#fd4755"/>
        <path id="Trazado_903458" data-name="Trazado 903458" d="M290.126,208.3s1.34-6.47-4.762-8.64a1.233,1.233,0,0,0-1.637,1.313C284.02,203.381,285.242,207.48,290.126,208.3Z" transform="translate(-257.8 -179.09)" fill="#70d162"/>
        <circle id="Elipse_12052" data-name="Elipse 12052" cx="7.567" cy="7.567" r="7.567" transform="translate(12.858 31.591)" fill="#fea95c"/>
        <path id="Trazado_903459" data-name="Trazado 903459" d="M226.424,311.057a7.574,7.574,0,0,1-9.168,7.4,7.569,7.569,0,0,0,0-14.795,7.574,7.574,0,0,1,9.168,7.4Z" transform="translate(-198.432 -271.899)" fill="#fe9738"/>
        <path id="Trazado_903460" data-name="Trazado 903460" d="M89.789,391.171H71.973a13.338,13.338,0,0,1-13.031-10.5h0a2.509,2.509,0,0,1,2.949-2.994l3.107.629a80.034,80.034,0,0,0,31.766,0l3.107-.629a2.509,2.509,0,0,1,2.949,2.994h0A13.338,13.338,0,0,1,89.789,391.171Z" transform="translate(-56.962 -338.126)" fill="#d77f4a"/>
        <path id="Trazado_903461" data-name="Trazado 903461" d="M334.69,380.673a13.337,13.337,0,0,1-13.032,10.5h-3.2a13.337,13.337,0,0,0,13.032-10.5,2.5,2.5,0,0,0-1.187-2.7l1.44-.291A2.509,2.509,0,0,1,334.69,380.673Z" transform="translate(-288.831 -338.124)" fill="#c86d36"/>
      </g>
      <g id="Grupo_1112144" data-name="Grupo 1112144" transform="translate(40.887 7.498)">
        <path id="Trazado_903462" data-name="Trazado 903462" d="M176.717,28.891a10.786,10.786,0,1,1,2.1-.632" transform="translate(-150.751 -7.5)" fill="none" stroke="#000" stroke-linecap="round" stroke-linejoin="round" stroke-miterlimit="10" stroke-width="2"/>
        <path id="Trazado_903463" data-name="Trazado 903463" d="M215.036,52.146h-2.82a.489.489,0,0,1-.489-.489V48.792a1.6,1.6,0,0,0-1.6-1.6h0a1.6,1.6,0,0,0-1.6,1.6v2.865a.489.489,0,0,1-.489.489h-2.82a1.631,1.631,0,0,0-1.644,1.524,1.6,1.6,0,0,0,1.6,1.678h2.865a.489.489,0,0,1,.489.489V58.7a1.6,1.6,0,0,0,1.6,1.6h0a1.6,1.6,0,0,0,1.6-1.6V55.837a.489.489,0,0,1,.489-.489h2.865a1.6,1.6,0,0,0,1.6-1.678A1.631,1.631,0,0,0,215.036,52.146Z" transform="translate(-186.207 -42.955)" fill="none" stroke="#000" stroke-linecap="round" stroke-linejoin="round" stroke-miterlimit="10" stroke-width="2"/>
        <path id="Trazado_903464" data-name="Trazado 903464" d="M249.819,257.528a6.316,6.316,0,0,0-4.158,1.947,5.358,5.358,0,0,0-1.5,3.065" transform="translate(-222.467 -230.843)" fill="none" stroke="#000" stroke-linecap="round" stroke-linejoin="round" stroke-miterlimit="10" stroke-width="2"/>
        <path id="Trazado_903465" data-name="Trazado 903465" d="M351.419,258.3a5.706,5.706,0,0,0-7.651,1.721" transform="translate(-311.442 -230.802)" fill="none" stroke="#000" stroke-linecap="round" stroke-linejoin="round" stroke-miterlimit="10" stroke-width="2"/>
        <path id="Trazado_903466" data-name="Trazado 903466" d="M430.565,299.119c1.225-3.23,2.115-7.078.888-9.737" transform="translate(-388.975 -259.297)" fill="none" stroke="#000" stroke-linecap="round" stroke-linejoin="round" stroke-miterlimit="10" stroke-width="2"/>
        <path id="Trazado_903467" data-name="Trazado 903467" d="M81.752,391.171H71.973a13.338,13.338,0,0,1-13.031-10.5h0a2.509,2.509,0,0,1,2.949-2.994l3.107.629a80.034,80.034,0,0,0,31.766,0l3.107-.629a2.509,2.509,0,0,1,2.949,2.994h0a13.338,13.338,0,0,1-13.031,10.5H85.628" transform="translate(-56.962 -338.126)" fill="none" stroke="#000" stroke-linecap="round" stroke-linejoin="round" stroke-miterlimit="10" stroke-width="2"/>
        <g id="Grupo_1112143" data-name="Grupo 1112143" transform="translate(0 18.699)">
          <path id="Trazado_903468" data-name="Trazado 903468" d="M64.191,192.533a6.109,6.109,0,0,0-3.11-1.183,2.031,2.031,0,0,1-1.743-1.389,5.262,5.262,0,0,0-2.854-3.138,7.714,7.714,0,0,0-4.21-.757,3.3,3.3,0,0,1-2.867-1.178c-4.967-5.937-12.132,1.591-6.395,6.374a3.331,3.331,0,0,1,1.2,2.887,7.715,7.715,0,0,0,.76,4.183,5.262,5.262,0,0,0,3.138,2.854A2.031,2.031,0,0,1,49.5,202.93a6.345,6.345,0,0,0,.3,1.431" transform="translate(-40.887 -182.704)" fill="none" stroke="#000" stroke-linecap="round" stroke-linejoin="round" stroke-miterlimit="10" stroke-width="2"/>
          <line id="Línea_631" data-name="Línea 631" x2="9.41" y2="9.41" transform="translate(5.663 5.697)" fill="none" stroke="#000" stroke-linecap="round" stroke-linejoin="round" stroke-miterlimit="10" stroke-width="2"/>
        </g>
        <path id="Trazado_903469" data-name="Trazado 903469" d="M163.956,309.018a7.569,7.569,0,1,1,14.421,4.574" transform="translate(-150.821 -271.898)" fill="none" stroke="#000" stroke-linecap="round" stroke-linejoin="round" stroke-miterlimit="10" stroke-width="2"/>
        <line id="Línea_632" data-name="Línea 632" transform="translate(20.75 35.767)" fill="none" stroke="#000" stroke-linecap="round" stroke-linejoin="round" stroke-miterlimit="10" stroke-width="2"/>
        <line id="Línea_633" data-name="Línea 633" transform="translate(19.307 37.811)" fill="none" stroke="#000" stroke-linecap="round" stroke-linejoin="round" stroke-miterlimit="10" stroke-width="2"/>
        <path id="Trazado_903470" data-name="Trazado 903470" d="M290.126,208.3s1.34-6.47-4.762-8.64a1.233,1.233,0,0,0-1.637,1.313C284.02,203.381,285.242,207.48,290.126,208.3Z" transform="translate(-257.8 -179.09)" fill="none" stroke="#000" stroke-linecap="round" stroke-linejoin="round" stroke-miterlimit="10" stroke-width="2"/>
      </g>
    </g>
  </g>
</svg>
